<svg width="330" height="287" viewBox="0 0 330 287" fill="none" xmlns="http://www.w3.org/2000/svg">
<g id="Group">
<g id="Group_2">
<path id="Vector" d="M151.463 279.142C123.07 279.142 96.3721 277.023 76.2872 273.177C56.0789 269.305 44.9522 264.103 44.9522 258.526C44.9522 252.201 59.4496 246.333 84.7302 242.422L85.0415 242.374V244.644C85.0415 247.301 85.8305 249.877 87.3173 252.093C87.7789 252.776 88.2888 253.406 88.8362 253.965C91.053 256.245 93.9997 257.665 97.1343 257.961C97.5637 257.999 97.9823 258.02 98.3849 258.02H202.819C210.178 258.02 216.168 252.018 216.168 244.644V242.116L216.474 242.159C242.838 246.069 257.964 252.034 257.964 258.521C257.964 264.098 246.837 269.299 226.629 273.172C206.549 277.023 179.852 279.142 151.463 279.142ZM84.5047 242.998C60.0668 246.811 45.4889 252.609 45.4889 258.526C45.4889 263.738 56.7498 268.89 76.3892 272.65C96.4419 276.49 123.102 278.604 151.463 278.604C179.825 278.604 206.485 276.49 226.532 272.65C246.172 268.89 257.432 263.743 257.432 258.526C257.432 252.448 242.216 246.553 216.71 242.74V244.644C216.71 252.314 210.478 258.558 202.824 258.558H98.3903C97.9716 258.558 97.5315 258.537 97.086 258.499C93.8226 258.192 90.7578 256.713 88.4552 254.341C87.8862 253.761 87.3548 253.104 86.8718 252.394C85.3206 250.087 84.4994 247.408 84.4994 244.644V242.998H84.5047Z" fill="#E5E5E5"/>
</g>
<g id="Group_3">
<path id="Vector_2" d="M67.1626 201.26C66.8835 200.351 66.0193 199.658 65.2303 199.077C60.7217 195.753 55.6978 193.273 50.2981 191.697C49.5789 191.488 48.8489 191.294 48.119 191.1C45.0918 190.293 41.9625 189.46 39.413 187.556C37.6901 186.27 36.3697 184.286 35.8759 182.242C35.3713 180.23 35.7149 178.315 36.842 176.863C38.5972 174.604 41.5063 174.093 44.3188 173.604C46.8147 173.168 49.1817 172.754 50.7651 171.227C46.1223 164.202 38.098 161.136 29.6175 157.888C24.4111 155.898 19.0329 153.838 14.4706 150.772C12.2485 149.277 7.18163 145.232 8.07262 139.956C9.22125 133.2 18.0346 131.974 25.5973 132.99C24.0353 128.806 20.9866 125.466 17.7662 121.937C16.2311 120.254 14.6423 118.511 13.2522 116.688C10.8959 113.595 9.31249 109.814 8.90457 106.307C8.42687 102.166 9.5755 98.7719 12.2324 96.4806C14.3471 94.6573 16.9289 93.872 19.9239 94.1517C24.878 94.6089 30.6373 98.0996 34.5877 103.042C34.8453 103.365 35.103 103.699 35.366 104.027C37.2285 106.404 39.15 108.862 41.8874 109.938C43.6211 110.626 45.9237 110.363 47.491 109.303C48.2371 108.798 49.1281 107.899 49.1388 106.496C49.1442 105.829 48.9456 105.162 48.7416 104.452C48.5108 103.666 48.2746 102.849 48.3015 101.983C48.3551 100.601 49.1066 99.3689 50.4162 98.5245C52.1445 97.4111 54.5545 97.1691 56.4063 97.9329C59.5623 99.2345 61.4409 102.322 62.9492 105.119C67.6296 113.773 71.478 122.916 74.3925 132.302C74.9829 134.227 75.8256 136.234 77.5432 136.524C79.6204 136.879 80.8656 134.625 82.1807 132.243C82.8516 131.027 83.544 129.774 84.3759 128.876L85.1649 129.607C84.4242 130.409 83.764 131.608 83.12 132.764C81.7459 135.249 80.1893 138.062 77.3661 137.584C75.0581 137.196 74.0168 134.728 73.3673 132.619C70.4743 123.304 66.6527 114.219 62.0099 105.63C60.5875 102.999 58.8324 100.095 56.0037 98.9279C54.4633 98.2932 52.4505 98.4922 51.0013 99.4281C49.9922 100.079 49.4179 100.999 49.3803 102.021C49.3535 102.714 49.5574 103.408 49.7775 104.145C49.9976 104.898 50.223 105.673 50.2176 106.501C50.2069 107.964 49.4501 109.271 48.0921 110.191C46.2243 111.455 43.5728 111.756 41.4956 110.933C38.4898 109.744 36.4717 107.173 34.5233 104.683C34.2657 104.355 34.008 104.027 33.7557 103.709C30.6587 99.8369 25.1571 95.7061 19.8326 95.2167C17.1436 94.9693 14.8248 95.6631 12.9409 97.2928C9.10316 100.601 8.21217 108.292 14.111 116.037C15.4743 117.823 17.047 119.549 18.5659 121.217C21.9206 124.896 25.3879 128.693 26.9123 133.496L27.1753 134.33L26.3165 134.195C19.0544 133.039 10.1981 133.905 9.13537 140.149C8.34636 144.802 13.0268 148.513 15.0717 149.89C19.5321 152.886 24.8512 154.924 29.9985 156.893C38.4093 160.109 47.0992 163.438 51.8976 171.017L52.1123 171.361L51.844 171.662C50.0244 173.711 47.2173 174.206 44.5013 174.68C41.7693 175.158 39.1876 175.61 37.6847 177.541C36.7669 178.73 36.4931 180.311 36.9118 182C37.3466 183.807 38.522 185.566 40.0517 186.706C42.4349 188.486 45.4621 189.293 48.3927 190.073C49.1334 190.272 49.8688 190.466 50.5934 190.675C56.1164 192.284 61.2531 194.822 65.8583 198.216C66.7869 198.899 67.8013 199.727 68.177 200.948L67.1626 201.26Z" fill="#E5E5E5"/>
</g>
<g id="Group_4">
<g id="Group_5">
<path id="Vector_3" d="M89.3676 209.081C84.3705 177.745 80.5221 168.457 60.5016 143.893C54.6887 136.761 48.3336 130.102 41.5063 123.938C40.8246 123.325 39.8102 124.331 40.4972 124.949C64.0817 146.248 81.8801 173.749 91.5307 204.073C94.2198 212.518 86.5873 200.712 87.9828 209.463C88.1385 210.366 89.5125 209.979 89.3676 209.081Z" fill="#E5E5E5"/>
</g>
</g>
<g id="Group_6">
<path id="Vector_4" d="M84.7731 206.327V217.332C83.0287 216.03 81.2574 214.771 79.4755 213.54C78.3751 212.781 77.2694 212.034 76.153 211.302C65.9227 204.557 54.9732 198.797 43.5298 194.446C36.9386 191.939 30.1434 189.928 23.1712 188.847C22.4895 188.739 22.1943 189.783 22.8813 189.89C35.3391 191.826 47.3031 196.592 58.4888 202.293C64.4896 205.348 70.3508 208.731 75.992 212.459C78.987 214.438 81.923 216.514 84.7731 218.687V227.562C83.8714 227.615 82.9643 227.605 82.0626 227.535C79.4164 227.32 76.8078 226.567 74.4945 225.308C72.5032 224.232 70.7319 222.785 69.3418 220.994C67.0982 218.101 65.6812 214.416 62.5681 212.442C58.1077 209.613 52.2733 211.453 47.1904 212.959C42.1074 214.465 35.6504 215.159 32.3709 211.055C29.7033 207.72 30.3742 202.449 27.2504 199.518C24.7707 197.189 20.9276 197.286 17.4978 197.194C9.83311 196.99 0.590404 193.375 0.0268243 185.851C-0.316691 181.311 2.85009 177.186 6.54288 174.443C14.2129 168.747 26.6439 167.929 32.489 175.433C36.2677 180.279 37.8296 188.389 44.0236 188.814C46.4336 188.976 48.6825 187.749 51.0227 187.163C57.7427 185.48 65.4128 190.051 67.0016 196.694C67.7369 199.781 68.3327 204.143 71.5531 204.186C72.8681 204.208 74.0061 203.363 75.2298 202.906C78.7133 201.61 82.1162 203.498 84.7731 206.327Z" fill="#E5E5E5"/>
</g>
<g id="Group_7">
<g id="Group_8">
<path id="Vector_5" d="M273.68 103.241C272.187 106.549 270.25 109.637 268.012 112.487C265.612 115.548 262.698 118.183 260.454 121.373C258.028 124.826 256.804 128.741 258.259 132.856C259.477 136.287 261.823 139.181 263.626 142.301C267.051 148.222 267.26 154.44 263.181 160.12C261.705 162.164 259.971 163.906 258.076 165.45C258.066 165.455 258.06 165.461 258.055 165.466C256.074 167.09 253.927 168.5 251.721 169.833C251.716 169.833 251.711 169.833 251.711 169.839C249.998 170.877 248.249 171.872 246.531 172.883C240.187 176.616 232.946 181.526 232.109 189.438C232.077 189.723 232.05 190.008 232.039 190.299C231.819 195.032 233.665 199.577 234.707 204.122C235.458 207.419 235.743 210.743 235.351 214.11C235.297 214.578 235.233 215.04 235.152 215.508C235.147 215.508 235.152 215.514 235.152 215.514C234.932 216.864 234.621 218.187 234.224 219.488C232.082 226.567 227.445 232.811 221.374 236.958C221.374 236.963 221.374 236.963 221.369 236.963C221.149 237.119 220.929 237.27 220.703 237.41C219.769 238.017 218.808 238.577 217.81 239.077H217.805C217.354 239.308 216.903 239.529 216.441 239.733V237.706C217.531 237.195 218.588 236.603 219.614 235.947C219.705 235.888 219.796 235.828 219.887 235.769C219.903 235.758 219.919 235.748 219.936 235.737C221.803 234.495 223.537 233.037 225.099 231.413C227.004 229.428 228.658 227.185 229.983 224.77V224.765C230.848 223.194 231.572 221.559 232.146 219.87C232.297 219.435 232.431 218.994 232.56 218.552C232.554 218.547 232.56 218.547 232.56 218.547C233.359 215.777 233.757 212.9 233.66 210.006C233.515 205.881 232.163 201.992 231.18 198.017C230.681 195.989 230.37 193.999 230.316 192.063C230.316 192.058 230.316 192.058 230.316 192.058C230.177 187.54 231.395 183.323 234.701 179.553C239.14 174.481 245.35 171.549 251.018 168.145C256.906 164.611 264.104 159.135 264.501 151.622C264.866 144.699 258.823 139.762 256.574 133.668C254.207 127.241 257.497 121.652 261.667 116.887C266.632 111.218 271.291 105.689 273.567 98.3362C275.692 91.4786 275.231 83.6796 269.412 78.7583C263.535 73.7938 254.727 73.5895 247.562 75.1654C234.358 78.0644 220.032 89.2249 220.317 103.962C220.537 115.295 233.708 131.049 221.342 140.101C219.812 141.22 218.121 142.064 216.441 142.925V140.859C217.579 140.268 218.706 139.649 219.769 138.923C223.301 136.513 225.002 132.931 224.729 128.677C224.235 120.985 219.662 114.165 218.647 106.549C217.783 100.047 219.882 93.5816 223.698 88.3375C231.824 77.1608 246.998 70.5022 260.701 72.9279C267.115 74.0628 272.998 77.8009 275.435 84.0561C277.877 90.3168 276.358 97.3251 273.68 103.241Z" fill="#E5E5E5"/>
</g>
</g>
<g id="Group_9">
<g id="Group_10">
<path id="Vector_6" d="M249.478 112.407C243.37 121.184 238.351 130.661 234.358 140.585C224.541 164.982 220.44 190.944 216.441 216.88V205.316C221.744 172.464 228.566 139.17 247.868 111.46C248.549 110.481 250.17 111.417 249.478 112.407Z" fill="#E5E5E5"/>
</g>
</g>
<g id="Group_11">
<path id="Vector_7" d="M219.377 234.527C217.214 216.665 224.197 198.453 235.855 184.598C247.519 170.742 263.503 160.91 280.378 153.977C289.664 150.164 299.749 147.114 309.679 148.733C319.603 150.352 329.147 157.882 329.941 167.747C330.676 176.82 324.16 184.942 316.914 190.605C298.338 205.122 273.814 209.807 253.235 221.414C242.661 227.379 232.903 235.269 221.1 238.276L219.377 234.527Z" fill="#E5E5E5"/>
</g>
<g id="Group_12">
<g id="Group_13">
<path id="Vector_8" d="M296.964 171.797C288.891 175.459 281.092 179.703 273.653 184.528C250.101 199.814 230.3 220.709 216.431 245.128C216.436 244.967 216.441 244.805 216.441 244.644V241.352C218.776 237.399 221.272 233.542 223.924 229.788C242.157 203.96 267.26 183.215 296.024 170.178C297.114 169.688 298.058 171.302 296.964 171.797Z" fill="#E5E5E5"/>
</g>
</g>
<g id="Group_14">
<path id="Vector_9" d="M202.824 258.827H98.3902C97.9608 258.827 97.5153 258.806 97.0645 258.768C93.7367 258.456 90.6128 256.95 88.2619 254.53C87.6822 253.938 87.1401 253.271 86.6517 252.545C85.0683 250.195 84.2363 247.462 84.2363 244.644V71.1153C84.2363 63.2949 90.586 56.9321 98.3902 56.9321H202.824C210.628 56.9321 216.978 63.2949 216.978 71.1153V241.352L216.967 245.139C216.962 245.327 216.951 245.504 216.941 245.671C216.935 245.773 216.93 245.881 216.919 245.983L216.844 246.618C216.822 246.784 216.796 246.951 216.763 247.113C216.737 247.285 216.699 247.462 216.661 247.64C216.629 247.785 216.597 247.941 216.559 248.091L216.495 248.339C216.457 248.479 216.42 248.608 216.382 248.726C216.355 248.828 216.318 248.941 216.28 249.06L216.001 249.84C215.974 249.904 215.953 249.969 215.921 250.028C215.889 250.114 215.846 250.216 215.797 250.318C215.754 250.426 215.695 250.56 215.626 250.689C215.599 250.743 215.561 250.824 215.518 250.904C215.47 251.001 215.411 251.125 215.352 251.243C215.293 251.362 215.223 251.485 215.148 251.614C215.121 251.663 215.094 251.711 215.062 251.76C214.981 251.905 214.896 252.045 214.804 252.19C214.772 252.244 214.718 252.324 214.665 252.4C214.611 252.491 214.536 252.604 214.455 252.717L214.439 252.76L214.364 252.846C214.246 253.018 214.117 253.19 213.988 253.352C213.86 253.518 213.715 253.691 213.564 253.863C213.446 254.008 213.312 254.158 213.178 254.298C213.13 254.357 213.081 254.406 213.028 254.454C212.92 254.567 212.813 254.68 212.706 254.782C212.663 254.825 212.62 254.868 212.571 254.906C212.459 255.019 212.319 255.154 212.164 255.283C212.019 255.412 211.858 255.546 211.697 255.681C211.546 255.804 211.391 255.923 211.23 256.036C211.09 256.143 210.94 256.251 210.784 256.358L210.661 256.477H210.602C210.489 256.552 210.371 256.627 210.258 256.697C210.038 256.837 209.797 256.982 209.555 257.111L209.458 257.165C209.367 257.214 209.276 257.262 209.179 257.305C209.099 257.353 208.965 257.418 208.836 257.477C208.487 257.649 208.09 257.816 207.682 257.961C207.472 258.042 207.252 258.117 207.022 258.187C206.361 258.402 205.658 258.564 204.934 258.671C204.703 258.703 204.477 258.73 204.241 258.757C203.796 258.8 203.318 258.827 202.824 258.827ZM98.3902 58.0078C91.1764 58.0078 85.3098 63.8865 85.3098 71.1153V244.644C85.3098 247.247 86.0827 249.77 87.5427 251.943C87.9935 252.615 88.4981 253.228 89.0294 253.777C91.2032 256.014 94.0909 257.407 97.1611 257.698C97.5797 257.735 97.993 257.757 98.3902 257.757H202.824C203.28 257.757 203.715 257.735 204.123 257.692C204.349 257.671 204.558 257.644 204.767 257.612C205.433 257.515 206.077 257.364 206.694 257.165C206.909 257.101 207.102 257.036 207.301 256.961C207.687 256.821 208.041 256.676 208.369 256.514C208.487 256.461 208.589 256.412 208.691 256.358C208.809 256.305 208.879 256.262 208.948 256.224L209.05 256.17C209.265 256.057 209.48 255.928 209.689 255.794C209.839 255.702 209.979 255.611 210.113 255.519L210.263 255.422C210.376 255.347 210.484 255.266 210.591 255.18C210.747 255.067 210.881 254.965 211.015 254.858C211.16 254.739 211.31 254.61 211.455 254.481C211.6 254.358 211.729 254.234 211.852 254.11L212.287 254.444L211.911 254.056C212.051 253.922 212.153 253.82 212.249 253.707L212.292 253.664C212.308 253.648 212.33 253.631 212.346 253.61L212.384 253.567C212.507 253.438 212.625 253.303 212.743 253.163C212.883 253.002 213.017 252.852 213.135 252.685C213.258 252.529 213.371 252.378 213.473 252.228L213.521 252.158C213.607 252.034 213.688 251.921 213.763 251.797C213.822 251.711 213.854 251.663 213.881 251.614C213.978 251.464 214.053 251.335 214.123 251.211L214.203 251.077C214.268 250.964 214.332 250.851 214.391 250.727C214.45 250.619 214.498 250.517 214.547 250.41C214.59 250.324 214.616 250.264 214.643 250.205C214.708 250.082 214.751 249.979 214.794 249.877C214.842 249.77 214.874 249.689 214.906 249.608C214.939 249.533 214.96 249.485 214.981 249.431L215.244 248.705C215.282 248.602 215.309 248.506 215.341 248.403C215.384 248.274 215.411 248.167 215.443 248.059L215.502 247.817C215.54 247.677 215.566 247.537 215.599 247.392C215.636 247.231 215.663 247.08 215.69 246.924C215.717 246.768 215.744 246.612 215.765 246.462L215.84 245.843C215.851 245.768 215.851 245.682 215.856 245.596C215.867 245.434 215.878 245.273 215.883 245.117L215.894 241.341V71.1153C215.894 63.8865 210.027 58.0078 202.813 58.0078H98.3902Z" fill="#E5E5E5"/>
</g>
<g id="Group_15">
<path id="Vector_10" d="M141.464 124.137H109.184V92.3714H141.464V124.137ZM110.258 123.061H140.39V93.4471H110.258V123.061Z" fill="#E5E5E5"/>
</g>
<g id="Group_16">
<path id="Vector_11" d="M188.187 124.137H155.908V92.3714H188.187V124.137ZM156.981 123.061H187.114V93.4471H156.981V123.061Z" fill="#E5E5E5"/>
</g>
<g id="Group_17">
<path id="Vector_12" d="M188.187 171.42H155.908V139.654H188.187V171.42ZM156.981 170.344H187.114V140.73H156.981V170.344Z" fill="#E5E5E5"/>
</g>
<g id="Group_18">
<path id="Vector_13" d="M141.367 171.42H109.088V139.654H141.367V171.42ZM110.161 170.344H140.294V140.73H110.161V170.344Z" fill="#E5E5E5"/>
</g>
<g id="Group_19">
<g id="Group_20">
<g id="Group_21">
<path id="Vector_14" d="M84.4725 25.1609C84.4725 26.8229 84.4725 28.4849 84.4725 30.1522C84.4725 30.5449 85.0844 30.5449 85.0844 30.1522C85.0844 28.4902 85.0844 26.8283 85.0844 25.1609C85.0844 24.7683 84.4725 24.7683 84.4725 25.1609Z" fill="#E5E5E5"/>
</g>
</g>
<g id="Group_22">
<g id="Group_23">
<path id="Vector_15" d="M82.4007 27.9793C83.9358 27.904 85.4708 27.9309 87.0006 28.06C87.3924 28.0922 87.3924 27.4791 87.0006 27.4468C85.4655 27.3177 83.9358 27.2908 82.4007 27.3661C82.0089 27.3876 82.0089 28.0008 82.4007 27.9793Z" fill="#E5E5E5"/>
</g>
</g>
</g>
<g id="Group_24">
<path id="Vector_16" d="M169.691 208.952H126.575V211.931H169.691V208.952Z" fill="#E5E5E5"/>
</g>
<g id="Group_25">
<path id="Vector_17" d="M169.691 219.316H126.575V222.296H169.691V219.316Z" fill="#E5E5E5"/>
</g>
<g id="Group_26">
<path id="Vector_18" d="M169.691 229.686H126.575V232.666H169.691V229.686Z" fill="#E5E5E5"/>
</g>
<g id="Group_27">
<path id="Vector_19" d="M228.083 38.1286C227.536 36.0794 227.944 34.6379 229.49 33.1642C231.035 31.6905 233.853 31.5022 235.92 32.11C235.667 30.6309 236.451 29.0389 237.788 28.3181C239.124 27.5974 240.917 27.8072 242.044 28.813C241.556 24.7468 244.663 20.573 248.759 19.8039C252.849 19.0347 257.304 21.7886 258.377 25.7472C259.805 25.0749 261.624 25.3223 262.811 26.3496C263.997 27.3769 264.48 29.1249 263.986 30.5986C265.671 30.803 267.217 31.8787 267.979 33.3686C268.742 34.8585 268.693 36.7194 267.851 38.1717C256.182 38.2685 229.49 38.2308 228.083 38.1286Z" fill="#E5E5E5"/>
</g>
<g id="Group_28">
<path id="Vector_20" d="M36.536 47.2829C35.586 46.0459 35.4357 44.2709 36.155 42.8994C36.8796 41.5279 38.4415 40.6243 40.0141 40.6673C38.1302 37.4133 39.3539 32.7877 42.612 30.846C45.8646 28.9044 50.6041 29.9801 52.6652 33.1266C52.9067 31.7174 54.2163 30.5556 55.6655 30.4695C57.1148 30.3835 58.5586 31.3785 58.9665 32.7501C60.0507 31.9971 61.3067 31.4915 62.6056 31.2225C66.2823 30.4642 70.3186 31.7389 72.8628 34.4604C75.4016 37.182 76.3516 41.2482 75.2728 44.7819C75.6914 44.0128 76.9044 44.2333 77.6076 44.7658C78.4825 45.422 79.1266 46.6321 78.5845 47.5734C78.5845 47.5734 50.7597 47.1754 36.74 47.5465" fill="#E5E5E5"/>
</g>
<g id="Group_29">
<path id="Vector_21" d="M241.953 28.7377C242.57 27.8394 242.672 26.5486 242.2 25.5535C241.727 24.5531 240.708 23.8969 239.677 23.9346C240.906 21.568 240.106 18.2064 237.981 16.7972C235.85 15.3881 232.753 16.168 231.406 18.4538C231.25 17.4319 230.391 16.5875 229.441 16.5229C228.491 16.4584 227.547 17.1845 227.278 18.1795C226.57 17.6309 225.748 17.2652 224.9 17.0662C222.496 16.5122 219.855 17.4427 218.191 19.4166C216.527 21.3959 215.91 24.3487 216.613 26.9197C216.339 26.3603 215.545 26.5217 215.083 26.9089C214.514 27.3876 214.09 28.2643 214.445 28.9474C214.445 28.9474 232.646 28.657 241.813 28.9259" fill="#E5E5E5"/>
</g>
<g id="Group_30">
<g id="Group_31">
<path id="Vector_22" d="M101.713 47.9176C99.3456 48.3318 96.9893 48.8373 94.6653 49.4344C94.2573 49.5366 93.8065 49.6764 93.5971 50.0368C93.3663 50.4348 93.5381 50.9673 93.8762 51.2792C94.2144 51.5965 94.6814 51.7364 95.1322 51.8547C97.3543 52.4141 99.7053 52.484 101.954 52.0591C102.078 52.0376 102.206 52.0053 102.303 51.9246C102.459 51.7902 102.464 51.5643 102.453 51.3599C102.394 50.1712 102.147 48.9933 101.713 47.88V47.9176Z" fill="#E5E5E5"/>
</g>
<g id="Group_32">
<path id="Vector_23" d="M169.965 64.6503C169.992 64.5858 169.863 64.5481 169.825 64.6073C169.782 64.6664 169.809 64.7471 169.841 64.8117C170.249 65.7368 170.904 66.5328 171.409 67.4149C171.908 68.297 172.251 69.3458 171.94 70.3086C171.86 70.5613 171.725 70.8088 171.505 70.9594C171.017 71.2875 170.351 71.0078 169.863 70.6851C168.296 69.6524 167.056 68.1571 166.353 66.4414C167.689 65.7583 168.977 64.9945 170.217 64.1555L169.965 64.6503Z" fill="#E5E5E5"/>
</g>
<g id="Group_33">
<path id="Vector_24" d="M129.902 54.3127C130.283 56.4265 130.67 58.5456 131.051 60.6594C131.105 60.9499 131.18 61.2726 131.47 61.4339C131.717 61.5738 132.039 61.5469 132.339 61.5361C139.065 61.2941 145.581 61.4285 152.22 61.5523C152.462 61.5576 152.746 60.9767 152.913 60.8369C153.047 60.724 153.074 60.5572 153.095 60.4012C153.417 57.9863 153.283 55.5336 152.709 53.1509C145.124 53.2746 137.54 53.6619 129.994 54.2966L129.902 54.3127Z" fill="#E5E5E5"/>
</g>
<g id="Group_34">
<path id="Vector_25" d="M139.027 13.8068C138.544 14.9363 138.549 15.8345 138.544 17.0554C138.539 18.2548 138.952 19.3897 139.837 20.0459C141.029 20.9172 142.258 20.3632 143.026 19.4758C143.793 18.5883 143.981 17.3405 143.852 16.1841C143.724 15.0116 143.23 13.7799 142.178 13.2098C141.131 12.6396 139.215 12.645 139.027 13.8068Z" fill="#E5E5E5"/>
</g>
<g id="Group_35">
<path id="Vector_26" d="M138.678 17.1253C138.442 16.964 137.996 17.0877 137.787 17.2867C137.583 17.4857 137.546 17.8299 137.707 18.0666C137.986 18.4754 138.598 18.4162 139.086 18.314C139.027 17.8999 138.887 17.4965 138.678 17.1253Z" fill="#E5E5E5"/>
</g>
<g id="Group_36">
<path id="Vector_27" d="M143.75 17.1253C143.987 16.964 144.437 17.0877 144.641 17.2867C144.845 17.4857 144.883 17.8299 144.722 18.0666C144.443 18.4754 143.831 18.4162 143.342 18.314C143.401 17.8999 143.541 17.4965 143.75 17.1253Z" fill="#E5E5E5"/>
</g>
<g id="Group_37">
<path id="Vector_28" d="M143.815 15.7215C144.024 16.8941 143.852 18.1688 143.536 19.3198C143.412 19.3037 143.294 19.3198 143.149 19.3198C143.412 18.0505 143.514 16.6628 143.214 15.3988C143.171 15.7861 142.645 15.9098 142.247 15.8452C141.856 15.7807 141.421 15.6301 141.077 15.8291C140.68 16.0604 140.535 16.7058 140.068 16.7058C139.891 16.7058 139.719 16.5982 139.542 16.609C139.134 16.6251 138.984 17.1737 138.608 17.3351C138.2 17.5126 137.75 17.1522 137.546 16.7596C137.229 16.1411 137.229 15.3988 137.465 14.748C137.701 14.0972 138.158 13.5378 138.7 13.0968C138.973 12.8709 139.279 12.6773 139.612 12.5482C140.567 12.1771 141.711 12.4352 142.494 13.0807C143.289 13.7315 143.729 14.7211 143.815 15.7215Z" fill="#E5E5E5"/>
</g>
<g id="Group_38">
<path id="Vector_29" d="M138.351 16.7972C138.415 17.6363 138.721 18.5775 138.963 19.3897C139.097 19.3682 139.446 19.3574 139.349 19.379C139.301 19.3897 139.14 18.6959 139.091 18.5023C138.914 17.7546 138.93 16.9317 138.909 16.1626L138.351 16.7972Z" fill="#E5E5E5"/>
</g>
<g id="Group_39">
<path id="Vector_30" d="M140.637 20.0513C140.686 20.8473 140.734 21.6433 140.782 22.434C139.301 23.0041 134.486 24.4133 134.245 25.1663C133.939 26.1183 134.121 27.4145 134.148 28.0976C136.655 28.2213 139.494 27.8609 141.995 27.9847C144.4 28.103 146.831 28.2213 149.204 27.8072C149.327 27.1456 149.043 25.6288 148.624 25.0318C148.039 24.1981 142.918 22.6169 141.947 22.4931C141.952 21.6326 141.845 20.7612 141.85 19.9007C141.593 19.9061 140.906 19.9061 140.653 19.9114L140.637 20.0513Z" fill="#E5E5E5"/>
</g>
<g id="Group_40">
<path id="Vector_31" d="M140.106 22.52C140.197 23.0848 140.793 23.472 141.373 23.4398C142.011 23.4021 142.505 23.0687 142.586 22.5631C143.176 22.6169 151.029 25.2039 151.27 25.5105C152.134 26.6239 153.567 53.6888 153.669 55.2647C152.569 55.5175 131.561 55.4153 129.902 55.2593C129.065 33.9226 131.244 25.8225 131.244 25.8225C132.575 24.4617 138.678 22.9449 140.106 22.52Z" fill="#E5E5E5"/>
</g>
<g id="Group_41">
<path id="Vector_32" d="M141.346 94.1463C141.201 95.1306 141.056 96.1203 140.911 97.1045C140.89 97.2551 140.863 97.4111 140.777 97.5348C140.675 97.6801 140.503 97.7607 140.337 97.836C137.744 99.0032 135.152 100.165 132.559 101.332C133.268 99.9175 133.633 98.3416 133.638 96.7657C134.98 95.6523 136.155 94.3453 137.116 92.9093C138.42 93.3718 139.778 93.6999 141.158 93.8774L141.346 94.1463Z" fill="#E5E5E5"/>
</g>
<g id="Group_42">
<path id="Vector_33" d="M136.998 90.3061C140.138 79.3714 144.046 68.6466 148.694 58.2391C149.107 57.3086 149.654 56.4426 150.384 55.7219C151.56 54.5601 152.601 53.9255 154.533 53.9039C156.482 53.8878 158.462 55.2593 159.804 56.6416C160.958 57.8357 161.227 59.6536 160.905 61.2672C160.583 62.8808 159.756 64.3491 158.935 65.7852C153.347 75.6011 147.76 85.4223 142.167 95.2382C140.133 94.5551 138.023 94.0711 135.892 93.7968C136.451 91.8443 137.052 89.9027 137.685 87.9718L136.998 90.3061Z" fill="#E5E5E5"/>
</g>
<g id="Group_43">
<path id="Vector_34" d="M140.401 94.1463C140.546 95.1306 140.691 96.1203 140.836 97.1045C140.857 97.2551 140.884 97.4111 140.97 97.5348C141.072 97.6801 141.244 97.7607 141.41 97.836C144.003 99.0032 146.595 100.165 149.188 101.332C148.479 99.9175 148.114 98.3416 148.109 96.7657C146.767 95.6523 145.591 94.3453 144.631 92.9093C143.326 93.3718 141.968 93.6999 140.589 93.8774L140.401 94.1463Z" fill="#E5E5E5"/>
</g>
<g id="Group_44">
<path id="Vector_35" d="M144.808 89.9403C141.673 79.0057 137.76 68.2808 133.112 57.8733C132.699 56.9428 132.167 56.0607 131.421 55.3561C130.262 54.2589 128.26 53.8502 126.875 53.9093C124.927 53.99 123.343 54.8936 122.007 56.2813C120.853 57.4753 120.585 59.2933 120.907 60.9068C121.229 62.5204 122.055 63.9887 122.876 65.4248C128.464 75.2407 134.051 85.0619 139.644 94.8778C141.679 94.1947 143.783 93.7107 145.919 93.4364C145.361 91.4839 144.759 89.5423 144.126 87.6114L144.808 89.9403Z" fill="#E5E5E5"/>
</g>
<g id="Group_45">
<path id="Vector_36" d="M131.244 25.8171C128.711 28.7914 126.628 31.5238 124.293 34.6487C116.634 44.8787 102.303 47.2722 100.017 47.6971C100.655 49.6065 100.918 51.6396 100.779 53.6458C103.715 54.7914 120.772 51.9354 129.162 40.7426C129.409 40.4145 129.72 40.1187 129.854 39.7261C129.967 39.3872 129.956 39.0268 129.94 38.6719C129.79 34.7509 131.395 29.7435 131.244 25.8171Z" fill="#E5E5E5"/>
</g>
<g id="Group_46">
<path id="Vector_37" d="M150.953 25.5159C151.984 25.3115 154.131 26.9681 155.086 28.0169C156.503 29.5821 157.523 31.4484 158.43 33.3471C159.472 35.5308 160.373 37.7736 161.13 40.0649C162.493 44.1795 168.043 60.6971 171.108 63.8113C169.391 65.2366 167.555 66.5167 165.623 67.6354C161.388 63.5101 152.768 38.9085 152.542 38.3169C152.381 37.8866 152.328 37.424 152.274 36.9669C151.834 33.1481 151.394 29.3347 150.953 25.5159Z" fill="#E5E5E5"/>
</g>
</g>
<g id="Group_47">
<g id="Group_48">
<path id="Vector_38" d="M187.758 35.4124C188.413 35.5308 188.66 34.5788 187.999 34.4551C187.339 34.3314 187.124 35.2242 187.758 35.4124Z" fill="#E5E5E5"/>
</g>
<g id="Group_49">
<path id="Vector_39" d="M182.525 34.7563C182.691 34.81 182.863 34.8585 183.029 34.9122C183.163 34.9553 183.228 35.0521 183.244 35.1812C183.324 35.9503 183.544 36.5903 183.936 37.2627C183.985 37.3433 184.001 37.4671 183.936 37.5424C183.764 37.7521 183.598 37.9619 183.432 38.1716C183.083 38.6073 183.217 38.5266 183.673 38.93C183.662 39.1828 183.732 39.2258 183.899 39.0537C184.054 38.9569 184.21 38.8601 184.366 38.7579C184.516 38.6611 184.666 38.5697 184.816 38.4728C184.897 38.4191 185.031 38.4191 185.112 38.4728C185.826 38.9193 186.507 39.1559 187.339 39.3011C187.436 39.3173 187.522 39.4087 187.543 39.4948C187.613 39.7529 187.677 40.0111 187.747 40.2693C187.865 40.7265 187.726 40.5974 188.075 40.5705C188.923 40.5113 188.719 40.7587 188.794 39.9573C188.81 39.7852 188.826 39.6185 188.842 39.4464C188.853 39.3173 188.923 39.2205 189.057 39.1774C189.905 38.9139 190.436 38.6288 191.102 38.0695C191.209 37.978 191.327 37.9726 191.456 38.0264C191.703 38.134 191.955 38.2416 192.202 38.3545C192.798 38.6127 192.449 38.6019 192.846 37.9457C193.115 37.9027 193.147 37.8274 192.932 37.7145C192.798 37.5961 192.669 37.4778 192.535 37.3541C192.411 37.2465 192.293 37.1336 192.17 37.026C192.079 36.9722 192.025 36.87 192.079 36.7409C192.385 35.988 192.492 35.2457 192.449 34.4335C192.444 34.3421 192.508 34.2345 192.594 34.1969C192.83 34.0839 193.072 33.971 193.308 33.858C193.823 33.6106 193.608 33.6214 193.383 33.0782C193.565 32.8738 193.539 32.8092 193.308 32.8899C193.131 32.9114 192.954 32.9383 192.782 32.9598C192.61 32.9813 192.444 33.0029 192.272 33.0244C192.138 33.0405 192.014 33.0136 191.939 32.8953C191.499 32.2068 191.005 31.7012 190.307 31.2387C190.195 31.1634 190.146 31.0558 190.173 30.9267C190.227 30.6847 190.281 30.4427 190.334 30.2006C190.463 29.6144 190.522 29.9263 189.765 29.7166C189.658 29.4638 189.567 29.4476 189.497 29.6681C189.406 29.8134 189.32 29.9532 189.229 30.0984C189.143 30.2383 189.057 30.3727 188.971 30.5126C188.923 30.5879 188.815 30.6632 188.719 30.647C187.871 30.5502 187.119 30.5986 186.298 30.8353C186.207 30.8622 186.078 30.8353 186.013 30.7654C185.847 30.5771 185.681 30.3835 185.509 30.1899C185.149 29.7757 185.187 29.9586 184.688 30.2921C184.398 30.4803 184.527 30.4964 184.709 30.9429C184.768 31.0935 184.833 31.2494 184.892 31.4C184.929 31.4915 184.886 31.6044 184.816 31.669C184.231 32.2122 183.829 32.7716 183.518 33.4977C183.469 33.616 183.378 33.6967 183.238 33.7021C182.97 33.7074 182.696 33.7128 182.428 33.7182C181.843 33.729 182.143 33.4654 182.058 34.0517C181.934 34.7509 181.773 34.525 182.525 34.7563ZM186.813 34.6702C186.985 34.1431 187.565 33.7505 188.155 33.9226C188.708 34.0839 189.132 34.6326 188.949 35.1973C188.778 35.7298 188.289 36.0148 187.726 35.9664C187.688 35.9718 187.645 35.9664 187.602 35.9557C187.57 35.9503 187.543 35.9395 187.516 35.9234C187.012 35.7244 186.641 35.2027 186.813 34.6702Z" fill="#E5E5E5"/>
</g>
<g id="Group_50">
<path id="Vector_40" d="M181.601 33.3632C181.467 33.8311 181.408 34.3045 181.376 34.7832C181.365 34.9069 181.473 35.0144 181.591 35.0521C181.848 35.1328 182.106 35.2081 182.369 35.2887C182.922 35.4555 182.696 35.6222 182.82 36.187C182.9 36.5473 183.437 37.2465 183.265 37.4617C183.04 37.7414 182.82 38.0157 182.594 38.2954C182.509 38.4029 182.568 38.5428 182.643 38.6288C182.943 38.9892 183.255 39.3065 183.609 39.6239C183.7 39.7045 183.85 39.7368 183.963 39.6669C184.194 39.5217 184.425 39.3764 184.661 39.2312C185.203 38.8924 185.074 39.1828 185.686 39.4249C186.019 39.5539 186.99 39.6669 187.049 39.8982C187.141 40.237 187.226 40.5812 187.318 40.9201C187.35 41.0384 187.473 41.1245 187.597 41.1245C188.107 41.1245 188.584 41.0868 189.084 41.0115C189.218 40.99 189.288 40.8555 189.298 40.7426C189.325 40.479 189.347 40.2155 189.373 39.9519C189.427 39.3926 189.653 39.5754 190.221 39.3388C190.527 39.2097 191.247 38.5374 191.402 38.6073C191.73 38.7525 192.063 38.8924 192.39 39.0376C192.497 39.086 192.658 39.0968 192.744 38.9946C193.061 38.6181 193.329 38.2469 193.581 37.822C193.646 37.7145 193.63 37.5746 193.533 37.4886C193.249 37.2304 192.959 36.9722 192.674 36.7194C192.798 36.1816 193.115 34.5519 192.943 34.6379C193.313 34.4604 193.683 34.2829 194.054 34.1055C194.172 34.0463 194.215 33.9064 194.188 33.7935C194.075 33.3471 193.936 32.9329 193.753 32.508C193.689 32.352 193.565 32.2929 193.394 32.3144C193.131 32.3467 192.873 32.3843 192.61 32.4166C191.961 32.5026 192.283 32.2283 191.81 31.755C191.612 31.556 190.747 30.9536 190.774 30.8299C190.844 30.5126 190.914 30.1899 190.984 29.8725C191.011 29.7596 190.973 29.6144 190.849 29.5606C190.383 29.3508 189.932 29.1841 189.438 29.0442C189.314 29.0066 189.175 29.0657 189.105 29.1733C188.971 29.3885 188.837 29.5982 188.703 29.8134C188.38 30.3243 187.833 30.007 187.162 30.0608C186.84 30.0877 186.416 30.3835 186.233 30.1845C186.013 29.9317 185.788 29.6789 185.568 29.4261C185.482 29.3239 185.326 29.3293 185.214 29.3831C184.774 29.5875 184.371 29.808 183.968 30.0715C183.866 30.1361 183.786 30.2652 183.834 30.3835C183.926 30.6201 184.022 30.8514 184.113 31.0881C184.339 31.6528 184.022 31.5022 183.657 32.0186C183.485 32.2552 183.104 33.1481 182.938 33.1481C182.584 33.1534 182.224 33.1588 181.87 33.1696C181.752 33.1642 181.639 33.2395 181.601 33.3632ZM182.412 33.7021C182.68 33.6967 182.954 33.6913 183.222 33.6859C183.362 33.6859 183.453 33.5999 183.501 33.4815C183.813 32.7554 184.215 32.2014 184.8 31.6528C184.87 31.5883 184.913 31.4753 184.876 31.3839C184.816 31.2333 184.752 31.0773 184.693 30.9267C184.516 30.4803 184.387 30.4642 184.672 30.2759C185.171 29.9478 185.133 29.765 185.493 30.1737C185.659 30.3674 185.826 30.5556 185.997 30.7492C186.062 30.8245 186.191 30.846 186.282 30.8192C187.103 30.5825 187.86 30.5287 188.703 30.6309C188.804 30.6417 188.906 30.5717 188.955 30.4964C189.041 30.3566 189.127 30.2221 189.212 30.0823C189.304 29.9371 189.39 29.7972 189.481 29.652C189.551 29.4315 189.642 29.4476 189.749 29.7004C190.506 29.9156 190.447 29.5982 190.318 30.1845C190.264 30.4265 190.211 30.6686 190.157 30.9106C190.13 31.0397 190.179 31.1472 190.291 31.2225C190.989 31.6851 191.483 32.1961 191.923 32.8791C191.998 32.9975 192.122 33.0244 192.256 33.0082C192.428 32.9867 192.594 32.9652 192.766 32.9437C192.943 32.9222 193.12 32.8953 193.292 32.8738C193.522 32.7931 193.549 32.8576 193.367 33.062C193.598 33.5999 193.807 33.5945 193.292 33.8419C193.055 33.9549 192.814 34.0678 192.578 34.1808C192.492 34.2238 192.427 34.326 192.433 34.4174C192.476 35.2296 192.368 35.9718 192.063 36.7248C192.009 36.8539 192.063 36.9561 192.154 37.0099C192.277 37.1174 192.401 37.2304 192.519 37.338C192.653 37.4563 192.782 37.5746 192.916 37.6983C193.125 37.8113 193.098 37.8866 192.83 37.9296C192.433 38.5858 192.782 38.6019 192.186 38.3384C191.939 38.2308 191.687 38.1232 191.44 38.0103C191.311 37.9565 191.193 37.9619 191.086 38.0533C190.42 38.6127 189.889 38.9031 189.041 39.1613C188.906 39.2043 188.837 39.3011 188.826 39.4302C188.81 39.6023 188.794 39.7691 188.778 39.9412C188.703 40.7426 188.912 40.4952 188.058 40.5543C187.71 40.5812 187.849 40.7103 187.731 40.2531C187.661 39.995 187.597 39.7368 187.527 39.4786C187.506 39.3926 187.42 39.3011 187.323 39.285C186.491 39.1344 185.809 38.8978 185.096 38.4567C185.015 38.4029 184.881 38.4029 184.8 38.4567C184.65 38.5535 184.5 38.645 184.35 38.7418C184.194 38.8386 184.038 38.9354 183.883 39.0376C183.722 39.2097 183.646 39.1667 183.657 38.9139C183.201 38.5105 183.061 38.5912 183.416 38.1555C183.582 37.9457 183.754 37.736 183.92 37.5262C183.985 37.4509 183.968 37.3272 183.92 37.2465C183.528 36.5742 183.308 35.9395 183.228 35.165C183.212 35.0359 183.147 34.9391 183.013 34.8961C182.847 34.8423 182.675 34.7939 182.509 34.7401C181.757 34.5088 181.923 34.7347 182.025 34.0248C182.122 33.4493 181.821 33.7128 182.412 33.7021Z" fill="#E5E5E5"/>
</g>
<g id="Group_51">
<path id="Vector_41" d="M187.516 35.918C187.543 35.9288 187.57 35.9395 187.602 35.9503C187.645 35.9611 187.688 35.9664 187.726 35.9611C188.289 36.0148 188.778 35.7244 188.949 35.1919C189.132 34.6272 188.708 34.0786 188.155 33.9172C187.565 33.7451 186.985 34.1431 186.813 34.6648C186.641 35.2027 187.012 35.7244 187.516 35.918ZM187.999 34.4551C188.66 34.5788 188.413 35.5308 187.758 35.4124C187.124 35.2242 187.339 34.3313 187.999 34.4551Z" fill="#E5E5E5"/>
</g>
</g>
<g id="Group_52">
<path id="Vector_42" d="M111.079 11.2197C112.136 12.3814 112.689 13.7207 112.872 15.2428C112.872 15.2482 112.877 15.2536 112.877 15.259C112.877 15.302 112.882 15.3397 112.914 15.3773C112.646 15.8883 112.689 16.297 112.947 16.6144C112.635 17.1684 112.684 17.6094 112.968 17.9375C112.244 19.1584 113.263 19.82 114.718 20.0459C115.147 21.2346 118.185 21.1109 118.287 19.8469C119.613 19.4865 120.413 18.8142 119.511 17.9375C119.962 17.5879 120.064 17.1361 119.549 16.609C119.983 16.2486 120.053 15.7915 119.495 15.2644C119.876 14.6942 119.833 13.8175 120.059 12.9085C120.381 11.6231 121.567 10.429 122.206 9.2565C122.689 8.37442 122.909 7.43855 122.946 6.45427C123.016 4.50724 121.808 2.31816 120.128 1.22093C116.419 -1.2048 111.412 0.1506 109.334 3.89946C108.245 5.86801 108.926 7.89573 109.844 9.76747C110.118 10.3161 110.666 10.7679 111.079 11.2197ZM122.232 4.95366C123.021 7.32022 121.674 9.3587 120.386 11.2735C119.94 11.935 119.667 12.489 119.479 13.2474C119.355 13.7476 119.216 15.2536 118.534 15.3881C118.384 15.415 118.228 15.4419 118.067 15.4687C117.976 14.393 117.901 13.3173 117.702 12.2524C117.654 11.9942 117.59 11.6338 117.493 11.2627C117.514 11.2304 117.53 11.1982 117.536 11.1551C117.74 9.47165 118.47 7.86884 118.69 6.18535C118.701 6.09391 118.663 6.03475 118.599 6.00247C118.502 5.87877 118.33 5.84112 118.164 5.88415C118.142 5.86263 118.116 5.84112 118.083 5.83036C117.944 5.7712 117.831 5.78733 117.74 5.84112C117.686 5.79809 117.616 5.76582 117.53 5.7712C117.466 5.7712 117.407 5.78733 117.359 5.80885C117.305 5.7712 117.241 5.74968 117.165 5.76044C117.112 5.76582 117.064 5.78195 117.021 5.79809C116.929 5.76582 116.827 5.7712 116.731 5.80885C116.677 5.72817 116.591 5.66363 116.473 5.65287C116.366 5.64211 116.285 5.67438 116.215 5.72817C116.146 5.67438 116.06 5.64211 115.947 5.65825C115.867 5.669 115.802 5.6959 115.754 5.73893C115.647 5.70128 115.528 5.71203 115.432 5.76582C115.308 5.72279 115.169 5.7443 115.051 5.82498C114.917 5.7443 114.75 5.7443 114.621 5.8196C114.503 5.78733 114.38 5.80347 114.278 5.86801C114.095 5.79809 113.891 5.86263 113.768 6.01861C113.575 5.94331 113.376 5.98634 113.253 6.13156C113.108 6.10467 112.963 6.1477 112.872 6.24989C112.63 6.1961 112.388 6.29292 112.415 6.57798C112.405 6.62101 112.405 6.66942 112.431 6.7232C113.129 8.11087 114.101 9.60073 114.433 11.1121C114.444 11.1551 114.46 11.182 114.482 11.2089C114.224 12.6665 114.471 14.6566 114.573 15.4903C114.122 15.4042 113.698 15.2805 113.328 15.0976C113.167 13.8874 112.807 12.8064 112.109 11.7683C111.455 10.784 110.526 10.0794 110 9.00909C107.595 4.1146 112.555 -0.63467 117.831 0.650806C120.08 1.18328 121.561 2.95283 122.232 4.95366ZM116.591 16.9532C115.845 16.9801 112.721 16.8994 113.333 15.6032C114.831 16.2271 116.741 16.0604 118.298 15.8829C118.674 15.8399 118.947 15.743 119.157 15.5978C120.214 16.6735 117.267 16.9263 116.591 16.9532ZM113.258 6.70707C113.408 6.78774 113.634 6.71782 113.623 6.51882C113.634 6.49192 113.634 6.47579 113.634 6.45965C113.655 6.47579 113.671 6.4973 113.687 6.51882C113.704 6.54033 113.725 6.55109 113.741 6.56185C114.278 7.59991 114.654 8.79395 114.997 9.90193C114.89 10.0256 114.804 10.1816 114.729 10.3537C114.337 9.14893 113.628 7.96027 113.038 6.83615C113.129 6.83615 113.22 6.78774 113.258 6.70707ZM116.618 9.71906C116.763 8.61646 116.597 7.50309 116.747 6.40587C116.774 6.38973 116.79 6.3736 116.811 6.35208C116.876 6.46503 117.042 6.47041 117.155 6.39511C117.246 6.48655 117.396 6.48655 117.493 6.40049C117.504 6.40587 117.514 6.41125 117.525 6.41662C117.595 6.4973 117.708 6.53495 117.799 6.4973C117.874 6.59412 118.04 6.61025 118.148 6.54033C117.928 7.84732 117.445 9.11128 117.182 10.4075C117.037 10.1171 116.854 9.87504 116.618 9.71906ZM116.258 6.41662C116.14 7.45469 116.285 8.49813 116.156 9.53619C115.861 9.47703 115.614 9.49854 115.405 9.58998C115.078 8.54653 114.718 7.44393 114.224 6.45965C114.315 6.50806 114.439 6.47041 114.519 6.38973C114.611 6.47041 114.772 6.46503 114.863 6.38973C114.879 6.40049 114.89 6.41125 114.911 6.41662C115.024 6.47579 115.196 6.44352 115.271 6.31981C115.362 6.43814 115.555 6.4489 115.647 6.3467C115.732 6.43814 115.883 6.422 115.979 6.33595C116.017 6.39511 116.081 6.422 116.151 6.422C116.189 6.42738 116.226 6.422 116.258 6.41662ZM114.847 12.5751C114.847 11.9458 115.421 8.81546 116.559 10.3645C117.563 11.736 117.455 13.9251 117.59 15.5333C116.79 15.6247 115.904 15.6516 115.078 15.5548C114.954 14.5651 114.847 13.5809 114.847 12.5751ZM115.324 20.1104C116.119 20.1642 116.978 20.1158 117.74 19.9706C117.396 20.4762 115.845 20.5569 115.324 20.1104ZM116.591 19.6102C115.84 19.6371 112.694 19.5564 113.344 18.2441C114.643 19.0132 117.643 18.8895 119.087 18.1903C120.332 19.3198 117.278 19.5833 116.591 19.6102ZM116.591 18.2441C115.85 18.271 112.78 18.1957 113.317 16.9317C114.616 17.7224 117.702 17.5933 119.135 16.8672C120.252 17.9644 117.273 18.2172 116.591 18.2441Z" fill="#E5E5E5"/>
</g>
<g id="Group_53">
<path id="Vector_43" d="M266.616 260.769C268.076 259.838 269.531 258.902 270.99 257.972C271.221 257.821 271.221 257.488 270.99 257.343C269.697 256.514 268.403 255.686 267.11 254.858C268.403 254.029 269.697 253.201 270.99 252.373C271.221 252.222 271.221 251.889 270.99 251.744C269.697 250.915 268.403 250.087 267.11 249.259C268.403 248.43 269.697 247.602 270.99 246.774C271.221 246.623 271.221 246.29 270.99 246.144C269.697 245.316 268.403 244.488 267.11 243.66C268.403 242.831 269.697 242.003 270.99 241.175C271.221 241.024 271.221 240.691 270.99 240.545C269.531 239.61 268.076 238.679 266.616 237.743C266.224 237.49 265.865 238.125 266.256 238.372C267.55 239.201 268.844 240.029 270.137 240.857C268.844 241.686 267.55 242.514 266.256 243.342C266.026 243.493 266.026 243.826 266.256 243.972C267.55 244.8 268.844 245.628 270.137 246.456C268.844 247.285 267.55 248.113 266.256 248.941C266.026 249.092 266.026 249.425 266.256 249.571C267.55 250.399 268.844 251.227 270.137 252.055C268.844 252.884 267.55 253.712 266.256 254.54C266.026 254.691 266.026 255.024 266.256 255.17C267.55 255.998 268.844 256.826 270.137 257.655C268.844 258.483 267.55 259.311 266.256 260.139C265.865 260.387 266.224 261.016 266.616 260.769Z" fill="#E5E5E5"/>
</g>
<g id="Group_54">
<g id="Group_55">
<g id="Group_56">
<g id="Group_57">
<g id="Group_58">
<path id="Vector_44" d="M177.34 168.236C177.34 180.989 177.34 193.736 177.34 206.488C177.34 226.717 177.34 246.946 177.34 267.175C177.34 271.843 177.34 276.506 177.34 281.175C177.34 281.675 178.113 281.675 178.113 281.175C178.113 268.422 178.113 255.675 178.113 242.923C178.113 222.694 178.113 202.465 178.113 182.236C178.113 177.568 178.113 172.905 178.113 168.236C178.118 167.736 177.34 167.736 177.34 168.236Z" fill="#E5E5E5"/>
</g>
</g>
</g>
<g id="Group_59">
<g id="Group_60">
<g id="Group_61">
<g id="Group_62">
<path id="Vector_45" d="M207.977 168.236C207.977 180.989 207.977 193.736 207.977 206.488C207.977 226.717 207.977 246.946 207.977 267.175C207.977 271.843 207.977 276.506 207.977 281.175C207.977 281.675 208.75 281.675 208.75 281.175C208.75 268.422 208.75 255.675 208.75 242.923C208.75 222.694 208.75 202.465 208.75 182.236C208.75 177.568 208.75 172.905 208.75 168.236C208.755 167.736 207.977 167.736 207.977 168.236Z" fill="#E5E5E5"/>
</g>
</g>
</g>
<g id="Group_63">
<g id="Group_64">
<g id="Group_65">
<path id="Vector_46" d="M177.732 178.38C187.946 178.38 198.155 178.38 208.369 178.38C208.868 178.38 208.868 177.605 208.369 177.605C198.155 177.605 187.946 177.605 177.732 177.605C177.232 177.605 177.227 178.38 177.732 178.38Z" fill="#E5E5E5"/>
</g>
</g>
</g>
<g id="Group_66">
<g id="Group_67">
<g id="Group_68">
<path id="Vector_47" d="M177.732 194.252C187.946 194.252 198.155 194.252 208.369 194.252C208.868 194.252 208.868 193.478 208.369 193.478C198.155 193.478 187.946 193.478 177.732 193.478C177.232 193.472 177.227 194.252 177.732 194.252Z" fill="#E5E5E5"/>
</g>
</g>
</g>
<g id="Group_69">
<g id="Group_70">
<g id="Group_71">
<path id="Vector_48" d="M177.732 213.782C187.946 213.782 198.155 213.782 208.369 213.782C208.868 213.782 208.868 213.007 208.369 213.007C198.155 213.007 187.946 213.007 177.732 213.007C177.232 213.007 177.227 213.782 177.732 213.782Z" fill="#E5E5E5"/>
</g>
</g>
</g>
<g id="Group_72">
<g id="Group_73">
<g id="Group_74">
<path id="Vector_49" d="M177.732 233.311C187.946 233.311 198.155 233.311 208.369 233.311C208.868 233.311 208.868 232.537 208.369 232.537C198.155 232.537 187.946 232.537 177.732 232.537C177.232 232.537 177.227 233.311 177.732 233.311Z" fill="#E5E5E5"/>
</g>
</g>
</g>
<g id="Group_75">
<g id="Group_76">
<g id="Group_77">
<path id="Vector_50" d="M177.732 250.759C187.946 250.759 198.155 250.759 208.369 250.759C208.868 250.759 208.868 249.985 208.369 249.985C198.155 249.985 187.946 249.985 177.732 249.985C177.232 249.979 177.227 250.759 177.732 250.759Z" fill="#E5E5E5"/>
</g>
</g>
</g>
<g id="Group_78">
<g id="Group_79">
<g id="Group_80">
<path id="Vector_51" d="M177.732 269.165C187.946 269.165 198.155 269.165 208.369 269.165C208.868 269.165 208.868 268.39 208.369 268.39C198.155 268.39 187.946 268.39 177.732 268.39C177.232 268.39 177.227 269.165 177.732 269.165Z" fill="#E5E5E5"/>
</g>
</g>
</g>
</g>
</g>
<g id="Group_81">
<g id="Group_82">
<path id="Vector_52" d="M189.218 130.371C189.239 131.834 189.261 133.297 189.277 134.76C189.277 134.867 189.277 134.986 189.223 135.077C189.153 135.201 189.014 135.255 188.88 135.303C187.06 135.97 185.241 136.637 183.421 137.299C188.579 139.445 192.395 139.445 196.442 137.229C194.703 136.814 192.819 135.298 191.107 134.781C190.774 134.679 191.499 135.373 191.29 135.088C191.107 134.835 191.075 134.507 191.048 134.19C190.935 132.872 190.828 131.56 190.715 130.242" fill="#E5E5E5"/>
</g>
<g id="Group_83">
<path id="Vector_53" d="M180.383 183.221C183.856 196.516 184.242 210.318 185.954 223.969C185.992 224.27 186.33 224.662 186.556 224.861C186.765 225.044 187.06 225.06 187.334 225.066C188.155 225.087 188.788 224.679 189.61 224.7C190.651 218.999 191.016 202.535 191.161 200.362C191.574 194.015 191.987 187.663 192.401 181.317C188.574 181.822 184.752 182.328 180.925 182.833" fill="#E5E5E5"/>
</g>
<g id="Group_84">
<path id="Vector_54" d="M193.05 181.623C194.499 196.113 195.954 210.603 197.403 225.093C198.611 225.432 199.7 225.308 200.935 225.071C201.928 210.017 203.109 195.145 204.102 180.09C200.5 181.091 196.797 181.688 193.077 181.876" fill="#E5E5E5"/>
</g>
<g id="Group_85">
<path id="Vector_55" d="M185.831 223.35C184.629 223.291 183.593 223.312 182.401 223.436C182.251 223.786 182.594 224.141 182.906 224.351C184.596 225.469 186.593 226.109 188.606 226.168C188.831 226.174 189.073 226.174 189.272 226.05C189.529 225.894 189.647 225.577 189.722 225.276C189.894 224.614 189.964 223.931 189.932 223.248C188.966 224.507 186.856 224.56 185.831 223.35Z" fill="#E5E5E5"/>
</g>
<g id="Group_86">
<path id="Vector_56" d="M201.257 223.35C202.454 223.291 203.495 223.312 204.687 223.436C204.837 223.786 204.494 224.141 204.182 224.351C202.491 225.469 200.495 226.109 198.482 226.168C198.257 226.174 198.015 226.174 197.816 226.05C197.559 225.894 197.441 225.577 197.366 225.276C197.194 224.614 197.124 223.931 197.156 223.248C198.117 224.507 200.232 224.56 201.257 223.35Z" fill="#E5E5E5"/>
</g>
<g id="Group_87">
<path id="Vector_57" d="M184.554 152.606C180.222 161.507 176.787 181.473 176.98 190.39C186.395 193.279 200.935 193.279 208.444 189.39C207.376 180.042 201.6 160.416 196.136 152.434C191.113 152.601 189.577 152.445 184.554 152.606Z" fill="#E5E5E5"/>
</g>
<g id="Group_88">
<path id="Vector_58" d="M216.957 119.651C216.436 119.35 214.466 119.092 214.455 118.92C214.289 115.144 213.591 114.714 213.012 115.359C212.486 115.946 212.824 118.312 212.867 119.296C212.389 119.35 211.863 119.474 211.664 119.915C211.519 120.227 211.605 120.598 211.691 120.932C211.943 121.857 212.244 122.766 212.593 123.658C212.614 123.944 212.636 124.234 212.663 124.519L212.636 124.584C212.754 124.632 212.872 124.67 212.99 124.691L213.033 124.734C213.028 124.723 213.022 124.707 213.017 124.697C213.382 124.761 213.768 124.734 214.144 124.697C214.938 124.627 215.733 124.551 216.527 124.481C216.661 124.471 216.806 124.449 216.898 124.352C216.967 124.277 216.994 124.175 217.016 124.073C217.214 123.217 217.354 122.346 217.456 121.469C217.542 120.797 217.52 119.98 216.957 119.651Z" fill="#E5E5E5"/>
</g>
<g id="Group_89">
<g id="Group_90">
<path id="Vector_59" d="M184.011 138.369C181.371 140.101 177.699 148.05 173.706 151.487C173.454 151.702 173.164 151.928 172.836 151.891C172.337 151.837 172.112 151.234 171.994 150.729C170.775 145.49 170.926 140.16 170.426 134.798C169.176 135.524 165.891 136.933 165.703 137.385C165.569 137.697 165.864 148.239 166.975 152.8C167.592 155.349 168.322 158.076 170.292 159.749C170.824 160.2 171.462 160.566 172.155 160.609C173.105 160.668 173.985 160.109 174.747 159.523C178.172 156.887 181.177 153.262 183.673 149.691" fill="#E5E5E5"/>
</g>
<g id="Group_91">
<g id="Group_92">
<path id="Vector_60" d="M183.915 138.213C180.71 140.553 178.912 144.882 176.572 148.002C176.003 148.76 174.94 150.562 174.012 150.96C171.301 152.127 171.425 146.404 171.307 145.151C170.969 141.709 170.904 138.245 170.609 134.797C170.598 134.658 170.464 134.566 170.335 134.642C169.133 135.303 166.449 135.948 165.698 137.11C165.36 137.627 165.488 138.272 165.499 138.891C165.558 142.973 165.784 147.131 166.46 151.159C166.954 154.09 168.322 161.061 172.498 160.765C174.554 160.62 176.492 158.372 177.839 157.043C180.072 154.833 182.015 152.353 183.829 149.788C183.963 149.594 183.646 149.411 183.512 149.605C181.714 152.143 175.107 162.115 170.947 160.012C167.496 158.27 166.857 151.95 166.471 148.518C166.159 145.754 165.988 142.968 165.896 140.187C165.875 139.563 165.58 138.143 165.864 137.567C166.331 136.626 168.296 136.104 169.144 135.68C170.41 135.05 170.222 135.314 170.394 136.701C170.507 137.632 170.512 138.595 170.566 139.531C170.706 142.032 170.824 144.543 171.151 147.028C171.285 148.045 171.242 151.971 172.885 152.079C174.699 152.197 177.27 147.711 178.134 146.458C179.932 143.855 181.516 140.429 184.103 138.536C184.291 138.39 184.108 138.073 183.915 138.213Z" fill="#E5E5E5"/>
</g>
</g>
</g>
<g id="Group_93">
<g id="Group_94">
<g id="Group_95">
<path id="Vector_61" d="M184.033 138.439L184.21 138.315C184.151 138.353 184.092 138.396 184.033 138.439Z" fill="#E5E5E5"/>
</g>
<g id="Group_96">
<g id="Group_97">
<path id="Vector_62" d="M184.124 138.595C184.183 138.552 184.242 138.509 184.301 138.471C184.489 138.337 184.317 138.025 184.119 138.154C184.06 138.191 184.001 138.234 183.942 138.277C183.754 138.423 183.936 138.74 184.124 138.595C184.183 138.552 184.242 138.509 184.301 138.471C184.242 138.363 184.178 138.261 184.119 138.154C184.06 138.197 184.001 138.24 183.942 138.277C183.754 138.417 183.936 138.735 184.124 138.595Z" fill="#E5E5E5"/>
</g>
</g>
</g>
<g id="Group_98">
<g id="Group_99">
<path id="Vector_63" d="M184.027 138.445C184.034 138.439 184.034 138.439 184.04 138.439L184.027 138.445Z" fill="#E5E5E5"/>
</g>
<g id="Group_100">
<g id="Group_101">
<path id="Vector_64" d="M184.119 138.6C184.135 138.595 184.151 138.579 184.167 138.568C184.328 138.439 184.113 138.159 183.947 138.283C183.942 138.283 183.942 138.288 183.936 138.288C183.743 138.423 183.926 138.74 184.119 138.6C184.124 138.6 184.124 138.595 184.129 138.595C184.054 138.498 183.979 138.401 183.909 138.304C183.92 138.299 183.931 138.288 183.936 138.283C183.722 138.39 183.904 138.702 184.119 138.6Z" fill="#E5E5E5"/>
</g>
</g>
</g>
<g id="Group_102">
<g id="Group_103">
<path id="Vector_65" d="M212.019 124.503C211.804 127.375 209.228 140.375 206.85 143.156C204.198 146.254 201.794 143.269 201.311 142.709C199.99 141.166 197.36 136.476 195.004 137.32C193.329 137.917 193.329 137.917 190.758 138.213C188.493 138.471 183.668 137.385 183.668 137.385C183.668 137.385 182.734 141.047 182.777 142.532C182.868 145.737 183.367 148.927 184.258 152.003C184.323 152.224 184.392 152.45 184.553 152.611C184.763 152.821 185.085 152.864 185.375 152.896C188.96 153.241 192.589 153.09 196.136 152.445C196.609 151.164 196.662 149.002 196.931 147.663C196.947 147.765 199.674 152.719 203.721 153.079C206.801 153.354 209.652 151.052 211.825 148.136C214.005 145.221 215.25 141.418 216.189 137.874C217.365 133.442 218.282 129.112 218.4 124.519C216.275 124.508 214.144 124.508 212.019 124.503Z" fill="#E5E5E5"/>
</g>
<g id="Group_104">
<g id="Group_105">
<path id="Vector_66" d="M211.836 124.503C211.525 128.031 210.661 131.581 209.77 134.997C209.228 137.083 208.653 139.213 207.768 141.187C207.483 141.822 207.172 142.483 206.721 143.021C205.272 144.748 203.066 144.323 201.692 142.86C199.996 141.058 198.208 136.685 195.181 137.089C193.131 137.363 191.322 138.148 189.153 138.035C187.334 137.939 185.498 137.594 183.722 137.202C183.625 137.18 183.523 137.229 183.496 137.331C182.396 141.704 182.568 145.781 183.598 150.191C184.108 152.369 184.156 152.999 186.357 153.155C189.653 153.391 192.932 153.165 196.185 152.611C196.249 152.601 196.297 152.541 196.314 152.482C196.582 151.579 196.764 150.637 196.84 149.696C196.861 149.459 196.791 147.808 196.797 147.803C196.791 147.808 197.022 148.217 197.054 148.244C197.967 149.094 198.541 150.336 199.507 151.202C202.094 153.52 205.272 153.865 208.202 151.939C211.906 149.508 214.042 145.307 215.395 141.219C217.171 135.846 218.368 130.167 218.583 124.503C218.588 124.406 218.497 124.32 218.4 124.32C216.275 124.32 214.144 124.315 212.019 124.315C211.782 124.315 211.782 124.68 212.019 124.68C213.398 124.68 217.531 123.89 218.18 125.482C218.529 126.337 217.928 128.402 217.805 129.311C217.628 130.575 217.407 131.829 217.15 133.082C216.275 137.282 215.228 141.677 213.232 145.501C211.326 149.147 207.236 154.133 202.534 152.633C200.291 151.917 198.069 149.701 197.086 147.555C197.022 147.416 196.775 147.448 196.754 147.598C196.56 148.771 196.78 150.874 196.142 151.783C195.058 153.311 190.087 152.907 188.321 152.869C186.711 152.837 185.165 152.563 184.189 151.019C183.759 150.347 183.705 148.986 183.566 148.206C183.185 146.082 182.82 143.796 183.018 141.628C183.115 140.579 183.249 138.993 183.705 138.019C183.786 137.853 183.947 137.428 183.689 137.567C183.877 137.471 184.736 137.783 184.961 137.826C187.414 138.294 189.792 138.568 192.277 138.207C193.045 138.095 193.748 137.836 194.499 137.686C196.727 137.245 197.94 138.589 199.212 140.208C200.264 141.548 201.209 143.344 202.749 144.221C206.361 146.275 208.218 141.349 209.072 138.745C210.564 134.206 211.788 129.268 212.206 124.498C212.223 124.272 211.858 124.272 211.836 124.503Z" fill="#E5E5E5"/>
</g>
</g>
</g>
</g>
<g id="Group_106">
<path id="Vector_67" d="M166.948 136.099C166.374 134.405 166.353 132.522 166.889 130.812C167.222 129.758 167.807 128.725 168.757 128.209C169.165 127.988 169.691 127.881 170.072 128.15C170.421 128.397 170.534 128.865 170.577 129.301C170.743 131.092 170.11 132.872 170.153 134.668C169.117 135.206 168.086 135.749 167.05 136.287" fill="#E5E5E5"/>
</g>
</g>
<g id="Group_107">
<path id="Vector_68" d="M188.107 123.599C186.588 123.82 185.267 125.041 184.827 126.552C184.387 128.064 184.817 129.79 185.847 130.957C186.432 131.624 187.259 132.264 187.205 133.162C187.135 134.281 185.67 135.007 185.815 136.121C185.96 137.234 187.549 137.541 187.903 138.6C188.466 140.273 185.541 141.564 186.013 143.263C186.271 144.199 187.452 144.592 187.753 145.512C188.08 146.523 187.21 147.486 186.872 148.491C186.411 149.874 187.065 151.498 188.246 152.321C189.422 153.144 191.005 153.214 192.342 152.708C193.474 152.278 194.489 151.428 194.961 150.282C195.433 149.142 195.294 147.711 194.483 146.792C193.834 146.055 192.798 145.625 192.497 144.683C192.03 143.22 193.71 141.79 193.458 140.267C193.174 138.541 190.554 137.551 191.059 135.879C191.322 135.013 192.395 134.19 191.869 133.469C191.703 133.243 191.424 133.141 191.225 132.942C190.565 132.296 191.091 131.194 191.424 130.323C192.454 127.59 191.456 123.599 188.107 123.599Z" fill="#E5E5E5"/>
</g>
</g>
<g id="Group_108">
<g id="Group_109">
<g id="Group_110">
<path id="Vector_69" d="M114.831 183.823C114.235 186.625 113.639 189.422 113.043 192.224C112.743 193.634 112.448 195.048 112.147 196.457C112.093 196.705 112.04 196.952 111.991 197.2C111.938 197.436 111.889 197.673 111.841 197.91C111.675 198.668 111.514 199.426 111.353 200.185C110.429 204.531 109.506 208.882 108.583 213.233C108.492 213.663 108.395 214.094 108.309 214.529C106.951 220.914 105.593 227.298 104.235 233.688C104.123 234.226 104.005 234.763 103.892 235.301C103.258 238.276 102.625 241.25 101.997 244.23C101.466 246.709 100.94 249.189 100.414 251.668C100.333 252.045 100.253 252.421 100.172 252.798C100.065 253.298 99.9629 253.804 99.8556 254.304C99.5711 255.632 99.292 256.961 99.0075 258.289C98.0467 262.813 97.086 267.341 96.1252 271.865C96.0232 272.349 95.9159 272.838 95.8139 273.322C94.8961 277.657 93.9729 281.993 93.0497 286.328C92.8028 287.511 90.9993 287.005 91.2462 285.833C92.1318 281.675 93.0175 277.523 93.8977 273.365C93.9138 273.312 93.9245 273.252 93.9353 273.199C94.0534 272.634 94.1768 272.069 94.2949 271.504C95.2342 267.078 96.1735 262.657 97.1128 258.23C97.3919 256.934 97.6656 255.632 97.9394 254.336C98.0736 253.712 98.2078 253.094 98.3366 252.47C98.9485 249.587 99.5603 246.709 100.172 243.826C100.779 240.986 101.38 238.141 101.986 235.301C102.115 234.677 102.249 234.059 102.378 233.435C103.473 228.282 104.568 223.135 105.663 217.982C105.899 216.864 106.135 215.75 106.377 214.631C106.506 214.008 106.64 213.389 106.769 212.765C107.687 208.446 108.604 204.133 109.522 199.814C109.635 199.292 109.748 198.77 109.855 198.248C109.989 197.63 110.118 197.006 110.252 196.387C110.569 194.887 110.891 193.386 111.208 191.886C111.814 189.03 112.421 186.179 113.027 183.323C113.279 182.145 115.078 182.645 114.831 183.823Z" fill="#E5E5E5"/>
</g>
</g>
<g id="Group_111">
<g id="Group_112">
<path id="Vector_70" d="M81.5473 183.323C79.0943 194.876 76.6361 206.429 74.1832 217.982C70.2757 236.388 66.3628 254.793 62.4553 273.199C61.559 277.41 60.668 281.621 59.7716 285.833C59.5194 287.011 61.3228 287.511 61.5751 286.333C64.028 274.78 66.4863 263.227 68.9392 251.674C72.8467 233.268 76.7595 214.863 80.667 196.457C81.5634 192.246 82.4544 188.035 83.3507 183.823C83.603 182.645 81.7995 182.14 81.5473 183.323Z" fill="#E5E5E5"/>
</g>
</g>
<g id="Group_113">
<g id="Group_114">
<path id="Vector_71" d="M111.095 196.398C100.645 196.188 90.1942 195.979 79.7438 195.774C78.5415 195.753 78.5415 197.624 79.7438 197.646C90.1942 197.856 100.645 198.066 111.095 198.27C112.303 198.297 112.297 196.425 111.095 196.398Z" fill="#E5E5E5"/>
</g>
</g>
<g id="Group_115">
<g id="Group_116">
<path id="Vector_72" d="M107.81 212.781C97.3597 212.571 86.9093 212.362 76.4589 212.157C75.2566 212.136 75.2566 214.008 76.4589 214.029C86.9093 214.239 97.3597 214.449 107.81 214.653C109.012 214.68 109.012 212.808 107.81 212.781Z" fill="#E5E5E5"/>
</g>
</g>
<g id="Group_117">
<g id="Group_118">
<path id="Vector_73" d="M103.634 233.456C93.1839 233.247 82.7335 233.037 72.2831 232.833C71.0808 232.811 71.0808 234.683 72.2831 234.704C82.7335 234.914 93.1839 235.124 103.634 235.328C104.837 235.355 104.837 233.483 103.634 233.456Z" fill="#E5E5E5"/>
</g>
</g>
<g id="Group_119">
<g id="Group_120">
<path id="Vector_74" d="M99.8556 254.304C99.7536 254.347 99.6301 254.368 99.496 254.368C98.9753 254.358 98.46 254.347 97.9394 254.336C94.8424 254.277 91.7454 254.212 88.6484 254.153C81.9337 254.013 75.2137 253.879 68.4991 253.744C68.381 253.744 68.2629 253.739 68.1448 253.739C66.9425 253.717 66.9425 251.84 68.1448 251.867C68.3971 251.873 68.644 251.878 68.8963 251.883C71.6981 251.937 74.4999 251.996 77.3017 252.05C77.5217 252.056 77.7418 252.061 77.9618 252.061C81.0052 252.125 84.0539 252.185 87.0972 252.244C90.8437 252.319 94.5901 252.394 98.3366 252.47C98.723 252.475 99.1095 252.486 99.496 252.491C99.7965 252.497 100.022 252.62 100.172 252.798C100.553 253.255 100.451 254.078 99.8556 254.304Z" fill="#E5E5E5"/>
</g>
</g>
<g id="Group_121">
<g id="Group_122">
<path id="Vector_75" d="M95.4221 271.52C84.9717 271.311 74.5213 271.101 64.0709 270.897C62.8686 270.875 62.8686 272.747 64.0709 272.768C74.5213 272.978 84.9717 273.188 95.4221 273.392C96.6244 273.419 96.6244 271.547 95.4221 271.52Z" fill="#E5E5E5"/>
</g>
</g>
</g>
<g id="Group_123">
<path id="Vector_76" d="M93.7528 163.003C95.0947 166.606 98.5835 174.217 104.241 174.217C107.697 174.217 110.462 164.627 110.59 159.297C112.898 160.421 115.469 161.05 118.056 161.131C117.3 166.881 116.436 172.905 112.882 177.595C112.206 178.488 111.438 179.316 110.655 180.128C109.871 180.929 109.061 181.72 108.089 182.306C105.813 183.678 102.872 183.759 100.296 183.006C97.7193 182.253 95.4543 180.757 93.3664 179.128C93.2375 179.025 93.1087 178.923 93.0389 178.778C92.9584 178.611 92.9745 178.423 92.996 178.24C93.5059 173.152 93.0336 168.128 93.5381 163.04L93.7528 163.003Z" fill="#E5E5E5"/>
</g>
<g id="Group_124">
<path id="Vector_77" d="M97.5583 208.979L89.5984 208.957H89.4159L88.5303 208.952H88.0096C87.9667 209.511 87.9345 210.065 87.9023 210.624C87.8701 211.157 87.8433 211.689 87.8218 212.227C87.7198 214.669 87.693 217.122 87.7198 219.574C87.7252 220.048 87.7305 220.521 87.7413 221C87.7788 223.033 87.8486 225.066 87.9345 227.104C88.2888 235.323 88.9275 243.557 88.8684 251.749C92.6149 251.937 93.785 251.991 97.5368 252.179C96.2433 251.749 94.9497 251.319 93.6562 250.888C94.4291 236.866 95.728 222.877 97.5583 208.979Z" fill="#E5E5E5"/>
</g>
<g id="Group_125">
<path id="Vector_78" d="M89.2871 209.204C88.9382 209.888 88.5947 210.581 88.2673 211.286C88.1116 211.598 87.9667 211.91 87.8218 212.227C86.9899 214.034 86.2008 215.912 85.4548 217.842C85.3152 218.192 85.181 218.542 85.0468 218.897C84.9556 219.139 84.8644 219.386 84.7731 219.634C83.8123 222.204 82.916 224.856 82.0626 227.535C79.6687 235.059 77.6398 242.81 75.67 249.732C77.0547 251.012 76.9152 250.625 78.0477 252.179C74.9776 251.663 74.4193 251.399 71.3331 250.189C72.7554 242.659 73.5928 233.924 74.4945 225.308C74.9453 220.935 75.4177 216.595 75.992 212.459C76.0403 212.071 76.094 211.684 76.153 211.302C76.459 209.178 76.7917 207.118 77.1621 205.138C79.7009 205.988 82.2397 206.843 84.7731 207.693C85.2991 207.865 85.8198 208.043 86.3404 208.22C87.0704 208.462 87.8003 208.71 88.5303 208.952C88.7826 209.038 89.0348 209.124 89.2871 209.204Z" fill="#E5E5E5"/>
</g>
<g id="Group_126">
<path id="Vector_79" d="M90.1942 209.511C89.8936 209.409 89.5877 209.307 89.2871 209.204C89.33 209.124 89.373 209.038 89.4159 208.957C89.432 208.914 89.4535 208.876 89.475 208.839L89.5984 208.957L90.1942 209.511Z" fill="#E5E5E5"/>
</g>
<g id="Group_127">
<path id="Vector_80" d="M95.2073 155.198C95.1429 155.241 95.0732 155.279 95.0034 155.317C94.7511 155.494 94.4935 155.677 94.2412 155.855C94.15 155.919 94.0641 155.978 93.9782 156.037C93.8548 156.129 93.7313 156.215 93.6078 156.301C93.3019 156.516 92.996 156.731 92.69 156.946C92.6632 156.968 92.6363 156.984 92.6095 157.006C92.4592 157.108 92.3089 157.215 92.1586 157.318C92.0674 157.382 91.9762 157.441 91.8849 157.5C91.6863 157.635 91.4877 157.759 91.2784 157.877C91.0315 158.027 90.7685 158.157 90.5001 158.27C90.4625 158.291 90.4196 158.307 90.382 158.323C90.28 158.366 90.1727 158.404 90.0654 158.436C89.3407 158.678 88.5517 158.754 87.8218 158.533C87.6983 158.495 87.5802 158.452 87.4621 158.399C86.4638 157.941 85.7875 156.93 85.546 155.881C85.4172 155.317 85.3152 154.784 85.2776 154.257C85.2347 153.682 85.2669 153.106 85.4172 152.498C85.7446 151.191 86.598 149.658 87.7037 148.83C88.2512 148.421 88.9114 148.174 89.5823 148.013C90.7041 147.749 91.9064 147.733 93.0121 148.034C93.3073 148.115 93.5971 148.217 93.8762 148.346C93.9084 148.362 93.946 148.378 93.9782 148.4C95.2449 149.018 96.2486 150.186 96.4741 151.536C96.6995 152.843 96.3345 154.467 95.2073 155.198Z" fill="#E5E5E5"/>
</g>
<g id="Group_128">
<path id="Vector_81" d="M85.8573 154.65C85.7124 154.349 85.3313 154.23 84.9824 154.209C84.1988 154.15 83.399 154.402 82.8033 154.897C82.2128 155.392 81.8371 156.118 81.7834 156.866C81.7566 157.231 81.8103 157.608 81.9713 157.941C82.4168 158.877 83.4044 159.641 84.4725 159.722C85.0629 159.765 85.6587 159.942 86.4853 159.394C86.9737 159.071 87.4461 158.56 87.6393 158.017C87.7681 157.646 87.7574 157.242 87.6715 156.86C87.4246 155.72 86.5658 154.72 85.4494 154.273C85.4333 154.268 85.4172 154.257 85.3957 154.252L85.8573 154.65Z" fill="#E5E5E5"/>
</g>
<g id="Group_129">
<g id="Group_130">
<path id="Vector_82" d="M89.2388 151.579C89.0241 150.395 90.5538 149.836 91.799 149.745C93.0443 149.658 93.8494 149.852 94.4881 150.885C95.1268 151.917 95.2879 153.16 95.2664 154.359C95.2396 155.865 94.8102 157.554 93.4522 158.318C91.8098 159.238 89.5394 158.2 88.7343 156.554C87.9291 154.903 88.4551 153.241 89.2388 151.579Z" fill="#E5E5E5"/>
</g>
</g>
<g id="Group_131">
<path id="Vector_83" d="M91.273 157.802C91.375 158.565 91.3697 160.136 91.4716 160.9C91.5038 161.147 92.5129 161.997 92.6954 162.147C94.2949 163.476 94.6706 165.471 95.2664 167.488C91.944 167.628 90.9778 166.235 87.6608 165.982C88.0902 164.385 88.7611 162.519 89.4052 160.991C89.8668 159.894 90.1351 158.022 90.1351 158.022C90.1942 157.909 90.2962 157.78 90.425 157.807C90.5538 157.834 90.4357 158.081 90.3659 157.974L91.273 157.802Z" fill="#E5E5E5"/>
</g>
<g id="Group_132">
<path id="Vector_84" d="M95.465 151.347C95.2772 151.794 94.3754 152.192 93.8924 152.332C93.4093 152.471 92.8994 152.52 92.4002 152.552C89.5608 152.73 88.8685 155.128 88.6001 157.264C87.9345 156.36 86.539 153.273 87.65 151.482C88.482 150.143 89.636 149.25 91.2355 148.965C92.8296 148.685 95.4972 149.094 95.465 151.347Z" fill="#E5E5E5"/>
</g>
<g id="Group_133">
<path id="Vector_85" d="M89.7541 155.059C89.636 154.682 89.1475 154.467 88.7557 154.601C88.3693 154.736 88.1331 155.166 88.2029 155.559C88.2995 156.107 89.0026 156.473 89.5394 156.253L89.7541 155.059Z" fill="#E5E5E5"/>
</g>
<g id="Group_134">
<g id="Group_135">
<path id="Vector_86" d="M93.5596 154.171C93.4844 154.79 93.5649 155.397 93.785 155.978C93.8226 155.892 93.8548 155.801 93.8923 155.715C93.7689 155.806 93.6777 155.844 93.5166 155.838C93.2161 155.828 93.2161 156.296 93.5166 156.306C93.7474 156.312 93.9407 156.258 94.1285 156.123C94.2037 156.064 94.2734 155.962 94.2359 155.86C94.0265 155.311 93.9568 154.763 94.0265 154.176C94.0641 153.87 93.5918 153.875 93.5596 154.171Z" fill="#E5E5E5"/>
</g>
</g>
<g id="Group_136">
<g id="Group_137">
<path id="Vector_87" d="M94.735 154.381C94.6975 154.478 94.6116 154.402 94.5901 154.354C94.4506 154.085 94.0427 154.322 94.1876 154.591C94.4237 155.042 95.0195 154.951 95.1913 154.505C95.2933 154.225 94.8424 154.101 94.735 154.381Z" fill="#E5E5E5"/>
</g>
</g>
<g id="Group_138">
<g id="Group_139">
<path id="Vector_88" d="M92.9584 154.564C92.9692 154.574 92.9853 154.58 92.996 154.591C92.9584 154.521 92.9209 154.456 92.8779 154.386C92.8779 154.553 92.5773 154.58 92.4807 154.553C92.3197 154.505 92.2285 154.381 92.1694 154.236C92.0513 153.956 91.6488 154.198 91.7669 154.472C91.9333 154.865 92.368 155.123 92.792 155.01C93.1302 154.919 93.5971 154.451 93.2 154.155C92.9531 153.977 92.7169 154.386 92.9584 154.564Z" fill="#E5E5E5"/>
</g>
</g>
<g id="Group_140">
<g id="Group_141">
<path id="Vector_89" d="M93.5595 156.833C92.7168 157.113 91.8849 156.887 91.3267 156.193C91.1388 155.957 90.806 156.29 90.9939 156.527C91.6434 157.344 92.7007 157.619 93.683 157.291C93.9675 157.194 93.844 156.737 93.5595 156.833Z" fill="#E5E5E5"/>
</g>
</g>
<g id="Group_142">
<path id="Vector_90" d="M92.3734 161.518C92.5505 163.051 93.259 165.918 93.6186 167.424C92.5827 165.052 90.2908 163.535 89.0616 161.217C86.4907 163.632 86.2277 166.956 86.4102 170.404C86.5926 173.851 85.7285 174.803 85.7339 178.251C88.5034 178.251 93.4468 178.391 96.1896 178.342C96.5385 176.401 96.6405 175.029 96.6136 171.587C96.5975 169.71 96.2808 167.833 95.6743 166.047C95.0624 164.267 93.9889 162.578 92.3734 161.518C92.5881 161.943 92.8027 162.368 93.0174 162.798L92.3734 161.518Z" fill="#E5E5E5"/>
</g>
<g id="Group_143">
<g id="Group_144">
<path id="Vector_91" d="M92.1801 161.728C92.6954 164.078 93.1785 166.434 93.624 168.801C93.6669 169.032 94.0212 169.016 94.0748 168.801C94.3003 167.886 94.5257 166.977 94.7458 166.063C94.7995 165.837 94.9819 165.418 94.8424 165.159C94.6009 164.724 94.2305 164.826 94.1983 164.17C94.1715 163.578 94.311 162.943 94.3003 162.341C94.3003 162.234 94.2251 162.147 94.1285 162.115C93.5596 161.916 93.0389 161.631 92.4646 161.443C92.1748 161.346 92.0567 161.803 92.3412 161.895C92.8189 162.056 93.6293 162.234 93.8387 162.793C94.0212 163.288 93.7206 164.197 93.6455 164.686C93.6293 164.799 93.6562 164.891 93.7528 164.95C94.7887 165.638 93.8655 167.682 93.624 168.677C93.7743 168.677 93.9246 168.677 94.0748 168.677C93.624 166.31 93.1463 163.955 92.631 161.604C92.5666 161.308 92.1157 161.432 92.1801 161.728Z" fill="#E5E5E5"/>
</g>
</g>
<g id="Group_145">
<g id="Group_146">
<path id="Vector_92" d="M93.8441 168.134C93.0497 165.342 90.9403 163.368 89.2442 161.109C89.1368 160.964 88.9436 160.953 88.8416 161.109C88.4659 161.658 88.1868 162.207 87.9721 162.831C87.9345 162.933 87.9989 163.04 88.0794 163.094C88.5679 163.438 90.0439 164.154 90.1781 164.675C90.2801 165.084 90.0869 165.17 89.8883 165.568C89.84 165.66 89.8453 165.778 89.9258 165.853C91.1442 167.037 92.4324 168.118 93.7957 169.123C94.0373 169.301 94.2735 168.892 94.0319 168.72C93.3288 168.204 89.7648 165.999 90.9188 165.025C91.0101 164.95 91.0101 164.767 90.9188 164.692C90.425 164.272 89.9258 163.863 89.4106 163.476C88.9704 163.143 88.7987 163.143 88.7557 162.572C88.7182 162.035 88.9543 161.776 89.2495 161.351C89.1153 161.351 88.9812 161.351 88.847 161.351C90.5109 163.573 92.6149 165.52 93.3986 168.263C93.4791 168.548 93.9299 168.424 93.8441 168.134Z" fill="#E5E5E5"/>
</g>
</g>
<g id="Group_147">
<g id="Group_148">
<path id="Vector_93" d="M100.575 175.771C103.86 186.991 106.232 204.046 105.54 214.271C102.019 215.863 93.6562 216.03 89.7809 215.637C81.5527 214.804 77.2319 212.416 73.5874 210.942C74.575 199.071 81.6493 185.275 89.9097 175.341C92.7062 175.379 97.7784 175.739 100.575 175.771Z" fill="#E5E5E5"/>
</g>
<g id="Group_149">
<g id="Group_150">
<path id="Vector_94" d="M100.349 175.836C102.636 183.759 104.058 191.966 104.869 200.163C105.239 203.917 105.481 207.699 105.422 211.474C105.411 212.007 105.583 213.169 105.346 213.679C104.992 214.449 104.327 214.492 103.548 214.685C101.675 215.153 99.7214 215.341 97.7998 215.465C90.3821 215.938 83.2327 214.782 76.3892 211.878C75.2084 211.377 73.947 211.243 73.947 209.828C73.947 207.618 74.7145 205.122 75.2996 203.003C76.5126 198.576 78.2785 194.311 80.3772 190.234C82.5832 185.948 85.1703 181.855 88.0902 178.025C89.1744 176.605 89.6199 175.728 91.3911 175.621C92.4109 175.556 93.5059 175.712 94.5203 175.761C96.5439 175.857 98.5674 175.976 100.591 176.013C100.891 176.019 100.891 175.551 100.591 175.545C98.6908 175.508 96.7908 175.406 94.8907 175.314C93.683 175.255 90.9617 174.636 89.8346 175.137C88.7504 175.621 87.3978 178.154 86.6893 179.128C85.1864 181.188 83.7801 183.312 82.4758 185.501C77.8491 193.246 74.2154 201.9 73.3727 210.953C73.362 211.065 73.4532 211.141 73.5445 211.178C78.8743 213.362 83.9948 215.336 89.8024 215.885C94.8048 216.358 100.897 216.471 105.62 214.508C105.722 214.465 105.787 214.395 105.792 214.282C106.57 201.513 104.348 187.959 100.816 175.718C100.72 175.422 100.263 175.545 100.349 175.836Z" fill="#E5E5E5"/>
</g>
</g>
</g>
<g id="Group_151">
<path id="Vector_95" d="M113.322 193.607C115.051 193.322 116.752 192.881 118.395 192.3C118.69 192.762 118.4 193.359 118.056 193.79C117.713 194.22 117.294 194.672 117.321 195.209C118.599 194.951 119.871 194.688 121.148 194.43C121.62 194.333 122.13 194.236 122.576 194.419C123.3 194.709 123.542 195.645 123.263 196.35C122.989 197.054 122.34 197.56 121.674 197.958C118.926 199.615 115.416 200.05 112.319 199.12C112.383 197.103 112.764 195.091 113.446 193.182L113.322 193.607Z" fill="#E5E5E5"/>
</g>
<g id="Group_152">
<path id="Vector_96" d="M117.429 161.082C117.826 159.447 118.346 156.565 119.049 155.021C118.588 154.714 117.944 154.956 117.477 155.258C117.01 155.559 117.08 155.994 116.516 155.935C116.393 154.854 116.645 153.466 116.988 152.262C117.117 151.815 117.246 151.331 117.08 150.895C116.817 150.186 115.856 149.9 115.11 150.126C114.358 150.352 113.8 150.944 113.344 151.557C111.465 154.09 111.557 156.995 111.455 159.786C112.651 160.147 115.856 161.201 117.429 161.082Z" fill="#E5E5E5"/>
</g>
<g id="Group_153">
<path id="Vector_97" d="M87.4622 163.003C81.5526 167.3 79.2447 175.599 82.1323 182.145C84.0056 186.394 87.6876 189.675 91.6434 192.289C97.9555 196.457 105.244 199.26 112.813 200.421C112.947 197.705 113.253 194.994 113.736 192.316C106.549 191.423 99.8502 187.674 95.261 182.301C90.6719 176.922 88.1814 170 88.0204 163.056L87.4622 163.003Z" fill="#E5E5E5"/>
</g>
<g id="Group_154">
<path id="Vector_98" d="M95.0463 251.141C96.3452 251.566 97.6549 252.109 98.7337 252.782C97.4617 253.255 89.9473 252.857 88.7772 252.878C88.6591 252.244 88.6537 251.588 88.7664 250.953C88.9167 251.303 89.3783 251.41 89.7755 251.437C95.6045 251.83 94.9604 251.152 95.0463 251.141Z" fill="#E5E5E5"/>
</g>
<g id="Group_155">
<path id="Vector_99" d="M76.9796 250.679C77.3983 250.786 76.7059 252.765 71.3331 249.146C70.9573 249.646 70.7158 250.211 70.3401 250.711C70.9788 251.093 71.6497 251.598 72.2885 251.986C72.8306 252.314 73.5015 252.454 74.0865 252.696C75.8524 253.432 78.4342 253.416 79.7814 253.287C79.6472 253.013 77.6827 251.066 76.9796 250.679Z" fill="#E5E5E5"/>
</g>
</g>
</svg>
