<svg width="331" height="336" viewBox="0 0 331 336" fill="none" xmlns="http://www.w3.org/2000/svg">
<path d="M191.081 312.393H103.164C102.749 312.393 102.389 312.098 102.291 311.677C102.198 311.278 102.367 310.901 102.722 310.726L103.54 310.311C108.75 307.677 113.96 305.048 119.17 302.414L128.232 297.84C128.478 297.715 128.756 297.545 129.056 297.365C129.7 296.971 130.436 296.529 131.086 296.409C131.107 296.403 131.124 296.403 131.146 296.398C131.44 293.611 131.326 290.649 131.222 287.78C131.167 286.315 131.113 284.807 131.113 283.359V248.839C131.113 248.724 131.135 248.615 131.178 248.516H48.367L48.5252 248.139C48.9234 247.177 49.3272 246.287 49.72 245.489C49.2726 244.992 49.0107 244.243 48.6889 242.992C47.9196 244.013 47.1667 244.975 46.3975 245.915C46.5339 246.68 46.6648 247.434 46.7903 248.199L46.8394 248.516H45.7319L45.6937 248.287C45.6282 247.855 45.5573 247.429 45.4809 247.003C45.0227 247.538 44.6135 247.997 44.2152 248.429L44.1334 248.516H11.7759C10.8648 248.516 9.92098 248.544 9.00989 248.571C7.14405 248.626 5.21821 248.68 3.36874 248.516C-0.133786 248.21 -0.0574072 246.183 0.0244276 244.041C0.0353389 243.68 0.0517058 243.308 0.0517058 242.931V62.2479L0.0462502 61.7561C0.0298832 59.8599 0.00806057 57.5046 2.05939 56.5866C2.77953 56.2641 3.30873 56.2696 3.97978 56.2696H4.25256H284.689C285.022 56.2696 285.361 56.2587 285.71 56.2423C287.996 56.1548 290.592 56.062 291.094 59.6031C291.351 61.3845 291.324 63.2644 291.264 64.8655C291.242 65.4721 291.22 66.0732 291.193 66.6798C291.144 67.811 291.094 68.882 291.094 69.9367V238.341C291.094 238.669 291.127 239.139 291.16 239.685C291.356 242.62 291.716 248.079 288.285 248.511H163.067C163.11 248.615 163.132 248.718 163.132 248.833V296.381C169.406 299.551 175.68 302.72 181.954 305.89L191.518 310.72C191.872 310.901 192.047 311.272 191.949 311.671C191.851 312.098 191.491 312.393 191.081 312.393ZM130.955 296.999C130.447 297.152 129.864 297.507 129.345 297.824C129.04 298.01 128.751 298.185 128.483 298.321L119.421 302.895C114.206 305.529 108.996 308.158 103.791 310.792L102.967 311.207C102.793 311.294 102.798 311.458 102.82 311.546C102.853 311.688 102.973 311.841 103.158 311.841H191.076C191.261 311.841 191.381 311.688 191.414 311.546C191.436 311.458 191.441 311.294 191.267 311.207L181.703 306.376C175.38 303.185 169.051 299.988 162.728 296.791L162.581 296.715V248.828C162.581 248.675 162.461 248.538 162.297 248.5L160.011 247.959H288.247C291.138 247.593 290.794 242.467 290.614 239.713C290.576 239.155 290.543 238.68 290.543 238.336V69.9367C290.543 68.8711 290.592 67.7454 290.642 66.6579C290.669 66.0568 290.696 65.4557 290.713 64.8491C290.773 63.2698 290.794 61.4228 290.543 59.685C290.112 56.6303 287.979 56.7122 285.721 56.7942C285.366 56.8051 285.017 56.8215 284.679 56.8215H4.25256H3.97978C3.33055 56.8161 2.89956 56.8161 2.28852 57.0893C0.564537 57.8598 0.580904 59.9255 0.597271 61.7507L0.602727 62.2479V242.92C0.602727 243.308 0.58636 243.686 0.575449 244.052C0.493614 246.248 0.433602 247.702 3.4233 247.964C5.24003 248.128 7.15497 248.074 8.99898 248.019C9.91553 247.992 10.8648 247.964 11.7814 247.964H43.9097C44.3843 247.451 44.8754 246.888 45.4537 246.205L45.8246 245.762V245.757L45.9065 245.658C46.8176 244.554 47.7014 243.423 48.607 242.194L48.8307 241.893L48.6507 241.882L48.6725 241.614L48.6943 240.92H40.1562C38.9723 242.434 37.7666 243.587 36.4682 244.44C35.7535 244.91 35.197 245.057 34.7278 244.91C34.2641 244.768 33.904 244.347 33.5876 243.598C33.2603 242.806 32.9875 241.904 32.7802 240.92H20.4177C19.572 240.92 18.721 240.926 17.8753 240.931C16.2004 240.942 14.4655 240.959 12.7688 240.92C8.72074 240.822 6.30388 238.035 6.30388 233.461V82.6912C6.30388 81.5054 6.29297 80.3196 6.28206 79.1337C6.26024 76.7949 6.23842 74.374 6.30388 71.9969C6.413 68.0733 9.21175 65.6306 13.6035 65.6306H274.924C276.206 65.6251 277.532 65.6306 278.77 65.8546C281.138 66.2809 282.6 67.4558 283.391 69.5542C284.117 71.4941 283.986 73.9915 283.866 76.1883C283.822 76.9861 283.784 77.7348 283.784 78.4288V231.057H283.511L283.784 231.068C283.784 235.259 283.784 240.472 277.734 240.915H240.935C240.848 240.959 240.766 240.997 240.684 241.03L240.608 241.062C240.482 241.117 240.368 241.172 240.253 241.216C239.888 241.369 239.533 241.489 239.211 241.565C239.195 241.571 239.162 241.582 239.124 241.587L239.053 241.604C238.938 241.631 238.835 241.647 238.742 241.664C238.611 241.685 238.513 241.696 238.426 241.707L238.344 241.44L238.366 241.713L238.289 241.718C237.264 241.762 236.963 241.265 236.893 241.112L236.816 240.942L236.843 240.915H53.1625C53.1461 240.981 53.1407 241.035 53.1352 241.09C53.1188 241.221 53.1134 241.358 53.1134 241.494C53.1134 241.931 53.1952 242.374 53.3589 242.811C53.3862 242.882 53.4134 242.959 53.4462 243.03C53.4735 243.095 53.5007 243.155 53.528 243.216C53.5444 243.254 53.5662 243.292 53.5826 243.325C53.5826 243.325 53.5826 243.325 53.5826 243.33C53.5826 243.33 53.5826 243.33 53.5826 243.336C53.5826 243.336 53.5826 243.336 53.5826 243.341V243.347V243.352V243.358C53.5826 243.363 53.588 243.363 53.588 243.369C53.6699 243.522 53.7626 243.664 53.8554 243.795C54.0845 244.117 54.3627 244.407 54.6737 244.653C54.7119 244.686 54.7501 244.713 54.7883 244.74C54.8319 244.778 54.8537 244.789 54.8756 244.8L54.9301 244.839C55.012 244.893 55.0883 244.937 55.1702 244.981C55.1702 244.981 55.1702 244.981 55.1756 244.981L55.1974 244.997C55.2029 245.003 55.2138 245.008 55.2193 245.013C55.2575 245.035 55.2847 245.052 55.3175 245.068C55.3175 245.068 55.3175 245.068 55.3229 245.068H55.3284H55.3338L56.4577 245.576L55.0883 245.593C54.0627 245.604 52.9552 245.615 51.6567 245.647H51.5913L51.5312 245.615C51.3785 245.538 51.2366 245.451 51.1003 245.363C50.9639 245.27 50.8384 245.177 50.7238 245.084C50.642 245.019 50.5601 244.953 50.4892 244.877C50.4238 244.822 50.3528 244.751 50.2819 244.675C50.1837 244.576 50.1019 244.483 50.0364 244.39L50.02 244.38L49.96 244.281C49.9055 244.216 49.8291 244.106 49.7582 243.997C49.7091 243.921 49.66 243.839 49.6163 243.757C49.529 243.614 49.4472 243.451 49.3599 243.248L49.2726 243.03C49.5727 244.166 49.8236 244.833 50.2383 245.21L50.391 245.352L50.2983 245.538C49.9327 246.265 49.5618 247.074 49.1908 247.953H134.233L131.948 248.494C131.784 248.533 131.664 248.675 131.664 248.822V283.343C131.664 284.78 131.718 286.288 131.773 287.742C131.877 290.545 131.986 293.436 131.724 296.185L131.822 296.201L131.866 296.414C131.877 296.496 131.866 296.644 131.664 296.769V296.78L130.9 297.124L130.955 296.999ZM131.669 296.66L131.664 296.704C131.686 296.693 131.702 296.682 131.708 296.671L131.669 296.66ZM50.451 244.046C50.5056 244.128 50.5765 244.21 50.6747 244.309C50.7347 244.374 50.7947 244.434 50.8547 244.483C50.9311 244.554 50.9911 244.609 51.0621 244.664C51.1657 244.746 51.2857 244.833 51.4058 244.915C51.4985 244.975 51.6076 245.041 51.7167 245.101C52.6769 245.079 53.528 245.068 54.3245 245.057C54.2754 245.013 54.2209 244.975 54.1718 244.931C53.9154 244.707 53.6753 244.445 53.468 244.161C53.4571 244.145 53.4462 244.128 53.4298 244.112C53.3262 243.959 53.217 243.795 53.1352 243.631C53.0697 243.511 52.9988 243.38 52.9497 243.243C52.917 243.177 52.8788 243.084 52.8461 242.992C52.8352 242.964 52.8242 242.937 52.8133 242.904C52.6006 242.298 52.5242 241.664 52.5896 241.068C52.5896 241.057 52.5951 241.046 52.5951 241.03C52.5951 240.991 52.6006 240.953 52.6115 240.909H49.2344L49.2181 241.429C49.289 241.472 49.3544 241.538 49.3926 241.609C49.4254 241.68 49.4308 241.718 49.4417 241.762C49.5345 242.106 49.6436 242.489 49.78 242.833L49.8673 243.052C49.9382 243.221 50.0091 243.363 50.0855 243.489C50.1291 243.565 50.1728 243.642 50.2164 243.713C50.2765 243.811 50.3474 243.91 50.4128 244.002L50.4565 244.03L50.451 244.046ZM33.3366 240.915C33.5385 241.822 33.7895 242.653 34.095 243.385C34.335 243.964 34.5969 244.292 34.8915 244.385C35.1916 244.478 35.6117 244.347 36.1736 243.981C36.3045 243.893 36.4409 243.8 36.5718 243.707C35.7971 243.921 35.1807 243.871 34.6951 243.571C33.8549 243.046 33.6313 241.838 33.4676 240.953C33.4676 240.942 33.4621 240.931 33.4621 240.92H33.3366V240.915ZM32.6711 240.368H33.9259L33.9531 240.609C33.964 240.674 33.975 240.74 33.9859 240.806C34.1768 241.828 34.3896 242.735 34.9788 243.101C35.328 243.319 35.8026 243.347 36.4245 243.172C37.101 242.992 38.154 241.538 38.7868 240.675L39.0105 240.368H277.706C283.233 239.97 283.233 235.445 283.233 231.068V78.4288C283.233 77.7239 283.271 76.9643 283.315 76.161C283.429 74.0134 283.56 71.5761 282.873 69.7455C282.158 67.8492 280.821 66.7836 278.672 66.3956C277.477 66.1825 276.184 66.1825 274.918 66.1825H13.6035C9.47362 66.1825 6.94765 68.3629 6.84945 72.0133C6.78944 74.3795 6.81126 76.7949 6.82763 79.1337C6.83854 80.3196 6.84945 81.5109 6.84945 82.6967V233.461C6.84945 235.499 7.42775 240.248 12.7797 240.374C14.471 240.412 16.2004 240.401 17.8699 240.385C18.721 240.379 19.5666 240.374 20.4177 240.374H32.6711V240.368ZM39.2888 240.915L39.2288 240.997C38.9341 241.407 38.6395 241.806 38.3504 242.161C38.7214 241.784 39.0869 241.369 39.4579 240.909H39.2888V240.915ZM237.509 241.019C237.64 241.106 237.88 241.188 238.273 241.166C238.349 241.161 238.376 241.161 238.404 241.161C238.458 241.155 238.535 241.15 238.611 241.134C238.737 241.112 238.824 241.101 238.911 241.079C238.933 241.073 238.966 241.062 238.998 241.057L239.069 241.041C239.211 241.008 239.358 240.964 239.506 240.915H237.629C237.585 240.948 237.547 240.986 237.509 241.019Z" fill="#E5E5E5"/>
<path d="M35.6881 243.833C35.3062 243.833 34.9734 243.746 34.6897 243.565C33.8495 243.041 33.6258 241.833 33.4621 240.948C33.4403 240.827 33.424 240.751 33.4185 240.674L33.3803 240.368H39.6925L39.2342 240.997C38.2849 242.303 37.3738 243.489 36.5719 243.702C36.25 243.789 35.9554 243.833 35.6881 243.833ZM34.0077 240.915C34.1932 241.893 34.4114 242.746 34.9788 243.101C35.328 243.319 35.8026 243.347 36.4246 243.172C37.0411 243.008 37.974 241.784 38.6123 240.909H34.0077V240.915Z" fill="#E5E5E5"/>
<path d="M48.9398 286.151C48.7652 286.069 48.5907 285.982 48.4215 285.884C47.7069 285.501 47.0085 285.015 46.3539 284.441C46.2338 284.343 46.1138 284.239 45.9938 284.129L45.9392 284.08C45.8956 284.037 45.8465 283.993 45.8028 283.938C45.541 283.703 45.2464 283.397 44.919 283.026C43.5387 281.474 42.3985 279.648 41.3456 277.905H41.3183L41.2419 277.73C40.1344 275.9 38.8469 273.73 37.6193 271.495L37.5866 271.43C37.2866 270.894 36.9919 270.364 36.7083 269.818L36.6755 269.752C33.7567 264.211 32 259.484 31.138 254.888C31.1053 254.719 31.078 254.549 31.0507 254.38C31.018 254.189 30.9798 253.992 30.9525 253.801L30.8925 253.653L30.9253 253.62C30.9089 253.505 30.8925 253.396 30.8762 253.281C30.8489 253.117 30.8271 252.948 30.8052 252.779C30.7889 252.648 30.7725 252.522 30.7616 252.391C30.7452 252.27 30.7289 252.15 30.7179 252.025C30.5816 250.795 30.4888 249.527 30.4506 248.254C30.4015 246.625 30.4233 244.926 30.5052 243.199C30.5488 242.183 30.6143 241.363 30.6961 240.62C30.9089 238.603 31.3017 236.904 31.8964 235.439C31.9837 235.237 32.0709 235.029 32.1637 234.833C32.251 234.641 32.3437 234.45 32.4474 234.259C32.5183 234.133 32.5838 234.013 32.6547 233.893L33.1239 234.172C33.053 234.286 32.993 234.401 32.9275 234.516C32.8347 234.696 32.742 234.876 32.6602 235.062C32.5674 235.254 32.4801 235.45 32.4037 235.642C31.8309 237.057 31.449 238.702 31.2417 240.674C31.1599 241.407 31.0998 242.215 31.0507 243.221C30.9689 244.931 30.9471 246.62 30.9962 248.232C31.0344 249.489 31.1217 250.746 31.2635 251.959C31.2744 252.09 31.2908 252.199 31.3072 252.314C31.3235 252.462 31.3344 252.582 31.3508 252.702C31.3726 252.872 31.3944 253.03 31.4217 253.199C31.4326 253.281 31.4435 253.363 31.4545 253.445H31.4599L31.4872 253.653C31.4872 253.659 31.4872 253.664 31.4872 253.669L31.509 253.806L31.5036 253.812C31.5254 253.97 31.5581 254.134 31.5854 254.292C31.6127 254.467 31.64 254.626 31.6727 254.795C32.5238 259.358 34.2805 264.052 37.1884 269.566L37.2211 269.632C37.5048 270.173 37.7994 270.703 38.0994 271.233L38.1322 271.304C39.3215 273.473 40.5763 275.577 41.6565 277.37H41.6674L41.722 277.473C41.7275 277.479 41.7329 277.49 41.7329 277.495L41.842 277.681C42.8786 279.403 43.997 281.179 45.3282 282.676C45.6446 283.031 45.9283 283.326 46.1956 283.572C46.2502 283.632 46.2829 283.665 46.3102 283.692L46.3702 283.752C46.4739 283.851 46.583 283.944 46.6976 284.042C47.3304 284.594 47.996 285.053 48.678 285.425C48.8416 285.517 49.0053 285.599 49.169 285.676L48.9398 286.151Z" fill="#E5E5E5"/>
<path d="M43.8879 265.877L43.6042 265.79C43.4787 265.752 43.3532 265.713 43.2277 265.675C42.9604 265.593 42.6931 265.517 42.4367 265.424C40.2544 264.61 39.0596 263.293 38.4486 261.019C38.1867 260.036 38.0994 259.019 38.0176 258.03C37.9085 256.746 37.8048 255.533 37.352 254.374L37.2702 254.167L37.4502 254.046C38.7105 253.205 39.9107 252.019 40.8764 251.063C41.111 250.828 41.3401 250.609 41.5529 250.402C42.3385 249.642 43.1023 248.85 43.8224 248.046C44.3243 247.505 44.8372 246.921 45.4482 246.194L45.8192 245.751L45.9228 246.319C46.0374 246.937 46.1411 247.56 46.2393 248.183C46.5339 249.937 46.8121 251.784 47.0631 253.664L47.074 253.724L47.0576 253.784C45.9447 257.276 44.9026 261.249 43.9533 265.582L43.8879 265.877ZM37.9303 254.385C38.3504 255.555 38.454 256.79 38.5577 257.992C38.6395 258.954 38.7214 259.948 38.9723 260.883C39.5343 262.965 40.6254 264.172 42.6222 264.916C42.8677 265.003 43.1241 265.08 43.3805 265.156C43.4132 265.167 43.446 265.178 43.4842 265.183C44.4116 260.97 45.4318 257.101 46.5175 253.686C46.2665 251.833 45.9938 250.014 45.7046 248.281C45.6391 247.85 45.5682 247.423 45.4918 246.997C45.0336 247.533 44.6244 247.992 44.2261 248.423C43.5005 249.232 42.7258 250.035 41.9293 250.806C41.7165 251.008 41.4928 251.232 41.2583 251.462C40.3199 252.385 39.1633 253.522 37.9303 254.385Z" fill="#E5E5E5"/>
<path d="M47.0631 253.74L46.9049 252.587C46.7303 251.32 46.523 249.953 46.2502 248.281C46.1193 247.478 45.9829 246.686 45.8356 245.882L45.8138 245.757L45.8956 245.658C46.8067 244.554 47.6905 243.423 48.5961 242.194L48.9508 241.713L49.0817 242.297C49.109 242.423 49.1253 242.505 49.1472 242.582C49.5018 244.002 49.7636 244.795 50.2328 245.227L50.3856 245.369L50.2928 245.554C49.8782 246.385 49.4472 247.319 49.0217 248.347C48.4816 249.658 47.9469 251.106 47.4286 252.642L47.0631 253.74ZM46.3975 245.904C46.5339 246.669 46.6648 247.423 46.7903 248.188C46.9867 249.38 47.1449 250.423 47.2868 251.38C47.6905 250.232 48.1051 249.139 48.5198 248.128C48.918 247.161 49.3217 246.27 49.72 245.478C49.2726 244.981 49.0108 244.232 48.6889 242.981C47.9251 244.008 47.1668 244.97 46.3975 245.904Z" fill="#E5E5E5"/>
<path d="M49.3708 285.856C49.3599 285.856 49.349 285.856 49.3381 285.856C49.1744 285.845 49.0435 285.774 48.9835 285.649C48.9562 285.594 48.9071 285.441 49.0271 285.266L49.4745 285.578C49.4908 285.556 49.5072 285.49 49.4745 285.414C49.4417 285.343 49.3817 285.31 49.3599 285.304C49.409 285.31 49.529 285.272 49.5563 285.228C49.8182 284.791 50.0801 284.348 50.331 283.905C50.4783 283.649 50.6202 283.392 50.762 283.135L50.4347 282.807H50.9311C50.9475 282.774 50.9693 282.741 50.9857 282.714C51.0239 282.643 51.0675 282.572 51.1057 282.496L51.2421 282.233C51.3349 282.058 51.4221 281.889 51.5094 281.714C53.4735 277.911 55.0283 273.905 56.1358 269.801L56.3104 269.134C56.3486 268.998 56.3813 268.867 56.4141 268.725C57.5707 264.14 58.1872 259.462 58.2472 254.817C58.2799 252.445 58.1653 250.298 57.8816 248.259C57.778 247.511 57.6689 246.839 57.5434 246.216L57.527 246.139C57.5216 246.112 57.5161 246.09 57.5107 246.063L57.4943 246.046L57.4506 245.866L57.4616 245.855C57.4234 245.675 57.3906 245.522 57.3579 245.369C56.976 243.691 56.485 242.177 55.8631 240.735C55.5684 240.051 55.2411 239.379 54.8865 238.735C54.6083 238.237 54.3027 237.767 54.0081 237.33L53.8445 237.166L53.8499 237.161L53.8445 237.155L53.8826 237.117C52.5351 235.172 50.882 233.51 49.0544 232.27C48.7052 232.024 48.3506 231.8 47.996 231.598C47.9251 231.554 47.8651 231.516 47.805 231.488L47.7559 231.461C47.325 231.221 46.954 231.029 46.5884 230.871L46.5393 230.844C46.4248 230.789 46.3047 230.74 46.1847 230.685L46.3757 230.171L46.272 230.423L46.392 230.177C46.523 230.231 46.6485 230.286 46.7739 230.346L46.8503 230.39C47.1831 230.532 47.5595 230.723 47.9633 230.953C48.0124 230.975 48.0506 231.002 48.0778 231.018C48.1106 231.029 48.1924 231.079 48.2742 231.128C48.6343 231.33 49.0053 231.565 49.3654 231.822C51.3076 233.15 53.0698 234.937 54.45 236.991L54.4555 237.002L54.6028 237.15L54.5646 237.193C54.8319 237.598 55.1047 238.024 55.3611 238.478C55.7267 239.139 56.0595 239.827 56.3595 240.527C56.9978 241.997 57.4997 243.543 57.8871 245.254C57.9253 245.412 57.958 245.571 57.9908 245.735C57.9962 245.757 58.0017 245.778 58.0071 245.8L58.1381 245.931L58.0562 246.024C58.0562 246.03 58.0562 246.035 58.0617 246.041L58.078 246.106C58.209 246.751 58.3181 247.429 58.4218 248.188C58.7054 250.254 58.8255 252.423 58.7873 254.822C58.7273 259.511 58.1053 264.227 56.9378 268.85C56.9051 268.992 56.8669 269.134 56.8287 269.277L56.665 269.899V270.14H56.5941C55.4812 274.211 53.9263 278.189 51.9786 281.96C51.8913 282.135 51.7986 282.31 51.7058 282.485L51.5695 282.747C51.5258 282.829 51.4822 282.905 51.4385 282.982C51.4058 283.037 51.3785 283.086 51.3512 283.14V283.348L51.2367 283.364C51.0894 283.632 50.942 283.9 50.7838 284.173C50.5329 284.621 50.271 285.069 49.9982 285.512C49.8837 285.747 49.5945 285.856 49.3708 285.856Z" fill="#E5E5E5"/>
<path d="M44.9089 286.244C42.6994 282.714 35.1597 286.075 33.1793 282.414C32.5301 281.217 32.721 279.648 31.859 278.583C29.8077 276.036 24.4721 278.971 22.7863 276.178C21.9079 274.719 22.8845 272.747 22.208 271.189C21.3842 269.282 18.7709 269.085 17.0033 267.965C14.21 266.205 14.0954 261.539 16.7959 259.648C17.287 259.303 17.8489 259.041 18.2581 258.599C19.4256 257.331 18.82 255.32 18.0398 253.79C17.2597 252.26 16.354 250.483 17.096 248.937C17.9853 247.095 20.7513 246.948 22.5189 248.013C24.2866 249.074 25.3941 250.91 26.7361 252.462C27.309 253.123 28.0455 253.79 28.9293 253.74C30.1787 253.675 30.8552 252.27 31.919 251.615C33.6594 250.544 36.0544 251.806 37.0091 253.593C37.9639 255.38 37.9475 257.495 38.1821 259.506C38.4167 261.517 39.0714 263.692 40.8117 264.752C42.3993 265.714 44.7125 265.637 45.7164 267.189C46.6656 268.653 45.8037 270.55 45.0344 272.113C44.2652 273.676 43.6869 275.779 44.9744 276.965C45.3345 277.299 45.8037 277.501 46.1856 277.812C47.3531 278.763 47.4731 280.566 46.8675 281.938C46.2674 283.31 46.0382 285.244 44.9089 286.244Z" fill="#E5E5E5"/>
<path d="M46.3593 277.599C45.9338 277.014 45.601 277.167 45.3336 277.238C45.1045 277.299 44.919 277.299 44.7499 276.719C44.6626 276.386 44.5753 275.861 44.4935 275.053C44.4062 274.2 44.9845 272.949 45.2791 272.249C45.6392 271.391 46.1302 270.588 46.2938 269.654C46.5612 268.14 46.2229 266.921 44.8917 266.058C44.5207 265.817 44.1061 265.67 43.686 265.533C43.2987 265.413 42.9004 265.309 42.5294 265.173C40.429 264.391 39.2942 263.118 38.7105 260.954C38.1267 258.768 38.4377 256.407 37.603 254.281C37.5648 254.172 37.5157 254.063 37.4666 253.954C37.4557 253.921 37.4393 253.888 37.4229 253.855C37.412 253.828 37.4011 253.806 37.3847 253.779C36.7519 252.484 35.5953 251.336 34.1168 251.041C32.8838 250.795 31.9346 251.407 30.9907 251.986V251.992C30.7943 252.112 30.5979 252.232 30.4015 252.342C30.3251 252.385 30.2488 252.429 30.1724 252.467C30.0687 252.522 29.9596 252.571 29.8505 252.62C29.0049 252.986 28.0938 253.063 26.9317 252.27C25.426 251.243 24.7113 249.407 23.2873 248.238C23.0091 248.003 22.6981 247.795 22.349 247.626C21.1433 247.035 19.6266 246.855 18.3718 247.407C17.9081 247.615 17.5371 247.899 17.2588 248.238C16.7515 248.861 16.5278 249.669 16.566 250.538C16.6042 251.303 16.9315 252.041 17.2316 252.735C18.4864 255.631 19.392 256.489 16.6369 259.435C14.6019 261.604 13.6145 264.67 15.7967 267.255C16.9533 268.621 18.6719 268.796 20.1449 269.654C23.4674 271.588 20.8759 274.632 22.9109 276.769C23.9202 277.829 25.5023 277.763 26.8553 277.752C29.1849 277.73 31.0125 277.304 32.2455 280.118C32.4365 280.55 32.5183 281.015 32.622 281.474C32.7365 282.015 32.8784 282.545 33.2494 283.004C34.0841 284.053 35.2243 284.446 36.4791 284.583C37.8212 284.736 39.2888 284.594 40.6691 284.665C42.2348 284.736 43.6806 285.069 44.6735 286.381C44.6899 286.403 44.7062 286.425 44.7281 286.436C44.7335 286.441 44.7335 286.441 44.739 286.441C44.7772 286.485 44.8263 286.512 44.8754 286.517C44.9517 286.534 45.0336 286.512 45.099 286.436C45.1045 286.43 45.1045 286.43 45.1045 286.425C45.1154 286.419 45.1209 286.408 45.1263 286.403C45.1372 286.392 45.1481 286.381 45.1591 286.365C45.1645 286.359 45.17 286.354 45.17 286.348C45.2191 286.293 45.2627 286.239 45.3118 286.184C45.3609 286.124 45.4046 286.064 45.4537 285.998C45.8737 285.457 46.2393 284.862 46.5339 284.239C46.8121 283.654 47.0249 283.047 47.1667 282.43C47.5541 280.747 47.385 279.004 46.3593 277.599ZM46.7303 281.512C46.6594 281.823 46.5721 282.168 46.4575 282.523C46.332 282.927 46.1847 283.348 46.0156 283.763C45.7974 284.299 45.5464 284.823 45.2682 285.277C45.1918 285.414 45.1045 285.539 45.0227 285.66C44.9845 285.714 44.9408 285.769 44.9026 285.823C44.6626 285.556 44.4007 285.332 44.1225 285.14C43.1405 284.479 41.9457 284.266 40.7127 284.184C40.1289 284.14 39.5343 284.129 38.956 284.108C37.8157 284.075 36.6319 284.064 35.6008 283.752C34.6351 283.474 33.8058 282.927 33.2712 281.862C33.2221 281.774 33.1839 281.681 33.1403 281.583C32.6001 280.299 32.7965 278.878 31.5799 277.933C30.7234 277.271 29.5777 277.195 28.5357 277.167C27.6464 277.151 26.7517 277.26 25.8624 277.222C24.5149 277.167 24.7058 277.118 23.6856 275.845C22.5181 274.391 22.8127 274.38 22.7363 272.85C22.5617 269.167 19.6484 269.528 17.1443 267.73C14.782 266.03 14.3837 262.32 16.4896 260.249C17.5534 259.205 18.8137 258.943 19.1356 257.353C19.3975 256.063 18.7755 254.801 18.279 253.653C18.0281 253.074 17.2261 251.943 17.2643 251.298C17.6898 250.686 18.1154 250.068 18.5464 249.456C18.6555 248.948 18.8137 248.538 19.021 248.238C19.4847 247.554 20.194 247.391 21.1542 247.746C21.5797 247.85 21.978 248.019 22.349 248.238C23.3419 248.817 24.1602 249.729 24.8804 250.582C25.7478 251.604 26.6535 253.347 28.0283 253.833C29.0649 254.205 29.6595 253.828 30.336 253.298C30.4288 253.227 30.527 253.15 30.6306 253.068C30.7016 253.014 30.767 252.959 30.8434 252.91C30.8816 252.877 30.9198 252.85 30.9634 252.817L31.078 252.735C34.3078 250.451 35.8572 251.729 36.7628 254.118C36.7955 254.205 36.8283 254.292 36.861 254.38C36.8937 254.478 36.9265 254.577 36.9592 254.68C37.8812 257.582 38.0613 261.686 39.0433 263.293C39.8507 264.615 40.98 265.156 42.3821 265.692C42.8022 265.85 43.1896 266.009 43.5442 266.184C44.9081 266.839 45.7592 267.708 45.6883 269.583C45.6337 270.96 44.5808 272.162 44.2043 273.484C43.9152 274.49 43.7733 275.659 44.3462 276.599C45.3555 278.255 47.3741 278.648 46.7303 281.512Z" fill="#E5E5E5"/>
<path d="M42.1148 291.501C38.2468 292.534 33.2603 292.452 29.3704 291.518C27.821 291.146 26.2661 290.594 25.0932 289.534C23.2601 287.889 22.6327 285.239 22.8727 282.807C22.96 281.894 23.2055 280.916 23.9475 280.359C24.3839 280.031 24.935 279.9 25.4805 279.829C28.1865 279.468 30.9416 280.386 33.2439 281.834C35.5407 283.288 41.8693 289.785 42.1148 291.501Z" fill="#E5E5E5"/>
<path d="M36.5118 289.048C36.19 287.742 35.4916 286.594 34.4769 285.698C34.215 285.468 33.8277 285.845 34.0895 286.08C35.0388 286.916 35.6826 287.971 35.9881 289.19C36.0699 289.529 36.5991 289.386 36.5118 289.048Z" fill="#E5E5E5"/>
<path d="M49.1471 282.179C49.1308 285.933 49.0217 289.682 48.8198 293.425C48.8144 293.523 48.8089 293.627 48.8034 293.725C48.7871 294.031 48.7707 294.343 48.7543 294.649V294.654C48.7543 294.66 48.7543 294.665 48.7489 294.676C48.7325 294.982 48.7162 295.294 48.6943 295.6C48.6834 295.807 48.6671 296.021 48.6561 296.228C48.6561 296.234 48.6561 296.234 48.6561 296.239C48.6234 296.572 48.0888 296.573 48.1106 296.228C48.116 296.103 48.1269 295.982 48.1324 295.857V295.851C48.1488 295.638 48.1597 295.43 48.1706 295.217V295.212C48.187 295.037 48.1979 294.862 48.2033 294.682C48.2251 294.337 48.247 293.993 48.2633 293.649C48.2633 293.605 48.2688 293.561 48.2688 293.512C48.2906 293.119 48.3124 292.72 48.3288 292.321C48.3343 292.316 48.3288 292.316 48.3288 292.316C48.4379 290.097 48.5143 287.878 48.5579 285.649C48.5798 284.517 48.5961 283.381 48.5961 282.25C48.6452 272.714 48.0724 263.167 46.7958 253.713C46.5503 251.882 46.2775 250.057 45.972 248.238C45.8738 247.615 45.7701 246.997 45.6555 246.38C45.6446 246.281 45.6283 246.188 45.6064 246.095C45.5901 245.992 45.5737 245.893 45.5519 245.795C45.3173 244.451 45.0609 243.106 44.7881 241.767C44.7172 241.429 45.2409 241.287 45.3118 241.625C45.5573 242.828 45.7865 244.035 46.0047 245.243C46.0265 245.347 46.0429 245.445 46.0592 245.549C46.0811 245.642 46.0974 245.74 46.1083 245.833C46.2557 246.636 46.392 247.434 46.523 248.238C46.7576 249.669 46.9813 251.107 47.1777 252.549C48.5634 262.353 49.1853 272.271 49.1471 282.179Z" fill="#E5E5E5"/>
<path d="M50.0419 296.387C44.7553 282.916 36.2991 270.654 25.5296 260.866C25.2732 260.631 24.8858 261.014 25.1423 261.249C35.8408 270.965 44.2643 283.146 49.5181 296.529C49.6381 296.851 50.1673 296.709 50.0419 296.387Z" fill="#E5E5E5"/>
<path d="M38.0667 274.741C38.0012 272.692 37.8376 270.659 37.532 268.632C37.3411 267.353 37.3356 264.992 36.4627 263.981C36.4027 263.916 36.2827 263.883 36.1954 263.91C36.1572 263.927 36.119 263.938 36.0754 263.954C35.748 264.074 35.8899 264.593 36.2227 264.473C36.2936 264.446 37.4884 273.73 37.5211 274.736C37.532 275.085 38.0776 275.085 38.0667 274.741Z" fill="#E5E5E5"/>
<path d="M32.2183 267.834C29.2613 267.522 26.5553 266.484 24.133 264.779C23.8493 264.577 23.5765 265.041 23.8602 265.244C26.3643 267.009 29.1631 268.047 32.2183 268.375C32.5674 268.408 32.562 267.867 32.2183 267.834Z" fill="#E5E5E5"/>
<path d="M49.1417 295.933C43.8715 291.938 37.3957 288.583 30.7725 287.55C30.4288 287.496 30.2815 288.015 30.6252 288.069C37.2102 289.097 43.6206 292.419 48.8634 296.398C49.1417 296.605 49.4145 296.141 49.1417 295.933Z" fill="#E5E5E5"/>
<path d="M38.0285 289.676C36.8992 290.059 35.7481 290.299 34.5587 290.397C34.2096 290.425 34.2096 290.966 34.5587 290.933C35.7972 290.835 36.9974 290.594 38.1758 290.195C38.5032 290.08 38.3613 289.561 38.0285 289.676Z" fill="#E5E5E5"/>
<path d="M51.4713 288.572C55.1211 286.944 58.9182 283.752 61.3242 280.594C62.2789 279.337 63.1245 277.933 63.3537 276.381C63.7083 273.96 62.4917 271.523 60.735 269.796C60.0803 269.151 59.2565 268.544 58.329 268.583C57.7835 268.604 57.2706 268.85 56.8069 269.134C54.4828 270.55 52.9497 272.987 52.1041 275.55C51.2585 278.107 50.5602 287.091 51.4713 288.572Z" fill="#E5E5E5"/>
<path d="M51.6131 288.807C56.2504 286.594 62.7808 281.905 63.621 276.452C64.0902 273.413 61.3187 267.353 57.4397 268.511C53.5499 269.67 51.755 274.889 51.264 278.386C50.8493 281.332 49.9 285.884 51.2421 288.714C51.3894 289.026 51.8586 288.753 51.7113 288.441C50.762 286.436 51.324 283.211 51.504 281.091C51.755 278.151 52.1314 275.31 53.6917 272.73C55.4866 269.774 58.9782 267.413 61.7006 271.353C63.6046 274.113 63.4137 276.965 61.6461 279.692C59.2292 283.419 55.3284 286.446 51.3349 288.348C51.0184 288.49 51.2967 288.955 51.6131 288.807Z" fill="#E5E5E5"/>
<path d="M54.701 282.916C54.1663 281.807 53.9809 280.61 54.1663 279.397C54.2154 279.058 53.6917 278.911 53.6426 279.255C53.4353 280.627 53.6262 281.938 54.2318 283.19C54.3846 283.501 54.8538 283.228 54.701 282.916Z" fill="#E5E5E5"/>
<path d="M49.4199 296.562C50.9039 290.228 53.6972 283.654 58.1053 278.747C58.3399 278.49 57.9526 278.107 57.718 278.364C53.2553 283.332 50.3965 289.993 48.8907 296.414C48.8144 296.758 49.3381 296.9 49.4199 296.562Z" fill="#E5E5E5"/>
<path d="M53.6371 285.102C54.7992 284.676 55.8903 284.118 56.9051 283.414C57.1887 283.217 56.916 282.752 56.6323 282.949C55.6557 283.621 54.6137 284.168 53.4953 284.583C53.1679 284.703 53.3098 285.228 53.6371 285.102Z" fill="#E5E5E5"/>
<path d="M39.507 299.441C40.6363 304.392 40.5272 310.382 41.6511 315.671C46.8067 315.814 53.3807 315.125 58.5363 315.267C58.5363 309.507 59.1746 304.371 59.0982 298.436C52.6769 299.775 45.841 296.791 39.5234 298.54L39.507 299.441Z" fill="#E5E5E5"/>
<path d="M35.9881 295.108C36.31 296.108 36.6319 297.906 36.9537 298.9C45.3064 298.993 53.659 299.081 62.017 299.174C61.7279 297.545 61.586 295.895 61.597 294.239C53.1789 294.873 44.3953 294.474 35.9881 295.108Z" fill="#E5E5E5"/>
<path d="M30.6143 37.881C32.0219 40.1106 33.424 42.3402 34.8315 44.5697C35.0552 44.925 35.5571 44.925 35.7808 44.5697C37.1884 42.3402 38.5905 40.1106 39.998 37.881C39.6816 37.881 39.3652 37.881 39.0487 37.881C40.4563 40.1106 41.8584 42.3402 43.266 44.5697C43.4896 44.925 43.9916 44.925 44.2152 44.5697C45.6228 42.3402 47.0249 40.1106 48.4325 37.881C48.116 37.881 47.7996 37.881 47.4832 37.881C48.8907 40.1106 50.2928 42.3402 51.7004 44.5697C51.9241 44.925 52.426 44.925 52.6497 44.5697C54.0572 42.3402 55.4593 40.1106 56.8669 37.881C56.5505 37.881 56.2341 37.881 55.9176 37.881C57.3252 40.1106 58.7273 42.3402 60.1348 44.5697C60.3585 44.925 60.8604 44.925 61.0841 44.5697C62.4917 42.3402 63.8938 40.1106 65.3013 37.881C65.6778 37.2799 64.7285 36.7334 64.3521 37.3291C62.9445 39.5587 61.5424 41.7882 60.1348 44.0178C60.4513 44.0178 60.7677 44.0178 61.0841 44.0178C59.6766 41.7882 58.2745 39.5587 56.8669 37.3291C56.6432 36.9739 56.1413 36.9739 55.9176 37.3291C54.5101 39.5587 53.108 41.7882 51.7004 44.0178C52.0168 44.0178 52.3333 44.0178 52.6497 44.0178C51.2421 41.7882 49.84 39.5587 48.4325 37.3291C48.2088 36.9739 47.7069 36.9739 47.4832 37.3291C46.0756 39.5587 44.6735 41.7882 43.266 44.0178C43.5824 44.0178 43.8988 44.0178 44.2152 44.0178C42.8077 41.7882 41.4056 39.5587 39.998 37.3291C39.7743 36.9739 39.2724 36.9739 39.0487 37.3291C37.6412 39.5587 36.2391 41.7882 34.8315 44.0178C35.1479 44.0178 35.4644 44.0178 35.7808 44.0178C34.3732 41.7882 32.9711 39.5587 31.5636 37.3291C31.1871 36.7334 30.2379 37.2854 30.6143 37.881Z" fill="#E5E5E5"/>
<path d="M263.129 263.593C263.129 265.457 263.129 267.32 263.129 269.189C263.129 269.517 263.642 269.517 263.642 269.189C263.642 267.326 263.642 265.462 263.642 263.593C263.647 263.265 263.129 263.265 263.129 263.593Z" fill="#E5E5E5"/>
<path d="M260.554 266.643C262.441 266.643 264.335 266.643 266.222 266.643C266.555 266.643 266.555 266.134 266.222 266.134C264.335 266.134 262.441 266.134 260.554 266.134C260.221 266.134 260.221 266.643 260.554 266.643Z" fill="#E5E5E5"/>
<path d="M104.817 9.55224C104.609 14.3284 100.949 18.2028 95.9948 18.2574C91.232 18.3121 87.1185 14.2518 87.173 9.55224C87.2276 4.81438 91.1557 0.847042 95.9948 0.847042C100.959 0.847042 104.615 4.80892 104.817 9.55224C104.838 10.0932 105.695 10.0987 105.673 9.55224C105.449 4.33896 101.434 0.0218789 95.9948 2.02788e-05C90.741 -0.0218384 86.2947 4.36628 86.3165 9.55224C86.3383 14.7491 90.7083 19.1045 95.9948 19.1045C101.434 19.1045 105.449 14.7491 105.673 9.55224C105.7 9.01124 104.844 9.01124 104.817 9.55224Z" fill="#E5E5E5"/>
<path d="M95.4711 15.8256V14.2791C94.5709 14.2627 93.6434 13.9895 93.1033 13.607L93.4743 12.5851C94.0308 12.9512 94.8382 13.2409 95.7057 13.2409C96.8077 13.2409 97.5497 12.6124 97.5497 11.7435C97.5497 10.902 96.9441 10.3828 95.7984 9.92381C94.2163 9.31176 93.2452 8.60682 93.2452 7.27891C93.2452 6.01111 94.1617 5.04933 95.5857 4.81981V3.27332H96.5459V4.75424C97.4733 4.78703 98.1116 5.02747 98.559 5.28978L98.1716 6.30074C97.8443 6.11494 97.2114 5.78159 96.2185 5.78159C95.0237 5.78159 94.5764 6.48654 94.5764 7.09858C94.5764 7.89095 95.1492 8.28987 96.4968 8.8418C98.0898 9.48663 98.8972 10.279 98.8972 11.6397C98.8972 12.8474 98.0462 13.9786 96.4476 14.2409V15.8311H95.4711V15.8256Z" fill="#E5E5E5"/>
<path d="M86.2892 212.176C87.7186 214.444 89.148 216.712 90.5774 218.985C90.8065 219.346 91.3194 219.346 91.543 218.985C92.9724 216.718 94.4018 214.45 95.8312 212.176C95.5093 212.176 95.1874 212.176 94.8655 212.176C96.2949 214.444 97.7243 216.712 99.1537 218.985C99.3828 219.346 99.8956 219.346 100.119 218.985C101.549 216.718 102.978 214.45 104.407 212.176C104.086 212.176 103.764 212.176 103.442 212.176C104.871 214.444 106.301 216.712 107.73 218.985C107.959 219.346 108.472 219.346 108.696 218.985C110.125 216.718 111.554 214.45 112.984 212.176C112.662 212.176 112.34 212.176 112.018 212.176C113.447 214.444 114.877 216.712 116.306 218.985C116.535 219.346 117.048 219.346 117.272 218.985C118.701 216.718 120.131 214.45 121.56 212.176C121.942 211.564 120.976 211.007 120.594 211.614C119.165 213.881 117.736 216.149 116.306 218.422C116.628 218.422 116.95 218.422 117.272 218.422C115.843 216.155 114.413 213.887 112.984 211.614C112.755 211.253 112.242 211.253 112.018 211.614C110.589 213.881 109.159 216.149 107.73 218.422C108.052 218.422 108.374 218.422 108.696 218.422C107.266 216.155 105.837 213.887 104.407 211.614C104.178 211.253 103.665 211.253 103.442 211.614C102.012 213.881 100.583 216.149 99.1537 218.422C99.4756 218.422 99.7974 218.422 100.119 218.422C98.6899 216.155 97.2606 213.887 95.8312 211.614C95.602 211.253 95.0892 211.253 94.8655 211.614C93.4361 213.881 92.0068 216.149 90.5774 218.422C90.8993 218.422 91.2211 218.422 91.543 218.422C90.1137 216.155 88.6843 213.887 87.2549 211.614C86.873 211.007 85.9073 211.57 86.2892 212.176Z" fill="#E5E5E5"/>
<path d="M165.113 220.28C165.113 223.117 165.113 225.953 165.113 228.794C165.113 229.292 165.898 229.292 165.898 228.794C165.898 225.958 165.898 223.122 165.898 220.28C165.898 219.783 165.113 219.783 165.113 220.28Z" fill="#E5E5E5"/>
<path d="M161.195 224.925C164.07 224.925 166.946 224.925 169.821 224.925C170.323 224.925 170.328 224.149 169.821 224.149C166.946 224.149 164.07 224.149 161.195 224.149C160.688 224.149 160.688 224.925 161.195 224.925Z" fill="#E5E5E5"/>
<path d="M154.103 108.643C153.896 113.419 150.235 117.299 145.276 117.354C140.508 117.408 136.394 113.343 136.449 108.643C136.503 103.905 140.431 99.9322 145.276 99.9322C150.246 99.9322 153.896 103.9 154.103 108.643C154.125 109.184 154.981 109.189 154.96 108.643C154.736 103.43 150.715 99.1071 145.276 99.0852C140.022 99.0634 135.57 103.457 135.592 108.643C135.614 113.845 139.989 118.201 145.276 118.201C150.715 118.201 154.736 113.84 154.96 108.643C154.981 108.102 154.125 108.102 154.103 108.643Z" fill="#E5E5E5"/>
<path d="M144.747 114.927V113.381C143.846 113.364 142.919 113.091 142.373 112.709L142.744 111.681C143.301 112.047 144.108 112.337 144.976 112.337C146.078 112.337 146.82 111.709 146.82 110.84C146.82 109.998 146.214 109.479 145.068 109.02C143.486 108.408 142.51 107.703 142.51 106.375C142.51 105.107 143.426 104.14 144.85 103.911V102.364H145.81V103.85C146.738 103.883 147.376 104.124 147.824 104.386L147.436 105.397C147.109 105.211 146.476 104.878 145.483 104.878C144.288 104.878 143.841 105.583 143.841 106.195C143.841 106.993 144.414 107.386 145.761 107.938C147.36 108.583 148.162 109.375 148.162 110.736C148.162 111.944 147.311 113.075 145.712 113.337V114.927H144.747Z" fill="#E5E5E5"/>
<path d="M120.987 105.752H15.9495V165.251H120.987V105.752Z" fill="#E5E5E5"/>
<path d="M272.868 207.362H130.65V128.654H272.868V207.362ZM131.196 206.815H272.323V129.201H131.196V206.815Z" fill="#E5E5E5"/>
<path d="M272.594 207.679H130.922C130.6 207.679 130.327 207.406 130.327 207.083V128.928C130.327 128.605 130.6 128.338 130.922 128.338H272.594C272.916 128.338 273.189 128.611 273.189 128.928V207.089C273.189 207.258 273.124 207.406 273.014 207.509C272.911 207.613 272.764 207.679 272.594 207.679ZM132.722 207.132H272C272 207.116 272 207.1 272 207.083V207.04H134.026C133.792 207.04 133.481 207.067 133.153 207.094C133.011 207.111 132.87 207.122 132.722 207.132ZM130.873 129.141V207.089C130.873 207.111 130.9 207.138 130.922 207.138H131.026C131.015 207.121 131.004 207.105 130.993 207.083C130.982 207.072 130.955 207.05 130.889 207.029L130.949 206.87C130.944 206.766 130.955 206.641 130.976 206.471C131.047 205.974 131.02 205.417 130.998 204.881C130.987 204.608 130.976 204.335 130.976 204.067V149.704C130.976 147.535 131.031 145.305 131.086 143.147C131.195 138.802 131.304 134.305 130.976 129.977C130.96 129.742 130.976 129.556 130.993 129.414L130.873 129.141ZM272.545 207.04V207.083C272.545 207.1 272.545 207.121 272.594 207.121C272.611 207.121 272.622 207.122 272.633 207.116C272.638 207.111 272.638 207.1 272.638 207.083C272.638 207.04 272.622 207.04 272.6 207.04H272.545ZM131.506 206.602C131.98 206.652 132.586 206.597 133.104 206.553C133.442 206.526 133.764 206.493 134.026 206.493H272V136.376C272 135.709 271.956 134.988 271.907 134.228C271.803 132.633 271.7 130.982 272.005 129.562C272.011 129.534 272.016 129.507 272.022 129.48C271.934 129.485 271.831 129.496 271.705 129.512C270.576 129.655 269.376 129.605 268.219 129.562C267.652 129.54 267.09 129.518 266.544 129.518H136.247C135.783 129.518 135.286 129.545 134.768 129.578C133.677 129.638 132.553 129.704 131.56 129.512C131.555 129.512 131.544 129.507 131.533 129.507C131.522 129.622 131.511 129.758 131.522 129.928C131.849 134.283 131.74 138.791 131.631 143.152C131.577 145.305 131.522 147.535 131.522 149.693V204.056C131.522 204.313 131.533 204.575 131.544 204.843C131.571 205.406 131.593 205.985 131.517 206.537C131.511 206.564 131.511 206.58 131.506 206.602ZM272.545 206.493H272.594C272.611 206.493 272.627 206.493 272.644 206.493V129.021L272.567 129.206C272.583 129.343 272.573 129.501 272.534 129.676C272.245 131.021 272.349 132.633 272.447 134.19C272.496 134.961 272.54 135.687 272.54 136.371V206.493H272.545ZM131.473 128.955C131.577 128.966 131.653 128.977 131.653 128.977C132.58 129.152 133.677 129.092 134.73 129.032C135.259 128.999 135.761 128.971 136.241 128.971H266.533C267.084 128.971 267.657 128.993 268.23 129.015C269.37 129.059 270.543 129.108 271.629 128.971C271.765 128.955 271.885 128.944 271.989 128.939L272.06 128.879H131.369C131.391 128.889 131.413 128.9 131.429 128.917C131.446 128.928 131.462 128.939 131.473 128.955ZM272.442 128.879C272.48 128.911 272.556 128.95 272.644 128.988V128.928C272.644 128.906 272.616 128.884 272.594 128.884H272.442V128.879ZM130.922 128.879C130.895 128.879 130.873 128.906 130.873 128.922V128.966C130.949 128.928 131.02 128.895 131.091 128.879H130.922Z" fill="#E5E5E5"/>
<path d="M276.108 93.5058H13.6799C10.6357 93.5058 8.16428 91.0631 8.16428 88.0575V73.0407C8.16428 70.0351 10.6411 67.5924 13.6799 67.5924H276.108C279.152 67.5924 281.623 70.0351 281.623 73.0407V88.0575C281.623 91.0631 279.147 93.5058 276.108 93.5058ZM13.6799 68.1389C10.9357 68.1389 8.70984 70.3411 8.70984 73.0407V88.0575C8.70984 90.7626 10.9412 92.9593 13.6799 92.9593H276.108C278.852 92.9593 281.078 90.7571 281.078 88.0575V73.0407C281.078 70.3357 278.847 68.1389 276.108 68.1389H13.6799ZM69.5949 85.6531C66.6762 85.6531 64.2975 83.3634 64.2975 80.5491C64.2975 77.7348 66.6707 75.4451 69.5949 75.4451C72.5137 75.4451 74.8869 77.7348 74.8869 80.5491C74.8869 83.3634 72.5192 85.6531 69.5949 85.6531ZM69.5949 75.9971C66.9762 75.9971 64.8431 78.0408 64.8431 80.5546C64.8431 83.0683 66.9762 85.1121 69.5949 85.1121C72.2136 85.1121 74.3414 83.0683 74.3414 80.5546C74.3414 78.0408 72.2136 75.9971 69.5949 75.9971ZM50.2983 85.6531C47.3795 85.6531 45.0008 83.3634 45.0008 80.5491C45.0008 77.7348 47.3741 75.4451 50.2983 75.4451C53.2225 75.4451 55.5957 77.7348 55.5957 80.5491C55.5957 83.3634 53.2171 85.6531 50.2983 85.6531ZM50.2983 75.9971C47.6796 75.9971 45.5464 78.0408 45.5464 80.5546C45.5464 83.0683 47.6796 85.1121 50.2983 85.1121C52.917 85.1121 55.0502 83.0683 55.0502 80.5546C55.0502 78.0408 52.9115 75.9971 50.2983 75.9971ZM30.9962 85.6531C28.0774 85.6531 25.6987 83.3634 25.6987 80.5491C25.6987 77.7348 28.072 75.4451 30.9962 75.4451C33.915 75.4451 36.2882 77.7348 36.2882 80.5491C36.2882 83.3634 33.915 85.6531 30.9962 85.6531ZM30.9962 75.9971C28.3775 75.9971 26.2443 78.0408 26.2443 80.5546C26.2443 83.0683 28.3775 85.1121 30.9962 85.1121C33.6149 85.1121 35.7426 83.0683 35.7426 80.5546C35.7426 78.0408 33.6149 75.9971 30.9962 75.9971Z" fill="#E5E5E5"/>
<path d="M175.964 38.3893C175.451 33.8044 175.762 20.2029 180.072 14.8202C186.608 6.65052 227.274 6.1587 244.323 8.54676C247.553 9.00032 250.859 9.50307 253.734 11.0277C261.176 14.9677 263.543 24.1975 265.158 32.3781C265.988 36.575 266.817 40.903 265.977 45.0999C265.137 49.2967 262.218 53.3843 257.979 54.2969C256.015 54.7231 253.963 54.439 251.972 54.7122C245.049 55.663 240.69 64.5267 244.214 70.4832C239.015 68.8984 237.875 61.625 233.068 59.1167C231.268 58.1768 229.167 58.0347 227.138 57.9363C216.794 57.45 206.412 57.7505 196.112 58.8435C192.549 59.2205 188.959 59.4337 185.413 58.9036C175.964 57.4937 176.646 44.5151 175.964 38.3893Z" fill="#E5E5E5"/>
<path d="M176.52 38.3892C175.686 29.9682 175.702 16.088 184.938 12.301C194.257 8.48117 205.43 8.22979 215.365 7.94017C226.047 7.62322 237.291 7.54671 247.815 9.65607C256.004 11.2955 260.346 16.9896 262.698 24.5527C264.842 31.4491 267.575 40.8593 264.531 47.7229C263.402 50.264 261.514 52.5372 258.786 53.5045C256.587 54.2805 254.231 53.816 251.972 54.1657C249.73 54.51 247.738 55.5155 246.118 57.0893C242.446 60.6687 241.355 66.2262 243.728 70.7619C243.936 70.4941 244.149 70.2263 244.356 69.9586C238.453 67.7454 237.869 59.7615 231.513 57.9582C227.7 56.8762 223.292 57.2095 219.364 57.1767C214.421 57.133 209.478 57.2696 204.546 57.5811C197.47 58.0347 184.496 61.7889 179.772 54.6685C176.662 49.9853 177.066 43.7391 176.52 38.3892C176.449 37.6952 175.336 37.6843 175.407 38.3892C175.937 43.5643 175.718 49.1492 178.092 53.9362C181.278 60.3626 188.414 60.0785 194.769 59.5265C205.523 58.5976 216.33 57.7505 227.132 58.4883C230.177 58.6959 232.806 59.0784 234.999 61.319C236.298 62.6414 237.225 64.2699 238.256 65.7945C239.8 68.0678 241.415 70.0187 244.067 71.0187C244.552 71.1991 244.896 70.5979 244.694 70.2154C242.681 66.3738 243.472 61.7725 246.298 58.5156C249.446 54.8925 253.292 55.6357 257.537 54.9198C263.472 53.9198 266.522 48.0398 266.85 42.5697C267.259 35.7553 265.273 27.6894 262.758 21.3614C260.657 16.0716 257.226 11.5141 251.656 9.53038C246.353 7.63961 240.111 7.41556 234.514 7.08768C228.3 6.72701 222.064 6.66144 215.845 6.83084C205.561 7.115 193.716 7.32813 184.12 11.4649C174.676 15.536 174.556 29.7223 175.413 38.3892C175.478 39.0887 176.591 39.0942 176.52 38.3892Z" fill="#E5E5E5"/>
<path d="M330.97 87.4182C331.177 83.7623 330.337 73.0024 326.693 68.9203C321.161 62.7234 288.923 64.0568 275.519 66.6689C272.976 67.1662 270.385 67.7017 268.17 69.0296C262.447 72.4669 260.974 79.877 260.046 86.4291C259.572 89.7898 259.103 93.2544 259.948 96.5442C260.794 99.8339 263.287 102.949 266.68 103.495C268.257 103.747 269.867 103.435 271.46 103.572C276.986 104.031 280.822 110.867 278.29 115.736C282.338 114.261 282.927 108.452 286.626 106.26C288.012 105.441 289.671 105.238 291.275 105.074C299.447 104.249 307.685 104.053 315.89 104.479C318.727 104.626 321.581 104.643 324.369 104.074C331.799 102.55 330.697 92.2981 330.97 87.4182Z" fill="#E5E5E5"/>
<path d="M246.298 106.402C246.298 109.239 246.298 112.075 246.298 114.916C246.298 115.414 247.084 115.414 247.084 114.916C247.084 112.08 247.084 109.244 247.084 106.402C247.084 105.905 246.298 105.9 246.298 106.402Z" fill="#E5E5E5"/>
<path d="M242.381 111.042C245.256 111.042 248.131 111.042 251.006 111.042C251.508 111.042 251.514 110.266 251.006 110.266C248.131 110.266 245.256 110.266 242.381 110.266C241.874 110.271 241.874 111.042 242.381 111.042Z" fill="#E5E5E5"/>
<path d="M56.0376 218.04C56.0649 219.843 56.0922 221.641 56.114 223.444C56.114 223.581 56.114 223.723 56.0485 223.838C55.9612 223.991 55.7757 224.062 55.6121 224.117C53.2825 224.936 50.9475 225.756 48.6179 226.576C55.2247 229.221 60.113 229.221 65.3013 226.494C63.0754 225.98 60.6585 224.117 58.4654 223.477C58.0344 223.352 58.9673 224.209 58.6945 223.854C58.4599 223.543 58.4163 223.138 58.3835 222.75C58.2417 221.127 58.0998 219.51 57.958 217.887L56.0376 218.04Z" fill="#E5E5E5"/>
<path d="M44.7117 283.119C49.1635 299.491 49.66 316.486 51.8477 333.295C51.8968 333.667 52.3278 334.153 52.6169 334.393C52.8843 334.617 53.2662 334.639 53.6153 334.645C54.6683 334.672 55.4812 334.169 56.5341 334.197C57.8707 327.175 58.3399 306.906 58.52 304.229C59.0492 296.414 59.5784 288.594 60.113 280.78C55.2138 281.403 50.3092 282.026 45.41 282.649L44.7117 283.119Z" fill="#E5E5E5"/>
<path d="M60.9423 281.151C62.8026 298.993 64.663 316.835 66.5234 334.677C68.0728 335.093 69.4695 334.94 71.0461 334.65C72.3173 316.114 73.834 297.802 75.0997 279.266C70.4897 280.495 65.7432 281.233 60.9695 281.468L60.9423 281.151Z" fill="#E5E5E5"/>
<path d="M51.6949 332.53C50.1564 332.453 48.8307 332.481 47.2977 332.634C47.1013 333.065 47.5432 333.503 47.9469 333.759C50.1182 335.137 52.6715 335.923 55.252 336C55.5411 336.011 55.8521 336.005 56.1031 335.858C56.4359 335.667 56.5832 335.273 56.6814 334.907C56.8996 334.093 56.9923 333.251 56.9487 332.41C55.7103 333.956 53.0097 334.022 51.6949 332.53Z" fill="#E5E5E5"/>
<path d="M71.4608 332.53C72.9992 332.453 74.325 332.481 75.858 332.634C76.0544 333.065 75.6125 333.503 75.2088 333.759C73.0374 335.137 70.4842 335.923 67.9037 336C67.6145 336.011 67.3035 336.005 67.0526 335.858C66.7198 335.667 66.5725 335.273 66.4743 334.907C66.2561 334.093 66.1633 333.251 66.207 332.41C67.4399 333.956 70.1459 334.022 71.4608 332.53Z" fill="#E5E5E5"/>
<path d="M80.6699 290.72C78.7932 291.654 76.5727 292.408 74.1231 292.988C70.5551 293.829 66.507 294.305 62.328 294.441C62.0825 294.452 61.8424 294.458 61.5969 294.463C60.795 294.485 59.993 294.49 59.191 294.479C58.76 294.479 58.329 294.474 57.8925 294.458H57.8871C57.8816 294.458 57.8816 294.458 57.8762 294.458C55.2629 294.403 52.6497 294.212 50.1237 293.9C49.9437 293.884 49.7582 293.857 49.5781 293.835H49.5727C49.3654 293.807 49.169 293.78 48.9616 293.747C48.9071 293.747 48.858 293.736 48.8034 293.725C48.6452 293.709 48.487 293.687 48.3342 293.66C48.307 293.66 48.2851 293.654 48.2633 293.649C47.8487 293.594 47.4395 293.529 47.0303 293.458C46.3375 293.343 45.6555 293.217 44.9845 293.081H44.979C44.4116 292.971 43.8551 292.851 43.3096 292.725C42.2894 292.49 41.3019 292.234 40.3526 291.955V291.889C40.3472 291.654 40.3417 291.414 40.3417 291.168C40.3417 290.977 40.3417 290.78 40.3472 290.578C40.3472 290.004 40.3635 289.403 40.3908 288.78C40.3908 288.774 40.3908 288.774 40.3908 288.774C40.4454 287.501 40.5381 286.124 40.669 284.665C40.6745 284.594 40.68 284.523 40.6909 284.446V284.441C40.6963 284.353 40.7018 284.271 40.7127 284.184C40.8327 282.905 40.98 281.572 41.1546 280.195C41.1873 279.922 41.2255 279.643 41.2637 279.364C41.3346 278.796 41.4165 278.217 41.5038 277.632V277.621C42.0275 273.932 42.7258 270.031 43.5442 266.183C43.5715 266.058 43.5987 265.932 43.6315 265.801C43.6478 265.714 43.6697 265.626 43.686 265.533C44.5917 261.391 45.6446 257.331 46.7957 253.713C46.9267 253.32 47.0522 252.932 47.1776 252.549C47.6959 251.008 48.2306 249.565 48.7762 248.238C49.1962 247.227 49.6218 246.287 50.0528 245.429L50.0582 245.423C50.6202 245.407 51.1494 245.39 51.6513 245.38C53.0097 245.347 54.1609 245.336 55.2247 245.325C56.0649 245.319 56.8505 245.319 57.6416 245.319C58.5909 245.319 59.5402 245.319 60.604 245.303C60.6095 245.303 60.6095 245.303 60.6095 245.303C61.5424 245.298 62.5571 245.281 63.7301 245.248C64.1065 245.237 64.4939 245.227 64.9031 245.216C64.9467 245.276 64.9904 245.336 65.034 245.401C65.6287 246.248 66.2233 247.199 66.8235 248.238C73.2011 259.336 79.4315 280.26 80.6699 290.72Z" fill="#E5E5E5"/>
<path d="M91.5812 204.843C90.9156 204.471 88.3896 204.154 88.3787 203.941C88.1659 199.291 87.2658 198.766 86.5292 199.558C85.8582 200.28 86.2837 203.192 86.3438 204.406C85.7327 204.471 85.0617 204.624 84.8053 205.165C84.6198 205.553 84.7289 206.001 84.8434 206.411C85.1653 207.548 85.5527 208.668 85.9946 209.766C86.0219 210.122 86.0491 210.471 86.0873 210.821L86.0546 210.903C86.2019 210.963 86.3547 211.007 86.5129 211.04L86.5674 211.094C86.562 211.078 86.5511 211.062 86.5456 211.045C87.0148 211.127 87.5113 211.089 87.9914 211.045C89.0116 210.958 90.0263 210.865 91.0465 210.777C91.2157 210.761 91.4011 210.739 91.5212 210.619C91.6085 210.526 91.6412 210.4 91.6739 210.275C91.9249 209.22 92.1104 208.143 92.2359 207.067C92.3341 206.253 92.3068 205.247 91.5812 204.843Z" fill="#E5E5E5"/>
<path d="M49.3607 227.887C45.9782 230.018 41.2755 239.811 36.1526 244.041C35.8307 244.309 35.4597 244.582 35.0397 244.538C34.4013 244.467 34.1122 243.729 33.9594 243.106C32.3991 236.653 32.5901 230.089 31.9518 223.488C30.3478 224.379 26.1415 226.117 25.896 226.674C25.7269 227.057 26.1033 240.041 27.5218 245.658C28.3183 248.795 29.2458 252.15 31.7717 254.21C32.4537 254.768 33.272 255.221 34.1558 255.271C35.3779 255.342 36.5018 254.659 37.4783 253.932C41.8647 250.686 45.7164 246.221 48.9188 241.828L49.3607 227.887Z" fill="#E5E5E5"/>
<path d="M49.5781 227.849C49.5781 227.854 49.5781 227.854 49.5781 227.86C49.5836 227.86 49.5781 227.865 49.5781 227.865C49.589 227.947 49.5618 228.029 49.4799 228.089C49.4745 228.089 49.4745 228.095 49.469 228.1C49.4254 228.128 49.3872 228.155 49.349 228.182C49.3435 228.188 49.3381 228.188 49.3381 228.193C49.3326 228.193 49.3272 228.199 49.3272 228.199V228.204C49.3217 228.204 49.3217 228.21 49.3217 228.21C49.3163 228.21 49.3163 228.21 49.3163 228.21C49.1144 228.352 48.918 228.499 48.7325 228.652C48.6125 228.745 48.4979 228.844 48.3833 228.947C48.307 229.007 48.236 229.078 48.1597 229.15C47.6523 229.603 47.1722 230.106 46.7248 230.63C44.1716 233.62 42.453 237.5 40.0253 240.642C38.9669 242.013 37.7775 243.248 36.3209 244.205C35.1097 244.997 34.406 244.844 33.844 243.489C33.4785 242.604 33.2057 241.642 33.0038 240.642C32.6383 238.811 32.5019 236.844 32.4146 234.942C32.3546 233.631 32.3164 232.352 32.2455 231.177C32.1691 229.898 32.1037 228.619 32.0218 227.341C31.9836 226.734 32.18 224.69 31.7272 224.259C31.2144 223.783 28.7593 225.286 27.9137 225.712C26.9317 226.204 26.3316 226.401 26.097 227.412C25.9279 228.15 26.1188 229.139 26.1461 229.887C26.2607 233.439 26.4025 237.073 26.8717 240.642C27.139 242.718 27.5209 244.778 28.061 246.784C28.192 247.27 28.3284 247.757 28.4811 248.238C28.9339 249.691 29.5068 251.112 30.4015 252.342C30.4888 252.467 30.587 252.593 30.6797 252.713C30.7343 252.779 30.7889 252.844 30.8434 252.91C30.8489 252.915 30.8489 252.915 30.8543 252.921C30.9471 253.03 31.0453 253.139 31.1489 253.238C32.6329 254.713 34.7551 255.063 36.7628 254.118L36.9919 254.003C37.0519 253.975 37.1065 253.943 37.1611 253.904C37.2374 253.866 37.3138 253.822 37.3847 253.779C38.3122 253.194 39.1687 252.336 39.9653 251.626C41.171 250.555 42.3166 249.418 43.4078 248.238C44.1443 247.445 44.859 246.626 45.5519 245.795C45.7046 245.615 45.8574 245.429 46.0047 245.243C46.9321 244.112 47.8214 242.953 48.6834 241.778C48.6998 241.757 48.7107 241.74 48.727 241.718C48.7707 241.664 48.8252 241.631 48.8798 241.625C48.8962 241.62 48.918 241.62 48.9344 241.62C49.0216 241.625 49.1089 241.675 49.1471 241.746C49.158 241.773 49.1635 241.8 49.1689 241.828C49.1689 241.866 49.158 241.904 49.1253 241.948C49.0817 242.008 49.038 242.063 48.9944 242.123C48.9398 242.199 48.8798 242.281 48.8198 242.358C47.9469 243.538 47.0467 244.696 46.1083 245.833C45.961 246.019 45.8083 246.199 45.6555 246.38C45.1263 247.008 44.5862 247.631 44.0243 248.238C43.2932 249.052 42.5294 249.844 41.7383 250.609C40.6309 251.675 39.1851 253.221 37.603 254.282C37.5266 254.331 37.4557 254.38 37.3793 254.429C37.2429 254.516 37.101 254.604 36.9592 254.68C36.1954 255.118 35.4043 255.413 34.6133 255.467C33.3203 255.555 32.2346 255.112 31.3235 254.336C30.9634 254.036 30.6361 253.686 30.336 253.298C30.2924 253.249 30.2597 253.199 30.216 253.145C30.0905 252.975 29.9705 252.801 29.8505 252.62C29.0212 251.336 28.3993 249.768 27.9355 248.238C27.4336 246.587 27.1172 244.981 26.9099 243.833C26.7189 242.778 26.5607 241.713 26.4189 240.642C25.9115 236.68 25.7206 232.647 25.6496 228.674C25.6333 227.942 25.4205 226.975 25.8788 226.352C26.2334 225.876 26.8226 225.477 27.51 225.117C28.4811 224.619 29.6541 224.215 30.6415 223.827C31.0944 223.647 31.5035 223.477 31.8418 223.297C32.0055 223.209 32.1746 223.319 32.191 223.494C32.5074 226.996 32.6165 230.516 32.8947 234.024C32.9547 234.893 33.0311 235.762 33.1239 236.625C33.2657 237.97 33.4403 239.314 33.6858 240.642C33.6967 240.729 33.7131 240.811 33.7295 240.899C34.0131 242.412 34.3841 244.019 36.5009 243.44C37.3247 243.221 38.4595 241.593 39.1524 240.642C39.2833 240.456 39.3979 240.303 39.4961 240.183C41.8256 237.275 43.7351 233.428 46.2938 230.439C46.9103 229.712 47.5704 229.035 48.2851 228.434C48.3724 228.357 48.4597 228.292 48.547 228.221L48.5525 228.215C48.6507 228.133 48.7543 228.057 48.8525 227.98C48.9835 227.882 49.1144 227.789 49.2453 227.696C49.3162 227.647 49.3817 227.647 49.4363 227.669C49.5072 227.696 49.5618 227.767 49.5781 227.849Z" fill="#E5E5E5"/>
<path d="M49.3933 227.975L49.6177 227.822C49.5411 227.865 49.4645 227.92 49.3933 227.975Z" fill="#E5E5E5"/>
<path d="M49.5072 228.171C49.5836 228.122 49.66 228.068 49.7309 228.018C49.9709 227.854 49.7473 227.461 49.4963 227.625C49.4199 227.674 49.3435 227.723 49.2726 227.778C49.038 227.947 49.2672 228.346 49.5072 228.171C49.5836 228.117 49.6545 228.068 49.7309 228.018C49.6545 227.887 49.5727 227.756 49.4963 227.625C49.4199 227.674 49.3435 227.729 49.2726 227.778C49.0326 227.942 49.2617 228.341 49.5072 228.171Z" fill="#E5E5E5"/>
<path d="M49.3825 227.98C49.3882 227.975 49.3939 227.975 49.3939 227.975L49.3825 227.98Z" fill="#E5E5E5"/>
<path d="M49.4963 228.177C49.5018 228.177 49.5018 228.171 49.5072 228.171C49.7418 227.997 49.5236 227.609 49.2726 227.778C49.2672 227.778 49.2672 227.783 49.2617 227.783C49.0217 227.953 49.2508 228.346 49.4963 228.177C49.5018 228.177 49.5018 228.171 49.5072 228.171C49.4308 228.04 49.349 227.909 49.2726 227.778C49.2672 227.783 49.2672 227.783 49.2617 227.783C48.9944 227.915 49.229 228.308 49.4963 228.177Z" fill="#E5E5E5"/>
<path d="M85.2528 210.816C84.9745 214.351 81.6793 230.363 78.6296 233.784C75.2307 237.598 72.1483 233.926 71.5318 233.237C69.8405 231.341 66.4744 225.565 63.4465 226.597C61.3025 227.33 61.3025 227.33 58.0072 227.696C55.1048 228.013 48.9236 226.674 48.9236 226.674C48.9236 226.674 47.7288 231.188 47.7833 233.013C47.9034 236.958 48.5417 240.893 49.6819 244.675C49.7637 244.942 49.851 245.227 50.0583 245.423C50.3311 245.686 50.7348 245.735 51.1113 245.773C55.705 246.199 60.3586 246.013 64.8977 245.216C65.5033 243.642 65.5742 240.98 65.9125 239.33C65.9343 239.456 69.4259 245.554 74.6143 245.997C78.5641 246.336 82.214 243.5 85.0018 239.909C87.7951 236.319 89.3936 231.636 90.5939 227.27C92.0996 221.81 93.278 216.482 93.4253 210.826C90.703 210.821 87.9806 210.821 85.2528 210.816Z" fill="#E5E5E5"/>
<path d="M48.9726 240.964C48.9671 240.942 48.9616 240.926 48.9562 240.904L48.9344 241.62C49.0217 241.625 49.1089 241.675 49.1471 241.746C49.0871 241.494 49.0271 241.232 48.9726 240.964ZM48.2633 229.51C48.2415 229.614 48.2197 229.718 48.1979 229.827C48.0997 230.303 48.0124 230.789 47.9414 231.253C48.0124 231.286 48.0833 231.33 48.1542 231.374C48.307 230.456 48.5525 229.559 48.7325 228.652C48.6125 228.745 48.4979 228.844 48.3833 228.947C48.3397 229.133 48.3015 229.319 48.2633 229.51ZM93.4361 210.597H91.5376C89.7154 210.597 87.8877 210.592 86.0655 210.592H85.2527C85.149 210.592 85.0835 210.646 85.0563 210.717L85.0508 210.723C85.0508 210.728 85.0508 210.728 85.0453 210.734V210.75C85.029 210.772 85.0235 210.794 85.0235 210.821C84.6143 215.34 83.4414 219.903 82.2302 224.27C81.0954 228.384 78.0676 239.532 71.9845 233.396C69.9986 231.39 67.9528 226.838 64.7558 226.341C64.7503 226.341 64.7503 226.341 64.7449 226.341C64.3139 226.27 63.861 226.281 63.3864 226.379C61.9843 226.669 60.6531 227.007 59.2947 227.231C58.0835 227.439 56.856 227.548 55.5412 227.455C54.9247 227.412 54.3027 227.352 53.6862 227.27C52.1096 227.078 50.5383 226.783 48.9889 226.455H48.9671C48.8907 226.439 48.8089 226.466 48.7598 226.526L48.7543 226.532C48.7325 226.548 48.7161 226.576 48.7052 226.608V226.614C48.547 227.226 48.4052 227.833 48.2851 228.434C48.2579 228.57 48.236 228.707 48.2142 228.844L48.2088 228.849C48.1924 228.947 48.1706 229.051 48.1597 229.15C48.0342 229.844 47.9414 230.532 47.876 231.215C47.5705 234.357 47.7941 237.439 48.4379 240.642C48.5143 241.019 48.5961 241.396 48.6834 241.778C48.7052 241.877 48.7271 241.97 48.7543 242.068V242.073C48.7707 242.166 48.7925 242.265 48.8198 242.358C48.8416 242.456 48.8634 242.56 48.8907 242.658C49.2563 244.128 49.529 244.948 50.0528 245.429C50.642 245.97 51.5476 246.068 53.2389 246.156C54.7719 246.232 56.2995 246.238 57.8271 246.177C60.2167 246.084 62.5953 245.822 64.9631 245.434C64.9904 245.429 65.0122 245.423 65.034 245.401C65.0776 245.374 65.1104 245.325 65.1267 245.276C65.4377 244.298 65.6014 243.314 65.7432 242.298C65.7542 242.188 65.9069 241.363 65.956 240.642C65.9778 240.341 65.9887 240.062 65.9615 239.855C65.9887 239.904 66.0051 239.948 66.016 239.959C66.1906 240.188 66.3597 240.412 66.5289 240.642C67.3854 241.784 68.231 242.882 69.3658 243.833C72.8247 246.735 76.9928 246.904 80.7354 244.369C82.2739 243.325 83.5996 242.057 84.7344 240.642C87.0421 237.784 88.6079 234.314 89.759 230.865C91.3248 226.171 92.5414 221.308 93.1852 216.39V216.384C93.2997 215.537 93.3925 214.69 93.4689 213.843C93.5616 212.838 93.6271 211.832 93.6653 210.827C93.6707 210.701 93.5562 210.597 93.4361 210.597ZM90.2882 210.843H90.2991C91.6303 210.903 92.7705 211.165 93.1634 211.881C93.3816 212.28 93.2888 213.324 93.1306 214.379C92.956 215.499 92.6996 216.625 92.6451 217.013C92.6287 217.116 92.6123 217.22 92.596 217.324C92.3996 218.592 92.1595 219.849 91.8922 221.1C90.7956 226.242 89.4699 231.609 87.0148 236.303C86.2892 237.691 85.3127 239.221 84.1452 240.642C81.3791 243.997 77.522 246.729 73.2448 245.505C70.8715 244.822 68.4383 242.838 66.9435 240.642C66.6216 240.172 66.3434 239.691 66.1197 239.21C66.0378 239.041 65.7269 239.079 65.6941 239.265C65.6287 239.647 65.5959 240.123 65.5687 240.642C65.5032 242.046 65.4814 243.724 64.8812 244.516C64.6521 244.828 64.2484 245.068 63.7301 245.248C62.5408 245.664 60.7622 245.778 59.1364 245.795H59.131C58.6509 245.8 58.1817 245.8 57.7452 245.795C57.2433 245.784 56.7905 245.773 56.4086 245.768C56.2177 245.762 56.0431 245.762 55.8958 245.762C54.8156 245.762 53.1625 246.035 52.175 245.631C51.9895 245.554 51.815 245.472 51.6513 245.38C51.5094 245.309 51.373 245.232 51.2476 245.145C51.1221 245.063 51.0021 244.975 50.8929 244.882C50.8166 244.828 50.7456 244.768 50.6802 244.696C50.6093 244.636 50.5438 244.571 50.4838 244.505C50.3856 244.407 50.2983 244.308 50.2274 244.205C50.211 244.194 50.2055 244.183 50.2001 244.172C50.1182 244.074 50.0473 243.97 49.9873 243.866C49.9382 243.795 49.8891 243.718 49.8509 243.636C49.7582 243.483 49.6818 243.325 49.6109 243.155C49.5781 243.084 49.5454 243.013 49.5236 242.942C49.3817 242.593 49.2726 242.216 49.169 241.828C49.1635 241.8 49.158 241.773 49.1471 241.746C49.0871 241.494 49.0271 241.232 48.9726 240.964C48.9671 240.942 48.9616 240.926 48.9562 240.904V240.893C48.9398 240.811 48.9235 240.729 48.9071 240.642C48.3615 238.013 47.8978 235.226 48.0233 232.549C48.0396 232.15 48.0887 231.762 48.1542 231.374C48.307 230.456 48.5525 229.559 48.7325 228.652C48.7598 228.537 48.7816 228.423 48.798 228.308C48.8198 228.199 48.8362 228.089 48.8525 227.98C48.8634 227.925 48.8744 227.865 48.8798 227.811C49.038 226.701 48.8089 226.882 49.7691 227.078C49.9164 227.111 50.0637 227.139 50.2164 227.171C50.2219 227.171 50.2219 227.171 50.2274 227.171C51.5149 227.428 52.8352 227.658 54.1554 227.794C55.6012 227.958 57.0633 228.007 58.5036 227.871C58.9291 227.833 59.3492 227.789 59.7693 227.729C60.5604 227.63 61.3405 227.494 62.1098 227.281C62.9554 227.046 63.6701 226.936 64.3248 226.975C65.6068 227.051 66.6161 227.685 67.8273 228.98C69.5458 230.816 70.7843 233.357 72.8956 234.822C77.4183 237.948 80.1353 232.171 81.3355 228.745C83.305 223.138 84.9035 216.98 85.4654 211.04C85.7109 211.034 86.0001 211.018 86.3274 210.996C87.2549 210.93 88.4442 210.827 89.579 210.827C89.819 210.827 90.0591 210.832 90.2882 210.843ZM48.3833 228.947C48.3397 229.133 48.3015 229.319 48.2633 229.51C48.2415 229.614 48.2197 229.718 48.1979 229.827C48.0997 230.303 48.0124 230.789 47.9414 231.253C48.0124 231.286 48.0833 231.33 48.1542 231.374C48.307 230.456 48.5525 229.559 48.7325 228.652C48.6125 228.745 48.4979 228.844 48.3833 228.947ZM48.9726 240.964C48.9671 240.942 48.9616 240.926 48.9562 240.904L48.9344 241.62C49.0217 241.625 49.1089 241.675 49.1471 241.746C49.0871 241.494 49.0271 241.232 48.9726 240.964Z" fill="#E5E5E5"/>
<path d="M27.4991 225.095C26.7626 223.007 26.7353 220.69 27.4227 218.586C27.8483 217.291 28.5957 216.018 29.8178 215.384C30.3415 215.111 31.0125 214.985 31.5036 215.313C31.9509 215.614 32.0982 216.198 32.1473 216.728C32.3601 218.936 31.5472 221.127 31.6072 223.341C30.2815 224.007 28.9558 224.668 27.6355 225.335L27.4991 225.095Z" fill="#E5E5E5"/>
<path d="M54.6082 209.706C52.6606 209.974 50.9693 211.482 50.4074 213.34C49.8455 215.204 50.391 217.324 51.7113 218.767C52.4642 219.586 53.5226 220.379 53.4516 221.477C53.3589 222.854 51.4876 223.745 51.6676 225.117C51.8531 226.483 53.8881 226.865 54.3464 228.171C55.0665 230.232 51.3185 231.822 51.9241 233.915C52.2569 235.062 53.7681 235.554 54.1554 236.685C54.5755 237.931 53.4571 239.112 53.0261 240.352C52.4369 242.057 53.2771 244.057 54.7828 245.068C56.294 246.079 58.3181 246.166 60.0257 245.544C61.4769 245.013 62.7754 243.964 63.3809 242.56C63.9865 241.155 63.8119 239.39 62.7699 238.259C61.9406 237.357 60.6095 236.827 60.2221 235.663C59.622 233.86 61.777 232.1 61.4551 230.226C61.0896 228.1 57.7343 226.882 58.3781 224.822C58.7109 223.756 60.0912 222.745 59.4147 221.849C59.2019 221.57 58.8418 221.444 58.5854 221.204C57.7398 220.412 58.4163 219.051 58.8418 217.98C60.1839 214.614 58.9018 209.706 54.6082 209.706Z" fill="#E5E5E5"/>
<path d="M157.393 153.983C172.827 153.983 188.261 153.983 203.695 153.983C205.899 153.983 208.103 153.983 210.307 153.983C210.149 153.781 209.991 153.573 209.833 153.371C207.885 160.508 205.364 167.694 203.946 174.94C203.886 175.235 203.82 175.656 203.679 175.929C203.908 175.503 204.35 175.7 203.739 175.618C202.757 175.487 201.655 175.618 200.667 175.618C196.543 175.618 192.413 175.618 188.288 175.618C179.428 175.618 170.563 175.618 161.703 175.618C161.021 175.618 160.153 175.76 159.488 175.618C159.608 175.645 159.935 176.224 159.837 175.705C159.761 175.301 159.646 174.902 159.553 174.503C158.68 170.836 157.807 167.169 156.935 163.503C154.992 155.349 153.05 147.196 151.108 139.048C151.059 138.841 150.846 138.693 150.633 138.693C146.994 138.693 143.35 138.693 139.711 138.693C139.078 138.693 139.078 139.66 139.711 139.66C141.811 139.66 143.917 139.66 146.018 139.66C147.218 139.66 148.587 139.846 149.771 139.66C149.962 139.633 150.399 139.606 150.595 139.66C150.459 139.622 150.033 139.086 150.202 139.474C151.599 142.693 151.953 146.819 152.761 150.212C154.829 158.885 156.891 167.557 158.959 176.224C159.008 176.432 159.22 176.579 159.433 176.579C174.338 176.579 189.248 176.579 204.153 176.579C204.366 176.579 204.568 176.426 204.628 176.224C206.685 168.689 208.741 161.153 210.793 153.622C210.875 153.316 210.64 153.01 210.318 153.01C194.884 153.01 179.45 153.01 164.016 153.01C161.812 153.01 159.608 153.01 157.404 153.01C156.76 153.016 156.76 153.983 157.393 153.983Z" fill="#E5E5E5"/>
<path d="M168.249 176.448C175.675 182.787 183.105 189.121 190.53 195.46C191.005 195.864 191.703 195.181 191.223 194.777C183.798 188.438 176.368 182.099 168.942 175.765C168.468 175.355 167.769 176.039 168.249 176.448Z" fill="#E5E5E5"/>
<path d="M192.314 175.64C184.889 181.979 177.459 188.318 170.034 194.651C169.553 195.061 170.252 195.744 170.726 195.334C178.152 188.995 185.582 182.656 193.007 176.323C193.487 175.918 192.794 175.235 192.314 175.64Z" fill="#E5E5E5"/>
<path d="M171.687 197.198C171.687 198.881 170.301 200.247 168.599 200.247C166.897 200.247 165.511 198.881 165.511 197.198C165.511 195.515 166.897 194.148 168.599 194.148C170.301 194.148 171.687 195.515 171.687 197.198Z" fill="#E5E5E5"/>
<path d="M195.364 197.198C195.364 198.881 193.978 200.247 192.276 200.247C190.574 200.247 189.188 198.881 189.188 197.198C189.188 195.515 190.574 194.148 192.276 194.148C193.978 194.148 195.364 195.515 195.364 197.198Z" fill="#E5E5E5"/>
<path d="M195.599 181.946C198.643 197.192 201.687 212.439 204.731 227.685C209.543 251.784 214.355 275.878 219.167 299.977C220.28 305.562 221.398 311.147 222.511 316.732C222.631 317.344 223.581 317.081 223.455 316.475C220.411 301.228 217.367 285.982 214.323 270.736C209.511 246.636 204.699 222.543 199.887 198.444C198.774 192.859 197.655 187.274 196.543 181.689C196.428 181.077 195.479 181.334 195.599 181.946Z" fill="#E5E5E5"/>
<path d="M232.954 181.946C235.998 197.192 239.042 212.439 242.086 227.685C246.898 251.784 251.71 275.878 256.522 299.977C257.635 305.562 258.753 311.147 259.866 316.732C259.986 317.344 260.936 317.081 260.81 316.475C257.766 301.228 254.722 285.982 251.677 270.736C246.866 246.636 242.054 222.543 237.242 198.444C236.129 192.859 235.01 187.274 233.897 181.689C233.777 181.077 232.834 181.334 232.954 181.946Z" fill="#E5E5E5"/>
<path d="M199.434 199.116C211.835 198.859 224.235 198.607 236.636 198.351C237.269 198.34 237.269 197.367 236.636 197.383C224.235 197.64 211.835 197.892 199.434 198.148C198.801 198.159 198.801 199.132 199.434 199.116Z" fill="#E5E5E5"/>
<path d="M203.335 219.133C215.736 218.876 228.136 218.625 240.537 218.368C241.17 218.357 241.17 217.384 240.537 217.4C228.136 217.657 215.736 217.909 203.335 218.166C202.707 218.176 202.702 219.149 203.335 219.133Z" fill="#E5E5E5"/>
<path d="M208.289 244.39C220.689 244.134 233.09 243.882 245.491 243.625C246.124 243.614 246.124 242.642 245.491 242.658C233.09 242.915 220.689 243.166 208.289 243.423C207.656 243.434 207.656 244.407 208.289 244.39Z" fill="#E5E5E5"/>
<path d="M213.204 267.643C225.605 267.386 238.006 267.134 250.406 266.878C251.039 266.867 251.039 265.894 250.406 265.91C238.006 266.167 225.605 266.419 213.204 266.675C212.571 266.686 212.571 267.659 213.204 267.643Z" fill="#E5E5E5"/>
<path d="M218.032 290.895C230.433 290.638 242.834 290.387 255.234 290.13C255.867 290.119 255.867 289.146 255.234 289.162C242.834 289.419 230.433 289.671 218.032 289.927C217.405 289.938 217.4 290.911 218.032 290.895Z" fill="#E5E5E5"/>
<path d="M217.323 133.562C215.73 137.966 211.595 147.262 204.873 147.262C200.776 147.262 197.486 135.545 197.339 129.031C194.6 130.403 191.551 131.174 188.479 131.267C189.379 138.294 190.405 145.65 194.622 151.382C195.424 152.475 196.335 153.486 197.268 154.475C198.196 155.459 199.161 156.42 200.312 157.136C203.018 158.814 206.505 158.907 209.56 157.989C212.615 157.071 215.305 155.24 217.781 153.251C217.934 153.131 218.092 152.999 218.169 152.825C218.261 152.622 218.24 152.393 218.223 152.169C217.623 145.956 218.18 139.813 217.58 133.6L217.323 133.562Z" fill="#E5E5E5"/>
<path d="M212.806 189.722C214.972 206.706 216.521 223.794 217.438 240.926C215.905 241.451 214.366 241.975 212.833 242.505C217.279 242.276 218.671 242.21 223.117 241.981C222.992 224.581 225.37 207.034 224.132 189.695L212.806 189.722Z" fill="#E5E5E5"/>
<path d="M222.397 189.553C229.718 204.018 234.372 223.565 238.78 239.51C237.138 241.073 237.307 240.603 235.96 242.5C239.604 241.866 240.264 241.543 243.93 240.068C240.864 223.351 240.079 201.744 237.013 185.028C231.857 186.809 226.701 188.591 221.546 190.367L222.397 189.553Z" fill="#E5E5E5"/>
<path d="M215.839 124.168C214.312 123.354 213.815 121.239 214.093 119.545C214.366 117.851 215.616 116.392 217.181 115.649C218.747 114.905 220.586 114.834 222.271 115.244C223.073 115.441 223.854 115.741 224.503 116.244C225.812 117.255 226.827 119.13 227.214 120.725C227.563 122.151 227.383 123.425 227.067 124.856C226.75 126.288 225.779 127.654 224.361 128.097C223.373 128.409 222.282 128.239 221.322 127.84C220.367 127.441 219.522 126.835 218.682 126.228C217.732 125.54 216.788 124.851 215.839 124.168Z" fill="#E5E5E5"/>
<path d="M226.69 123.354C226.86 122.988 227.318 122.845 227.727 122.813C228.655 122.742 229.609 123.053 230.313 123.654C231.017 124.255 231.464 125.141 231.524 126.059C231.551 126.507 231.491 126.966 231.306 127.37C230.777 128.512 229.604 129.447 228.338 129.545C227.634 129.6 226.931 129.818 225.949 129.146C225.37 128.753 224.808 128.124 224.579 127.469C224.421 127.015 224.443 126.523 224.541 126.053C224.83 124.66 225.856 123.441 227.181 122.895C227.203 122.884 227.225 122.878 227.242 122.867L226.69 123.354Z" fill="#E5E5E5"/>
<path d="M222.681 119.605C222.937 118.162 221.12 117.474 219.642 117.364C218.163 117.255 217.209 117.49 216.45 118.753C215.697 120.015 215.501 121.529 215.528 122.999C215.561 124.84 216.068 126.906 217.678 127.835C219.625 128.955 222.321 127.693 223.275 125.676C224.23 123.66 223.608 121.632 222.681 119.605Z" fill="#E5E5E5"/>
<path d="M220.264 127.206C220.144 128.141 220.155 130.059 220.029 130.988C219.991 131.288 218.791 132.332 218.578 132.512C216.679 134.135 216.237 136.573 215.528 139.043C219.473 139.212 220.618 137.513 224.552 137.201C224.044 135.25 223.242 132.966 222.484 131.103C221.939 129.764 221.617 127.474 221.617 127.474C221.546 127.337 221.426 127.179 221.273 127.212C221.12 127.245 221.262 127.551 221.344 127.419L220.264 127.206Z" fill="#E5E5E5"/>
<path d="M215.294 119.315C215.517 119.862 216.587 120.348 217.159 120.517C217.732 120.687 218.332 120.747 218.933 120.785C222.304 120.998 223.128 123.933 223.444 126.545C224.23 125.441 225.894 121.671 224.574 119.485C223.586 117.845 222.217 116.758 220.318 116.414C218.414 116.069 215.255 116.567 215.294 119.315Z" fill="#E5E5E5"/>
<path d="M216.99 122.769C217.072 123.479 216.99 124.157 216.739 124.824C216.707 124.906 216.739 125.042 216.81 125.097C217.05 125.283 217.285 125.376 217.596 125.365C217.961 125.354 217.961 124.791 217.596 124.802C217.454 124.824 217.329 124.791 217.214 124.698C217.236 124.791 217.263 124.878 217.285 124.971C217.552 124.255 217.645 123.523 217.558 122.764C217.52 122.414 216.947 122.408 216.99 122.769Z" fill="#E5E5E5"/>
<path d="M215.616 123.179C215.817 123.714 216.538 123.829 216.816 123.283C216.979 122.96 216.488 122.676 216.325 122.999C216.297 123.059 216.21 123.152 216.161 123.031C216.036 122.693 215.485 122.835 215.616 123.179Z" fill="#E5E5E5"/>
<path d="M217.978 122.758C217.754 122.856 217.765 123.13 217.858 123.315C217.978 123.545 218.196 123.714 218.447 123.785C219.014 123.949 219.511 123.567 219.713 123.07C219.849 122.736 219.298 122.589 219.162 122.922C219.091 123.091 218.933 123.244 218.742 123.261C218.693 123.266 218.322 123.19 218.354 123.091C218.311 123.146 218.267 123.201 218.223 123.261C218.234 123.255 218.245 123.25 218.256 123.244C218.6 123.102 218.311 122.616 217.978 122.758Z" fill="#E5E5E5"/>
<path d="M217.405 126.572C218.632 126.993 219.865 126.594 220.646 125.589C220.869 125.299 220.373 125.02 220.155 125.305C219.527 126.119 218.523 126.365 217.558 126.031C217.209 125.911 217.056 126.452 217.405 126.572Z" fill="#E5E5E5"/>
<path d="M218.954 131.747C218.747 133.622 217.907 137.125 217.476 138.966C218.703 136.064 221.42 134.212 222.882 131.381C225.932 134.332 226.249 138.392 226.03 142.606C225.812 146.813 226.838 147.977 226.838 152.191C223.554 152.191 217.689 152.36 214.432 152.305C214.017 149.934 213.897 148.256 213.93 144.048C213.946 141.759 214.323 139.458 215.043 137.283C215.768 135.103 217.039 133.037 218.954 131.747C218.698 132.267 218.442 132.786 218.191 133.31L218.954 131.747Z" fill="#E5E5E5"/>
<path d="M218.649 131.851C218.038 134.726 217.465 137.606 216.93 140.491C217.116 140.491 217.296 140.491 217.481 140.491C217.198 139.289 216.09 136.78 217.323 135.933C217.438 135.851 217.476 135.748 217.454 135.616C217.361 135.01 217.001 133.911 217.225 133.299C217.476 132.616 218.387 132.403 218.998 132.196C219.342 132.075 219.194 131.534 218.845 131.655C218.163 131.89 217.547 132.234 216.876 132.48C216.756 132.523 216.668 132.622 216.668 132.753C216.658 133.425 216.75 134.081 216.761 134.748C216.778 135.649 216.647 135.338 216.227 136.015C216.183 136.086 216.074 136.119 216.03 136.201C215.905 136.463 216.019 136.687 216.063 136.966C216.243 138.19 216.652 139.442 216.936 140.649C216.996 140.912 217.432 140.923 217.487 140.649C218.021 137.759 218.594 134.879 219.205 132.01C219.271 131.649 218.72 131.496 218.649 131.851Z" fill="#E5E5E5"/>
<path d="M217.754 139.977C218.676 136.649 221.169 134.256 223.155 131.534C222.992 131.534 222.828 131.534 222.664 131.534C222.861 131.824 223.161 132.168 223.259 132.507C223.488 133.289 223.161 133.48 222.708 133.966C222.14 134.578 221.322 135.075 220.689 135.627C220.58 135.726 220.58 135.928 220.689 136.026C221.72 136.917 220.564 137.562 219.789 138.261C218.894 139.065 217.961 139.824 217.001 140.551C216.712 140.77 216.996 141.256 217.29 141.037C218.916 139.808 220.444 138.485 221.884 137.048C221.977 136.955 221.988 136.819 221.928 136.709C221.644 136.141 221.437 136.152 221.579 135.611C221.753 134.966 223.564 134.037 224.066 133.677C224.164 133.605 224.241 133.485 224.197 133.36C223.935 132.6 223.613 131.933 223.161 131.261C223.035 131.075 222.795 131.086 222.67 131.261C220.651 134.032 218.147 136.463 217.214 139.841C217.105 140.179 217.656 140.327 217.754 139.977Z" fill="#E5E5E5"/>
<path d="M214.182 151.366C210.281 165.071 207.471 185.908 208.29 198.4C212.469 200.345 222.392 200.547 226.992 200.072C236.757 199.056 241.88 196.132 246.206 194.334C245.039 179.831 236.643 162.978 226.839 150.841C223.522 150.885 217.504 151.322 214.182 151.366Z" fill="#E5E5E5"/>
<path d="M213.908 151.289C209.696 166.295 207.077 182.804 208.005 198.4C208.01 198.493 208.054 198.602 208.147 198.64C213.739 201.034 221.038 200.93 226.991 200.351C233.947 199.673 240.013 197.252 246.353 194.575C246.435 194.542 246.5 194.422 246.495 194.334C245.529 183.569 241.388 173.224 236.047 163.869C234.628 161.388 233.112 158.967 231.491 156.612C230.7 155.464 229.888 154.327 229.047 153.213C228.556 152.562 227.754 151.027 227.045 150.644C225.976 150.065 223.03 150.699 221.824 150.759C219.282 150.885 216.734 151.038 214.186 151.087C213.821 151.092 213.821 151.655 214.186 151.65C216.297 151.612 218.403 151.497 220.515 151.387C223.09 151.256 225.894 150.458 227.743 152.442C231.181 156.125 233.848 161.049 236.265 165.415C238.938 170.257 241.235 175.317 242.976 180.563C243.739 182.864 244.394 185.208 244.907 187.58C245.327 189.52 246.691 193.209 245.092 194.515C243.903 195.482 241.606 196.061 240.193 196.624C238.196 197.411 236.151 198.072 234.067 198.586C229.664 199.668 225.179 200.089 220.651 200.007C217.831 199.952 209.254 200.378 208.512 197.045C208.13 195.323 208.43 193.165 208.469 191.411C208.523 189.034 208.654 186.662 208.834 184.296C209.685 173.241 211.464 162.147 214.464 151.453C214.557 151.087 214.006 150.939 213.908 151.289Z" fill="#E5E5E5"/>
<path d="M194.098 170.951C192.047 170.601 190.028 170.066 188.081 169.355C187.732 169.918 188.075 170.65 188.479 171.175C188.883 171.7 189.385 172.251 189.352 172.913C187.841 172.596 186.324 172.273 184.813 171.956C184.251 171.836 183.645 171.721 183.116 171.945C182.26 172.301 181.971 173.443 182.298 174.306C182.625 175.164 183.394 175.782 184.185 176.273C187.448 178.295 191.616 178.831 195.288 177.689C195.211 175.224 194.759 172.771 193.951 170.437L194.098 170.951Z" fill="#E5E5E5"/>
<path d="M189.227 131.212C188.752 129.212 188.135 125.687 187.301 123.807C187.852 123.43 188.61 123.725 189.167 124.097C189.723 124.469 189.641 124.999 190.307 124.928C190.449 123.605 190.154 121.911 189.745 120.436C189.592 119.889 189.445 119.299 189.636 118.763C189.947 117.9 191.087 117.55 191.976 117.823C192.865 118.097 193.531 118.824 194.071 119.572C196.303 122.671 196.193 126.217 196.313 129.627C194.895 130.07 191.092 131.354 189.227 131.212Z" fill="#E5E5E5"/>
<path d="M224.781 133.562C231.791 138.813 234.53 148.95 231.104 156.95C228.884 162.136 224.514 166.153 219.816 169.344C212.326 174.437 203.679 177.858 194.699 179.279C194.54 175.962 194.175 172.65 193.602 169.377C202.129 168.29 210.078 163.71 215.528 157.142C220.978 150.573 223.93 142.114 224.121 133.627L224.781 133.562Z" fill="#E5E5E5"/>
<path d="M215.785 241.232C214.241 241.751 212.691 242.412 211.409 243.237C212.915 243.817 221.835 243.33 223.221 243.358C223.363 242.582 223.363 241.784 223.232 241.002C223.057 241.434 222.506 241.56 222.037 241.593C215.119 242.079 215.888 241.248 215.785 241.232Z" fill="#E5E5E5"/>
<path d="M237.225 240.669C236.729 240.8 237.553 243.221 243.93 238.8C244.378 239.412 244.661 240.101 245.109 240.713C244.35 241.183 243.554 241.8 242.796 242.27C242.152 242.669 241.361 242.838 240.662 243.139C238.567 244.041 235.507 244.019 233.903 243.86C234.061 243.527 236.391 241.144 237.225 240.669Z" fill="#E5E5E5"/>
</svg>
