<svg width="329" height="386" viewBox="0 0 329 386" fill="none" xmlns="http://www.w3.org/2000/svg">
<g id="Group" opacity="0.11">
<g id="Group_2">
<path id="Vector" d="M177.455 208.785L174.789 166.011C174.639 166.024 174.482 166.037 174.325 166.049C165.259 166.589 157.448 160.112 156.921 151.62C156.677 147.691 158.019 143.856 160.704 140.818C163.609 137.535 167.875 135.495 172.405 135.226C172.556 135.219 172.712 135.213 172.863 135.207L170.209 92.6714L170.837 92.6338L288.339 85.6606L295.586 201.774L294.958 201.812L177.455 208.785ZM175.962 164.618L178.635 207.461L294.262 200.601L287.172 86.9913L171.546 93.8514L174.206 136.462H173.534C173.183 136.462 172.838 136.468 172.487 136.487C168.283 136.738 164.337 138.621 161.652 141.659C159.186 144.446 157.956 147.954 158.182 151.551C158.672 159.358 165.88 165.308 174.262 164.806C174.613 164.788 174.965 164.75 175.31 164.706L175.962 164.618Z" fill="#E5E5E5"/>
</g>
<g id="Group_3">
<g id="Group_4">
<path id="Vector_2" d="M272.498 109.919C271.594 108.57 271.274 106.385 270.754 104.86C270.302 103.548 269.737 102.155 268.119 102.224C267.943 102.23 267.479 102.362 267.309 102.827C266.594 104.823 267.002 106.768 267.291 108.865C267.441 109.957 267.598 111.049 267.749 112.135C269.286 111.476 270.816 110.823 272.353 110.164" fill="#E5E5E5"/>
</g>
</g>
<g id="Group_5">
<g id="Group_6">
<path id="Vector_3" d="M289.236 117.281C287.047 123.897 282.894 135.477 281.206 133.192C278.107 128.999 275.239 115.932 273.809 109.203C271.695 109.938 266.487 111.771 266.224 112.185C265.917 112.668 267.962 122.836 269.493 127.154C276.582 147.144 280.811 144.056 281.883 144.025C283.226 143.994 289.726 138.439 291.577 135.364C292.047 134.585 293.49 132.847 293.76 131.981C294.048 131.052 293.76 131.981 293.584 131.02C292.737 126.489 290.573 121.7 289.236 117.281Z" fill="#E5E5E5"/>
</g>
</g>
<g id="Group_7">
<g id="Group_8">
<g id="Group_9">
<g id="Group_10">
<path id="Vector_4" d="M54.6138 349.038C54.6138 351.329 54.6138 353.614 54.6138 355.905C54.6138 356.451 55.4858 356.451 55.4858 355.905C55.4858 353.614 55.4858 351.329 55.4858 349.038C55.4858 348.492 54.6138 348.492 54.6138 349.038Z" fill="#E5E5E5"/>
</g>
</g>
</g>
<g id="Group_11">
<g id="Group_12">
<g id="Group_13">
<path id="Vector_5" d="M58.4094 352.145C56.1697 352.145 53.9362 352.145 51.6964 352.145C51.1381 352.145 51.1381 352.992 51.6964 352.992C53.9362 352.992 56.1697 352.992 58.4094 352.992C58.9678 352.992 58.9678 352.145 58.4094 352.145Z" fill="#E5E5E5"/>
</g>
</g>
</g>
</g>
<g id="Group_14">
<g id="Group_15">
<g id="Group_16">
<g id="Group_17">
<path id="Vector_6" d="M170.353 29.8444C170.353 32.1353 170.353 34.4199 170.353 36.7108C170.353 37.2568 171.226 37.2568 171.226 36.7108C171.226 34.4199 171.226 32.1353 171.226 29.8444C171.219 29.2983 170.353 29.2983 170.353 29.8444Z" fill="#E5E5E5"/>
</g>
</g>
</g>
<g id="Group_18">
<g id="Group_19">
<g id="Group_20">
<path id="Vector_7" d="M174.143 32.9512C171.903 32.9512 169.67 32.9512 167.43 32.9512C166.872 32.9512 166.872 33.7985 167.43 33.7985C169.67 33.7985 171.903 33.7985 174.143 33.7985C174.701 33.7985 174.701 32.9512 174.143 32.9512Z" fill="#E5E5E5"/>
</g>
</g>
</g>
</g>
<g id="Group_21">
<g id="Group_22">
<g id="Group_23">
<g id="Group_24">
<path id="Vector_8" d="M320.116 69.6181C320.116 71.909 320.116 74.1936 320.116 76.4845C320.116 77.0305 320.988 77.0305 320.988 76.4845C320.988 74.1936 320.988 71.909 320.988 69.6181C320.988 69.072 320.116 69.072 320.116 69.6181Z" fill="#E5E5E5"/>
</g>
</g>
</g>
<g id="Group_25">
<g id="Group_26">
<g id="Group_27">
<path id="Vector_9" d="M323.912 72.7249C321.672 72.7249 319.439 72.7249 317.199 72.7249C316.641 72.7249 316.641 73.5722 317.199 73.5722C319.439 73.5722 321.672 73.5722 323.912 73.5722C324.47 73.5722 324.47 72.7249 323.912 72.7249Z" fill="#E5E5E5"/>
</g>
</g>
</g>
</g>
<g id="Group_28">
<g id="Group_29">
<g id="Group_30">
<path id="Vector_10" d="M197.237 66.687C198.573 68.7708 199.91 70.8545 201.246 72.9446C201.459 73.2772 201.936 73.2772 202.149 72.9446C203.486 70.8608 204.822 68.7771 206.158 66.687C205.857 66.687 205.556 66.687 205.255 66.687C206.591 68.7708 207.927 70.8545 209.264 72.9446C209.477 73.2772 209.954 73.2772 210.167 72.9446C211.504 70.8608 212.84 68.7771 214.176 66.687C213.875 66.687 213.574 66.687 213.273 66.687C214.609 68.7708 215.945 70.8545 217.282 72.9446C217.495 73.2772 217.972 73.2772 218.185 72.9446C219.522 70.8608 220.858 68.7771 222.194 66.687C221.893 66.687 221.592 66.687 221.291 66.687C222.627 68.7708 223.963 70.8545 225.3 72.9446C225.513 73.2772 225.99 73.2772 226.203 72.9446C227.539 70.8608 228.876 68.7771 230.212 66.687C230.57 66.1284 229.666 65.6137 229.309 66.1723C227.972 68.2561 226.636 70.3462 225.3 72.4299C225.601 72.4299 225.902 72.4299 226.203 72.4299C224.867 70.3462 223.531 68.2624 222.194 66.1723C221.981 65.8397 221.504 65.8397 221.291 66.1723C219.954 68.2561 218.618 70.3462 217.282 72.4299C217.583 72.4299 217.884 72.4299 218.185 72.4299C216.849 70.3462 215.513 68.2624 214.176 66.1723C213.963 65.8397 213.486 65.8397 213.273 66.1723C211.936 68.2561 210.6 70.3462 209.264 72.4299C209.565 72.4299 209.866 72.4299 210.167 72.4299C208.831 70.3462 207.495 68.2624 206.158 66.1723C205.945 65.8397 205.468 65.8397 205.255 66.1723C203.918 68.2561 202.582 70.3462 201.246 72.4299C201.547 72.4299 201.848 72.4299 202.149 72.4299C200.813 70.3462 199.477 68.2624 198.14 66.1723C197.783 65.6137 196.879 66.1284 197.237 66.687Z" fill="#E5E5E5"/>
</g>
</g>
</g>
<g id="Group_31">
<g id="Group_32">
<g id="Group_33">
<g id="Group_34">
<path id="Vector_11" d="M62.2616 49.1444C62.3996 48.8117 63.5414 43.3763 63.0332 43.6149C63.9555 43.1755 64.8778 42.7424 65.8 42.3094C66.0949 42.1713 66.2078 41.8261 66.1325 41.5374C65.8502 40.4327 65.5051 39.4222 65.0534 38.3678C64.8903 37.9849 64.5892 37.8343 64.1563 37.8908C63.5038 37.9723 62.8513 38.0602 62.1988 38.1418C60.5802 38.3489 61.377 37.6774 60.21 36.5099C59.7144 36.0141 57.5562 34.5391 57.6252 34.2379C57.8009 33.4533 57.9765 32.6688 58.1522 31.8842C58.2149 31.6018 58.1208 31.2503 57.8197 31.1122C56.659 30.5976 55.536 30.1896 54.3001 29.8444C53.9864 29.7565 53.6413 29.9009 53.4782 30.1582C53.1457 30.6854 52.8132 31.2064 52.4806 31.7273C51.6776 32.9889 50.3099 32.2043 48.6411 32.3424C47.838 32.4052 46.7777 33.1395 46.3323 32.6374C45.7802 32.016 45.2281 31.3947 44.676 30.7733C44.4564 30.5285 44.0674 30.5411 43.7914 30.6666C42.6872 31.1687 41.6959 31.7085 40.6858 32.3675C40.4349 32.5307 40.2278 32.8382 40.3533 33.1395C40.5855 33.7169 40.8239 34.2944 41.056 34.8718C41.6206 36.2652 40.8301 35.8949 39.9204 37.1564C39.5001 37.7401 38.5465 39.9306 38.1198 39.9369C37.2289 39.9557 36.3443 39.9683 35.4535 39.9871C35.1272 39.9934 34.8386 40.1879 34.7508 40.4892C34.412 41.6441 34.274 42.7989 34.1861 43.9914C34.161 44.299 34.4245 44.5626 34.7194 44.6505C35.3656 44.845 36.0118 45.0396 36.6518 45.2342C38.0257 45.6484 37.4674 46.0501 37.7748 47.4372C37.9693 48.3222 39.3181 50.0482 38.8852 50.5817C38.3269 51.2658 37.7748 51.9437 37.2164 52.6278C37.0031 52.8851 37.1474 53.2366 37.3293 53.4563C38.0822 54.3475 38.8539 55.1258 39.7385 55.9041C39.9706 56.1049 40.3408 56.1865 40.6231 56.0108C41.2003 55.653 41.7775 55.2953 42.3609 54.9312C43.7098 54.0902 43.3899 54.8183 44.9081 55.402C45.7363 55.7221 48.158 55.9982 48.3085 56.5631C48.5344 57.4042 48.754 58.2452 48.9798 59.0862C49.0551 59.3812 49.3626 59.5884 49.6825 59.5884C50.9561 59.5946 52.1419 59.5005 53.3966 59.3185C53.7354 59.2683 53.9048 58.9356 53.9299 58.6594C53.9926 58.013 54.0554 57.3665 54.1181 56.72C54.2499 55.3392 54.8208 55.7911 56.2324 55.2074C56.9978 54.8873 58.7859 53.2429 59.1686 53.4061C59.9904 53.7575 60.8123 54.1153 61.6342 54.4668C61.9102 54.586 62.3055 54.6111 62.5188 54.3601C63.3093 53.4312 63.9806 52.5148 64.6143 51.4792C64.7711 51.2156 64.7397 50.8641 64.5013 50.6507C63.692 49.9289 62.8764 49.2071 62.0671 48.4916C61.3832 47.8891 60.3543 48.8494 61.0382 49.4582C61.3581 49.7406 61.6781 50.0231 61.9981 50.3055C62.3306 50.6005 62.6631 50.8955 62.9893 51.1905C63.5163 51.4667 63.441 51.655 62.7697 51.7617C61.7848 53.381 62.6505 53.4123 61.1636 52.7722C60.5425 52.5023 59.9214 52.2387 59.3003 51.9688C58.9866 51.8307 58.6855 51.8558 58.4157 52.0755C56.7594 53.4563 55.4231 54.1655 53.3213 54.8057C52.9888 54.9061 52.8194 55.1446 52.7881 55.4647C52.7504 55.8853 52.7065 56.3058 52.6689 56.7263C52.4806 58.6971 53.0014 58.0883 50.8808 58.2389C50.015 58.3017 50.3664 58.6218 50.0652 57.4983C49.8958 56.8644 49.7264 56.2242 49.557 55.5903C49.5006 55.3769 49.2873 55.1572 49.0489 55.1133C46.9785 54.7492 45.272 54.1655 43.4965 53.0671C43.2895 52.9416 42.9632 52.9416 42.7625 53.0671C42.386 53.2994 42.0159 53.5316 41.6395 53.7638C41.2505 54.0023 40.8615 54.2471 40.4725 54.4856C40.071 54.9061 39.8828 54.8057 39.9141 54.1843C38.7723 53.1927 38.4335 53.3935 39.3056 52.3203C39.7259 51.8056 40.1463 51.2846 40.5666 50.77C40.7235 50.5817 40.6796 50.2741 40.5666 50.0796C39.5942 48.4289 39.0421 46.8598 38.8413 44.9643C38.81 44.6442 38.6406 44.4057 38.308 44.3053C37.8877 44.1797 37.4674 44.0542 37.0533 43.9224C35.1837 43.3575 35.5915 43.9098 35.8487 42.1587C36.062 40.7151 35.3092 41.3616 36.771 41.3365C37.4423 41.324 38.1136 41.3114 38.7911 41.2989C39.1425 41.2926 39.3683 41.0917 39.4938 40.7967C40.2718 39.0142 41.2756 37.6397 42.7374 36.3028C42.9068 36.1459 43.0134 35.8572 42.9256 35.6375C42.775 35.2609 42.6245 34.8906 42.4676 34.514C42.0222 33.4094 41.7022 33.378 42.4174 32.9136C43.6659 32.1039 43.5655 31.652 44.4627 32.6688C44.883 33.1395 45.2971 33.6102 45.7112 34.081C45.868 34.2567 46.1943 34.3195 46.4201 34.2567C48.4717 33.673 50.3538 33.5475 52.4618 33.7923C52.7128 33.8236 52.97 33.6416 53.0892 33.4533C53.3025 33.1144 53.5221 32.7755 53.7354 32.4365C53.9613 32.0851 54.1809 31.7336 54.4067 31.3821C54.5824 30.8423 54.8082 30.8863 55.0717 31.5014C56.9602 32.0223 56.8096 31.2566 56.4896 32.6939C56.3579 33.2901 56.2261 33.8801 56.0944 34.4764C56.0191 34.7965 56.1446 35.0601 56.4269 35.2484C58.171 36.3844 59.4007 37.6397 60.4923 39.3281C60.6806 39.6168 60.9817 39.6858 61.3142 39.6419C61.7346 39.5854 62.1612 39.5352 62.5815 39.4787C63.0207 39.4222 63.4599 39.3657 63.899 39.3092C64.4825 39.1147 64.5452 39.2653 64.0872 39.78C64.6582 41.1043 65.1852 41.0855 63.9053 41.6943C63.3156 41.9767 62.7196 42.2529 62.1298 42.5353C61.9165 42.6357 61.7534 42.8993 61.7722 43.1253C61.8851 45.1212 61.6154 46.9476 60.8562 48.8055C60.5174 49.6026 61.929 49.954 62.2616 49.1444Z" fill="#E5E5E5"/>
</g>
</g>
</g>
<g id="Group_35">
<g id="Group_36">
<g id="Group_37">
<path id="Vector_12" d="M50.1091 45.5292C48.5281 45.0647 49.0614 42.8617 50.7114 43.1692C52.3615 43.4768 51.7403 45.8242 50.1091 45.5292C49.1932 45.366 48.7979 46.6777 49.7202 46.8472C51.2447 47.1171 52.6124 46.389 53.0704 44.9894C53.5284 43.6023 52.4681 42.2529 51.0941 41.8574C49.6198 41.4369 48.1705 42.4098 47.7439 43.7027C47.2859 45.0898 48.3337 46.4455 49.7139 46.8535C50.6236 47.1108 51.0063 45.7928 50.1091 45.5292Z" fill="#E5E5E5"/>
</g>
</g>
</g>
</g>
<g id="Group_38">
<g id="Group_39">
<g id="Group_40">
<g id="Group_41">
<path id="Vector_13" d="M271.707 54.1279C271.682 57.3728 269.574 60.3792 266.412 61.4713C263.206 62.5822 259.611 61.6157 257.434 59.08C255.282 56.5694 255.044 52.8726 256.776 50.0921C258.507 47.3117 261.951 45.8179 265.233 46.4644C268.953 47.1987 271.676 50.4122 271.707 54.1279C271.714 54.9438 273.012 54.9438 273.006 54.1279C272.981 50.3306 270.522 46.9225 266.87 45.6045C263.231 44.2927 258.946 45.4099 256.481 48.3285C253.99 51.2721 253.614 55.5275 255.653 58.8101C257.685 62.0864 261.675 63.7622 265.515 63.0279C269.831 62.2056 272.975 58.3896 273.006 54.1279C273.006 53.3119 271.707 53.3119 271.707 54.1279Z" fill="#E5E5E5"/>
</g>
</g>
</g>
<g id="Group_42">
<g id="Group_43">
<g id="Group_44">
<path id="Vector_14" d="M263.162 59.9336V58.5025C262.315 58.49 261.443 58.2327 260.935 57.8812L261.286 56.9334C261.813 57.2724 262.566 57.5423 263.382 57.5423C264.417 57.5423 265.114 56.9648 265.114 56.1552C265.114 55.3769 264.543 54.8936 263.47 54.4731C261.983 53.9082 261.067 53.2555 261.067 52.0253C261.067 50.8516 261.926 49.9603 263.269 49.7469V48.3159H264.172V49.6905C265.045 49.7218 265.641 49.9478 266.067 50.1863L265.703 51.1215C265.396 50.952 264.8 50.6382 263.871 50.6382C262.748 50.6382 262.328 51.2909 262.328 51.8558C262.328 52.5902 262.867 52.9605 264.135 53.4689C265.634 54.0651 266.393 54.7995 266.393 56.0547C266.393 57.1719 265.59 58.2201 264.091 58.4586V59.9273H263.162V59.9336Z" fill="#E5E5E5"/>
</g>
</g>
</g>
</g>
<g id="Group_45">
<path id="Vector_15" d="M175.837 327.705H57.4809V212.243H175.831V254.578C176.207 254.553 176.583 254.54 176.954 254.54C186.038 254.54 193.429 261.463 193.429 269.98C193.429 278.497 186.038 285.42 176.954 285.42C176.583 285.42 176.207 285.408 175.831 285.383V327.705H175.837ZM58.7357 326.449H174.576V284.002L175.266 284.071C175.837 284.127 176.408 284.159 176.954 284.159C185.348 284.159 192.174 277.794 192.174 269.974C192.174 262.154 185.348 255.789 176.954 255.789C176.408 255.789 175.837 255.821 175.266 255.877L174.576 255.946V213.486H58.7357V326.449Z" fill="#E5E5E5"/>
</g>
<g id="Group_46">
<g id="Group_47">
<path id="Vector_16" d="M304.143 334.615L186.709 320.267L192.293 276.809L192.983 276.991C193.705 277.179 194.445 277.324 195.185 277.412C203.517 278.428 211.102 272.943 212.1 265.179C212.558 261.608 211.56 258.024 209.276 255.093C206.792 251.898 202.977 249.777 198.805 249.262C198.065 249.174 197.312 249.13 196.566 249.143L195.844 249.155L201.428 205.691L318.861 220.039L304.143 334.615ZM188.115 319.175L303.058 333.222L317.456 221.143L202.513 207.097L197.275 247.9C197.839 247.912 198.404 247.956 198.962 248.025C203.467 248.578 207.589 250.875 210.274 254.327C212.758 257.522 213.85 261.438 213.348 265.342C212.351 273.112 205.318 278.792 197.18 278.792C196.471 278.792 195.756 278.748 195.041 278.661C194.483 278.592 193.918 278.497 193.366 278.372L188.115 319.175Z" fill="#E5E5E5"/>
</g>
</g>
<g id="Group_48">
<g id="Group_49">
<path id="Vector_17" d="M159.531 213.875L41.1815 213.229L41.8465 97.7678L160.196 98.4143L159.945 142.217L159.236 142.117C158.496 142.01 157.743 141.954 156.997 141.954C156.965 141.954 156.934 141.954 156.902 141.954C148.552 141.954 141.732 148.262 141.688 156.057C141.67 159.835 143.225 163.4 146.074 166.093C148.935 168.798 152.755 170.298 156.827 170.323C157.574 170.33 158.327 170.279 159.067 170.185L159.782 170.091L159.531 213.875ZM42.4425 211.98L158.283 212.614L158.521 171.497C157.956 171.547 157.379 171.572 156.821 171.572C152.429 171.547 148.307 169.928 145.214 167.003C142.109 164.066 140.415 160.174 140.434 156.044C140.484 147.534 147.899 140.63 156.997 140.699C157.561 140.699 158.132 140.73 158.697 140.793L158.935 99.6696L43.095 99.0357L42.4425 211.98Z" fill="#E5E5E5"/>
</g>
</g>
<g id="Group_50">
<g id="Group_51">
<g id="Group_52">
<path id="Vector_18" d="M289.08 326.562C287.229 325.979 285.441 325.207 283.753 324.271C283.032 323.87 282.26 323.349 282.116 322.545C281.852 321.02 283.891 320.242 284.939 319.081C286.457 317.399 285.754 314.675 284.305 312.936C282.856 311.198 280.817 310.005 279.336 308.285C278.627 307.457 278.031 306.453 278.063 305.379C278.144 302.103 283.339 301.005 283.985 297.785C284.481 295.299 282.047 293.329 280.453 291.333C279.336 289.927 278.558 288.264 278.207 286.519C278.1 286.004 278.038 285.439 278.276 284.968C278.997 283.5 281.363 284.278 282.868 283.562C283.991 283.029 284.481 281.661 284.362 280.449C284.249 279.232 283.665 278.115 283.157 277.004C282.153 274.801 281.4 272.34 281.971 269.999C282.548 267.658 284.87 265.587 287.304 266.001C288.942 266.284 290.215 267.57 291.024 268.982C291.834 270.395 292.285 271.976 292.994 273.439C293.358 274.179 293.885 274.958 294.707 275.114C295.905 275.34 296.828 274.167 297.537 273.2C298.384 272.039 299.356 270.959 300.429 269.999C301.157 269.346 301.972 268.725 302.938 268.549C305.015 268.16 306.972 270.049 307.33 272.077C307.688 274.11 306.872 276.15 305.931 277.995C304.99 279.841 303.886 281.667 303.597 283.707C303.516 284.265 303.509 284.868 303.773 285.37C304.036 285.872 304.532 286.211 305.034 286.481C306.446 287.228 308.058 287.542 309.507 288.207C310.963 288.872 312.337 290.077 312.462 291.64C312.657 294.025 310.072 295.576 308.108 297.013C306.232 298.381 304.645 300.145 303.603 302.185C303.409 302.561 303.233 302.975 303.34 303.383C303.484 303.948 304.099 304.25 304.657 304.45C305.881 304.89 307.167 305.172 308.321 305.762C309.476 306.352 310.511 307.344 310.724 308.599C311.107 310.896 308.729 312.647 306.665 313.809C304.425 315.07 302.179 316.332 299.921 317.568C298.522 318.334 296.884 319.721 297.574 321.133C298.026 322.062 299.231 322.307 300.197 322.715C301.169 323.123 302.11 324.253 301.483 325.081C301.288 325.338 300.981 325.489 300.68 325.621C297.041 327.234 292.863 327.648 288.967 326.801" fill="#E5E5E5"/>
</g>
</g>
<g id="Group_53">
<g id="Group_54">
<g id="Group_55">
<path id="Vector_19" d="M292.994 327.943C295.291 324.045 303.66 327.422 305.699 323.392C306.364 322.074 306.107 320.38 307.004 319.2C309.156 316.375 315.11 319.363 316.847 316.281C317.757 314.675 316.622 312.572 317.299 310.858C318.134 308.768 320.988 308.461 322.883 307.193C325.876 305.191 325.838 300.145 322.808 298.186C322.256 297.829 321.634 297.565 321.17 297.101C319.846 295.77 320.436 293.573 321.239 291.891C322.036 290.209 322.964 288.257 322.099 286.613C321.057 284.648 318.027 284.592 316.132 285.797C314.238 287.008 313.089 289.029 311.678 290.755C311.076 291.489 310.291 292.236 309.325 292.218C307.951 292.186 307.167 290.692 305.975 290.021C304.036 288.922 301.458 290.372 300.473 292.337C299.494 294.308 299.582 296.592 299.4 298.77C299.212 300.948 298.578 303.333 296.708 304.538C295.008 305.636 292.474 305.636 291.426 307.344C290.435 308.957 291.451 310.984 292.348 312.647C293.245 314.311 293.96 316.57 292.587 317.894C292.204 318.265 291.696 318.503 291.294 318.848C290.046 319.922 289.983 321.874 290.698 323.336C291.401 324.817 291.721 326.901 292.994 327.943Z" fill="#E5E5E5"/>
</g>
</g>
<g id="Group_56">
<g id="Group_57">
<g id="Group_58">
<path id="Vector_20" d="M293.07 327.987C294.017 326.418 295.975 326.073 297.687 325.922C299.494 325.759 301.37 325.834 303.139 325.357C303.854 325.163 304.551 324.855 305.097 324.347C305.824 323.663 306.088 322.734 306.257 321.792C306.471 320.612 306.653 319.351 307.751 318.629C308.541 318.108 309.539 317.989 310.473 317.945C312.186 317.869 314.2 318.221 315.787 317.418C316.609 317.003 317.124 316.231 317.262 315.346C317.462 314.072 317.004 312.792 317.218 311.518C317.626 309.089 320.555 308.605 322.412 307.595C324.132 306.653 325.098 304.946 325.192 303.038C325.286 301.193 324.539 299.26 322.952 298.18C322.375 297.785 321.691 297.521 321.202 297.007C320.731 296.511 320.518 295.852 320.493 295.186C320.442 293.824 321.045 292.563 321.603 291.352C322.13 290.209 322.676 288.935 322.519 287.655C322.4 286.663 321.804 285.797 320.894 285.339C319 284.391 316.716 285.1 315.21 286.399C314.231 287.24 313.466 288.282 312.701 289.305C311.954 290.31 311.057 291.86 309.695 292.111C308.359 292.362 307.468 291.044 306.565 290.328C305.781 289.701 304.839 289.444 303.836 289.638C302.757 289.845 301.772 290.498 301.075 291.314C300.253 292.274 299.864 293.511 299.67 294.728C299.237 297.352 299.626 300.17 298.34 302.611C297.725 303.779 296.759 304.57 295.523 305.053C294.525 305.442 293.446 305.674 292.518 306.227C291.602 306.773 291.006 307.645 290.955 308.706C290.893 310.03 291.551 311.317 292.16 312.459C292.75 313.57 293.327 314.788 293.289 316.068C293.27 316.715 293.057 317.342 292.593 317.813C292.116 318.296 291.457 318.554 290.999 319.062C290.284 319.859 290.077 320.97 290.215 321.993C290.29 322.527 290.466 323.016 290.692 323.506C290.949 324.071 291.144 324.661 291.357 325.251C291.715 326.248 292.122 327.297 292.963 328.012C293.045 328.081 293.17 327.962 293.082 327.893C292.135 327.083 291.752 325.859 291.351 324.736C290.955 323.631 290.341 322.589 290.341 321.391C290.341 320.782 290.472 320.167 290.786 319.639C291.156 319.018 291.74 318.692 292.311 318.277C293.17 317.643 293.521 316.702 293.446 315.666C293.365 314.549 292.9 313.495 292.373 312.509C291.727 311.304 290.981 309.917 291.144 308.518C291.439 305.9 294.682 305.831 296.533 304.789C298.566 303.641 299.256 301.249 299.482 299.115C299.758 296.473 299.419 293.266 301.452 291.188C302.267 290.354 303.44 289.713 304.651 289.757C305.931 289.808 306.703 290.711 307.587 291.483C308.309 292.111 309.175 292.557 310.141 292.18C311.251 291.741 311.979 290.592 312.657 289.688C314.125 287.724 315.737 285.42 318.429 285.138C319.489 285.025 320.662 285.219 321.471 285.941C322.551 286.908 322.519 288.395 322.124 289.663C321.471 291.76 319.558 294.163 320.624 296.442C321.145 297.553 322.35 297.866 323.234 298.613C324.019 299.266 324.552 300.164 324.822 301.13C325.361 303.032 324.935 305.285 323.448 306.691C321.904 308.147 319.508 308.285 317.989 309.767C317.23 310.507 316.979 311.48 317.011 312.503C317.048 313.765 317.456 315.189 316.747 316.351C315.762 317.964 313.447 317.788 311.791 317.782C310.178 317.775 308.171 317.731 307.042 319.062C306.289 319.953 306.245 321.139 306.019 322.219C305.812 323.192 305.379 324.058 304.513 324.617C303.07 325.552 301.125 325.564 299.463 325.658C297.806 325.753 295.981 325.771 294.469 326.531C293.829 326.851 293.308 327.322 292.938 327.924C292.863 327.993 293.013 328.081 293.07 327.987Z" fill="#E5E5E5"/>
</g>
</g>
</g>
</g>
<g id="Group_59">
<g id="Group_60">
<path id="Vector_21" d="M296.238 333.535C300.504 334.521 305.962 334.257 310.191 333.115C311.872 332.657 313.554 332.01 314.802 330.824C316.747 328.979 317.343 326.098 316.992 323.468C316.86 322.483 316.559 321.434 315.725 320.857C315.235 320.518 314.627 320.399 314.031 320.336C311.057 320.041 308.077 321.127 305.605 322.771C303.139 324.422 296.451 331.671 296.238 333.535Z" fill="#E5E5E5"/>
</g>
</g>
<g id="Group_61">
<g id="Group_62">
<g id="Group_63">
<path id="Vector_22" d="M302.656 330.78C302.938 329.424 303.635 328.207 304.67 327.253C304.752 327.177 304.632 327.058 304.551 327.133C303.497 328.1 302.782 329.349 302.493 330.73C302.468 330.837 302.637 330.88 302.656 330.78Z" fill="#E5E5E5"/>
</g>
</g>
</g>
<g id="Group_64">
<g id="Group_65">
<g id="Group_66">
<path id="Vector_23" d="M289.632 338.864C288.86 331.219 288.465 323.537 288.446 315.861C288.421 308.097 288.778 300.327 289.569 292.601C290.008 288.307 290.585 284.027 291.326 279.772C291.344 279.665 291.181 279.621 291.162 279.728C289.858 287.278 289.042 294.904 288.622 302.549C288.189 310.357 288.17 318.19 288.527 325.997C288.722 330.291 289.036 334.584 289.469 338.858C289.475 338.971 289.644 338.971 289.632 338.864Z" fill="#E5E5E5"/>
</g>
</g>
</g>
<g id="Group_67">
<g id="Group_68">
<g id="Group_69">
<path id="Vector_24" d="M288.113 339.184C290.146 333.441 292.762 327.905 295.843 322.627C298.955 317.292 302.537 312.214 306.558 307.494C308.761 304.909 311.101 302.429 313.579 300.082C313.66 300.007 313.535 299.887 313.46 299.963C308.999 304.187 304.977 308.85 301.395 313.802C297.744 318.842 294.538 324.19 291.853 329.776C290.385 332.826 289.073 335.952 287.95 339.14C287.913 339.241 288.076 339.285 288.113 339.184Z" fill="#E5E5E5"/>
</g>
</g>
</g>
<g id="Group_70">
<g id="Group_71">
<g id="Group_72">
<path id="Vector_25" d="M300.454 315.252C300.441 313.357 300.523 311.461 300.711 309.572C300.812 308.593 300.937 307.62 301.088 306.653C301.163 306.189 301.238 305.731 301.326 305.273C301.364 305.059 301.408 304.84 301.452 304.626C301.477 304.494 301.508 304.356 301.533 304.225C301.539 304.199 301.677 303.773 301.703 303.842C301.74 303.942 301.903 303.898 301.866 303.798C301.809 303.641 301.671 303.647 301.546 303.754C301.288 303.967 301.295 304.532 301.238 304.833C301.019 305.951 300.843 307.068 300.699 308.191C300.398 310.539 300.266 312.899 300.278 315.265C300.285 315.359 300.454 315.359 300.454 315.252Z" fill="#E5E5E5"/>
</g>
</g>
</g>
<g id="Group_73">
<g id="Group_74">
<g id="Group_75">
<path id="Vector_26" d="M306.232 307.959C309.501 307.557 312.594 306.289 315.179 304.306C315.267 304.237 315.141 304.124 315.059 304.187C312.512 306.145 309.451 307.394 306.232 307.789C306.126 307.808 306.126 307.971 306.232 307.959Z" fill="#E5E5E5"/>
</g>
</g>
</g>
<g id="Group_76">
<g id="Group_77">
<g id="Group_78">
<path id="Vector_27" d="M288.929 338.877C291.125 337.082 293.528 335.525 296.012 334.132C298.641 332.657 301.395 331.351 304.262 330.372C305.686 329.883 307.142 329.481 308.635 329.23C308.742 329.211 308.698 329.048 308.591 329.067C305.818 329.537 303.139 330.51 300.586 331.646C297.763 332.902 295.052 334.389 292.48 336.084C291.213 336.918 289.983 337.803 288.816 338.757C288.722 338.826 288.847 338.946 288.929 338.877Z" fill="#E5E5E5"/>
</g>
</g>
</g>
<g id="Group_79">
<g id="Group_80">
<g id="Group_81">
<path id="Vector_28" d="M300.554 331.784C301.834 332.173 303.145 332.393 304.482 332.456C304.595 332.462 304.595 332.293 304.482 332.286C303.158 332.23 301.866 332.01 300.598 331.621C300.498 331.59 300.448 331.753 300.554 331.784Z" fill="#E5E5E5"/>
</g>
</g>
</g>
<g id="Group_82">
<g id="Group_83">
<g id="Group_84">
<path id="Vector_29" d="M285.892 330.692C281.839 329.06 277.561 325.74 274.819 322.401C273.727 321.07 272.755 319.589 272.447 317.913C271.971 315.308 273.219 312.628 275.076 310.695C275.773 309.974 276.651 309.289 277.667 309.296C278.27 309.302 278.834 309.547 279.355 309.842C281.946 311.298 283.715 313.877 284.732 316.62C285.748 319.363 286.833 329.06 285.892 330.692Z" fill="#E5E5E5"/>
</g>
</g>
<g id="Group_85">
<g id="Group_86">
<g id="Group_87">
<path id="Vector_30" d="M285.911 330.611C281.89 328.972 278.245 326.186 275.415 322.972C274.016 321.378 272.661 319.526 272.454 317.367C272.259 315.321 273.088 313.3 274.33 311.681C274.989 310.827 275.817 309.867 276.883 309.509C278.006 309.126 279.085 309.723 279.989 310.338C281.658 311.461 282.931 313.074 283.841 314.825C285.127 317.292 285.503 320.06 285.817 322.778C285.999 324.353 286.137 325.941 286.156 327.529C286.162 328.15 286.156 328.772 286.099 329.393C286.062 329.807 286.018 330.278 285.811 330.648C285.761 330.742 285.905 330.83 285.961 330.73C286.388 329.964 286.332 328.878 286.338 328.043C286.35 326.525 286.231 325.012 286.074 323.499C285.786 320.706 285.46 317.788 284.23 315.221C283.364 313.413 282.141 311.731 280.516 310.501C279.744 309.917 278.809 309.29 277.812 309.214C276.789 309.139 275.898 309.76 275.208 310.432C273.721 311.882 272.592 313.809 272.322 315.861C272.04 317.964 272.849 319.897 274.085 321.585C275.553 323.6 277.41 325.37 279.38 326.914C281.356 328.464 283.521 329.813 285.867 330.767C285.968 330.811 286.012 330.648 285.911 330.611Z" fill="#E5E5E5"/>
</g>
</g>
</g>
</g>
<g id="Group_88">
<g id="Group_89">
<g id="Group_90">
<path id="Vector_31" d="M282.486 324.868C283.082 323.568 283.251 322.15 282.975 320.75C282.956 320.644 282.787 320.688 282.812 320.794C283.082 322.144 282.919 323.525 282.341 324.78C282.298 324.88 282.442 324.962 282.486 324.868Z" fill="#E5E5E5"/>
</g>
</g>
</g>
<g id="Group_91">
<g id="Group_92">
<g id="Group_93">
<path id="Vector_32" d="M288.791 339.153C288.088 336.46 287.078 333.843 285.905 331.307C284.638 328.571 283.163 325.903 281.4 323.437C280.535 322.232 279.594 321.07 278.54 320.016C278.464 319.941 278.339 320.06 278.42 320.135C280.409 322.112 282.003 324.453 283.402 326.857C284.914 329.449 286.206 332.173 287.266 334.973C287.787 336.36 288.251 337.766 288.628 339.197C288.653 339.303 288.822 339.259 288.791 339.153Z" fill="#E5E5E5"/>
</g>
</g>
</g>
<g id="Group_94">
<g id="Group_95">
<g id="Group_96">
<path id="Vector_33" d="M283.49 326.65C282.235 326.242 281.049 325.684 279.945 324.974C279.851 324.918 279.769 325.062 279.857 325.119C280.974 325.834 282.178 326.399 283.446 326.813C283.546 326.845 283.596 326.681 283.49 326.65Z" fill="#E5E5E5"/>
</g>
</g>
</g>
<g id="Group_97">
<g id="Group_98">
<path id="Vector_34" d="M299.381 342.034C298.321 347.425 298.66 353.909 297.618 359.664C291.978 359.997 284.757 359.482 279.117 359.809C278.91 353.582 278.025 348.046 277.893 341.619C284.97 342.85 292.348 339.379 299.325 341.055" fill="#E5E5E5"/>
</g>
</g>
<g id="Group_99">
<g id="Group_100">
<path id="Vector_35" d="M302.832 339.837C302.512 340.873 302.223 342.724 301.903 343.76C292.762 344.143 283.621 344.525 274.474 344.902C274.738 343.226 274.832 341.525 274.763 339.831C283.998 340.195 293.597 339.479 302.832 339.837Z" fill="#E5E5E5"/>
</g>
</g>
</g>
<g id="Group_101">
<g id="Group_102">
<path id="Vector_36" d="M154.079 316.162C154.525 317.148 154.976 318.133 155.422 319.118C155.71 319.759 156.055 320.449 156.702 320.75C157.241 320.995 157.887 320.907 158.452 320.725C158.747 320.631 159.042 320.499 159.249 320.28C159.569 319.928 159.619 319.407 159.506 318.949C159.393 318.491 159.148 318.077 158.941 317.656C158.339 316.451 157.988 315.095 157.084 314.078C156.168 314.606 155.246 315.133 154.33 315.666" fill="#E5E5E5"/>
</g>
</g>
<g id="Group_103">
<g id="Group_104">
<path id="Vector_37" d="M145.622 276.269C148.508 288.791 152.166 303.245 158.27 314.612C156.815 315.472 155.284 316.42 153.646 316.878C149.907 311.65 147.027 303.817 144.273 298.036C141.519 292.255 139.787 285.872 140.358 279.521C140.484 278.127 140.823 276.577 142.021 275.805C143.219 275.033 145.34 275.949 144.988 277.305" fill="#E5E5E5"/>
</g>
</g>
<g id="Group_105">
<g id="Group_106">
<path id="Vector_38" d="M187.901 298.23C185.153 297.91 182.462 297.71 180.304 296.216C179.921 295.952 179.582 294.866 179.451 294.458C179.206 293.724 179.927 292.958 180.774 292.726C181.621 292.494 182.537 292.651 183.403 292.808C185.354 293.165 187.312 293.517 189.263 293.875C189.263 295.35 188.736 296.818 187.77 298.036" fill="#E5E5E5"/>
</g>
</g>
<g id="Group_107">
<g id="Group_108">
<path id="Vector_39" d="M176.496 294.107C178.177 293.278 179.978 292.676 181.822 292.312C182.914 292.098 184.087 291.973 185.116 292.387C186.151 292.801 186.96 293.912 186.665 294.96C186.314 296.203 184.777 296.649 183.472 296.887C181.025 297.339 178.585 297.785 176.138 298.237C176.125 297.019 176.113 295.802 176.1 294.578" fill="#E5E5E5"/>
</g>
</g>
<g id="Group_109">
<g id="Group_110">
<g id="Group_111">
<path id="Vector_40" d="M270.371 334L248.13 342.379L243.117 327.108L264.141 319.759L270.371 334Z" fill="#E5E5E5"/>
</g>
</g>
<g id="Group_112">
<g id="Group_113">
<g id="Group_114">
<path id="Vector_41" d="M249.705 326.117C249.41 325.05 249.291 323.945 249.573 322.865C249.849 321.811 250.514 320.637 251.556 320.148C252.578 319.671 253.908 319.847 254.912 320.273C255.383 320.474 255.828 320.744 256.217 321.077C256.412 321.24 256.587 321.416 256.757 321.61C256.857 321.723 256.945 321.842 257.033 321.968C257.083 322.037 257.183 322.326 257.234 322.156C257.384 322.043 257.528 321.937 257.679 321.824C257.666 321.824 257.648 321.824 257.635 321.824C257.767 321.899 257.899 321.968 258.03 322.043C258.018 322.031 258.012 322.018 257.999 322.006C257.974 322.181 257.955 322.357 257.93 322.533C257.936 322.527 257.943 322.52 257.955 322.514C258.325 322.162 257.855 321.604 257.415 321.836C257.409 321.842 257.397 321.849 257.384 321.849C257.221 321.937 257.114 322.169 257.177 322.345C257.24 322.533 257.346 322.665 257.554 322.709C257.811 322.765 258.037 322.633 258.124 322.395C258.313 321.855 257.591 321.152 257.24 320.794C256.776 320.317 256.211 319.922 255.602 319.633C254.373 319.049 252.823 318.805 251.512 319.269C248.858 320.211 247.873 324.071 249.222 326.324C249.366 326.575 249.78 326.405 249.705 326.117Z" fill="#E5E5E5"/>
</g>
</g>
</g>
</g>
<g id="Group_115">
<g id="Group_116">
<g id="Group_117">
<path id="Vector_42" d="M170.786 334.797L149.957 337.979L148.558 323.863L168.139 321.353L170.786 334.797Z" fill="#E5E5E5"/>
</g>
</g>
<g id="Group_118">
<g id="Group_119">
<g id="Group_120">
<path id="Vector_43" d="M154.437 324.227C154.387 323.236 154.493 322.238 154.964 321.34C155.415 320.48 156.225 319.583 157.235 319.376C158.22 319.175 159.305 319.577 160.089 320.135C160.792 320.637 161.564 321.51 161.689 322.382C161.702 322.282 161.714 322.175 161.733 322.075C161.721 322.093 161.708 322.119 161.702 322.137C161.852 322.075 162.009 322.018 162.16 321.955C162.147 321.955 162.135 321.949 162.122 321.949C162.216 322.043 162.31 322.131 162.405 322.225C162.398 322.213 162.392 322.2 162.386 322.188C162.323 322.332 162.267 322.476 162.204 322.627C162.21 322.621 162.223 322.614 162.229 322.614C162.599 322.388 162.367 321.792 161.928 321.918C161.921 321.918 161.909 321.924 161.903 321.924C161.752 321.968 161.589 322.131 161.614 322.294C161.633 322.464 161.683 322.614 161.852 322.69C162.053 322.778 162.285 322.746 162.411 322.545C162.681 322.106 162.216 321.397 161.978 321.014C161.658 320.506 161.244 320.054 160.767 319.683C159.826 318.955 158.571 318.478 157.354 318.616C154.857 318.899 153.232 322.087 153.966 324.29C154.048 324.522 154.449 324.497 154.437 324.227Z" fill="#E5E5E5"/>
</g>
</g>
</g>
</g>
<g id="Group_121">
<g id="Group_122">
<path id="Vector_44" d="M248.174 315.535C248.375 316.953 248.576 318.372 248.776 319.79C248.864 320.393 248.952 321.008 249.247 321.541C249.68 322.326 250.564 322.853 251.474 322.872C252.384 322.891 253.294 322.407 253.764 321.648C254.009 321.252 254.141 320.794 254.216 320.342C254.542 318.428 254.003 316.482 253.457 314.612C251.744 314.92 250.031 315.227 248.312 315.528" fill="#E5E5E5"/>
</g>
</g>
<g id="Group_123">
<g id="Group_124">
<path id="Vector_45" d="M226.304 262.21C220.82 270.169 217.025 279.106 212.3 287.517C212.131 287.818 211.949 288.132 211.648 288.314C211.384 288.471 211.064 288.502 210.757 288.527C202.683 289.243 194.821 291.803 186.734 292.312C186.954 294.264 187.33 297.295 187.268 299.26C196.672 300.013 216.767 297.214 217.106 297.063C217.564 296.856 220.99 291.672 222.276 289.594C223.123 288.232 224.434 286.883 225.325 285.552C226.711 283.481 227.107 280.537 228.989 278.874C229.591 278.347 230.25 277.769 230.382 276.991C230.457 276.552 230.35 276.1 230.237 275.667C229.547 272.899 228.857 270.131 228.167 267.369C227.715 265.555 227.251 263.723 226.36 262.078" fill="#E5E5E5"/>
</g>
</g>
<g id="Group_125">
<g id="Group_126">
<path id="Vector_46" d="M147.893 320.411C141.262 299.454 153.765 348.103 157.091 359.645C157.593 361.396 158.145 363.192 159.286 364.635C160.428 366.079 162.317 367.108 164.142 366.719C161.344 367.685 158.364 368.156 155.397 368.119C152.693 363.869 150.629 359.275 148.571 354.693C147.052 351.31 145.534 347.921 144.01 344.538C141.368 338.644 136.512 325.495 135.515 319.137C137.918 318.61 138.671 316.344 141.13 316.125C141.939 316.056 145.697 317.204 146.375 317.643C147.109 318.121 146.82 319.671 148.633 327.711C149.035 329.487 147.561 319.909 148.069 321.66" fill="#E5E5E5"/>
</g>
</g>
<g id="Group_127">
<g id="Group_128">
<path id="Vector_47" d="M134.16 310.181C131.462 328.175 126.368 347.921 123.777 367.252C123.701 367.836 123.475 368.482 123.833 368.959C124.078 369.292 124.504 369.436 124.912 369.556C126.957 370.139 129.116 370.359 131.242 370.19C130.446 369.167 129.517 368.244 128.482 367.453C130.433 358.126 145.672 327.334 147.228 319.897C147.385 319.15 147.498 318.365 147.247 317.643C146.82 316.445 145.528 315.798 144.348 315.271C140.496 313.545 136.638 311.813 132.786 310.087" fill="#E5E5E5"/>
</g>
</g>
<g id="Group_129">
<g id="Group_130">
<path id="Vector_48" d="M145.44 257.93C143.853 256.756 141.613 256.492 139.787 257.258C137.962 258.024 136.619 259.794 136.399 261.721C136.167 263.742 137.046 265.989 135.929 267.702C134.894 269.296 132.692 269.591 130.784 269.943C128.883 270.294 126.675 271.261 126.493 273.137C126.28 275.328 129.034 277.525 127.786 279.357C126.732 280.901 124.272 280.035 122.428 280.481C120.401 280.964 119.209 283.242 119.479 285.257C119.755 287.272 121.173 288.992 122.842 290.215C124.335 291.314 126.167 292.13 128.03 291.967C129.894 291.803 131.719 290.429 131.895 288.609C132.02 287.266 131.343 285.703 132.259 284.692C133.664 283.142 136.531 285.207 138.351 284.14C139.913 283.224 139.43 280.92 138.708 279.282C137.987 277.65 137.372 275.422 138.834 274.361C139.844 273.633 141.356 273.934 142.385 273.231C143.577 272.416 143.564 270.677 143.144 269.321C142.724 267.959 142.015 266.591 142.259 265.191C144.524 265.411 146.739 263.39 146.67 261.168C146.594 258.946 144.254 257.07 142.008 257.427" fill="#E5E5E5"/>
</g>
</g>
<g id="Group_131">
<g id="Group_132">
<g id="Group_133">
<path id="Vector_49" d="M207.369 364.089C205.116 364.453 201.051 364.936 198.799 365.3C199.84 365.576 207.915 367.516 212.306 369.135C212.425 367.698 212.658 366.267 212.99 364.867C211.114 364.647 209.276 364.17 207.538 363.448" fill="#E5E5E5"/>
</g>
</g>
<g id="Group_134">
<g id="Group_135">
<g id="Group_136">
<path id="Vector_50" d="M207.338 363.982C204.489 364.434 201.616 364.742 198.768 365.194C198.655 365.212 198.667 365.382 198.768 365.407C202.162 366.292 205.562 367.121 208.919 368.137C210.048 368.476 211.171 368.84 212.275 369.242C212.351 369.267 212.413 369.198 212.42 369.135C212.545 367.704 212.771 366.292 213.097 364.892C213.116 364.817 213.059 364.761 212.99 364.754C211.121 364.528 209.301 364.051 207.57 363.336C207.438 363.279 207.375 363.493 207.507 363.549C209.264 364.271 211.102 364.742 212.99 364.974C212.953 364.93 212.915 364.88 212.884 364.836C212.551 366.254 212.319 367.685 212.2 369.135C212.25 369.098 212.294 369.066 212.344 369.029C208.48 367.61 204.446 366.606 200.455 365.602C199.916 365.464 199.376 365.332 198.837 365.194C198.837 365.263 198.837 365.338 198.837 365.407C201.685 364.955 204.558 364.648 207.4 364.196C207.545 364.177 207.482 363.963 207.338 363.982Z" fill="#E5E5E5"/>
</g>
</g>
</g>
</g>
<g id="Group_137">
<g id="Group_138">
<g id="Group_139">
<path id="Vector_51" d="M243.964 363.806C242.458 365.595 238.462 367.61 236.674 369.141C241.059 369.668 246.825 367.829 252.145 367.534C251.568 365.865 250.796 364.264 249.861 362.758C249.811 362.683 249.755 362.595 249.667 362.57C249.592 362.551 249.516 362.57 249.447 362.595C247.578 363.198 245.714 363.794 243.845 364.396" fill="#E5E5E5"/>
</g>
</g>
<g id="Group_140">
<g id="Group_141">
<g id="Group_142">
<path id="Vector_52" d="M243.883 363.725C242.892 364.88 241.53 365.721 240.257 366.543C239.021 367.347 237.722 368.106 236.593 369.06C236.511 369.129 236.586 369.236 236.674 369.248C239.096 369.524 241.555 369.16 243.939 368.778C246.668 368.338 249.385 367.805 252.145 367.641C252.214 367.635 252.277 367.572 252.252 367.503C251.92 366.562 251.537 365.646 251.098 364.748C250.878 364.302 250.646 363.869 250.401 363.443C250.245 363.173 250.063 362.652 249.761 362.501C249.479 362.357 249.015 362.62 248.751 362.708C248.199 362.884 247.653 363.06 247.101 363.235C246.003 363.587 244.905 363.938 243.808 364.296C243.67 364.34 243.726 364.554 243.87 364.51C244.805 364.208 245.74 363.907 246.675 363.612C247.139 363.461 247.609 363.311 248.074 363.16C248.293 363.091 248.513 363.022 248.733 362.947C248.94 362.878 249.26 362.708 249.473 362.708C249.874 362.708 250.157 363.468 250.32 363.763C250.539 364.146 250.74 364.541 250.935 364.936C251.355 365.79 251.719 366.675 252.033 367.572C252.07 367.529 252.108 367.478 252.139 367.434C249.46 367.591 246.819 368.1 244.178 368.526C241.712 368.928 239.171 369.33 236.668 369.041C236.693 369.104 236.718 369.167 236.749 369.229C237.929 368.232 239.29 367.453 240.583 366.606C241.794 365.815 243.092 364.999 244.04 363.895C244.14 363.775 243.977 363.618 243.883 363.725Z" fill="#E5E5E5"/>
</g>
</g>
</g>
</g>
<g id="Group_143">
<g id="Group_144">
<path id="Vector_53" d="M221.636 295.507C222.408 303.848 209.076 348.862 204.176 363.122C203.178 362.733 212.357 366.003 214.521 366.323C219.089 352.151 224.108 335.814 228.675 321.642C229.597 318.773 230.526 315.905 231.279 312.993C232.339 308.888 233.048 304.695 233.406 300.471C233.437 300.095 233.462 299.693 233.293 299.348C233.042 298.839 232.439 298.601 231.894 298.406C229.152 297.44 226.41 296.473 223.669 295.507" fill="#E5E5E5"/>
</g>
</g>
<g id="Group_145">
<g id="Group_146">
<path id="Vector_54" d="M139.812 258.796C139.311 259.348 139.135 260.12 139.003 260.848C138.495 263.641 140.459 265.248 140.747 265.53C141.086 265.436 141.431 265.336 141.77 265.242C141.839 265.223 141.908 265.198 141.952 265.141C141.996 265.085 141.989 265.003 141.983 264.934C141.801 263.126 141.732 261.306 141.789 259.492C141.23 259.423 140.371 258.865 139.812 258.796Z" fill="#E5E5E5"/>
</g>
</g>
<g id="Group_147">
<g id="Group_148">
<path id="Vector_55" d="M229.942 251.038C230.2 249.777 228.606 249.136 227.295 249.011C225.984 248.885 225.13 249.074 224.434 250.159C223.738 251.252 223.531 252.576 223.518 253.862C223.505 255.482 223.907 257.302 225.319 258.149C227.019 259.179 229.44 258.124 230.338 256.379C231.229 254.628 230.727 252.833 229.942 251.038Z" fill="#E5E5E5"/>
</g>
</g>
<g id="Group_149">
<g id="Group_150">
<path id="Vector_56" d="M227.627 257.653C227.496 258.469 227.464 260.151 227.332 260.967C227.289 261.231 226.172 262.085 226.009 262.273C224.578 263.974 225.262 266.058 224.578 268.204C228.079 268.436 227.703 266.704 231.21 266.516C230.802 264.796 230.143 262.775 229.509 261.118C229.052 259.932 228.819 257.917 228.819 257.917C228.757 257.798 228.656 257.653 228.518 257.679C228.38 257.704 228.499 257.974 228.575 257.861" fill="#E5E5E5"/>
</g>
</g>
<g id="Group_151">
<g id="Group_152">
<path id="Vector_57" d="M229.302 254.747C229.434 254.346 229.961 254.126 230.363 254.283C230.771 254.44 231.003 254.904 230.921 255.319C230.802 255.902 230.055 256.279 229.497 256.028" fill="#E5E5E5"/>
</g>
</g>
<g id="Group_153">
<g id="Group_154">
<path id="Vector_58" d="M229.999 250.31C230.808 250.944 231.272 251.936 231.404 252.94C231.536 253.944 231.203 254.729 230.927 255.708C230.783 256.216 230.218 256.976 230.137 257.497C229.76 257.528 229.76 257.496 229.39 257.559C229.604 257.302 229.754 256.756 229.898 256.335C230.187 255.507 230.256 254.591 229.967 253.762C229.679 252.934 228.43 252.218 227.571 251.986C228.085 251.452 229.309 251.063 230.03 250.85" fill="#E5E5E5"/>
</g>
</g>
<g id="Group_155">
<g id="Group_156">
<path id="Vector_59" d="M229.434 254.992C229.572 254.685 230.03 254.572 230.313 254.766C230.595 254.961 230.658 255.388 230.457 255.67C230.256 255.946 229.848 256.04 229.528 255.902" fill="#E5E5E5"/>
</g>
</g>
<g id="Group_157">
<g id="Group_158">
<path id="Vector_60" d="M228.004 252.193C228.443 252.431 228.732 252.883 228.87 253.36C229.014 253.831 229.026 254.333 229.039 254.823C229.052 255.337 229.064 255.852 229.077 256.36C229.196 256.36 229.315 256.367 229.434 256.367C229.535 255.626 229.742 254.904 230.055 254.226C230.093 254.151 230.124 254.07 230.124 253.988C230.124 253.906 230.087 253.831 230.049 253.762C229.622 252.984 228.863 252.394 227.991 252.162" fill="#E5E5E5"/>
</g>
</g>
<g id="Group_159">
<g id="Group_160">
<path id="Vector_61" d="M141.845 257.515C141.073 258.808 140.528 260.233 140.245 261.702C139.988 263.007 140.007 264.532 140.998 265.442C142.058 266.415 143.89 266.202 144.976 265.248C146.055 264.294 146.488 262.806 146.525 261.382C146.563 259.944 146.162 258.369 144.976 257.509C143.79 256.649 141.726 256.994 141.306 258.375" fill="#E5E5E5"/>
</g>
</g>
<g id="Group_161">
<g id="Group_162">
<path id="Vector_62" d="M141.569 265.505C141.626 267.357 141.224 269.215 140.408 270.884C141.237 270.909 142.071 270.815 142.874 270.614C142.874 269.008 142.874 267.401 142.874 265.788C142.385 265.681 142.021 265.292 141.569 265.505Z" fill="#E5E5E5"/>
</g>
</g>
<g id="Group_163">
<g id="Group_164">
<path id="Vector_63" d="M145.095 256.944C145.798 257.089 146.268 257.622 146.62 258.237C146.808 258.57 146.914 258.997 146.72 259.323C146.482 259.718 145.942 259.794 145.478 259.869C144.474 260.026 143.501 260.371 142.629 260.873C141.989 261.244 141.393 261.714 141.036 262.348C140.685 262.982 140.616 263.804 141.017 264.413C140.132 263.974 139.756 262.932 139.599 261.978C139.461 261.124 139.43 260.233 139.693 259.398C140.019 258.356 140.816 257.459 141.833 256.994C142.843 256.536 144.06 256.517 145.095 256.944Z" fill="#E5E5E5"/>
</g>
</g>
<g id="Group_165">
<g id="Group_166">
<path id="Vector_64" d="M141.412 262.241C141.224 261.721 140.546 261.425 140.026 261.639C139.505 261.852 139.242 262.53 139.486 263.026C139.731 263.528 140.427 263.754 140.935 263.503" fill="#E5E5E5"/>
</g>
</g>
<g id="Group_167">
<g id="Group_168">
<path id="Vector_65" d="M231.047 251.892C230.94 250.806 230.463 249.758 229.704 248.954C229.359 248.59 228.92 248.258 228.412 248.239C227.753 248.207 227.157 248.703 226.492 248.684C225.99 248.672 225.551 248.364 225.061 248.258C224.365 248.107 223.593 248.421 223.204 249.004C222.903 249.463 222.796 250.078 222.32 250.354C221.931 250.58 221.423 250.492 220.99 250.63C220.149 250.9 219.842 251.961 220.055 252.795C220.187 253.329 220.538 253.869 221.084 253.975C221.868 254.126 222.477 253.36 223.06 252.827C223.148 252.745 223.242 252.664 223.361 252.639C223.7 252.563 223.945 252.94 224.252 253.109C224.71 253.354 225.275 253.084 225.708 252.789C226.14 252.5 226.642 252.168 227.144 252.306C227.452 252.394 227.684 252.645 227.966 252.795C228.449 253.053 229.052 253.009 229.56 252.802C230.068 252.595 230.501 252.249 230.921 251.904" fill="#E5E5E5"/>
</g>
</g>
<g id="Group_169">
<g id="Group_170">
<path id="Vector_66" d="M221.636 295.506C222.376 296.938 222.313 298.689 222.803 300.22C230.005 322.476 235.093 345.184 241.173 364.968C243.55 365.915 249.228 364.622 251.719 363.995C248.726 349.754 240.79 324.221 237.791 309.98C237.164 307.005 242.365 302.392 236.003 295.017C230.883 296.322 226.222 292.921 221.636 295.506Z" fill="#E5E5E5"/>
</g>
</g>
<g id="Group_171">
<g id="Group_172">
<path id="Vector_67" d="M226.291 261.846C219.164 270.275 220.801 298.777 220.757 303.503C223.261 303.553 236.869 302.768 239.209 302.392C238.268 293.103 233.468 268.16 229.585 261.08C228.857 262.053 227.383 262.398 226.291 261.846Z" fill="#E5E5E5"/>
</g>
</g>
<g id="Group_173">
<g id="Group_174">
<g id="Group_175">
<path id="Vector_68" d="M135.439 297.822C132.127 307.482 128.626 317.072 124.931 326.593C133.432 330.704 143.357 331.941 152.642 330.045C149.907 318.804 148.131 307.337 147.341 295.814C142.905 295.72 139.655 296.473 135.439 297.822Z" fill="#E5E5E5"/>
</g>
</g>
<g id="Group_176">
<g id="Group_177">
<g id="Group_178">
<path id="Vector_69" d="M135.333 297.791C132.748 305.323 130.05 312.823 127.233 320.273C126.443 322.376 125.64 324.472 124.824 326.562C124.805 326.606 124.837 326.663 124.874 326.682C131.531 329.889 139.022 331.364 146.431 330.949C148.527 330.83 150.616 330.56 152.674 330.146C152.737 330.134 152.762 330.065 152.749 330.014C150.622 321.252 149.066 312.365 148.119 303.409C147.849 300.879 147.63 298.343 147.454 295.808C147.448 295.751 147.404 295.701 147.341 295.701C145.333 295.663 143.326 295.801 141.35 296.159C139.329 296.523 137.359 297.094 135.408 297.716C135.276 297.76 135.333 297.967 135.465 297.923C137.372 297.314 139.292 296.756 141.262 296.391C143.263 296.021 145.296 295.883 147.335 295.914C147.297 295.877 147.26 295.845 147.222 295.808C147.843 304.808 149.054 313.771 150.861 322.614C151.369 325.106 151.927 327.592 152.53 330.065C152.555 330.021 152.58 329.977 152.605 329.933C145.428 331.389 137.886 330.993 130.904 328.828C129.141 328.282 127.409 327.623 125.734 326.851C125.615 326.795 125.188 326.675 125.113 326.562C125.019 326.418 125.213 326.135 125.27 325.991C125.452 325.52 125.634 325.05 125.816 324.579C126.179 323.637 126.537 322.69 126.895 321.748C128.313 318.026 129.699 314.286 131.054 310.545C132.585 306.327 134.078 302.09 135.534 297.848C135.59 297.722 135.377 297.666 135.333 297.791Z" fill="#E5E5E5"/>
</g>
</g>
</g>
</g>
<g id="Group_179">
<g id="Group_180">
<path id="Vector_70" d="M140.402 269.767C141.212 270.784 143.1 270.89 143.313 269.899C146.845 273.683 148.339 278.372 148.232 282.998C148.188 284.805 148.464 296.304 148.558 299.166C143.156 299.919 137.378 299.222 133.733 299.335C134.957 296.448 136.362 289.174 135.703 286.117C134.568 280.82 136.318 272.114 140.402 269.767Z" fill="#E5E5E5"/>
</g>
</g>
<g id="Group_181">
<g id="Group_182">
<path id="Vector_71" d="M123.281 367.836C123.111 368.401 122.792 369.455 122.622 370.02C125.445 371.119 133.714 371.746 134.31 371.947C133.005 371.018 131.349 369.744 130.207 368.646C128.036 369.192 125.119 369.041 123.281 367.836Z" fill="#E5E5E5"/>
</g>
</g>
<g id="Group_183">
<g id="Group_184">
<path id="Vector_72" d="M154.926 367.459C155.052 368.313 155.171 369.167 155.296 370.02C155.296 370.02 163.866 368.25 166.508 367.434C164.983 367.026 163.465 366.618 161.94 366.21C161.834 366.179 161.721 366.154 161.608 366.154C161.451 366.16 161.3 366.223 161.156 366.286C159.305 367.058 156.934 367.328 154.926 367.459Z" fill="#E5E5E5"/>
</g>
</g>
<g id="Group_185">
<g id="Group_186">
<path id="Vector_73" d="M141.67 274.587C145.628 280.004 154.926 292.707 155.942 293.228C157.059 293.806 172.756 292.946 178.491 291.992C178.974 293.335 179.551 296.988 180.034 298.331C172.399 300.277 156.488 302.266 153.552 301.482C150.672 300.716 142.724 291.835 139.486 287.385C137.667 284.887 136.845 282.621 136.5 279.577C136.381 278.51 137.962 276.037 138.664 275.202C139.373 274.374 140.979 273.746 141.67 274.587Z" fill="#E5E5E5"/>
</g>
</g>
<g id="Group_187">
<g id="Group_188">
<path id="Vector_74" d="M227.847 270.175C227.496 267.853 227.577 264.796 229.842 264.018C231.58 263.421 233.393 264.714 234.56 266.108C236.85 268.844 238.155 272.221 239.422 275.535C244.454 288.672 249.479 301.814 254.511 314.951C251.826 315.591 249.14 316.231 246.455 316.871C244.843 313.62 243.23 310.369 241.693 307.087C235.978 294.879 231.304 282.207 227.728 269.246" fill="#E5E5E5"/>
</g>
</g>
<g id="Group_189">
<g id="Group_190">
<path id="Vector_75" d="M156.15 321.052C155.817 320.512 155.616 320.016 155.466 319.407C155.315 318.792 155.384 318.102 155.792 317.612C156.055 317.298 156.432 317.104 156.808 316.934C157.009 316.846 157.216 316.765 157.442 316.74C157.925 316.689 158.389 316.947 158.709 317.298C159.029 317.65 159.23 318.089 159.418 318.522C159.562 318.842 159.707 319.181 159.657 319.526C159.613 319.809 159.443 320.06 159.243 320.267C158.483 321.07 157.222 321.391 156.15 321.052Z" fill="#E5E5E5"/>
</g>
</g>
<g id="Group_191">
<g id="Group_192">
<g id="Group_193">
<g id="Group_194">
<path id="Vector_76" d="M105.576 65.7643C106.668 65.7643 107.766 65.7581 108.857 65.7581C111.467 65.7518 114.083 65.7518 116.693 65.7455C119.868 65.7392 123.042 65.733 126.217 65.733C128.965 65.7267 131.707 65.7267 134.455 65.7204C135.358 65.7204 136.261 65.7204 137.171 65.7141C137.453 65.7141 137.729 65.7141 138.012 65.7141C138.144 65.7141 138.326 65.7455 138.457 65.7141C138.476 65.7078 138.501 65.7141 138.514 65.7141C138.608 65.7141 138.608 65.5698 138.514 65.5698C137.422 65.5698 136.324 65.576 135.233 65.576C132.623 65.5823 130.006 65.5823 127.396 65.5886C124.222 65.5949 121.047 65.6011 117.873 65.6011C115.125 65.6074 112.383 65.6074 109.635 65.6137C108.732 65.6137 107.828 65.6137 106.919 65.62C106.636 65.62 106.36 65.62 106.078 65.62C105.946 65.62 105.764 65.5886 105.633 65.62C105.614 65.6263 105.589 65.62 105.576 65.62C105.482 65.62 105.482 65.7643 105.576 65.7643Z" fill="#E5E5E5"/>
</g>
</g>
</g>
<g id="Group_195">
<g id="Group_196">
<g id="Group_197">
<path id="Vector_77" d="M98.3863 61.1575C99.0639 62.6952 99.7352 64.2392 100.413 65.7769C100.438 65.8271 100.513 65.8146 100.538 65.7769C101.818 63.7998 103.104 61.8228 104.384 59.8457C104.434 59.7704 104.309 59.6951 104.259 59.7767C102.979 61.7537 101.693 63.7308 100.413 65.7079C100.457 65.7079 100.494 65.7079 100.538 65.7079C99.8606 64.1702 99.1893 62.6262 98.5118 61.0884C98.4741 61.0006 98.3487 61.0696 98.3863 61.1575Z" fill="#E5E5E5"/>
</g>
</g>
</g>
<g id="Group_198">
<g id="Group_199">
<path id="Vector_78" d="M110.294 45.73C109.435 43.0751 110.589 41.688 112.226 40.6587C113.607 39.7925 115.495 40.0122 116.869 40.8783C118.243 41.7445 119.172 43.1567 119.824 44.6191C120.313 45.7112 120.859 47.023 122.057 47.2489C122.804 47.3933 123.544 47.0355 124.285 46.866C125.157 46.6652 126.211 46.7845 126.744 47.4874C127.296 48.2092 127.095 49.2071 127.252 50.0921C127.447 51.1905 128.262 52.1696 129.329 52.5776C130.389 52.9856 131.575 52.8349 132.71 52.9416C133.846 53.0483 134.982 53.4249 135.829 54.1781C136.669 54.9312 137.171 56.0798 136.964 57.1782C136.883 57.6113 136.694 58.0381 136.726 58.4774C136.795 59.4817 137.924 60.0779 138.934 60.2913C139.944 60.5047 141.08 60.58 141.808 61.2955C142.849 62.3123 142.485 64.0823 141.644 65.2622C140.59 66.7372 138.903 67.7603 137.083 68.0427C136.456 68.1368 135.785 68.1431 135.207 67.8858C134.379 67.5155 133.871 66.687 133.564 65.8522C133.256 65.0175 133.093 64.1262 132.685 63.3354C132.102 62.2056 131.023 61.3332 129.774 60.9943C128.808 60.7307 127.641 60.693 127.07 59.8896C126.55 59.149 126.819 58.1385 126.568 57.2724C126.273 56.2807 125.295 55.5966 124.272 55.3518C123.25 55.1007 122.17 55.2074 121.116 55.3141C120.602 55.3706 120.044 55.4145 119.592 55.1698C118.155 54.3915 119.159 51.7617 117.766 50.9081C117.095 50.5001 116.235 50.7449 115.445 50.7386C114.159 50.726 112.973 49.9792 112.151 49.0063C111.329 48.0397 110.815 46.866 110.313 45.7049" fill="#E5E5E5"/>
</g>
</g>
<g id="Group_200">
<g id="Group_201">
<path id="Vector_79" d="M100.544 91.5856C101.009 94.1275 101.467 96.6758 101.931 99.2177C101.994 99.5629 102.088 99.952 102.439 100.153C102.734 100.322 103.129 100.285 103.487 100.272C111.593 99.9771 119.46 100.14 127.459 100.291C127.748 100.297 128.093 99.6006 128.294 99.4311C128.451 99.293 128.488 99.0922 128.513 98.9102C128.896 96.0104 128.739 93.0542 128.049 90.1922C118.902 90.3428 109.754 90.801 100.651 91.573" fill="#E5E5E5"/>
</g>
</g>
<g id="Group_202">
<g id="Group_203">
<path id="Vector_80" d="M98.9007 86.6021C98.9007 88.7674 97.3448 94.7175 98.4176 96.1736C98.6686 96.5126 103.085 94.6798 103.512 94.7301C111.756 95.6904 118.601 93.3618 126.863 92.5772C127.296 92.5333 127.898 94.1652 128.143 93.7823C129.41 91.8178 126.198 85.9117 127.716 84.6689C119.41 84.4932 116.217 85.102 107.91 85.2903C104.409 85.3719 100.915 85.5037 97.4201 85.6857" fill="#E5E5E5"/>
</g>
</g>
<g id="Group_204">
<g id="Group_205">
<g id="Group_206">
<path id="Vector_81" d="M120.527 100.31C120.74 101.603 120.947 102.896 121.16 104.189C121.668 107.289 122.177 110.396 122.685 113.497C123.293 117.237 123.908 120.972 124.517 124.713C125.05 127.957 125.577 131.196 126.11 134.441C126.286 135.502 126.455 136.562 126.631 137.629C126.688 137.962 126.738 138.301 126.794 138.634C126.819 138.791 126.819 139.01 126.882 139.161C126.888 139.18 126.888 139.211 126.895 139.23C126.907 139.318 127.045 139.28 127.033 139.192C126.819 137.899 126.612 136.606 126.399 135.313C125.891 132.213 125.383 129.106 124.874 126.005C124.266 122.265 123.651 118.53 123.042 114.789C122.509 111.545 121.982 108.306 121.449 105.061C121.273 104 121.104 102.94 120.928 101.873C120.872 101.54 120.822 101.201 120.765 100.868C120.74 100.711 120.74 100.492 120.677 100.341C120.671 100.322 120.671 100.291 120.665 100.272C120.646 100.184 120.508 100.222 120.527 100.31Z" fill="#E5E5E5"/>
</g>
</g>
</g>
<g id="Group_207">
<g id="Group_208">
<path id="Vector_82" d="M124.128 56.2995C135.941 58.8038 139.637 74.7836 140.032 86.4577C134.762 86.8092 129.448 86.5268 124.247 85.623C124.335 77.4573 124.674 69.2917 125.263 61.1449C125.351 59.99 122.942 56.2869 124.128 56.2995Z" fill="#E5E5E5"/>
</g>
</g>
<g id="Group_209">
<g id="Group_210">
<path id="Vector_83" d="M127.315 86.3259C131.544 86.6021 135.76 86.2632 140.038 86.4577C142.065 80.7776 140.038 76.3025 138.94 75.1162C134.248 74.7836 129.856 78.5934 125.376 80.219C125.27 80.2566 125.157 80.3068 125.119 80.4261C125.094 80.514 125.125 80.6081 125.157 80.6897C125.834 82.5977 126.512 84.4995 127.189 86.4075" fill="#E5E5E5"/>
</g>
</g>
<g id="Group_211">
<g id="Group_212">
<path id="Vector_84" d="M105.218 56.2995C93.4049 58.8038 89.7096 74.7836 89.3143 86.4577C94.5843 86.8092 99.8983 86.5268 105.099 85.623C105.011 77.4573 104.673 69.2917 104.083 61.1449C103.995 59.99 106.404 56.2869 105.218 56.2995Z" fill="#E5E5E5"/>
</g>
</g>
<g id="Group_213">
<g id="Group_214">
<path id="Vector_85" d="M111.549 42.8805C110.965 44.2362 110.972 45.3158 110.965 46.7907C110.959 48.2343 111.455 49.6026 112.528 50.3808C113.964 51.429 115.445 50.7637 116.373 49.6967C117.302 48.6297 117.528 47.1297 117.371 45.7363C117.22 44.3304 116.618 42.8491 115.351 42.1587C114.083 41.4746 111.775 41.4809 111.549 42.8805Z" fill="#E5E5E5"/>
</g>
</g>
<g id="Group_215">
<g id="Group_216">
<path id="Vector_86" d="M111.128 46.8723C110.84 46.6777 110.3 46.8284 110.056 47.0669C109.805 47.3054 109.761 47.7196 109.955 48.0021C110.288 48.4916 111.034 48.4226 111.624 48.3033C111.549 47.8012 111.379 47.3117 111.128 46.8723Z" fill="#E5E5E5"/>
</g>
</g>
<g id="Group_217">
<g id="Group_218">
<path id="Vector_87" d="M117.245 46.8723C117.534 46.6777 118.074 46.8284 118.318 47.0669C118.569 47.3054 118.613 47.7196 118.419 48.0021C118.086 48.4916 117.34 48.4226 116.75 48.3033C116.825 47.8012 116.995 47.3117 117.245 46.8723Z" fill="#E5E5E5"/>
</g>
</g>
<g id="Group_219">
<g id="Group_220">
<path id="Vector_88" d="M113.494 50.3871C113.55 51.3411 113.607 52.3014 113.663 53.2554C111.875 53.9396 106.072 55.6342 105.777 56.5443C105.407 57.6929 105.626 59.2431 105.658 60.0653C108.682 60.216 112.101 59.7766 115.125 59.9273C118.03 60.0716 120.96 60.216 123.82 59.7139C123.965 58.9168 123.626 57.0966 123.118 56.3811C122.409 55.3831 116.235 53.4814 115.062 53.3245C115.068 52.2889 114.943 51.247 114.949 50.2114C114.642 50.2176 113.814 50.2176 113.506 50.2239" fill="#E5E5E5"/>
</g>
</g>
<g id="Group_221">
<g id="Group_222">
<path id="Vector_89" d="M112.847 53.3559C112.954 54.0337 113.676 54.5044 114.372 54.4605C115.144 54.4103 115.733 54.0149 115.834 53.4061C116.549 53.4688 126.016 56.5819 126.305 56.9523C127.353 58.2891 128.011 66.8816 128.137 68.777C126.813 69.0846 125.433 69.072 124.078 69.0532C120.238 69.0155 116.398 68.9716 112.559 68.9339C110.564 68.9151 108.562 68.89 106.574 68.7896C104.566 68.6829 103.142 68.5511 101.147 68.3691C101.122 66.8125 101.598 66.0719 101.573 64.5153C101.542 62.4504 102.163 57.3288 102.163 57.3288C103.769 55.6907 111.128 53.8643 112.847 53.3559Z" fill="#E5E5E5"/>
</g>
</g>
<g id="Group_223">
<g id="Group_224">
<path id="Vector_90" d="M102.163 86.4075C98.1291 86.6837 93.499 86.282 89.308 86.4577C87.2816 80.7776 89.308 76.3025 90.406 75.1162C95.0988 74.7836 99.4905 78.5934 103.97 80.219C104.077 80.2566 104.19 80.3068 104.227 80.4261C104.252 80.514 104.221 80.6081 104.19 80.6897C103.518 82.5977 102.841 84.5058 102.163 86.4075Z" fill="#E5E5E5"/>
</g>
</g>
<g id="Group_225">
<g id="Group_226">
<path id="Vector_91" d="M120.865 131.704C117.936 119.522 114.322 109.812 113.136 97.3536C113.029 96.2427 113.086 95.1255 113.4 94.0459C113.901 92.3136 114.56 91.1588 116.417 90.1357C118.293 89.1064 120.96 89.3951 123.005 90.0353C124.774 90.5876 126.023 92.1944 126.593 93.9204C127.164 95.6464 127.164 97.4917 127.158 99.2993C127.108 111.676 126.424 123.614 126.374 135.991C124.034 136.393 124.812 136.456 122.597 137.297C122.44 132.997 121.323 133.763 120.865 131.704Z" fill="#E5E5E5"/>
</g>
</g>
<g id="Group_227">
<g id="Group_228">
<path id="Vector_92" d="M120.696 127.731C117.233 115.687 114.228 106.436 111.216 95.4769C110.921 94.3974 110.169 93.481 109.347 92.709C108.067 91.504 105.858 91.0521 104.328 91.1148C102.176 91.2027 100.425 92.2006 98.9447 93.7258C97.6711 95.0439 97.3699 97.0398 97.7275 98.816C98.0789 100.592 98.9949 102.212 99.8983 103.793C106.072 114.607 112.484 126.489 118.657 137.303C122.189 139.92 122.603 138.583 123.162 135.615C122.547 133.456 121.399 129.853 120.696 127.731Z" fill="#E5E5E5"/>
</g>
</g>
<g id="Group_229">
<g id="Group_230">
<path id="Vector_93" d="M133.357 67.5845H98.4177V86.6021H133.357V67.5845Z" fill="#E5E5E5"/>
</g>
</g>
<g id="Group_231">
<g id="Group_232">
<path id="Vector_94" d="M110.727 42.3721C110.307 42.7613 110.187 43.4266 110.445 43.9349C110.683 44.3994 111.166 44.6881 111.655 44.889C112.76 45.3346 113.977 45.4162 115.144 45.6923C116.304 45.9622 117.503 46.4957 118.092 47.5125C118.437 46.0187 118.055 44.3806 117.082 43.1755C116.11 41.9704 114.567 41.2298 112.998 41.2047C112.007 41.1859 111.292 41.5687 110.727 42.3721Z" fill="#E5E5E5"/>
</g>
</g>
<g id="Group_233">
<g id="Group_234">
<path id="Vector_95" d="M126.405 133.117C129.015 135.985 132.171 143.705 130.458 145.192C128.4 146.981 126.876 143.812 126.418 143.153C124.642 140.617 123.394 137.73 122.76 134.723C123.626 135.401 124.542 136.092 125.521 135.59C126.499 135.087 126.487 134.196 126.405 133.117Z" fill="#E5E5E5"/>
</g>
</g>
<g id="Group_235">
<g id="Group_236">
<path id="Vector_96" d="M117.383 135.426C118.789 138.841 120.125 142.462 123.325 145.418C123.651 145.72 128.294 149.416 126.65 142.651C125.841 139.305 124.266 136.18 122.679 133.11C122.603 135.106 122.196 139.914 117.383 135.426Z" fill="#E5E5E5"/>
</g>
</g>
<g id="Group_237">
<g id="Group_238">
<g id="Group_239">
<path id="Vector_97" d="M114.278 46.025C114.278 46.5208 114.328 47.048 114.673 47.4372C114.993 47.8012 115.489 47.8954 115.959 47.9267C117.17 48.0146 117.465 46.9978 117.496 46.0124C117.496 45.9685 117.459 45.9308 117.415 45.9308C116.449 45.9308 115.483 45.9246 114.516 45.9246C114.41 45.9246 114.41 46.0815 114.516 46.0815C115.144 46.0815 115.765 46.0815 116.392 46.0877C116.574 46.0877 117.164 45.9999 117.289 46.1191C117.434 46.2635 117.277 46.7782 117.22 46.9664C116.957 47.7698 116.173 47.8703 115.426 47.682C114.617 47.4748 114.441 46.7405 114.441 46.0187C114.435 45.9246 114.278 45.9246 114.278 46.025Z" fill="#E5E5E5"/>
</g>
</g>
</g>
<g id="Group_240">
<g id="Group_241">
<g id="Group_242">
<path id="Vector_98" d="M110.652 46.025C110.652 46.6275 110.752 47.1987 111.248 47.6066C111.605 47.9016 112.07 48.0397 112.528 47.933C112.929 47.8452 113.318 47.5941 113.575 47.2866C113.87 46.9351 113.858 46.4518 113.87 46.0187C113.87 45.9748 113.832 45.9371 113.789 45.9371C112.822 45.9371 111.856 45.9308 110.89 45.9308C110.783 45.9308 110.783 46.0878 110.89 46.0878C111.63 46.0878 112.371 46.0878 113.105 46.094C113.18 46.094 113.556 46.0564 113.619 46.094C113.745 46.1756 113.701 46.3012 113.688 46.4392C113.663 46.728 113.625 46.979 113.437 47.1987C113.124 47.5627 112.615 47.8452 112.12 47.8075C111.147 47.7385 110.815 46.8284 110.815 46.0187C110.815 45.9246 110.652 45.9246 110.652 46.025Z" fill="#E5E5E5"/>
</g>
</g>
</g>
<g id="Group_243">
<g id="Group_244">
<g id="Group_245">
<path id="Vector_99" d="M113.757 46.1631C113.964 46.1631 114.171 46.1756 114.372 46.2007C114.479 46.2133 114.472 46.0564 114.372 46.0438C114.165 46.0187 113.964 46.0062 113.757 46.0062C113.651 46.0062 113.651 46.1631 113.757 46.1631Z" fill="#E5E5E5"/>
</g>
</g>
</g>
<g id="Group_246">
<g id="Group_247">
<g id="Group_248">
<path id="Vector_100" d="M111.906 47.2803C112.032 46.8598 112.584 46.8472 112.76 47.2426C112.804 47.3368 112.942 47.2552 112.898 47.161C112.666 46.6338 111.913 46.7029 111.75 47.2364C111.724 47.3368 111.881 47.3807 111.906 47.2803Z" fill="#E5E5E5"/>
</g>
</g>
</g>
<g id="Group_249">
<g id="Group_250">
<g id="Group_251">
<path id="Vector_101" d="M115.244 47.2113C115.439 46.8158 116.003 46.8221 116.154 47.2552C116.185 47.3493 116.342 47.3117 116.311 47.2113C116.116 46.6652 115.363 46.6024 115.1 47.1297C115.056 47.2238 115.2 47.2991 115.244 47.2113Z" fill="#E5E5E5"/>
</g>
</g>
</g>
<g id="Group_252">
<g id="Group_253">
<g id="Group_254">
<path id="Vector_102" d="M113.839 47.682C113.82 48.0523 113.789 48.4289 113.782 48.7992C113.782 49.0063 113.895 49 114.09 49.0063C114.196 49.0126 114.196 48.8494 114.09 48.8494C114.04 48.8431 113.989 48.8431 113.945 48.8494C113.945 48.7866 113.952 48.7176 113.952 48.6548C113.958 48.5607 113.958 48.4602 113.964 48.3661C113.977 48.1401 113.983 47.9142 113.996 47.6882C114.008 47.5816 113.845 47.5815 113.839 47.682Z" fill="#E5E5E5"/>
</g>
</g>
</g>
</g>
<g id="Group_255">
<g id="Group_256">
<path id="Vector_103" d="M294.324 159.245C295.554 171.07 297.988 188.977 298.597 200.852C298.798 204.775 299.262 211.534 300.222 215.35C300.498 216.455 300.849 216.788 302.01 216.875C303.196 216.888 304.407 198.021 304.563 194.444C304.651 192.397 304.808 188.412 304.902 186.366C304.99 184.408 306.169 163.2 306.433 157.896C303.396 158.825 297.982 157.902 294.952 158.825" fill="#E5E5E5"/>
</g>
</g>
<g id="Group_257">
<g id="Group_258">
<path id="Vector_104" d="M299.833 105.827C298.741 108.124 299.689 110.352 301.947 111.601C304.206 112.85 306.414 113.572 309.2 112.969C307.468 114.664 310.737 119.578 300.542 122.917C296.194 124.342 295.893 115.266 291.577 116.767C293.339 114.124 295.441 114.953 297.029 112.204C298.139 110.283 297.919 107.923 297.668 105.733C298.258 105.808 298.842 105.883 299.431 105.965" fill="#E5E5E5"/>
</g>
</g>
<g id="Group_259">
<g id="Group_260">
<path id="Vector_105" d="M297.806 97.7239C298.315 97.454 298.98 97.5921 299.425 97.9561C299.871 98.3139 300.128 98.8536 300.297 99.3934C300.554 100.228 300.617 101.107 300.598 101.973C300.58 102.902 300.46 103.843 300.078 104.691C299.701 105.544 299.036 106.304 298.158 106.661C297.279 107.019 296.182 106.919 295.485 106.285C294.983 105.833 294.732 105.174 294.594 104.515C294.218 102.72 294.607 100.793 295.655 99.2679C296.219 98.4457 297.066 97.6988 298.076 97.6925" fill="#E5E5E5"/>
</g>
</g>
<g id="Group_261">
<g id="Group_262">
<path id="Vector_106" d="M300.485 103.203C300.881 102.946 301.495 103.14 301.69 103.567C301.884 103.994 301.659 104.54 301.238 104.754C300.812 104.967 300.253 104.841 299.933 104.496" fill="#E5E5E5"/>
</g>
</g>
<g id="Group_263">
<g id="Group_264">
<path id="Vector_107" d="M300.191 214.566C297.449 216.342 294.525 217.855 291.476 219.072C295.473 219.028 299.431 218.382 303.371 217.742C303.484 217.723 303.61 217.698 303.66 217.597C303.698 217.535 303.685 217.453 303.679 217.378C303.578 216.618 303.472 215.852 303.371 215.093C303.353 214.942 303.327 214.785 303.208 214.685C303.095 214.585 302.926 214.578 302.769 214.572C301.928 214.566 301.081 214.61 300.247 214.71" fill="#E5E5E5"/>
</g>
</g>
<g id="Group_265">
<g id="Group_266">
<path id="Vector_108" d="M306.245 158.618C307.474 170.443 309.909 188.349 310.517 200.224C310.718 204.147 311.182 210.907 312.142 214.723C312.418 215.827 312.77 216.16 313.93 216.248C315.116 216.26 316.327 197.393 316.484 193.816C316.572 191.77 316.728 187.784 316.822 185.738C316.91 183.78 318.09 162.572 318.353 157.268C315.317 158.197 309.902 157.275 306.872 158.197" fill="#E5E5E5"/>
</g>
</g>
<g id="Group_267">
<g id="Group_268">
<path id="Vector_109" d="M312.111 214.566C309.369 216.342 306.446 217.855 303.396 219.072C307.393 219.028 311.352 218.382 315.292 217.742C315.405 217.723 315.53 217.698 315.58 217.597C315.618 217.535 315.605 217.453 315.599 217.378C315.499 216.618 315.392 215.852 315.292 215.093C315.273 214.942 315.248 214.785 315.129 214.685C315.016 214.585 314.846 214.578 314.689 214.572C313.849 214.566 313.002 214.61 312.167 214.71" fill="#E5E5E5"/>
</g>
</g>
<g id="Group_269">
<g id="Group_270">
<path id="Vector_110" d="M293.923 153.477L294.463 160.03C301.044 160.25 308.246 159.741 315.819 157.978C316.672 157.777 317.506 157.57 318.328 157.35C318.096 154.915 317.864 152.473 317.632 150.038L293.923 153.477Z" fill="#E5E5E5"/>
</g>
</g>
<g id="Group_271">
<g id="Group_272">
<path id="Vector_111" d="M296.062 113.026C296.056 113.685 298.239 115.066 299.971 114.733C301.702 114.394 302.656 113.239 303.064 112.009C305.448 112.266 312.343 112.047 314.645 112.16C315.016 112.178 317.494 140.623 318.68 155.699C307.889 157.915 304.519 156.798 293.283 156.139C291.953 143.153 288.527 118.505 289.839 116.045C290.353 115.066 295.058 113.697 296.062 113.026Z" fill="#E5E5E5"/>
</g>
</g>
<g id="Group_273">
<g id="Group_274">
<path id="Vector_112" d="M314.771 112.36C319.539 117.068 319.878 124.643 318.127 131.039C314.57 144.019 304.181 154.036 293.754 162.81C292.637 163.752 291.275 164.75 289.832 164.455C289.262 161.756 291.062 159.189 292.693 156.942C302.443 143.561 310.505 128.246 314.771 112.36Z" fill="#E5E5E5"/>
</g>
</g>
<g id="Group_275">
<g id="Group_276">
<path id="Vector_113" d="M299.776 101.452C298.453 101.684 296.796 101.634 295.454 101.553C295.912 101.339 296.37 101.132 296.828 100.919C295.705 101.126 294.569 101.226 293.427 101.226C293.879 100.366 294.331 99.5064 294.782 98.6465C295.059 98.1193 295.347 97.5796 295.793 97.1716C296.194 96.8013 296.709 96.5628 297.229 96.3933C298.283 96.0481 299.544 95.9791 300.429 96.6444C300.78 96.908 301.05 97.272 301.257 97.6549C301.947 98.9353 301.991 100.473 301.677 101.885C301.364 103.297 300.724 104.622 300.09 105.927C299.889 105.933 299.682 105.94 299.482 105.94C299.827 104.477 299.927 102.952 299.776 101.452Z" fill="#E5E5E5"/>
</g>
</g>
<g id="Group_277">
<g id="Group_278">
<path id="Vector_114" d="M314.344 112.386C314.708 112.028 315.342 112.053 315.781 112.323C316.22 112.593 316.515 113.038 316.772 113.471C320.254 119.365 320.9 126.784 318.479 133.167C317.625 135.42 316.415 137.529 315.172 139.6C310.486 147.377 305.072 154.858 298.076 160.758C297.806 160.984 297.512 161.216 297.154 161.229C296.834 161.241 296.545 161.066 296.282 160.896C294.657 159.86 293.063 158.775 291.508 157.651C297.543 149.46 302.217 140.41 306.86 131.403C307.725 129.727 308.591 128.045 309.319 126.307C310.705 122.999 311.571 119.516 312.688 116.114C313.171 114.639 313.736 113.133 314.834 112.009" fill="#E5E5E5"/>
</g>
</g>
<g id="Group_279">
<g id="Group_280">
<path id="Vector_115" d="M296.727 111.444C296.351 112.059 295.899 112.624 295.385 113.126C296.087 114.168 296.865 115.16 297.706 116.095C297.995 115.323 298.283 114.557 298.578 113.785C298.591 113.748 298.609 113.704 298.597 113.666C298.584 113.628 298.553 113.597 298.528 113.572C298.177 113.245 297.819 112.919 297.468 112.593C297.16 112.304 296.834 111.996 296.727 111.595" fill="#E5E5E5"/>
</g>
</g>
<g id="Group_281">
<g id="Group_282">
<path id="Vector_116" d="M298.967 113.384C300.002 112.925 300.787 111.996 301.514 111.143C302.236 111.319 302.951 111.501 303.673 111.676C303.158 113.484 301.872 115.066 300.184 115.957C299.814 115.084 299.413 114.225 298.967 113.384Z" fill="#E5E5E5"/>
</g>
</g>
<g id="Group_283">
<g id="Group_284">
<path id="Vector_117" d="M298.202 113.446C298.026 114.231 297.8 114.997 297.524 115.756C297.499 115.825 297.474 115.9 297.48 115.969C297.486 116.032 297.524 116.089 297.556 116.139C297.687 116.346 298.221 116.942 298.283 116.93C298.791 116.873 299.3 116.811 299.808 116.735C299.877 116.723 300.329 115.926 300.335 115.85C300.341 115.762 300.31 115.674 300.272 115.593C299.983 114.902 299.431 114.061 299.293 113.333C298.904 113.352 299.061 113.333 298.672 113.333C298.471 113.333 298.164 113.409 298.202 113.446Z" fill="#E5E5E5"/>
</g>
</g>
<g id="Group_285">
<g id="Group_286">
<path id="Vector_118" d="M298.183 116.779C297.982 119.202 297.041 125.447 297.098 126.005C297.141 126.407 299.388 135.847 300.874 139.092C301.088 138.602 302.368 126.213 302.311 125.911C302.179 125.24 300.26 118.97 299.808 116.741" fill="#E5E5E5"/>
</g>
</g>
<g id="Group_287">
<g id="Group_288">
<path id="Vector_119" d="M31.1747 337.941L29.8258 337.609L78.9249 146.919L80.28 147.251L31.1747 337.941Z" fill="#E5E5E5"/>
</g>
</g>
<g id="Group_289">
<g id="Group_290">
<path id="Vector_120" d="M1.34887 337.941L0 337.609L49.099 146.919L50.4542 147.251L1.34887 337.941Z" fill="#E5E5E5"/>
</g>
</g>
<g id="Group_291">
<g id="Group_292">
<path id="Vector_121" d="M76.1157 159.905L46.1736 160.376L46.195 161.738L76.1371 161.267L76.1157 159.905Z" fill="#E5E5E5"/>
</g>
</g>
<g id="Group_293">
<g id="Group_294">
<path id="Vector_122" d="M71.595 178.161L41.653 178.631L41.6744 179.993L71.6164 179.523L71.595 178.161Z" fill="#E5E5E5"/>
</g>
</g>
<g id="Group_295">
<g id="Group_296">
<path id="Vector_123" d="M66.5929 196.423L36.6508 196.891L36.6721 198.253L66.6141 197.785L66.5929 196.423Z" fill="#E5E5E5"/>
</g>
</g>
<g id="Group_297">
<g id="Group_298">
<path id="Vector_124" d="M61.1357 214.684L31.1937 215.152L31.2149 216.514L61.1569 216.046L61.1357 214.684Z" fill="#E5E5E5"/>
</g>
</g>
<g id="Group_299">
<g id="Group_300">
<path id="Vector_125" d="M56.7849 232.937L26.8429 233.408L26.8643 234.769L56.8063 234.299L56.7849 232.937Z" fill="#E5E5E5"/>
</g>
</g>
<g id="Group_301">
<g id="Group_302">
<path id="Vector_126" d="M52.1814 251.193L22.2393 251.66L22.2606 253.022L52.2026 252.555L52.1814 251.193Z" fill="#E5E5E5"/>
</g>
</g>
<g id="Group_303">
<g id="Group_304">
<path id="Vector_127" d="M47.5626 269.45L17.6206 269.921L17.6419 271.282L47.584 270.812L47.5626 269.45Z" fill="#E5E5E5"/>
</g>
</g>
<g id="Group_305">
<g id="Group_306">
<path id="Vector_128" d="M43.1018 287.709L13.1598 288.179L13.1811 289.541L43.1232 289.071L43.1018 287.709Z" fill="#E5E5E5"/>
</g>
</g>
<g id="Group_307">
<g id="Group_308">
<path id="Vector_129" d="M38.3793 305.968L8.43726 306.436L8.45849 307.797L38.4005 307.33L38.3793 305.968Z" fill="#E5E5E5"/>
</g>
</g>
<g id="Group_309">
<g id="Group_310">
<g id="Group_311">
<path id="Vector_130" d="M34.8888 141.125C34.9139 142.851 34.939 144.577 34.9641 146.303C34.9641 146.435 34.9641 146.567 34.9013 146.68C34.8135 146.824 34.6378 146.893 34.4747 146.95C32.2161 147.734 29.9513 148.519 27.6927 149.304C33.4646 149.586 38.101 149.542 43.8666 149.222C41.7084 148.732 39.3683 146.944 37.2415 146.329C36.8274 146.209 37.7246 147.031 37.4673 146.686C37.2415 146.391 37.1975 145.996 37.1662 145.632C37.0282 144.082 36.8901 142.525 36.7584 140.975" fill="#E5E5E5"/>
</g>
</g>
<g id="Group_312">
<g id="Group_313">
<path id="Vector_131" d="M23.9033 202.371C28.2197 218.055 28.6965 234.343 30.8234 250.454C30.8736 250.812 31.2939 251.277 31.57 251.509C31.8272 251.722 32.1973 251.741 32.5361 251.754C33.5588 251.779 34.343 251.295 35.3656 251.321C36.658 244.592 37.116 225.167 37.2917 222.606C37.8061 215.118 38.3206 207.624 38.8351 200.136C34.0795 200.733 29.3302 201.329 24.5746 201.925" fill="#E5E5E5"/>
</g>
</g>
<g id="Group_314">
<g id="Group_315">
<path id="Vector_132" d="M39.6443 200.482C41.4512 217.579 43.2518 234.675 45.0587 251.779C46.5581 252.18 47.9133 252.03 49.4441 251.754C50.6738 233.991 52.1481 216.442 53.3778 198.68C48.9045 199.86 44.3058 200.569 39.6757 200.789" fill="#E5E5E5"/>
</g>
</g>
<g id="Group_316">
<g id="Group_317">
<path id="Vector_133" d="M30.6728 249.72C29.1796 249.645 27.8935 249.676 26.4066 249.82C26.2183 250.235 26.645 250.655 27.0339 250.9C29.1357 252.224 31.6138 252.971 34.1171 253.047C34.3994 253.053 34.7006 253.053 34.9452 252.908C35.2652 252.72 35.4095 252.35 35.5099 251.998C35.7232 251.22 35.811 250.41 35.7734 249.607C34.5688 251.088 31.9464 251.151 30.6728 249.72Z" fill="#E5E5E5"/>
</g>
</g>
<g id="Group_318">
<g id="Group_319">
<path id="Vector_134" d="M49.8394 249.72C51.3325 249.645 52.6187 249.676 54.1056 249.82C54.2938 250.235 53.8672 250.655 53.4782 250.9C51.3764 252.224 48.8983 252.971 46.395 253.047C46.1127 253.053 45.8116 253.053 45.5669 252.908C45.2469 252.72 45.1026 252.35 45.0022 251.998C44.7889 251.22 44.7011 250.41 44.7387 249.607C45.9433 251.088 48.5658 251.151 49.8394 249.72Z" fill="#E5E5E5"/>
</g>
</g>
<g id="Group_320">
<g id="Group_321">
<path id="Vector_135" d="M29.0855 166.25C23.7026 176.757 19.4363 200.312 19.6747 210.838C31.3692 214.246 49.4441 214.246 58.7733 209.658C57.4495 198.63 50.2723 175.47 43.4777 166.049C37.2415 166.237 35.328 166.055 29.0855 166.25Z" fill="#E5E5E5"/>
</g>
</g>
<g id="Group_322">
<g id="Group_323">
<path id="Vector_136" d="M69.351 127.361C68.7048 127.003 66.258 126.702 66.2454 126.495C66.0384 122.039 65.1663 121.537 64.4511 122.296C63.7986 122.987 64.2127 125.78 64.2754 126.941C63.6794 127.003 63.0332 127.154 62.7823 127.669C62.6066 128.039 62.707 128.472 62.8199 128.868C63.1336 129.96 63.5038 131.033 63.9367 132.081C63.9618 132.42 63.9931 132.759 64.0245 133.092L63.9931 133.167C64.1374 133.223 64.288 133.267 64.4386 133.292L64.4888 133.343C64.4825 133.33 64.4762 133.311 64.4699 133.299C64.9217 133.38 65.4047 133.343 65.869 133.299C66.854 133.211 67.8453 133.129 68.8303 133.041C68.9934 133.029 69.1753 133.004 69.2882 132.891C69.3761 132.803 69.4074 132.684 69.4325 132.564C69.6772 131.554 69.8529 130.524 69.9784 129.489C70.085 128.717 70.0537 127.75 69.351 127.361Z" fill="#E5E5E5"/>
</g>
</g>
<g id="Group_324">
<g id="Group_325">
<g id="Group_326">
<path id="Vector_137" d="M28.4139 149.448C25.1327 151.488 20.5716 160.871 15.609 164.925C15.2953 165.183 14.9377 165.446 14.5299 165.402C13.9088 165.333 13.6265 164.624 13.4822 164.034C11.9702 157.852 12.1521 151.563 11.5373 145.236C9.9814 146.09 5.9034 147.753 5.665 148.287C5.50188 148.657 5.86576 161.097 7.23973 166.476C8.01141 169.482 8.90857 172.702 11.3616 174.673C12.0267 175.206 12.8172 175.639 13.6767 175.689C14.8624 175.758 15.9541 175.099 16.9014 174.409C21.1551 171.296 24.888 167.022 27.9936 162.81" fill="#E5E5E5"/>
</g>
</g>
<g id="Group_327">
<g id="Group_328">
<g id="Group_329">
<path id="Vector_138" d="M28.3766 149.391C26.8959 150.333 25.8106 151.896 24.7942 153.27C23.3198 155.279 21.9459 157.356 20.4652 159.365C19.0348 161.304 17.5165 163.262 15.6344 164.813C15.2642 165.114 14.7623 165.516 14.2604 165.252C13.9154 165.076 13.746 164.675 13.633 164.329C13.3821 163.576 13.2566 162.766 13.106 161.988C12.7798 160.275 12.5665 158.542 12.4034 156.804C12.052 152.95 11.9642 149.078 11.594 145.224C11.5878 145.174 11.5438 145.142 11.4937 145.167C9.98794 145.99 8.37556 146.624 6.85102 147.408C6.49341 147.59 5.82211 147.835 5.61507 148.211C5.53351 148.362 5.55861 148.576 5.55234 148.745C5.49587 151.538 5.70291 154.35 5.90994 157.137C6.17345 160.626 6.51851 164.122 7.43449 167.511C7.99913 169.595 8.68925 171.742 10.0632 173.462C10.7345 174.303 11.5878 175.093 12.6104 175.501C13.7209 175.947 14.8439 175.708 15.8603 175.144C16.9519 174.535 17.9369 173.706 18.8842 172.909C19.8943 172.056 20.8668 171.152 21.7953 170.217C23.6147 168.384 25.2898 166.413 26.8646 164.38C27.2598 163.865 27.6488 163.35 28.0378 162.829C28.088 162.76 27.975 162.697 27.9248 162.766C24.9385 166.815 21.5883 170.706 17.5605 173.813C16.5566 174.585 15.4274 175.489 14.1036 175.608C12.7672 175.727 11.594 174.893 10.7157 174.001C9.1347 172.388 8.33792 170.223 7.73563 168.114C6.80083 164.838 6.3993 161.486 6.11698 158.103C5.87857 155.203 5.69663 152.291 5.67781 149.385C5.67781 149.078 5.62762 148.701 5.69663 148.4C5.77819 148.029 6.36793 147.81 6.68163 147.647C8.27518 146.793 9.97539 146.147 11.5564 145.287C11.525 145.268 11.4937 145.249 11.456 145.23C11.8011 148.814 11.8952 152.41 12.1901 155.994C12.3344 157.745 12.5288 159.49 12.8174 161.216C12.968 162.114 13.1437 163.005 13.357 163.884C13.4762 164.38 13.6268 164.988 14.0722 165.302C14.5114 165.61 15.007 165.428 15.4085 165.139C15.8853 164.794 16.3182 164.38 16.7386 163.972C17.642 163.093 18.4639 162.133 19.2481 161.147C20.8919 159.082 22.3599 156.898 23.8719 154.752C24.6436 153.659 25.4279 152.567 26.2874 151.538C26.9148 150.791 27.5861 150.032 28.4267 149.498C28.5146 149.46 28.4518 149.348 28.3766 149.391Z" fill="#E5E5E5"/>
</g>
</g>
</g>
</g>
<g id="Group_330">
<g id="Group_331">
<g id="Group_332">
<g id="Group_333">
<path id="Vector_139" d="M28.4386 149.528L28.6575 149.378C28.5824 149.428 28.5136 149.478 28.4386 149.528Z" fill="#E5E5E5"/>
</g>
</g>
<g id="Group_334">
<g id="Group_335">
<g id="Group_336">
<path id="Vector_140" d="M28.4769 149.586C28.5522 149.536 28.6212 149.486 28.6965 149.435C28.7655 149.391 28.7028 149.278 28.6275 149.322C28.5522 149.366 28.4769 149.417 28.4079 149.473C28.3766 149.492 28.364 149.53 28.3828 149.561C28.4017 149.586 28.4456 149.605 28.4769 149.586C28.546 149.536 28.6212 149.486 28.6965 149.435C28.6714 149.398 28.6526 149.36 28.6275 149.322C28.5522 149.373 28.4832 149.423 28.4079 149.473C28.3389 149.523 28.4079 149.63 28.4769 149.586Z" fill="#E5E5E5"/>
</g>
</g>
</g>
</g>
<g id="Group_337">
<g id="Group_338">
<g id="Group_339">
<path id="Vector_141" d="M28.4323 149.535C28.4384 149.529 28.4384 149.529 28.4446 149.529L28.4323 149.535Z" fill="#E5E5E5"/>
</g>
</g>
<g id="Group_340">
<g id="Group_341">
<g id="Group_342">
<path id="Vector_142" d="M28.4641 149.592C28.4703 149.592 28.4703 149.586 28.4766 149.586C28.5079 149.567 28.5204 149.529 28.5016 149.498C28.4829 149.467 28.4391 149.454 28.4141 149.473C28.4078 149.473 28.4078 149.479 28.4015 149.479C28.3327 149.529 28.3953 149.636 28.4641 149.592C28.4703 149.592 28.4703 149.586 28.4766 149.586C28.4516 149.548 28.4328 149.511 28.4078 149.473C28.4015 149.473 28.4015 149.479 28.3953 149.479C28.3202 149.517 28.389 149.629 28.4641 149.592Z" fill="#E5E5E5"/>
</g>
</g>
</g>
</g>
<g id="Group_343">
<g id="Group_344">
<g id="Group_345">
<path id="Vector_143" d="M63.2148 133.085C62.945 136.474 59.7516 151.813 56.7904 155.09C53.4966 158.743 50.504 155.222 49.908 154.563C48.2642 152.742 45.0018 147.207 42.072 148.198C39.9891 148.901 39.9891 148.901 36.7957 149.253C33.9787 149.56 27.9872 148.274 27.9872 148.274C27.9872 148.274 26.8265 152.598 26.883 154.349C26.9959 158.134 27.617 161.9 28.7212 165.527C28.8028 165.785 28.8906 166.055 29.0851 166.243C29.3486 166.494 29.7439 166.544 30.1078 166.576C34.5622 166.984 39.0731 166.808 43.4773 166.042C44.067 164.529 44.1361 161.981 44.4623 160.4C44.4874 160.519 47.869 166.362 52.9006 166.789C56.7276 167.109 60.2661 164.398 62.9764 160.952C65.6804 157.512 67.23 153.025 68.397 148.845C69.8525 143.616 71.0006 138.507 71.1449 133.091C68.5036 133.091 65.8624 133.091 63.2148 133.085Z" fill="#E5E5E5"/>
</g>
</g>
<g id="Group_346">
<g id="Group_347">
<g id="Group_348">
<path id="Vector_144" d="M63.1524 133.085C63.0458 134.384 62.7948 135.671 62.5564 136.952C62.1925 138.878 61.7722 140.793 61.3079 142.701C60.8123 144.747 60.2602 146.787 59.614 148.789C59.0744 150.465 58.491 152.166 57.644 153.722C56.7092 155.448 54.9274 157.155 52.763 156.528C51.1882 156.07 50.0778 154.726 49.1304 153.502C47.8756 151.877 46.6522 150.088 44.952 148.864C44.2996 148.393 43.5028 147.985 42.6684 148.036C41.8465 148.086 41.0434 148.525 40.2467 148.72C39.2805 148.958 38.2767 149.04 37.2854 149.147C36.2126 149.266 35.1586 149.253 34.0795 149.159C32.1534 148.996 30.2399 148.67 28.3515 148.287C28.2385 148.262 28.1256 148.243 28.0189 148.218C27.9876 148.211 27.9499 148.23 27.9374 148.262C27.5547 149.699 27.2159 151.155 26.9838 152.624C26.8206 153.672 26.8269 154.67 26.8897 155.731C26.99 157.275 27.1657 158.812 27.4292 160.338C27.6927 161.882 28.044 163.413 28.4832 164.926C28.6338 165.44 28.7279 166.149 29.2549 166.438C29.7631 166.721 30.4908 166.677 31.0492 166.721C34.3806 166.965 37.7371 166.884 41.056 166.47C41.4826 166.419 41.9092 166.357 42.3358 166.294C42.5617 166.262 42.7813 166.225 43.0071 166.187C43.1389 166.168 43.4212 166.168 43.5279 166.099C43.6471 166.018 43.691 165.685 43.7286 165.547C43.8227 165.221 43.8918 164.888 43.9545 164.549C44.2054 163.181 44.2682 161.781 44.5442 160.419C44.5003 160.419 44.4627 160.419 44.4188 160.419C44.4627 160.563 44.5756 160.702 44.6509 160.827C44.8642 161.166 45.0901 161.492 45.3285 161.812C46.0437 162.779 46.8593 163.683 47.7753 164.467C48.8293 165.377 50.0401 166.143 51.389 166.551C52.9512 167.028 54.6263 166.947 56.1634 166.419C57.8573 165.836 59.3505 164.794 60.6492 163.595C62.0859 162.271 63.3344 160.745 64.357 159.095C66.4838 155.655 67.6884 151.758 68.7362 147.904C70.0537 143.052 71.0763 138.113 71.2269 133.079C71.2269 133.048 71.1955 133.016 71.1641 133.016C68.5228 133.016 65.8753 133.01 63.234 133.01C63.1524 133.01 63.1524 133.135 63.234 133.135C64.5013 133.135 65.7624 133.135 67.0297 133.142C67.6633 133.142 68.297 133.142 68.9244 133.142C69.5392 133.142 70.2168 133.06 70.8191 133.142C71.0888 133.179 71.0512 133.154 71.0888 133.405C71.1077 133.531 71.0763 133.688 71.07 133.813C71.0575 134.115 71.0387 134.41 71.0198 134.711C70.9822 135.307 70.932 135.897 70.8755 136.487C70.7501 137.711 70.5807 138.929 70.3736 140.14C69.9721 142.475 69.4325 144.785 68.824 147.075C68.2593 149.197 67.6633 151.306 66.9105 153.371C65.4424 157.4 63.2967 161.235 59.9277 164.053C58.4282 165.308 56.6465 166.35 54.6639 166.652C52.8759 166.921 51.1192 166.495 49.5821 165.597C48.1705 164.775 46.9722 163.633 45.9496 162.39C45.5794 161.938 45.2281 161.467 44.9081 160.978C44.7889 160.796 44.6007 160.57 44.538 160.369C44.5191 160.312 44.425 160.306 44.4125 160.369C44.2368 161.248 44.149 162.145 44.0423 163.036C43.9796 163.545 43.9106 164.053 43.8165 164.562C43.7788 164.762 43.7349 164.963 43.691 165.158C43.6471 165.352 43.6032 165.76 43.4714 165.911C43.3146 166.08 42.8566 166.068 42.6433 166.099C42.3609 166.143 42.0849 166.187 41.8026 166.225C41.0811 166.325 40.3533 166.407 39.6255 166.476C38.3269 166.601 37.0282 166.67 35.7232 166.696C34.4747 166.721 33.2325 166.696 31.984 166.626C31.3629 166.595 30.7418 166.557 30.1207 166.488C29.7819 166.451 29.4055 166.419 29.142 166.175C28.8785 165.924 28.7969 165.509 28.7028 165.177C28.0001 162.792 27.4982 160.35 27.2159 157.883C26.9963 155.988 26.8457 154.118 27.1782 152.228C27.3978 150.961 27.6927 149.705 28.0127 148.463C28.0252 148.406 28.044 148.356 28.0566 148.299C28.0691 148.23 28.0127 148.312 27.9938 148.312C28.0817 148.306 28.1946 148.356 28.2824 148.368C28.7844 148.469 29.2863 148.563 29.7882 148.657C31.319 148.927 32.8623 149.165 34.412 149.278C36.0118 149.398 37.574 149.241 39.155 149.015C39.7008 148.94 40.2341 148.833 40.7611 148.676C41.3948 148.488 42.0472 148.149 42.7123 148.124C44.1929 148.061 45.4853 149.329 46.4076 150.308C47.4804 151.45 48.3776 152.724 49.35 153.948C50.793 155.768 53.0516 157.67 55.4858 156.252C57.6189 155.015 58.4972 152.392 59.2627 150.239C60.2853 147.352 61.0632 144.383 61.7534 141.408C62.318 138.973 62.845 136.512 63.1838 134.039C63.2277 133.713 63.2716 133.387 63.2967 133.054C63.2905 133.004 63.1587 133.004 63.1524 133.085Z" fill="#E5E5E5"/>
</g>
</g>
</g>
</g>
</g>
<g id="Group_349">
<g id="Group_350">
<g id="Group_351">
<path id="Vector_145" d="M43.0762 148.299C43.898 150.364 44.2494 152.592 44.3999 154.795C44.5442 156.98 44.4815 159.183 44.2431 161.361C44.2368 161.442 44.3623 161.442 44.3748 161.361C44.6195 159.139 44.676 156.885 44.5191 154.651C44.3623 152.486 44.011 150.295 43.2016 148.262C43.1703 148.193 43.0448 148.224 43.0762 148.299Z" fill="#E5E5E5"/>
</g>
</g>
</g>
<g id="Group_352">
<g id="Group_353">
<path id="Vector_146" d="M7.20863 146.768C6.49341 144.772 6.46832 142.544 7.13334 140.529C7.54114 139.286 8.27518 138.069 9.45466 137.46C9.96284 137.196 10.6153 137.077 11.0859 137.391C11.5188 137.68 11.6631 138.238 11.707 138.747C11.914 140.862 11.1235 142.958 11.18 145.086C9.89383 145.726 8.61397 146.36 7.32783 147" fill="#E5E5E5"/>
</g>
</g>
<g id="Group_354">
<g id="Group_355">
<path id="Vector_147" d="M34.0857 132.075C32.1973 132.332 30.5536 133.776 30.0077 135.558C29.4619 137.341 29.9952 139.381 31.2751 140.755C32.0028 141.54 33.0317 142.299 32.9627 143.354C32.8749 144.678 31.0555 145.531 31.2311 146.843C31.4068 148.155 33.3831 148.519 33.8285 149.768C34.5249 151.739 30.8923 153.264 31.4821 155.272C31.8021 156.377 33.2701 156.842 33.6466 157.927C34.0544 159.12 32.969 160.256 32.5549 161.442C31.984 163.074 32.7996 164.995 34.2614 165.961C35.7232 166.928 37.6869 167.016 39.3495 166.419C40.7611 165.911 42.0159 164.907 42.6056 163.557C43.1953 162.208 43.0197 160.52 42.0159 159.434C41.2128 158.568 39.9204 158.059 39.544 156.948C38.9605 155.216 41.0497 153.534 40.736 151.739C40.3784 149.705 37.1285 148.532 37.7559 146.561C38.0822 145.544 39.4185 144.571 38.7597 143.718C38.5527 143.448 38.2076 143.328 37.9567 143.096C37.1348 142.337 37.7936 141.038 38.2076 140.008C39.4938 136.782 38.2453 132.075 34.0857 132.075Z" fill="#E5E5E5"/>
</g>
</g>
</g>
</g>
</svg>
