<svg width="519" height="530" viewBox="0 0 519 530" fill="none" xmlns="http://www.w3.org/2000/svg">
<path d="M470.09 257.55L283.79 268.6L272.37 85.59L458.67 74.54L470.09 257.55Z" fill="white"/>
<path d="M277.239 200.609C291.18 200.078 302.078 189.088 301.582 176.063C301.085 163.038 289.381 152.911 275.44 153.442C261.499 153.974 250.601 164.963 251.097 177.988C251.594 191.013 263.298 201.141 277.239 200.609Z" fill="white"/>
<path d="M434.34 112.13C432.9 109.98 432.39 106.5 431.56 104.07C430.84 101.98 429.94 99.76 427.36 99.87C427.08 99.88 426.34 100.09 426.07 100.83C424.93 104.01 425.58 107.11 426.04 110.45C426.28 112.19 426.53 113.93 426.77 115.66C429.22 114.61 431.66 113.57 434.11 112.52" fill="#FCB4EE"/>
<path d="M461.02 123.86C457.53 134.4 450.91 152.85 448.22 149.21C443.28 142.53 438.71 121.71 436.43 110.99C433.06 112.16 424.76 115.08 424.34 115.74C423.85 116.51 427.11 132.71 429.55 139.59C440.85 171.44 447.59 166.52 449.3 166.47C451.44 166.42 461.8 157.57 464.75 152.67C465.5 151.43 467.8 148.66 468.23 147.28C468.69 145.8 468.23 147.28 467.95 145.75C466.6 138.53 463.15 130.9 461.02 123.86Z" fill="#EDFFC6"/>
<path d="M279.26 276.16H92.62V458.13H279.26V276.16Z" fill="#FCB4EE"/>
<path d="M282.06 390.75C296.011 390.75 307.32 380.184 307.32 367.15C307.32 354.116 296.011 343.55 282.06 343.55C268.109 343.55 256.8 354.116 256.8 367.15C256.8 380.184 268.109 390.75 282.06 390.75Z" fill="#FCB4EE"/>
<path d="M310.99 379.99C324.83 381.68 337.4 372.57 339.07 359.64C340.73 346.71 330.86 334.85 317.01 333.16C315.76 333.01 314.52 332.94 313.3 332.96L321.92 265.84L507.11 288.46L483.91 469.01L298.72 446.4L307.34 379.29C308.52 379.6 309.74 379.84 310.99 379.99Z" fill="#EDFFC6"/>
<path d="M249.97 209.36C236.02 209.28 224.77 198.66 224.84 185.62C224.92 172.59 236.29 162.08 250.24 162.16C251.5 162.17 252.74 162.26 253.94 162.43L254.33 94.79L67.7 93.77L66.65 275.73L253.29 276.75L253.68 209.12C252.47 209.28 251.23 209.37 249.97 209.36Z" fill="#EDFFC6"/>
<path d="M460.77 457.3C457.82 456.37 454.97 455.14 452.28 453.65C451.13 453.01 449.9 452.18 449.67 450.9C449.25 448.47 452.5 447.23 454.17 445.38C456.59 442.7 455.47 438.36 453.16 435.59C450.85 432.82 447.6 430.92 445.24 428.18C444.11 426.86 443.16 425.26 443.21 423.55C443.34 418.33 451.62 416.58 452.65 411.45C453.44 407.49 449.56 404.35 447.02 401.17C445.24 398.93 444 396.28 443.44 393.5C443.27 392.68 443.17 391.78 443.55 391.03C444.7 388.69 448.47 389.93 450.87 388.79C452.66 387.94 453.44 385.76 453.25 383.83C453.07 381.89 452.14 380.11 451.33 378.34C449.73 374.83 448.53 370.91 449.44 367.18C450.36 363.45 454.06 360.15 457.94 360.81C460.55 361.26 462.58 363.31 463.87 365.56C465.16 367.81 465.88 370.33 467.01 372.66C467.59 373.84 468.43 375.08 469.74 375.33C471.65 375.69 473.12 373.82 474.25 372.28C475.6 370.43 477.15 368.71 478.86 367.18C480.02 366.14 481.32 365.15 482.86 364.87C486.17 364.25 489.29 367.26 489.86 370.49C490.43 373.73 489.13 376.98 487.63 379.92C486.13 382.86 484.37 385.77 483.91 389.02C483.78 389.91 483.77 390.87 484.19 391.67C484.61 392.47 485.4 393.01 486.2 393.44C488.45 394.63 491.02 395.13 493.33 396.19C495.65 397.25 497.84 399.17 498.04 401.66C498.35 405.46 494.23 407.93 491.1 410.22C488.11 412.4 485.58 415.21 483.92 418.46C483.61 419.06 483.33 419.72 483.5 420.37C483.73 421.27 484.71 421.75 485.6 422.07C487.55 422.77 489.6 423.22 491.44 424.16C493.28 425.1 494.93 426.68 495.27 428.68C495.88 432.34 492.09 435.13 488.8 436.98C485.23 438.99 481.65 441 478.05 442.97C475.82 444.19 473.21 446.4 474.31 448.65C475.03 450.13 476.95 450.52 478.49 451.17C480.04 451.82 481.54 453.62 480.54 454.94C480.23 455.35 479.74 455.59 479.26 455.8C473.46 458.37 466.8 459.03 460.59 457.68" fill="#58C2DE"/>
<path d="M467.01 459.5C470.67 453.29 484.01 458.67 487.26 452.25C488.32 450.15 487.91 447.45 489.34 445.57C492.77 441.07 502.26 445.83 505.03 440.92C506.48 438.36 504.67 435.01 505.75 432.28C507.08 428.95 511.63 428.46 514.65 426.44C519.42 423.25 519.36 415.21 514.53 412.09C513.65 411.52 512.66 411.1 511.92 410.36C509.81 408.24 510.75 404.74 512.03 402.06C513.3 399.38 514.78 396.27 513.4 393.65C511.74 390.52 506.91 390.43 503.89 392.35C500.87 394.28 499.04 397.5 496.79 400.25C495.83 401.42 494.58 402.61 493.04 402.58C490.85 402.53 489.6 400.15 487.7 399.08C484.61 397.33 480.5 399.64 478.93 402.77C477.37 405.91 477.51 409.55 477.22 413.02C476.92 416.49 475.91 420.29 472.93 422.21C470.22 423.96 466.18 423.96 464.51 426.68C462.93 429.25 464.55 432.48 465.98 435.13C467.41 437.78 468.55 441.38 466.36 443.49C465.75 444.08 464.94 444.46 464.3 445.01C462.31 446.72 462.21 449.83 463.35 452.16C464.47 454.52 464.98 457.84 467.01 459.5Z" fill="#EDFFC6"/>
<path d="M467.13 459.57C468.64 457.07 471.76 456.52 474.49 456.28C477.37 456.02 480.36 456.14 483.18 455.38C484.32 455.07 485.43 454.58 486.3 453.77C487.46 452.68 487.88 451.2 488.15 449.7C488.49 447.82 488.78 445.81 490.53 444.66C491.79 443.83 493.38 443.64 494.87 443.57C497.6 443.45 500.81 444.01 503.34 442.73C504.65 442.07 505.47 440.84 505.69 439.43C506.01 437.4 505.28 435.36 505.62 433.33C506.27 429.46 510.94 428.69 513.9 427.08C516.64 425.58 518.18 422.86 518.33 419.82C518.48 416.88 517.29 413.8 514.76 412.08C513.84 411.45 512.75 411.03 511.97 410.21C511.22 409.42 510.88 408.37 510.84 407.31C510.76 405.14 511.72 403.13 512.61 401.2C513.45 399.38 514.32 397.35 514.07 395.31C513.88 393.73 512.93 392.35 511.48 391.62C508.46 390.11 504.82 391.24 502.42 393.31C500.86 394.65 499.64 396.31 498.42 397.94C497.23 399.54 495.8 402.01 493.63 402.41C491.5 402.81 490.08 400.71 488.64 399.57C487.39 398.57 485.89 398.16 484.29 398.47C482.57 398.8 481 399.84 479.89 401.14C478.58 402.67 477.96 404.64 477.65 406.58C476.96 410.76 477.58 415.25 475.53 419.14C474.55 421 473.01 422.26 471.04 423.03C469.45 423.65 467.73 424.02 466.25 424.9C464.79 425.77 463.84 427.16 463.76 428.85C463.66 430.96 464.71 433.01 465.68 434.83C466.62 436.6 467.54 438.54 467.48 440.58C467.45 441.61 467.11 442.61 466.37 443.36C465.61 444.13 464.56 444.54 463.83 445.35C462.69 446.62 462.36 448.39 462.58 450.02C462.7 450.87 462.98 451.65 463.34 452.43C463.75 453.33 464.06 454.27 464.4 455.21C464.97 456.8 465.62 458.47 466.96 459.61C467.09 459.72 467.29 459.53 467.15 459.42C465.64 458.13 465.03 456.18 464.39 454.39C463.76 452.63 462.78 450.97 462.78 449.06C462.78 448.09 462.99 447.11 463.49 446.27C464.08 445.28 465.01 444.76 465.92 444.1C467.29 443.09 467.85 441.59 467.73 439.94C467.6 438.16 466.86 436.48 466.02 434.91C464.99 432.99 463.8 430.78 464.06 428.55C464.53 424.38 469.7 424.27 472.65 422.61C475.89 420.78 476.99 416.97 477.35 413.57C477.79 409.36 477.25 404.25 480.49 400.94C481.79 399.61 483.66 398.59 485.59 398.66C487.63 398.74 488.86 400.18 490.27 401.41C491.42 402.41 492.8 403.12 494.34 402.52C496.11 401.82 497.27 399.99 498.35 398.55C500.69 395.42 503.26 391.75 507.55 391.3C509.24 391.12 511.11 391.43 512.4 392.58C514.12 394.12 514.07 396.49 513.44 398.51C512.4 401.85 509.35 405.68 511.05 409.31C511.88 411.08 513.8 411.58 515.21 412.77C516.46 413.81 517.31 415.24 517.74 416.78C518.6 419.81 517.92 423.4 515.55 425.64C513.09 427.96 509.27 428.18 506.85 430.54C505.64 431.72 505.24 433.27 505.29 434.9C505.35 436.91 506 439.18 504.87 441.03C503.3 443.6 499.61 443.32 496.97 443.31C494.4 443.3 491.2 443.23 489.4 445.35C488.2 446.77 488.13 448.66 487.77 450.38C487.44 451.93 486.75 453.31 485.37 454.2C483.07 455.69 479.97 455.71 477.32 455.86C474.68 456.01 471.77 456.04 469.36 457.25C468.34 457.76 467.51 458.51 466.92 459.47C466.8 459.58 467.04 459.72 467.13 459.57Z" fill="white"/>
<path d="M472.18 468.41C478.98 469.98 487.68 469.56 494.42 467.74C497.1 467.01 499.78 465.98 501.77 464.09C504.87 461.15 505.82 456.56 505.26 452.37C505.05 450.8 504.57 449.13 503.24 448.21C502.46 447.67 501.49 447.48 500.54 447.38C495.8 446.91 491.05 448.64 487.11 451.26C483.18 453.89 472.52 465.44 472.18 468.41Z" fill="#FCB4EE"/>
<path d="M482.41 464.02C482.86 461.86 483.97 459.92 485.62 458.4C485.75 458.28 485.56 458.09 485.43 458.21C483.75 459.75 482.61 461.74 482.15 463.94C482.11 464.11 482.38 464.18 482.41 464.02Z" fill="white"/>
<path d="M461.65 476.9C460.42 464.72 459.79 452.48 459.76 440.25C459.72 427.88 460.29 415.5 461.55 403.19C462.25 396.35 463.17 389.53 464.35 382.75C464.38 382.58 464.12 382.51 464.09 382.68C462.01 394.71 460.71 406.86 460.04 419.04C459.35 431.48 459.32 443.96 459.89 456.4C460.2 463.24 460.7 470.08 461.39 476.89C461.4 477.07 461.67 477.07 461.65 476.9Z" fill="white"/>
<path d="M459.23 477.41C462.47 468.26 466.64 459.44 471.55 451.03C476.51 442.53 482.22 434.44 488.63 426.92C492.14 422.8 495.87 418.85 499.82 415.11C499.95 414.99 499.75 414.8 499.63 414.92C492.52 421.65 486.11 429.08 480.4 436.97C474.58 445 469.47 453.52 465.19 462.42C462.85 467.28 460.76 472.26 458.97 477.34C458.91 477.5 459.17 477.57 459.23 477.41Z" fill="white"/>
<path d="M478.9 439.28C478.88 436.26 479.01 433.24 479.31 430.23C479.47 428.67 479.67 427.12 479.91 425.58C480.03 424.84 480.15 424.11 480.29 423.38C480.35 423.04 480.42 422.69 480.49 422.35C480.53 422.14 480.58 421.92 480.62 421.71C480.63 421.67 480.85 420.99 480.89 421.1C480.95 421.26 481.21 421.19 481.15 421.03C481.06 420.78 480.84 420.79 480.64 420.96C480.23 421.3 480.24 422.2 480.15 422.68C479.8 424.46 479.52 426.24 479.29 428.03C478.81 431.77 478.6 435.53 478.62 439.3C478.63 439.45 478.9 439.45 478.9 439.28Z" fill="white"/>
<path d="M488.11 427.66C493.32 427.02 498.25 425 502.37 421.84C502.51 421.73 502.31 421.55 502.18 421.65C498.12 424.77 493.24 426.76 488.11 427.39C487.94 427.42 487.94 427.68 488.11 427.66Z" fill="white"/>
<path d="M460.53 476.92C464.03 474.06 467.86 471.58 471.82 469.36C476.01 467.01 480.4 464.93 484.97 463.37C487.24 462.59 489.56 461.95 491.94 461.55C492.11 461.52 492.04 461.26 491.87 461.29C487.45 462.04 483.18 463.59 479.11 465.4C474.61 467.4 470.29 469.77 466.19 472.47C464.17 473.8 462.21 475.21 460.35 476.73C460.2 476.84 460.4 477.03 460.53 476.92Z" fill="white"/>
<path d="M479.06 465.62C481.1 466.24 483.19 466.59 485.32 466.69C485.5 466.7 485.5 466.43 485.32 466.42C483.21 466.33 481.15 465.98 479.13 465.36C478.97 465.31 478.89 465.57 479.06 465.62Z" fill="white"/>
<path d="M455.69 463.88C449.23 461.28 442.41 455.99 438.04 450.67C436.3 448.55 434.75 446.19 434.26 443.52C433.5 439.37 435.49 435.1 438.45 432.02C439.56 430.87 440.96 429.78 442.58 429.79C443.54 429.8 444.44 430.19 445.27 430.66C449.4 432.98 452.22 437.09 453.84 441.46C455.46 445.83 457.19 461.28 455.69 463.88Z" fill="#7400B8"/>
<path d="M455.72 463.75C449.31 461.14 443.5 456.7 438.99 451.58C436.76 449.04 434.6 446.09 434.27 442.65C433.96 439.39 435.28 436.17 437.26 433.59C438.31 432.23 439.63 430.7 441.33 430.13C443.12 429.52 444.84 430.47 446.28 431.45C448.94 433.24 450.97 435.81 452.42 438.6C454.47 442.53 455.07 446.94 455.57 451.27C455.86 453.78 456.08 456.31 456.11 458.84C456.12 459.83 456.11 460.82 456.02 461.81C455.96 462.47 455.89 463.22 455.56 463.81C455.48 463.96 455.71 464.1 455.8 463.94C456.48 462.72 456.39 460.99 456.4 459.66C456.42 457.24 456.23 454.83 455.98 452.42C455.52 447.97 455 443.32 453.04 439.23C451.66 436.35 449.71 433.67 447.12 431.71C445.89 430.78 444.4 429.78 442.81 429.66C441.18 429.54 439.76 430.53 438.66 431.6C436.29 433.91 434.49 436.98 434.06 440.25C433.61 443.6 434.9 446.68 436.87 449.37C439.21 452.58 442.17 455.4 445.31 457.86C448.46 460.33 451.91 462.48 455.65 464C455.81 464.07 455.88 463.81 455.72 463.75Z" fill="#7400B8"/>
<path d="M450.26 454.6C451.21 452.53 451.48 450.27 451.04 448.04C451.01 447.87 450.74 447.94 450.78 448.11C451.21 450.26 450.95 452.46 450.03 454.46C449.96 454.62 450.19 454.75 450.26 454.6Z" fill="white"/>
<path d="M460.31 477.36C459.19 473.07 457.58 468.9 455.71 464.86C453.69 460.5 451.34 456.25 448.53 452.32C447.15 450.4 445.65 448.55 443.97 446.87C443.85 446.75 443.65 446.94 443.78 447.06C446.95 450.21 449.49 453.94 451.72 457.77C454.13 461.9 456.19 466.24 457.88 470.7C458.71 472.91 459.45 475.15 460.05 477.43C460.09 477.6 460.36 477.53 460.31 477.36Z" fill="white"/>
<path d="M451.86 457.44C449.86 456.79 447.97 455.9 446.21 454.77C446.06 454.68 445.93 454.91 446.07 455C447.85 456.14 449.77 457.04 451.79 457.7C451.95 457.75 452.03 457.49 451.86 457.44Z" fill="white"/>
<path d="M477.19 481.95C475.5 490.54 476.04 500.87 474.38 510.04C465.39 510.57 453.88 509.75 444.89 510.27C444.56 500.35 443.15 491.53 442.94 481.29C454.22 483.25 465.98 477.72 477.1 480.39" fill="#FCB4EE"/>
<path d="M482.69 478.45C482.18 480.1 481.72 483.05 481.21 484.7C466.64 485.31 452.07 485.92 437.49 486.52C437.91 483.85 438.06 481.14 437.95 478.44C452.67 479.02 467.97 477.88 482.69 478.45Z" fill="#FCB4EE"/>
<path d="M245.59 440.73C246.3 442.3 247.02 443.87 247.73 445.44C248.19 446.46 248.74 447.56 249.77 448.04C250.63 448.43 251.66 448.29 252.56 448C253.03 447.85 253.5 447.64 253.83 447.29C254.34 446.73 254.42 445.9 254.24 445.17C254.06 444.44 253.67 443.78 253.34 443.11C252.38 441.19 251.82 439.03 250.38 437.41C248.92 438.25 247.45 439.09 245.99 439.94" fill="#EDFFC6"/>
<path d="M232.11 377.17C236.71 397.12 242.54 420.15 252.27 438.26C249.95 439.63 247.51 441.14 244.9 441.87C238.94 433.54 234.35 421.06 229.96 411.85C225.57 402.64 222.81 392.47 223.72 382.35C223.92 380.13 224.46 377.66 226.37 376.43C228.28 375.2 231.66 376.66 231.1 378.82" fill="#58C2DE"/>
<path d="M299.5 412.16C295.12 411.65 290.83 411.33 287.39 408.95C286.78 408.53 286.24 406.8 286.03 406.15C285.64 404.98 286.79 403.76 288.14 403.39C289.49 403.02 290.95 403.27 292.33 403.52C295.44 404.09 298.56 404.65 301.67 405.22C301.67 407.57 300.83 409.91 299.29 411.85" fill="#FCB4EE"/>
<path d="M281.32 405.59C284 404.27 286.87 403.31 289.81 402.73C291.55 402.39 293.42 402.19 295.06 402.85C296.71 403.51 298 405.28 297.53 406.95C296.97 408.93 294.52 409.64 292.44 410.02C288.54 410.74 284.65 411.45 280.75 412.17C280.73 410.23 280.71 408.29 280.69 406.34" fill="#EDFFC6"/>
<path d="M430.95 469.15L395.5 482.5L387.51 458.17L421.02 446.46L430.95 469.15Z" fill="white"/>
<path d="M398.01 456.59C397.54 454.89 397.35 453.13 397.8 451.41C398.24 449.73 399.3 447.86 400.96 447.08C402.59 446.32 404.71 446.6 406.31 447.28C407.06 447.6 407.77 448.03 408.39 448.56C408.7 448.82 408.98 449.1 409.25 449.41C409.41 449.59 409.55 449.78 409.69 449.98C409.77 450.09 409.93 450.55 410.01 450.28C410.25 450.1 410.48 449.93 410.72 449.75C410.7 449.75 410.67 449.75 410.65 449.75C410.86 449.87 411.07 449.98 411.28 450.1C411.26 450.08 411.25 450.06 411.23 450.04C411.19 450.32 411.16 450.6 411.12 450.88C411.13 450.87 411.14 450.86 411.16 450.85C411.75 450.29 411 449.4 410.3 449.77C410.29 449.78 410.27 449.79 410.25 449.79C409.99 449.93 409.82 450.3 409.92 450.58C410.02 450.88 410.19 451.09 410.52 451.16C410.93 451.25 411.29 451.04 411.43 450.66C411.73 449.8 410.58 448.68 410.02 448.11C409.28 447.35 408.38 446.72 407.41 446.26C405.45 445.33 402.98 444.94 400.89 445.68C396.66 447.18 395.09 453.33 397.24 456.92C397.47 457.32 398.13 457.05 398.01 456.59Z" fill="white"/>
<path d="M272.22 470.42L239.02 475.49L236.79 453L268 449L272.22 470.42Z" fill="white"/>
<path d="M246.16 453.58C246.08 452 246.25 450.41 247 448.98C247.72 447.61 249.01 446.18 250.62 445.85C252.19 445.53 253.92 446.17 255.17 447.06C256.29 447.86 257.52 449.25 257.72 450.64C257.74 450.48 257.76 450.31 257.79 450.15C257.77 450.18 257.75 450.22 257.74 450.25C257.98 450.15 258.23 450.06 258.47 449.96C258.45 449.96 258.43 449.95 258.41 449.95C258.56 450.1 258.71 450.24 258.86 450.39C258.85 450.37 258.84 450.35 258.83 450.33C258.73 450.56 258.64 450.79 258.54 451.03C258.55 451.02 258.57 451.01 258.58 451.01C259.17 450.65 258.8 449.7 258.1 449.9C258.09 449.9 258.07 449.91 258.06 449.91C257.82 449.98 257.56 450.24 257.6 450.5C257.63 450.77 257.71 451.01 257.98 451.13C258.3 451.27 258.67 451.22 258.87 450.9C259.3 450.2 258.56 449.07 258.18 448.46C257.67 447.65 257.01 446.93 256.25 446.34C254.75 445.18 252.75 444.42 250.81 444.64C246.83 445.09 244.24 450.17 245.41 453.68C245.54 454.05 246.18 454.01 246.16 453.58Z" fill="white"/>
<path d="M395.57 439.73C395.89 441.99 396.21 444.25 396.53 446.51C396.67 447.47 396.81 448.45 397.28 449.3C397.97 450.55 399.38 451.39 400.83 451.42C402.28 451.45 403.73 450.68 404.48 449.47C404.87 448.84 405.08 448.11 405.2 447.39C405.72 444.34 404.86 441.24 403.99 438.26C401.26 438.75 398.53 439.24 395.79 439.72" fill="#FCB4EE"/>
<path d="M360.71 354.77C351.97 367.45 345.92 381.69 338.39 395.09C338.12 395.57 337.83 396.07 337.35 396.36C336.93 396.61 336.42 396.66 335.93 396.7C323.06 397.84 310.53 401.92 297.64 402.73C297.99 405.84 298.59 410.67 298.49 413.8C313.48 415 345.51 410.54 346.05 410.3C346.78 409.97 352.24 401.71 354.29 398.4C355.64 396.23 357.73 394.08 359.15 391.96C361.36 388.66 361.99 383.97 364.99 381.32C365.95 380.48 367 379.56 367.21 378.32C367.33 377.62 367.16 376.9 366.98 376.21C365.88 371.8 364.78 367.39 363.68 362.99C362.96 360.1 362.22 357.18 360.8 354.56" fill="#58C2DE"/>
<path d="M235.73 447.5C225.16 414.11 245.09 491.62 250.39 510.01C251.19 512.8 252.07 515.66 253.89 517.96C255.71 520.26 258.72 521.9 261.63 521.28C257.17 522.82 252.42 523.57 247.69 523.51C243.38 516.74 240.09 509.42 236.81 502.12C234.39 496.73 231.97 491.33 229.54 485.94C225.33 476.55 217.59 455.6 216 445.47C219.83 444.63 221.03 441.02 224.95 440.67C226.24 440.56 232.23 442.39 233.31 443.09C234.48 443.85 234.02 446.32 236.91 459.13C237.55 461.96 235.2 446.7 236.01 449.49" fill="#EDFFC6"/>
<path d="M213.84 431.2C209.54 459.87 201.42 491.33 197.29 522.13C197.17 523.06 196.81 524.09 197.38 524.85C197.77 525.38 198.45 525.61 199.1 525.8C202.36 526.73 205.8 527.08 209.19 526.81C207.92 525.18 206.44 523.71 204.79 522.45C207.9 507.59 232.19 458.53 234.67 446.68C234.92 445.49 235.1 444.24 234.7 443.09C234.02 441.18 231.96 440.15 230.08 439.31C223.94 436.56 217.79 433.8 211.65 431.05" fill="#EDFFC6"/>
<path d="M231.82 347.95C229.29 346.08 225.72 345.66 222.81 346.88C219.9 348.1 217.76 350.92 217.41 353.99C217.04 357.21 218.44 360.79 216.66 363.52C215.01 366.06 211.5 366.53 208.46 367.09C205.43 367.65 201.91 369.19 201.62 372.18C201.28 375.67 205.67 379.17 203.68 382.09C202 384.55 198.08 383.17 195.14 383.88C191.91 384.65 190.01 388.28 190.44 391.49C190.88 394.7 193.14 397.44 195.8 399.39C198.18 401.14 201.1 402.44 204.07 402.18C207.04 401.92 209.95 399.73 210.23 396.83C210.43 394.69 209.35 392.2 210.81 390.59C213.05 388.12 217.62 391.41 220.52 389.71C223.01 388.25 222.24 384.58 221.09 381.97C219.94 379.37 218.96 375.82 221.29 374.13C222.9 372.97 225.31 373.45 226.95 372.33C228.85 371.03 228.83 368.26 228.16 366.1C227.49 363.93 226.36 361.75 226.75 359.52C230.36 359.87 233.89 356.65 233.78 353.11C233.66 349.57 229.93 346.58 226.35 347.15" fill="#7400B8"/>
<path d="M330.53 517.09C326.94 517.67 320.46 518.44 316.87 519.02C318.53 519.46 331.4 522.55 338.4 525.13C338.59 522.84 338.96 520.56 339.49 518.33C336.5 517.98 333.57 517.22 330.8 516.07" fill="#EDFFC6"/>
<path d="M330.48 516.92C325.94 517.64 321.36 518.13 316.82 518.85C316.64 518.88 316.66 519.15 316.82 519.19C322.23 520.6 327.65 521.92 333 523.54C334.8 524.08 336.59 524.66 338.35 525.3C338.47 525.34 338.57 525.23 338.58 525.13C338.78 522.85 339.14 520.6 339.66 518.37C339.69 518.25 339.6 518.16 339.49 518.15C336.51 517.79 333.61 517.03 330.85 515.89C330.64 515.8 330.54 516.14 330.75 516.23C333.55 517.38 336.48 518.13 339.49 518.5C339.43 518.43 339.37 518.35 339.32 518.28C338.79 520.54 338.42 522.82 338.23 525.13C338.31 525.07 338.38 525.02 338.46 524.96C332.3 522.7 325.87 521.1 319.51 519.5C318.65 519.28 317.79 519.07 316.93 518.85C316.93 518.96 316.93 519.08 316.93 519.19C321.47 518.47 326.05 517.98 330.58 517.26C330.81 517.23 330.71 516.89 330.48 516.92Z" fill="white"/>
<path d="M388.86 516.64C386.46 519.49 380.09 522.7 377.24 525.14C384.23 525.98 393.42 523.05 401.9 522.58C400.98 519.92 399.75 517.37 398.26 514.97C398.18 514.85 398.09 514.71 397.95 514.67C397.83 514.64 397.71 514.67 397.6 514.71C394.62 515.67 391.65 516.62 388.67 517.58" fill="#EDFFC6"/>
<path d="M388.73 516.51C387.15 518.35 384.98 519.69 382.95 521C380.98 522.28 378.91 523.49 377.11 525.01C376.98 525.12 377.1 525.29 377.24 525.31C381.1 525.75 385.02 525.17 388.82 524.56C393.17 523.86 397.5 523.01 401.9 522.75C402.01 522.74 402.11 522.64 402.07 522.53C401.54 521.03 400.93 519.57 400.23 518.14C399.88 517.43 399.51 516.74 399.12 516.06C398.87 515.63 398.58 514.8 398.1 514.56C397.65 514.33 396.91 514.75 396.49 514.89C395.61 515.17 394.74 515.45 393.86 515.73C392.11 516.29 390.36 516.85 388.61 517.42C388.39 517.49 388.48 517.83 388.71 517.76C390.2 517.28 391.69 516.8 393.18 516.33C393.92 516.09 394.67 515.85 395.41 515.61C395.76 515.5 396.11 515.39 396.46 515.27C396.79 515.16 397.3 514.89 397.64 514.89C398.28 514.89 398.73 516.1 398.99 516.57C399.34 517.18 399.66 517.81 399.97 518.44C400.64 519.8 401.22 521.21 401.72 522.64C401.78 522.57 401.84 522.49 401.89 522.42C397.62 522.67 393.41 523.48 389.2 524.16C385.27 524.8 381.22 525.44 377.23 524.98C377.27 525.08 377.31 525.18 377.36 525.28C379.24 523.69 381.41 522.45 383.47 521.1C385.4 519.84 387.47 518.54 388.98 516.78C389.14 516.59 388.88 516.34 388.73 516.51Z" fill="white"/>
<path d="M353.27 407.82C354.5 421.11 333.25 492.83 325.44 515.55C323.85 514.93 338.48 520.14 341.93 520.65C349.21 498.07 357.21 472.04 364.49 449.46C365.96 444.89 367.44 440.32 368.64 435.68C370.33 429.14 371.46 422.46 372.03 415.73C372.08 415.13 372.12 414.49 371.85 413.94C371.45 413.13 370.49 412.75 369.62 412.44C365.25 410.9 360.88 409.36 356.51 407.82" fill="white"/>
<path d="M222.85 349.33C222.05 350.21 221.77 351.44 221.56 352.6C220.75 357.05 223.88 359.61 224.34 360.06C224.88 359.91 225.43 359.75 225.97 359.6C226.08 359.57 226.19 359.53 226.26 359.44C226.33 359.35 226.32 359.22 226.31 359.11C226.02 356.23 225.91 353.33 226 350.44C225.11 350.33 223.74 349.44 222.85 349.33Z" fill="#7400B8"/>
<path d="M366.51 336.97C366.92 334.96 364.38 333.94 362.29 333.74C360.2 333.54 358.84 333.84 357.73 335.57C356.62 337.31 356.29 339.42 356.27 341.47C356.25 344.05 356.89 346.95 359.14 348.3C361.85 349.94 365.71 348.26 367.14 345.48C368.56 342.69 367.76 339.83 366.51 336.97Z" fill="#FCB4EE"/>
<path d="M362.82 347.51C362.61 348.81 362.56 351.49 362.35 352.79C362.28 353.21 360.5 354.57 360.24 354.87C357.96 357.58 359.05 360.9 357.96 364.32C363.54 364.69 362.94 361.93 368.53 361.63C367.88 358.89 366.83 355.67 365.82 353.03C365.09 351.14 364.72 347.93 364.72 347.93C364.62 347.74 364.46 347.51 364.24 347.55C364.02 347.59 364.21 348.02 364.33 347.84" fill="#FCB4EE"/>
<path d="M365.49 342.88C365.7 342.24 366.54 341.89 367.18 342.14C367.83 342.39 368.2 343.13 368.07 343.79C367.88 344.72 366.69 345.32 365.8 344.92" fill="#FCB4EE"/>
<path d="M366.6 335.81C367.89 336.82 368.63 338.4 368.84 340C369.05 341.6 368.52 342.85 368.08 344.41C367.85 345.22 366.95 346.43 366.82 347.26C366.22 347.31 366.22 347.26 365.63 347.36C365.97 346.95 366.21 346.08 366.44 345.41C366.9 344.09 367.01 342.63 366.55 341.31C366.09 339.99 364.1 338.85 362.73 338.48C363.55 337.63 365.5 337.01 366.65 336.67" fill="#7400B8"/>
<path d="M365.7 343.27C365.92 342.78 366.65 342.6 367.1 342.91C367.55 343.22 367.65 343.9 367.33 344.35C367.01 344.79 366.36 344.94 365.85 344.72" fill="#FCB4EE"/>
<path d="M363.42 338.81C364.12 339.19 364.58 339.91 364.8 340.67C365.03 341.42 365.05 342.22 365.07 343C365.09 343.82 365.11 344.64 365.13 345.45C365.32 345.45 365.51 345.46 365.7 345.46C365.86 344.28 366.19 343.13 366.69 342.05C366.75 341.93 366.8 341.8 366.8 341.67C366.8 341.54 366.74 341.42 366.68 341.31C366 340.07 364.79 339.13 363.4 338.76" fill="#7400B8"/>
<path d="M226.09 347.29C224.86 349.35 223.99 351.62 223.54 353.96C223.13 356.04 223.16 358.47 224.74 359.92C226.43 361.47 229.35 361.13 231.08 359.61C232.8 358.09 233.49 355.72 233.55 353.45C233.61 351.16 232.97 348.65 231.08 347.28C229.19 345.91 225.9 346.46 225.23 348.66" fill="#EDFFC6"/>
<path d="M225.65 360.02C225.74 362.97 225.1 365.93 223.8 368.59C225.12 368.63 226.45 368.48 227.73 368.16C227.73 365.6 227.73 363.04 227.73 360.47C226.95 360.3 226.37 359.68 225.65 360.02Z" fill="#EDFFC6"/>
<path d="M231.27 346.38C232.39 346.61 233.14 347.46 233.7 348.44C234 348.97 234.17 349.65 233.86 350.17C233.48 350.8 232.62 350.92 231.88 351.04C230.28 351.29 228.73 351.84 227.34 352.64C226.32 353.23 225.37 353.98 224.8 354.99C224.24 356 224.13 357.31 224.77 358.28C223.36 357.58 222.76 355.92 222.51 354.4C222.29 353.04 222.24 351.62 222.66 350.29C223.18 348.63 224.45 347.2 226.07 346.46C227.68 345.73 229.62 345.7 231.27 346.38Z" fill="#7400B8"/>
<path d="M225.4 354.82C225.1 353.99 224.02 353.52 223.19 353.86C222.36 354.2 221.94 355.28 222.33 356.07C222.72 356.87 223.83 357.23 224.64 356.83" fill="#EDFFC6"/>
<path d="M368.27 338.33C368.1 336.6 367.34 334.93 366.13 333.65C365.58 333.07 364.88 332.54 364.07 332.51C363.02 332.46 362.07 333.25 361.01 333.22C360.21 333.2 359.51 332.71 358.73 332.54C357.62 332.3 356.39 332.8 355.77 333.73C355.29 334.46 355.12 335.44 354.36 335.88C353.74 336.24 352.93 336.1 352.24 336.32C350.9 336.75 350.41 338.44 350.75 339.77C350.96 340.62 351.52 341.48 352.39 341.65C353.64 341.89 354.61 340.67 355.54 339.82C355.68 339.69 355.83 339.56 356.02 339.52C356.56 339.4 356.95 340 357.44 340.27C358.17 340.66 359.07 340.23 359.76 339.76C360.45 339.3 361.25 338.77 362.05 338.99C362.54 339.13 362.91 339.53 363.36 339.77C364.13 340.18 365.09 340.11 365.9 339.78C366.71 339.45 367.4 338.9 368.07 338.35" fill="#7400B8"/>
<path d="M353.27 407.82C354.45 410.1 354.35 412.89 355.13 415.33C366.61 450.79 374.72 486.97 384.41 518.49C388.2 520 397.25 517.94 401.22 516.94C396.45 494.25 383.8 453.57 379.02 430.88C378.02 426.14 386.31 418.79 376.17 407.04C368.01 409.12 360.58 403.7 353.27 407.82Z" fill="white"/>
<path d="M360.69 354.19C349.33 367.62 351.94 413.03 351.87 420.56C355.86 420.64 377.55 419.39 381.28 418.79C379.78 403.99 372.13 364.25 365.94 352.97C364.78 354.52 362.43 355.07 360.69 354.19Z" fill="#58C2DE"/>
<path d="M215.88 411.51C210.6 426.9 205.02 442.18 199.13 457.35C212.68 463.9 228.5 465.87 243.3 462.85C238.94 444.94 236.11 426.67 234.85 408.31C227.78 408.16 222.6 409.36 215.88 411.51Z" fill="white" stroke="url(#paint0_linear)" stroke-miterlimit="10"/>
<path d="M215.71 411.46C211.59 423.46 207.29 435.41 202.8 447.28C201.54 450.63 200.26 453.97 198.96 457.3C198.93 457.37 198.98 457.46 199.04 457.49C209.65 462.6 221.59 464.95 233.4 464.29C236.74 464.1 240.07 463.67 243.35 463.01C243.45 462.99 243.49 462.88 243.47 462.8C240.08 448.84 237.6 434.68 236.09 420.41C235.66 416.38 235.31 412.34 235.03 408.3C235.02 408.21 234.95 408.13 234.85 408.13C231.65 408.07 228.45 408.29 225.3 408.86C222.08 409.44 218.94 410.35 215.83 411.34C215.62 411.41 215.71 411.74 215.92 411.67C218.96 410.7 222.02 409.81 225.16 409.23C228.35 408.64 231.59 408.42 234.84 408.47C234.78 408.41 234.72 408.36 234.66 408.3C235.65 422.64 237.58 436.92 240.46 451.01C241.27 454.98 242.16 458.94 243.12 462.88C243.16 462.81 243.2 462.74 243.24 462.67C231.8 464.99 219.78 464.36 208.65 460.91C205.84 460.04 203.08 458.99 200.41 457.76C200.22 457.67 199.54 457.48 199.42 457.3C199.27 457.07 199.58 456.62 199.67 456.39C199.96 455.64 200.25 454.89 200.54 454.14C201.12 452.64 201.69 451.13 202.26 449.63C204.52 443.7 206.73 437.74 208.89 431.78C211.33 425.06 213.71 418.31 216.03 411.55C216.12 411.35 215.78 411.26 215.71 411.46Z" fill="white" stroke="url(#paint1_linear)" stroke-miterlimit="10"/>
<path d="M223.79 366.81C225.08 368.43 228.09 368.6 228.43 367.02C234.06 373.05 236.44 380.52 236.27 387.89C236.2 390.77 236.64 409.09 236.79 413.65C228.18 414.85 218.97 413.74 213.16 413.92C215.11 409.32 217.35 397.73 216.3 392.86C214.49 384.42 217.28 370.55 223.79 366.81Z" fill="#58C2DE"/>
<path d="M196.5 523.06C196.23 523.96 195.72 525.64 195.45 526.54C199.95 528.29 213.13 529.29 214.08 529.61C212 528.13 209.36 526.1 207.54 524.35C204.08 525.22 199.43 524.98 196.5 523.06Z" fill="#58C2DE"/>
<path d="M246.94 522.46C247.14 523.82 247.33 525.18 247.53 526.54C247.53 526.54 261.19 523.72 265.4 522.42C262.97 521.77 260.55 521.12 258.12 520.47C257.95 520.42 257.77 520.38 257.59 520.38C257.34 520.39 257.1 520.49 256.87 520.59C253.92 521.82 250.14 522.25 246.94 522.46Z" fill="#58C2DE"/>
<path d="M225.81 374.49C232.12 383.12 246.94 403.36 248.56 404.19C250.34 405.11 275.36 403.74 284.5 402.22C285.27 404.36 286.19 410.18 286.96 412.32C274.79 415.42 249.43 418.59 244.75 417.34C240.16 416.12 227.49 401.97 222.33 394.88C219.43 390.9 218.12 387.29 217.57 382.44C217.38 380.74 219.9 376.8 221.02 375.47C222.15 374.15 224.71 373.15 225.81 374.49Z" fill="#58C2DE"/>
<path d="M363.17 367.46C362.61 363.76 362.74 358.89 366.35 357.65C369.12 356.7 372.01 358.76 373.87 360.98C377.52 365.34 379.6 370.72 381.62 376C389.64 396.93 397.65 417.87 405.67 438.8C401.39 439.82 397.11 440.84 392.83 441.86C390.26 436.68 387.69 431.5 385.24 426.27C376.13 406.82 368.68 386.63 362.98 365.98" fill="#58C2DE"/>
<path d="M248.89 448.52C248.36 447.66 248.04 446.87 247.8 445.9C247.56 444.92 247.67 443.82 248.32 443.04C248.74 442.54 249.34 442.23 249.94 441.96C250.26 441.82 250.59 441.69 250.95 441.65C251.72 441.57 252.46 441.98 252.97 442.54C253.48 443.1 253.8 443.8 254.1 444.49C254.33 445 254.56 445.54 254.48 446.09C254.41 446.54 254.14 446.94 253.82 447.27C252.61 448.55 250.6 449.06 248.89 448.52Z" fill="#EDFFC6"/>
<path d="M168.28 41.78C170.02 41.78 171.77 41.77 173.51 41.77C177.67 41.76 181.84 41.76 186 41.75C191.06 41.74 196.12 41.73 201.18 41.73C205.56 41.72 209.93 41.72 214.31 41.71C215.75 41.71 217.19 41.71 218.64 41.7C219.09 41.7 219.53 41.7 219.98 41.7C220.19 41.7 220.48 41.75 220.69 41.7C220.72 41.69 220.76 41.7 220.78 41.7C220.93 41.7 220.93 41.47 220.78 41.47C219.04 41.47 217.29 41.48 215.55 41.48C211.39 41.49 207.22 41.49 203.06 41.5C198 41.51 192.94 41.52 187.88 41.52C183.5 41.53 179.13 41.53 174.75 41.54C173.31 41.54 171.87 41.54 170.42 41.55C169.97 41.55 169.53 41.55 169.08 41.55C168.87 41.55 168.58 41.5 168.37 41.55C168.34 41.56 168.3 41.55 168.28 41.55C168.13 41.55 168.13 41.78 168.28 41.78Z" fill="white"/>
<path d="M156.82 34.44C157.9 36.89 158.97 39.35 160.05 41.8C160.09 41.88 160.21 41.86 160.25 41.8C162.29 38.65 164.34 35.5 166.38 32.35C166.46 32.23 166.26 32.11 166.18 32.24C164.14 35.39 162.09 38.54 160.05 41.69C160.12 41.69 160.18 41.69 160.25 41.69C159.17 39.24 158.1 36.78 157.02 34.33C156.96 34.19 156.76 34.3 156.82 34.44Z" fill="white"/>
<path d="M175.8 9.86C174.43 5.63 176.27 3.42 178.88 1.78C181.08 0.400001 184.09 0.749999 186.28 2.13C188.47 3.51 189.95 5.76 190.99 8.09C191.77 9.83 192.64 11.92 194.55 12.28C195.74 12.51 196.92 11.94 198.1 11.67C199.49 11.35 201.17 11.54 202.02 12.66C202.9 13.81 202.58 15.4 202.83 16.81C203.14 18.56 204.44 20.12 206.14 20.77C207.83 21.42 209.72 21.18 211.53 21.35C213.34 21.52 215.15 22.12 216.5 23.32C217.84 24.52 218.64 26.35 218.31 28.1C218.18 28.79 217.88 29.47 217.93 30.17C218.04 31.77 219.84 32.72 221.45 33.06C223.06 33.4 224.87 33.52 226.03 34.66C227.69 36.28 227.11 39.1 225.77 40.98C224.09 43.33 221.4 44.96 218.5 45.41C217.5 45.56 216.43 45.57 215.51 45.16C214.19 44.57 213.38 43.25 212.89 41.92C212.4 40.59 212.14 39.17 211.49 37.91C210.56 36.11 208.84 34.72 206.85 34.18C205.31 33.76 203.45 33.7 202.54 32.42C201.71 31.24 202.14 29.63 201.74 28.25C201.27 26.67 199.71 25.58 198.08 25.19C196.45 24.79 194.73 24.96 193.05 25.13C192.23 25.22 191.34 25.29 190.62 24.9C188.33 23.66 189.93 19.47 187.71 18.11C186.64 17.46 185.27 17.85 184.01 17.84C181.96 17.82 180.07 16.63 178.76 15.08C177.45 13.54 176.63 11.67 175.83 9.82" fill="#58C2DE"/>
<path d="M160.26 82.92C161 86.97 161.73 91.03 162.47 95.08C162.57 95.63 162.72 96.25 163.28 96.57C163.75 96.84 164.38 96.78 164.95 96.76C177.87 96.29 190.41 96.55 203.16 96.79C203.62 96.8 204.17 95.69 204.49 95.42C204.74 95.2 204.8 94.88 204.84 94.59C205.45 89.97 205.2 85.26 204.1 80.7C189.52 80.94 174.94 81.67 160.43 82.9" fill="#58C2DE"/>
<path d="M157.64 74.98C157.64 78.43 155.16 87.91 156.87 90.23C157.27 90.77 164.31 87.85 164.99 87.93C178.13 89.46 189.04 85.75 202.21 84.5C202.9 84.43 203.86 87.03 204.25 86.42C206.27 83.29 201.15 73.88 203.57 71.9C190.33 71.62 185.24 72.59 172 72.89C166.42 73.02 160.85 73.23 155.28 73.52" fill="#58C2DE"/>
<path d="M192.11 96.82C192.45 98.88 192.78 100.94 193.12 103C193.93 107.94 194.74 112.89 195.55 117.83C196.52 123.79 197.5 129.74 198.47 135.7C199.32 140.87 200.16 146.03 201.01 151.2C201.29 152.89 201.56 154.58 201.84 156.28C201.93 156.81 202.01 157.35 202.1 157.88C202.14 158.13 202.14 158.48 202.24 158.72C202.25 158.75 202.25 158.8 202.26 158.83C202.28 158.97 202.5 158.91 202.48 158.77C202.14 156.71 201.81 154.65 201.47 152.59C200.66 147.65 199.85 142.7 199.04 137.76C198.07 131.8 197.09 125.85 196.12 119.89C195.27 114.72 194.43 109.56 193.58 104.39C193.3 102.7 193.03 101.01 192.75 99.31C192.66 98.78 192.58 98.24 192.49 97.71C192.45 97.46 192.45 97.11 192.35 96.87C192.34 96.84 192.34 96.79 192.33 96.76C192.3 96.62 192.08 96.68 192.11 96.82Z" fill="#1B75BB"/>
<path d="M197.85 26.7C216.68 30.69 222.57 56.15 223.2 74.75C214.8 75.31 206.33 74.86 198.04 73.42C198.18 60.41 198.72 47.4 199.66 34.42C199.8 32.58 195.96 26.68 197.85 26.7Z" fill="#EDFFC6"/>
<path d="M202.93 74.54C209.67 74.98 216.39 74.44 223.21 74.75C226.44 65.7 223.21 58.57 221.46 56.68C213.98 56.15 206.98 62.22 199.84 64.81C199.67 64.87 199.49 64.95 199.43 65.14C199.39 65.28 199.44 65.43 199.49 65.56C200.57 68.6 201.65 71.63 202.73 74.67" fill="#EDFFC6"/>
<path d="M167.71 26.7C148.88 30.69 142.99 56.15 142.36 74.75C150.76 75.31 159.23 74.86 167.52 73.42C167.38 60.41 166.84 47.4 165.9 34.42C165.76 32.58 169.6 26.68 167.71 26.7Z" fill="#EDFFC6"/>
<path d="M177.8 5.32C176.87 7.48 176.88 9.2 176.87 11.55C176.86 13.85 177.65 16.03 179.36 17.27C181.65 18.94 184.01 17.88 185.49 16.18C186.97 14.48 187.33 12.09 187.08 9.87C186.84 7.63 185.88 5.27 183.86 4.17C181.84 3.08 178.16 3.09 177.8 5.32Z" fill="#FCB4EE"/>
<path d="M177.13 11.68C176.67 11.37 175.81 11.61 175.42 11.99C175.02 12.37 174.95 13.03 175.26 13.48C175.79 14.26 176.98 14.15 177.92 13.96C177.8 13.16 177.53 12.38 177.13 11.68Z" fill="#FCB4EE"/>
<path d="M186.88 11.68C187.34 11.37 188.2 11.61 188.59 11.99C188.99 12.37 189.06 13.03 188.75 13.48C188.22 14.26 187.03 14.15 186.09 13.96C186.21 13.16 186.48 12.38 186.88 11.68Z" fill="#FCB4EE"/>
<path d="M180.9 17.28C180.99 18.8 181.08 20.33 181.17 21.85C178.32 22.94 169.07 25.64 168.6 27.09C168.01 28.92 168.36 31.39 168.41 32.7C173.23 32.94 178.68 32.24 183.5 32.48C188.13 32.71 192.8 32.94 197.36 32.14C197.59 30.87 197.05 27.97 196.24 26.83C195.11 25.24 185.27 22.21 183.4 21.96C183.41 20.31 183.21 18.65 183.22 17C182.73 17.01 181.41 17.01 180.92 17.02" fill="#FCB4EE"/>
<path d="M179.87 22.01C180.04 23.09 181.19 23.84 182.3 23.77C183.53 23.69 184.47 23.06 184.63 22.09C185.77 22.19 200.86 27.15 201.32 27.74C202.99 29.87 204.04 43.56 204.24 46.58C202.13 47.07 199.93 47.05 197.77 47.02C191.65 46.96 185.53 46.89 179.41 46.83C176.23 46.8 173.04 46.76 169.87 46.6C166.67 46.43 164.4 46.22 161.22 45.93C161.18 43.45 161.94 42.27 161.9 39.79C161.85 36.5 162.84 28.34 162.84 28.34C165.4 25.73 177.13 22.82 179.87 22.01Z" fill="#EDFFC6"/>
<path d="M162.84 74.67C156.41 75.11 149.03 74.47 142.35 74.75C139.12 65.7 142.35 58.57 144.1 56.68C151.58 56.15 158.58 62.22 165.72 64.81C165.89 64.87 166.07 64.95 166.13 65.14C166.17 65.28 166.12 65.43 166.07 65.56C165 68.6 163.92 71.64 162.84 74.67Z" fill="#EDFFC6"/>
<path d="M192.65 146.84C187.98 127.43 182.22 111.96 180.33 92.11C180.16 90.34 180.25 88.56 180.75 86.84C181.55 84.08 182.6 82.24 185.56 80.61C188.55 78.97 192.8 79.43 196.06 80.45C198.88 81.33 200.87 83.89 201.78 86.64C202.69 89.39 202.69 92.33 202.68 95.21C202.6 114.93 201.51 133.95 201.43 153.67C197.7 154.31 198.94 154.41 195.41 155.75C195.16 148.9 193.38 150.12 192.65 146.84Z" fill="#FCB4EE"/>
<path d="M192.38 140.51C186.86 121.32 182.07 106.58 177.27 89.12C176.8 87.4 175.6 85.94 174.29 84.71C172.25 82.79 168.73 82.07 166.29 82.17C162.86 82.31 160.07 83.9 157.71 86.33C155.68 88.43 155.2 91.61 155.77 94.44C156.33 97.27 157.79 99.85 159.23 102.37C169.07 119.6 179.29 138.53 189.13 155.76C194.76 159.93 195.42 157.8 196.31 153.07C195.33 149.63 193.5 143.89 192.38 140.51Z" fill="#FCB4EE"/>
<path d="M212.56 44.68H156.87V74.98H212.56V44.68Z" fill="white"/>
<path d="M176.49 4.51C175.82 5.13 175.63 6.19 176.04 7C176.42 7.74 177.19 8.2 177.97 8.52C179.73 9.23 181.67 9.36 183.53 9.8C185.38 10.23 187.29 11.08 188.23 12.7C188.78 10.32 188.17 7.71 186.62 5.79C185.07 3.87 182.61 2.69 180.11 2.65C178.53 2.62 177.39 3.23 176.49 4.51Z" fill="#58C2DE"/>
<path d="M201.48 149.09C205.64 153.66 210.67 165.96 207.94 168.33C204.66 171.18 202.23 166.13 201.5 165.08C198.67 161.04 196.68 156.44 195.67 151.65C197.05 152.73 198.51 153.83 200.07 153.03C201.63 152.23 201.61 150.81 201.48 149.09Z" fill="#58C2DE"/>
<path d="M187.1 152.77C189.34 158.21 191.47 163.98 196.57 168.69C197.09 169.17 204.49 175.06 201.87 164.28C200.58 158.95 198.07 153.97 195.54 149.08C195.42 152.26 194.77 159.92 187.1 152.77Z" fill="#58C2DE"/>
<path d="M182.15 10.33C182.15 11.12 182.23 11.96 182.78 12.58C183.29 13.16 184.08 13.31 184.83 13.36C186.76 13.5 187.23 11.88 187.28 10.31C187.28 10.24 187.22 10.18 187.15 10.18C185.61 10.18 184.07 10.17 182.53 10.17C182.36 10.17 182.36 10.42 182.53 10.42C183.53 10.42 184.52 10.42 185.52 10.43C185.81 10.43 186.75 10.29 186.95 10.48C187.18 10.71 186.93 11.53 186.84 11.83C186.42 13.11 185.17 13.27 183.98 12.97C182.69 12.64 182.41 11.47 182.41 10.32C182.4 10.17 182.15 10.17 182.15 10.33Z" fill="white"/>
<path d="M176.37 10.33C176.37 11.29 176.53 12.2 177.32 12.85C177.89 13.32 178.63 13.54 179.36 13.37C180 13.23 180.62 12.83 181.03 12.34C181.5 11.78 181.48 11.01 181.5 10.32C181.5 10.25 181.44 10.19 181.37 10.19C179.83 10.19 178.29 10.18 176.75 10.18C176.58 10.18 176.58 10.43 176.75 10.43C177.93 10.43 179.11 10.43 180.28 10.44C180.4 10.44 181 10.38 181.1 10.44C181.3 10.57 181.23 10.77 181.21 10.99C181.17 11.45 181.11 11.85 180.81 12.2C180.31 12.78 179.5 13.23 178.71 13.17C177.16 13.06 176.63 11.61 176.63 10.32C176.63 10.17 176.37 10.17 176.37 10.33Z" fill="white"/>
<path d="M181.32 10.55C181.65 10.55 181.98 10.57 182.3 10.61C182.47 10.63 182.46 10.38 182.3 10.36C181.97 10.32 181.65 10.3 181.32 10.3C181.15 10.3 181.15 10.55 181.32 10.55Z" fill="white"/>
<path d="M178.37 12.33C178.57 11.66 179.45 11.64 179.73 12.27C179.8 12.42 180.02 12.29 179.95 12.14C179.58 11.3 178.38 11.41 178.12 12.26C178.08 12.42 178.33 12.49 178.37 12.33Z" fill="white"/>
<path d="M183.69 12.22C184 11.59 184.9 11.6 185.14 12.29C185.19 12.44 185.44 12.38 185.39 12.22C185.08 11.35 183.88 11.25 183.46 12.09C183.39 12.24 183.62 12.36 183.69 12.22Z" fill="white"/>
<path d="M181.45 12.97C181.42 13.56 181.37 14.16 181.36 14.75C181.36 15.08 181.54 15.07 181.85 15.08C182.02 15.09 182.02 14.83 181.85 14.83C181.77 14.82 181.69 14.82 181.62 14.83C181.62 14.73 181.63 14.62 181.63 14.52C181.64 14.37 181.64 14.21 181.65 14.06C181.67 13.7 181.68 13.34 181.7 12.98C181.72 12.81 181.46 12.81 181.45 12.97Z" fill="white"/>
<path d="M469.13 190.72C471.09 209.56 474.97 238.09 475.94 257.01C476.26 263.26 477 274.03 478.53 280.11C478.97 281.87 479.53 282.4 481.38 282.54C483.27 282.56 485.2 252.5 485.45 246.8C485.59 243.54 485.84 237.19 485.99 233.93C486.13 230.81 488.01 197.02 488.43 188.57C483.59 190.05 474.96 188.58 470.13 190.05" fill="#58C2DE"/>
<path d="M477.91 105.61C476.17 109.27 477.68 112.82 481.28 114.81C484.88 116.8 488.4 117.95 492.84 116.99C490.08 119.69 495.29 127.52 479.04 132.84C472.11 135.11 471.63 120.65 464.75 123.04C467.56 118.83 470.91 120.15 473.44 115.77C475.21 112.71 474.86 108.95 474.46 105.46C475.4 105.58 476.33 105.7 477.27 105.83" fill="#FCB4EE"/>
<path d="M474.68 92.7C475.49 92.27 476.55 92.49 477.26 93.07C477.97 93.64 478.38 94.5 478.65 95.36C479.06 96.69 479.16 98.09 479.13 99.47C479.1 100.95 478.91 102.45 478.3 103.8C477.7 105.16 476.64 106.37 475.24 106.94C473.84 107.51 472.09 107.35 470.98 106.34C470.18 105.62 469.78 104.57 469.56 103.52C468.96 100.66 469.58 97.59 471.25 95.16C472.15 93.85 473.5 92.66 475.11 92.65" fill="#FCB4EE"/>
<path d="M478.95 101.43C479.58 101.02 480.56 101.33 480.87 102.01C481.18 102.69 480.82 103.56 480.15 103.9C479.47 104.24 478.58 104.04 478.07 103.49" fill="#FCB4EE"/>
<path d="M478.48 278.86C474.11 281.69 469.45 284.1 464.59 286.04C470.96 285.97 477.27 284.94 483.55 283.92C483.73 283.89 483.93 283.85 484.01 283.69C484.07 283.59 484.05 283.46 484.04 283.34C483.88 282.13 483.71 280.91 483.55 279.7C483.52 279.46 483.48 279.21 483.29 279.05C483.11 278.89 482.84 278.88 482.59 278.87C481.25 278.86 479.9 278.93 478.57 279.09" fill="#FCB4EE"/>
<path d="M488.13 189.72C490.09 208.56 493.97 237.09 494.94 256.01C495.26 262.26 496 273.03 497.53 279.11C497.97 280.87 498.53 281.4 500.38 281.54C502.27 281.56 504.2 251.5 504.45 245.8C504.59 242.54 504.84 236.19 504.99 232.93C505.13 229.81 507.01 196.02 507.43 187.57C502.59 189.05 493.96 187.58 489.13 189.05" fill="#58C2DE"/>
<path d="M497.48 278.86C493.11 281.69 488.45 284.1 483.59 286.04C489.96 285.97 496.27 284.94 502.55 283.92C502.73 283.89 502.93 283.85 503.01 283.69C503.07 283.59 503.05 283.46 503.04 283.34C502.88 282.13 502.71 280.91 502.55 279.7C502.52 279.46 502.48 279.21 502.29 279.05C502.11 278.89 501.84 278.88 501.59 278.87C500.25 278.86 498.9 278.93 497.57 279.09" fill="#FCB4EE"/>
<path d="M468.49 181.53L469.35 191.97C479.84 192.32 491.32 191.51 503.39 188.7C504.75 188.38 506.08 188.05 507.39 187.7C507.02 183.82 506.65 179.93 506.28 176.05L468.49 181.53Z" fill="#58C2DE"/>
<path d="M471.9 117.08C471.89 118.13 475.37 120.33 478.13 119.8C480.89 119.26 482.41 117.42 483.06 115.46C486.86 115.87 497.85 115.52 501.52 115.7C502.11 115.73 506.06 161.05 507.95 185.07C490.75 188.6 485.38 186.82 467.47 185.77C465.35 165.08 459.89 125.81 461.98 121.89C462.8 120.33 470.3 118.15 471.9 117.08Z" fill="#EDFFC6"/>
<path d="M501.72 116.02C509.32 123.52 509.86 135.59 507.07 145.78C501.4 166.46 484.84 182.42 468.22 196.4C466.44 197.9 464.27 199.49 461.97 199.02C461.06 194.72 463.93 190.63 466.53 187.05C482.07 165.73 494.92 141.33 501.72 116.02Z" fill="#FCB4EE"/>
<path d="M477.82 98.64C475.71 99.01 473.07 98.93 470.93 98.8C471.66 98.46 472.39 98.13 473.12 97.79C471.33 98.12 469.52 98.28 467.7 98.28C468.42 96.91 469.14 95.54 469.86 94.17C470.3 93.33 470.76 92.47 471.47 91.82C472.11 91.23 472.93 90.85 473.76 90.58C475.44 90.03 477.45 89.92 478.86 90.98C479.42 91.4 479.85 91.98 480.18 92.59C481.28 94.63 481.35 97.08 480.85 99.33C480.35 101.58 479.33 103.69 478.32 105.77C478 105.78 477.67 105.79 477.35 105.79C477.9 103.46 478.06 101.03 477.82 98.64Z" fill="#58C2DE"/>
<path d="M501.04 116.06C501.62 115.49 502.63 115.53 503.33 115.96C504.03 116.39 504.5 117.1 504.91 117.79C510.46 127.18 511.49 139 507.63 149.17C506.27 152.76 504.34 156.12 502.36 159.42C494.89 171.81 486.26 183.73 475.11 193.13C474.68 193.49 474.21 193.86 473.64 193.88C473.13 193.9 472.67 193.62 472.25 193.35C469.66 191.7 467.12 189.97 464.64 188.18C474.26 175.13 481.71 160.71 489.11 146.36C490.49 143.69 491.87 141.01 493.03 138.24C495.24 132.97 496.62 127.42 498.4 122C499.17 119.65 500.07 117.25 501.82 115.46" fill="#EDFFC6"/>
<path d="M472.96 114.56C472.36 115.54 471.64 116.44 470.82 117.24C471.94 118.9 473.18 120.48 474.52 121.97C474.98 120.74 475.44 119.52 475.91 118.29C475.93 118.23 475.96 118.16 475.94 118.1C475.92 118.04 475.87 117.99 475.83 117.95C475.27 117.43 474.7 116.91 474.14 116.39C473.65 115.93 473.13 115.44 472.96 114.8" fill="#EDFFC6"/>
<path d="M476.53 117.65C478.18 116.92 479.43 115.44 480.59 114.08C481.74 114.36 482.88 114.65 484.03 114.93C483.21 117.81 481.16 120.33 478.47 121.75C477.88 120.36 477.24 118.99 476.53 117.65Z" fill="#EDFFC6"/>
<path d="M475.31 117.75C475.03 119 474.67 120.22 474.23 121.43C474.19 121.54 474.15 121.66 474.16 121.77C474.17 121.87 474.23 121.96 474.28 122.04C474.49 122.37 475.34 123.32 475.44 123.3C476.25 123.21 477.06 123.11 477.87 122.99C477.98 122.97 478.7 121.7 478.71 121.58C478.72 121.44 478.67 121.3 478.61 121.17C478.15 120.07 477.27 118.73 477.05 117.57C476.43 117.6 476.68 117.57 476.06 117.57C475.74 117.57 475.25 117.69 475.31 117.75Z" fill="#58C2DE"/>
<path d="M475.28 123.06C474.96 126.92 473.46 136.87 473.55 137.76C473.62 138.4 477.2 153.44 479.57 158.61C479.91 157.83 481.95 138.09 481.86 137.61C481.65 136.54 478.59 126.55 477.87 123" fill="#58C2DE"/>
<path d="M49.69 475.43L47.54 474.9L125.8 171.08L127.96 171.61L49.69 475.43Z" fill="white"/>
<path d="M2.15 475.43L0 474.9L78.26 171.08L80.42 171.61L2.15 475.43Z" fill="white"/>
<path d="M121.322 191.772L73.5971 192.521L73.6312 194.691L121.356 193.941L121.322 191.772Z" fill="white"/>
<path d="M114.117 220.857L66.3916 221.607L66.4256 223.777L114.151 223.027L114.117 220.857Z" fill="white"/>
<path d="M106.144 249.954L58.4185 250.699L58.4524 252.869L106.178 252.124L106.144 249.954Z" fill="white"/>
<path d="M97.4455 279.049L49.7202 279.794L49.7541 281.963L97.4793 281.219L97.4455 279.049Z" fill="white"/>
<path d="M90.5107 308.131L42.7855 308.88L42.8195 311.05L90.5448 310.3L90.5107 308.131Z" fill="white"/>
<path d="M83.1729 337.216L35.4477 337.961L35.4816 340.131L83.2068 339.386L83.1729 337.216Z" fill="white"/>
<path d="M75.811 366.306L28.0858 367.055L28.1199 369.225L75.8451 368.475L75.811 366.306Z" fill="white"/>
<path d="M68.7009 395.396L20.9756 396.145L21.0097 398.315L68.7349 397.566L68.7009 395.396Z" fill="white"/>
<path d="M61.1735 424.488L13.4483 425.233L13.4822 427.403L61.2074 426.658L61.1735 424.488Z" fill="white"/>
<path d="M55.61 161.85C55.65 164.6 55.69 167.35 55.73 170.1C55.73 170.31 55.73 170.52 55.63 170.7C55.49 170.93 55.21 171.04 54.95 171.13C51.35 172.38 47.74 173.63 44.14 174.88C53.34 175.33 60.73 175.26 69.92 174.75C66.48 173.97 62.75 171.12 59.36 170.14C58.7 169.95 60.13 171.26 59.72 170.71C59.36 170.24 59.29 169.61 59.24 169.03C59.02 166.56 58.8 164.08 58.59 161.61" fill="#FCB4EE"/>
<path d="M38.1 259.43C44.98 284.42 45.74 310.37 49.13 336.04C49.21 336.61 49.88 337.35 50.32 337.72C50.73 338.06 51.32 338.09 51.86 338.11C53.49 338.15 54.74 337.38 56.37 337.42C58.43 326.7 59.16 295.75 59.44 291.67C60.26 279.74 61.08 267.8 61.9 255.87C54.32 256.82 46.75 257.77 39.17 258.72" fill="#FCB4EE"/>
<path d="M63.19 256.42C66.07 283.66 68.94 310.9 71.82 338.15C74.21 338.79 76.37 338.55 78.81 338.11C80.77 309.81 83.12 281.85 85.08 253.55C77.95 255.43 70.62 256.56 63.24 256.91" fill="#FCB4EE"/>
<path d="M48.89 334.87C46.51 334.75 44.46 334.8 42.09 335.03C41.79 335.69 42.47 336.36 43.09 336.75C46.44 338.86 50.39 340.05 54.38 340.17C54.83 340.18 55.31 340.18 55.7 339.95C56.21 339.65 56.44 339.06 56.6 338.5C56.94 337.26 57.08 335.97 57.02 334.69C55.1 337.05 50.92 337.15 48.89 334.87Z" fill="#58C2DE"/>
<path d="M79.44 334.87C81.82 334.75 83.87 334.8 86.24 335.03C86.54 335.69 85.86 336.36 85.24 336.75C81.89 338.86 77.94 340.05 73.95 340.17C73.5 340.18 73.02 340.18 72.63 339.95C72.12 339.65 71.89 339.06 71.73 338.5C71.39 337.26 71.25 335.97 71.31 334.69C73.23 337.05 77.41 337.15 79.44 334.87Z" fill="#58C2DE"/>
<path d="M46.36 201.88C37.78 218.62 30.98 256.15 31.36 272.92C50 278.35 78.81 278.35 93.68 271.04C91.57 253.47 80.13 216.57 69.3 201.56C59.36 201.86 56.31 201.57 46.36 201.88Z" fill="#58C2DE"/>
<path d="M110.54 139.92C109.51 139.35 105.61 138.87 105.59 138.54C105.26 131.44 103.87 130.64 102.73 131.85C101.69 132.95 102.35 137.4 102.45 139.25C101.5 139.35 100.47 139.59 100.07 140.41C99.79 141 99.95 141.69 100.13 142.32C100.63 144.06 101.22 145.77 101.91 147.44C101.95 147.98 102 148.52 102.05 149.05L102 149.17C102.23 149.26 102.47 149.33 102.71 149.37L102.79 149.45C102.78 149.43 102.77 149.4 102.76 149.38C103.48 149.51 104.25 149.45 104.99 149.38C106.56 149.24 108.14 149.11 109.71 148.97C109.97 148.95 110.26 148.91 110.44 148.73C110.58 148.59 110.63 148.4 110.67 148.21C111.06 146.6 111.34 144.96 111.54 143.31C111.71 142.08 111.66 140.54 110.54 139.92Z" fill="#FCB4EE"/>
<path d="M45.29 175.11C40.06 178.36 32.79 193.31 24.88 199.77C24.38 200.18 23.81 200.6 23.16 200.53C22.17 200.42 21.72 199.29 21.49 198.35C19.08 188.5 19.37 178.48 18.39 168.4C15.91 169.76 9.41 172.41 9.03 173.26C8.77 173.85 9.35 193.67 11.54 202.24C12.77 207.03 14.2 212.16 18.11 215.3C19.17 216.15 20.43 216.84 21.8 216.92C23.69 217.03 25.43 215.98 26.94 214.88C33.72 209.92 39.67 203.11 44.62 196.4" fill="#EDFFC6"/>
<path d="M45.23 175.02C42.87 176.52 41.14 179.01 39.52 181.2C37.17 184.4 34.98 187.71 32.62 190.91C30.34 194 27.92 197.12 24.92 199.59C24.33 200.07 23.53 200.71 22.73 200.29C22.18 200.01 21.91 199.37 21.73 198.82C21.33 197.62 21.13 196.33 20.89 195.09C20.37 192.36 20.03 189.6 19.77 186.83C19.21 180.69 19.07 174.52 18.48 168.38C18.47 168.3 18.4 168.25 18.32 168.29C15.92 169.6 13.35 170.61 10.92 171.86C10.35 172.15 9.28 172.54 8.95 173.14C8.82 173.38 8.86 173.72 8.85 173.99C8.76 178.44 9.09 182.92 9.42 187.36C9.84 192.92 10.39 198.49 11.85 203.89C12.75 207.21 13.85 210.63 16.04 213.37C17.11 214.71 18.47 215.97 20.1 216.62C21.87 217.33 23.66 216.95 25.28 216.05C27.02 215.08 28.59 213.76 30.1 212.49C31.71 211.13 33.26 209.69 34.74 208.2C37.64 205.28 40.31 202.14 42.82 198.9C43.45 198.08 44.07 197.26 44.69 196.43C44.77 196.32 44.59 196.22 44.51 196.33C39.75 202.78 34.41 208.98 27.99 213.93C26.39 215.16 24.59 216.6 22.48 216.79C20.35 216.98 18.48 215.65 17.08 214.23C14.56 211.66 13.29 208.21 12.33 204.85C10.84 199.63 10.2 194.29 9.75 188.9C9.37 184.28 9.08 179.64 9.05 175.01C9.05 174.52 8.97 173.92 9.08 173.44C9.21 172.85 10.15 172.5 10.65 172.24C13.19 170.88 15.9 169.85 18.42 168.48C18.37 168.45 18.32 168.42 18.26 168.39C18.81 174.1 18.96 179.83 19.43 185.54C19.66 188.33 19.97 191.11 20.43 193.86C20.67 195.29 20.95 196.71 21.29 198.11C21.48 198.9 21.72 199.87 22.43 200.37C23.13 200.86 23.92 200.57 24.56 200.11C25.32 199.56 26.01 198.9 26.68 198.25C28.12 196.85 29.43 195.32 30.68 193.75C33.3 190.46 35.64 186.98 38.05 183.56C39.28 181.82 40.53 180.08 41.9 178.44C42.9 177.25 43.97 176.04 45.31 175.19C45.45 175.13 45.35 174.95 45.23 175.02Z" fill="#7400B8"/>
<path d="M45.33 175.24L45.68 175C45.56 175.08 45.45 175.16 45.33 175.24Z" fill="#EDFFC6"/>
<path d="M45.39 175.33C45.51 175.25 45.62 175.17 45.74 175.09C45.85 175.02 45.75 174.84 45.63 174.91C45.51 174.98 45.39 175.06 45.28 175.15C45.23 175.18 45.21 175.24 45.24 175.29C45.27 175.33 45.34 175.36 45.39 175.33C45.5 175.25 45.62 175.17 45.74 175.09C45.7 175.03 45.67 174.97 45.63 174.91C45.51 174.99 45.4 175.07 45.28 175.15C45.17 175.23 45.28 175.4 45.39 175.33Z" fill="#7400B8"/>
<path d="M45.32 175.25C45.33 175.24 45.33 175.24 45.34 175.24L45.32 175.25Z" fill="#EDFFC6"/>
<path d="M45.37 175.34C45.38 175.34 45.38 175.33 45.39 175.33C45.44 175.3 45.46 175.24 45.43 175.19C45.4 175.14 45.33 175.12 45.29 175.15C45.28 175.15 45.28 175.16 45.27 175.16C45.16 175.24 45.26 175.41 45.37 175.34C45.38 175.34 45.38 175.33 45.39 175.33C45.35 175.27 45.32 175.21 45.28 175.15C45.27 175.15 45.27 175.16 45.26 175.16C45.14 175.22 45.25 175.4 45.37 175.34Z" fill="#7400B8"/>
<path d="M100.76 149.04C100.33 154.44 95.24 178.88 90.52 184.1C85.27 189.92 80.5 184.31 79.55 183.26C76.93 180.36 71.73 171.54 67.06 173.12C63.74 174.24 63.74 174.24 58.65 174.8C54.16 175.29 44.61 173.24 44.61 173.24C44.61 173.24 42.76 180.13 42.85 182.92C43.03 188.95 44.02 194.95 45.78 200.73C45.91 201.14 46.05 201.57 46.36 201.87C46.78 202.27 47.41 202.35 47.99 202.4C55.09 203.05 62.28 202.77 69.3 201.55C70.24 199.14 70.35 195.08 70.87 192.56C70.91 192.75 76.3 202.06 84.32 202.74C90.42 203.25 96.06 198.93 100.38 193.44C104.69 187.96 107.16 180.81 109.02 174.15C111.34 165.82 113.17 157.68 113.4 149.05C109.19 149.05 104.98 149.05 100.76 149.04Z" fill="#EDFFC6"/>
<path d="M100.66 149.04C100.49 151.11 100.09 153.16 99.71 155.2C99.13 158.27 98.46 161.32 97.72 164.36C96.93 167.62 96.05 170.87 95.02 174.06C94.16 176.73 93.23 179.44 91.88 181.92C90.39 184.67 87.55 187.39 84.1 186.39C81.59 185.66 79.82 183.52 78.31 181.57C76.31 178.98 74.36 176.13 71.65 174.18C70.61 173.43 69.34 172.78 68.01 172.86C66.7 172.94 65.42 173.64 64.15 173.95C62.61 174.33 61.01 174.46 59.43 174.63C57.72 174.82 56.04 174.8 54.32 174.65C51.25 174.39 48.2 173.87 45.19 173.26C45.01 173.22 44.83 173.19 44.66 173.15C44.61 173.14 44.55 173.17 44.53 173.22C43.92 175.51 43.38 177.83 43.01 180.17C42.75 181.84 42.76 183.43 42.86 185.12C43.02 187.58 43.3 190.03 43.72 192.46C44.14 194.92 44.7 197.36 45.4 199.77C45.64 200.59 45.79 201.72 46.63 202.18C47.44 202.63 48.6 202.56 49.49 202.63C54.8 203.02 60.15 202.89 65.44 202.23C66.12 202.15 66.8 202.05 67.48 201.95C67.84 201.9 68.19 201.84 68.55 201.78C68.76 201.75 69.21 201.75 69.38 201.64C69.57 201.51 69.64 200.98 69.7 200.76C69.85 200.24 69.96 199.71 70.06 199.17C70.46 196.99 70.56 194.76 71 192.59C70.93 192.59 70.87 192.59 70.8 192.59C70.87 192.82 71.05 193.04 71.17 193.24C71.51 193.78 71.87 194.3 72.25 194.81C73.39 196.35 74.69 197.79 76.15 199.04C77.83 200.49 79.76 201.71 81.91 202.36C84.4 203.12 87.07 202.99 89.52 202.15C92.22 201.22 94.6 199.56 96.67 197.65C98.96 195.54 100.95 193.11 102.58 190.48C105.97 185 107.89 178.79 109.56 172.65C111.66 164.92 113.29 157.05 113.53 149.03C113.53 148.98 113.48 148.93 113.43 148.93C109.22 148.93 105 148.92 100.79 148.92C100.66 148.92 100.66 149.12 100.79 149.12C102.81 149.12 104.82 149.12 106.84 149.13C107.85 149.13 108.86 149.13 109.86 149.13C110.84 149.13 111.92 149 112.88 149.13C113.31 149.19 113.25 149.15 113.31 149.55C113.34 149.75 113.29 150 113.28 150.2C113.26 150.68 113.23 151.15 113.2 151.63C113.14 152.58 113.06 153.52 112.97 154.46C112.77 156.41 112.5 158.35 112.17 160.28C111.53 164 110.67 167.68 109.7 171.33C108.8 174.71 107.85 178.07 106.65 181.36C104.31 187.78 100.89 193.89 95.52 198.38C93.13 200.38 90.29 202.04 87.13 202.52C84.28 202.95 81.48 202.27 79.03 200.84C76.78 199.53 74.87 197.71 73.24 195.73C72.65 195.01 72.09 194.26 71.58 193.48C71.39 193.19 71.09 192.83 70.99 192.51C70.96 192.42 70.81 192.41 70.79 192.51C70.51 193.91 70.37 195.34 70.2 196.76C70.1 197.57 69.99 198.38 69.84 199.19C69.78 199.51 69.71 199.83 69.64 200.14C69.57 200.45 69.5 201.1 69.29 201.34C69.04 201.61 68.31 201.59 67.97 201.64C67.52 201.71 67.08 201.78 66.63 201.84C65.48 202 64.32 202.13 63.16 202.24C61.09 202.44 59.02 202.55 56.94 202.59C54.95 202.63 52.97 202.59 50.98 202.48C49.99 202.43 49 202.37 48.01 202.26C47.47 202.2 46.87 202.15 46.45 201.76C46.03 201.36 45.9 200.7 45.75 200.17C44.63 196.37 43.83 192.48 43.38 188.55C43.03 185.53 42.79 182.55 43.32 179.54C43.67 177.52 44.14 175.52 44.65 173.54C44.67 173.45 44.7 173.37 44.72 173.28C44.74 173.17 44.65 173.3 44.62 173.3C44.76 173.29 44.94 173.37 45.08 173.39C45.88 173.55 46.68 173.7 47.48 173.85C49.92 174.28 52.38 174.66 54.85 174.84C57.4 175.03 59.89 174.78 62.41 174.42C63.28 174.3 64.13 174.13 64.97 173.88C65.98 173.58 67.02 173.04 68.08 173C70.44 172.9 72.5 174.92 73.97 176.48C75.68 178.3 77.11 180.33 78.66 182.28C80.96 185.18 84.56 188.21 88.44 185.95C91.84 183.98 93.24 179.8 94.46 176.37C96.09 171.77 97.33 167.04 98.43 162.3C99.33 158.42 100.17 154.5 100.71 150.56C100.78 150.04 100.85 149.52 100.89 148.99C100.88 148.91 100.67 148.91 100.66 149.04Z" fill="#7400B8"/>
<path d="M68.66 173.28C69.97 176.57 70.53 180.12 70.77 183.63C71 187.11 70.9 190.62 70.52 194.09C70.51 194.22 70.71 194.22 70.73 194.09C71.12 190.55 71.21 186.96 70.96 183.4C70.71 179.95 70.15 176.46 68.86 173.22C68.81 173.11 68.61 173.16 68.66 173.28Z" fill="#7400B8"/>
<path d="M11.49 170.84C10.35 167.66 10.31 164.11 11.37 160.9C12.02 158.92 13.19 156.98 15.07 156.01C15.88 155.59 16.92 155.4 17.67 155.9C18.36 156.36 18.59 157.25 18.66 158.06C18.99 161.43 17.73 164.77 17.82 168.16C15.77 169.18 13.73 170.19 11.68 171.21" fill="#FCB4EE"/>
<path d="M54.33 147.43C51.32 147.84 48.7 150.14 47.83 152.98C46.96 155.82 47.81 159.07 49.85 161.26C51.01 162.51 52.65 163.72 52.54 165.4C52.4 167.51 49.5 168.87 49.78 170.96C50.06 173.05 53.21 173.63 53.92 175.62C55.03 178.76 49.24 181.19 50.18 184.39C50.69 186.15 53.03 186.89 53.63 188.62C54.28 190.52 52.55 192.33 51.89 194.22C50.98 196.82 52.28 199.88 54.61 201.42C56.94 202.96 60.07 203.1 62.72 202.15C64.97 201.34 66.97 199.74 67.91 197.59C68.85 195.44 68.57 192.75 66.97 191.02C65.69 189.64 63.63 188.83 63.03 187.06C62.1 184.3 65.43 181.62 64.93 178.76C64.36 175.52 59.18 173.65 60.18 170.51C60.7 168.89 62.83 167.34 61.78 165.98C61.45 165.55 60.9 165.36 60.5 164.99C59.19 163.78 60.24 161.71 60.9 160.07C62.95 154.93 60.96 147.43 54.33 147.43Z" fill="#58C2DE"/>
<defs>
<linearGradient id="paint0_linear" x1="221.203" y1="464.738" x2="221.203" y2="407.796" gradientUnits="userSpaceOnUse">
<stop stop-color="#58C2DE"/>
</linearGradient>
<linearGradient id="paint1_linear" x1="221.351" y1="464.909" x2="221.351" y2="407.03" gradientUnits="userSpaceOnUse">
<stop stop-color="#58C2DE"/>
</linearGradient>
</defs>
</svg>
