<svg width="516" height="157" viewBox="0 0 516 157" fill="none" xmlns="http://www.w3.org/2000/svg">
<path d="M0.770007 95.99C3.35001 100.07 5.92001 104.15 8.50001 108.23C8.91001 108.88 9.83 108.88 10.24 108.23C12.82 104.15 15.39 100.07 17.97 95.99C17.39 95.99 16.81 95.99 16.23 95.99C18.81 100.07 21.38 104.15 23.96 108.23C24.37 108.88 25.29 108.88 25.7 108.23C28.28 104.15 30.85 100.07 33.43 95.99C32.85 95.99 32.27 95.99 31.69 95.99C34.27 100.07 36.84 104.15 39.42 108.23C39.83 108.88 40.75 108.88 41.16 108.23C43.74 104.15 46.31 100.07 48.89 95.99C48.31 95.99 47.73 95.99 47.15 95.99C49.73 100.07 52.3 104.15 54.88 108.23C55.29 108.88 56.21 108.88 56.62 108.23C59.2 104.15 61.77 100.07 64.35 95.99C65.04 94.89 63.3 93.89 62.61 94.98C60.03 99.06 57.46 103.14 54.88 107.22C55.46 107.22 56.04 107.22 56.62 107.22C54.04 103.14 51.47 99.06 48.89 94.98C48.48 94.33 47.56 94.33 47.15 94.98C44.57 99.06 42 103.14 39.42 107.22C40 107.22 40.58 107.22 41.16 107.22C38.58 103.14 36.01 99.06 33.43 94.98C33.02 94.33 32.1 94.33 31.69 94.98C29.11 99.06 26.54 103.14 23.96 107.22C24.54 107.22 25.12 107.22 25.7 107.22C23.12 103.14 20.55 99.06 17.97 94.98C17.56 94.33 16.64 94.33 16.23 94.98C13.65 99.06 11.08 103.14 8.50001 107.22C9.08001 107.22 9.66 107.22 10.24 107.22C7.66 103.14 5.09 99.06 2.51 94.98C1.82 93.89 0.0800067 94.89 0.770007 95.99Z" fill="#7400B8"/>
<path d="M136.78 44.14C136.4 52.88 129.69 59.97 120.61 60.07C111.88 60.17 104.34 52.74 104.44 44.14C104.54 35.47 111.74 28.21 120.61 28.21C129.71 28.21 136.41 35.47 136.78 44.14C136.82 45.13 138.39 45.14 138.35 44.14C137.94 34.6 130.57 26.7 120.61 26.66C110.98 26.62 102.83 34.65 102.87 44.14C102.91 53.65 110.92 61.62 120.61 61.62C130.58 61.62 137.94 53.65 138.35 44.14C138.4 43.15 136.83 43.15 136.78 44.14Z" fill="#7400B8"/>
<path d="M119.65 55.63V52.8C118 52.77 116.3 52.27 115.31 51.57L115.99 49.7C117.01 50.37 118.49 50.9 120.08 50.9C122.1 50.9 123.46 49.75 123.46 48.16C123.46 46.62 122.35 45.67 120.25 44.83C117.35 43.71 115.57 42.42 115.57 39.99C115.57 37.67 117.25 35.91 119.86 35.49V32.66H121.62V35.37C123.32 35.43 124.49 35.87 125.31 36.35L124.6 38.2C124 37.86 122.84 37.25 121.02 37.25C118.83 37.25 118.01 38.54 118.01 39.66C118.01 41.11 119.06 41.84 121.53 42.85C124.45 44.03 125.93 45.48 125.93 47.97C125.93 50.18 124.37 52.25 121.44 52.73V55.64H119.65V55.63Z" fill="#7400B8"/>
<path d="M267.19 96.92C266.25 88.53 266.82 63.64 274.72 53.79C286.7 38.84 361.24 37.94 392.49 42.31C398.41 43.14 404.47 44.06 409.74 46.85C423.38 54.06 427.72 70.95 430.68 85.92C432.2 93.6 433.72 101.52 432.18 109.2C430.64 116.88 425.29 124.36 417.52 126.03C413.92 126.81 410.16 126.29 406.51 126.79C393.82 128.53 385.83 144.75 392.29 155.65C382.76 152.75 380.67 139.44 371.86 134.85C368.56 133.13 364.71 132.87 360.99 132.69C342.03 131.8 323 132.35 304.12 134.35C297.59 135.04 291.01 135.43 284.51 134.46C267.19 131.87 268.44 108.13 267.19 96.92Z" fill="#F5F5FA"/>
<path d="M268.21 96.92C266.68 81.51 266.71 56.11 283.64 49.18C300.72 42.19 321.2 41.73 339.41 41.2C358.99 40.62 379.6 40.48 398.89 44.34C413.9 47.34 421.86 57.76 426.17 71.6C430.1 84.22 435.11 101.44 429.53 114C427.46 118.65 424 122.81 419 124.58C414.97 126 410.65 125.15 406.51 125.79C402.4 126.42 398.75 128.26 395.78 131.14C389.05 137.69 387.05 147.86 391.4 156.16C391.78 155.67 392.17 155.18 392.55 154.69C381.73 150.64 380.66 136.03 369.01 132.73C362.02 130.75 353.94 131.36 346.74 131.3C337.68 131.22 328.62 131.47 319.58 132.04C306.61 132.87 282.83 139.74 274.17 126.71C268.47 118.14 269.21 106.7 268.21 96.92C268.08 95.65 266.04 95.63 266.17 96.92C267.14 106.39 266.74 116.61 271.09 125.37C276.93 137.13 290.01 136.61 301.66 135.6C321.37 133.9 341.18 132.35 360.98 133.7C366.56 134.08 371.38 134.78 375.4 138.88C377.78 141.3 379.48 144.28 381.37 147.07C384.2 151.23 387.16 154.8 392.02 156.63C392.91 156.96 393.54 155.86 393.17 155.16C389.48 148.13 390.93 139.71 396.11 133.75C401.88 127.12 408.93 128.48 416.71 127.17C427.59 125.34 433.18 114.58 433.78 104.57C434.53 92.1 430.89 77.34 426.28 65.76C422.43 56.08 416.14 47.74 405.93 44.11C396.21 40.65 384.77 40.24 374.51 39.64C363.12 38.98 351.69 38.86 340.29 39.17C321.44 39.69 299.73 40.08 282.14 47.65C264.83 55.1 264.61 81.06 266.18 96.92C266.3 98.19 268.34 98.21 268.21 96.92Z" fill="#7400B8"/>
<path d="M515.037 41.9716C515.417 35.2816 513.877 15.5916 507.197 8.12162C497.057 -3.21838 437.967 -0.778375 413.397 4.00163C408.737 4.91162 403.987 5.89162 399.927 8.32162C389.437 14.6116 386.737 28.1716 385.037 40.1616C384.167 46.3116 383.307 52.6516 384.857 58.6716C386.407 64.6916 390.977 70.3916 397.197 71.3916C400.087 71.8516 403.037 71.2816 405.957 71.5316C416.087 72.3716 423.117 84.8816 418.477 93.7916C425.897 91.0916 426.977 80.4616 433.757 76.4516C436.297 74.9516 439.337 74.5816 442.277 74.2816C457.257 72.7716 472.357 72.4116 487.397 73.1916C492.597 73.4616 497.827 73.4916 502.937 72.4516C516.557 69.6616 514.537 50.9116 515.037 41.9716Z" fill="#7400B8"/>
</svg>
