<svg width="615" height="511" viewBox="0 0 615 511" fill="none" xmlns="http://www.w3.org/2000/svg">
<path d="M282.178 495.47C391.497 495.47 480.118 478.533 480.118 457.64C480.118 436.747 391.497 419.81 282.178 419.81C172.858 419.81 84.2376 436.747 84.2376 457.64C84.2376 478.533 172.858 495.47 282.178 495.47Z" fill="#D1E3E8"/>
<path d="M179.338 379.85C189.578 365.66 197.088 349.57 201.338 332.69C203.588 323.78 204.758 313.73 199.778 305.96C194.798 298.19 181.388 295.68 176.408 303.44C160.548 279.35 183.528 244.22 168.548 219.59C167.388 217.68 165.848 215.78 163.648 215.23C154.608 212.99 153.498 233.36 144.308 231.81C140.508 231.17 138.768 226.89 137.648 223.27C132.238 205.87 125.118 188.97 116.418 172.91C113.608 167.72 110.248 162.27 104.718 160C99.1877 157.73 91.2177 160.76 91.0077 166.64C90.9077 169.48 92.5777 172.16 92.5577 175C92.5177 181.42 83.7477 184.71 77.6777 182.32C71.6077 179.93 67.7077 174.24 63.6677 169.19C53.9377 157.04 35.2877 146.92 23.4577 157.12C13.2577 165.91 17.3577 182.67 25.4977 193.33C33.6377 203.99 45.1377 212.76 49.1877 225.48C36.2177 223.43 18.2077 224.65 16.0477 237.37C14.7377 245.08 20.9477 252.07 27.5277 256.48C49.6077 271.28 81.7277 273.19 95.8577 295.47C89.4177 302.71 75.3877 298.81 69.4377 306.45C65.0777 312.05 68.3177 320.65 74.0377 324.91C79.7477 329.17 87.1177 330.46 94.0077 332.45C104.118 335.38 113.698 340.1 122.128 346.31C123.788 347.53 125.498 348.93 126.098 350.89C128.878 359.91 107.368 365.13 112.808 372.9C134.118 378.06 156.098 380.57 178.048 380.33" fill="#D1EAF6"/>
<path d="M184.498 403.71C175.188 345.45 150.018 290.18 112.718 244.51C101.888 231.25 90.0476 218.87 77.3276 207.41C76.0576 206.27 74.1676 208.14 75.4476 209.29C119.388 248.89 152.548 300.02 170.528 356.4C175.538 372.1 179.318 388.15 181.918 404.42C182.208 406.1 184.768 405.39 184.498 403.71Z" fill="#7400B8"/>
<path d="M174.048 394.76C160.328 404.13 139.328 400.9 129.188 387.86C125.008 382.48 122.368 375.63 116.568 371.96C108.258 366.7 97.3876 370.12 87.9176 372.92C78.4476 375.72 66.4176 377.01 60.3076 369.38C55.3376 363.18 56.5876 353.38 50.7676 347.93C46.1476 343.6 38.9876 343.78 32.6076 343.61C18.3176 343.23 1.10764 336.51 0.047645 322.52C-0.592355 314.08 5.30764 306.41 12.1876 301.31C26.4776 290.72 49.6376 289.2 60.5276 303.15C67.5676 312.16 70.4676 327.24 82.0176 328.03C86.5076 328.34 90.6976 326.05 95.0576 324.96C107.578 321.83 121.868 330.33 124.828 342.68C126.208 348.42 127.308 356.53 133.318 356.62C135.758 356.66 137.878 355.09 140.158 354.24C149.818 350.65 159.148 360.15 164.048 369.08C169.008 378.11 172.828 387.74 175.408 397.68" fill="#FCB4EE"/>
<path d="M197.498 418.65C183.978 400.97 166.308 386.57 148.068 374.01C127.248 359.68 104.738 347.48 81.0976 338.51C68.8176 333.85 56.1576 330.11 43.1676 328.1C41.8976 327.9 41.3476 329.85 42.6276 330.05C65.8376 333.64 88.1277 342.51 108.968 353.11C130.838 364.23 151.768 377.69 170.438 393.64C179.648 401.51 188.388 410.05 195.758 419.69C196.538 420.68 198.288 419.68 197.498 418.65Z" fill="#7400B8"/>
<path d="M392.628 426.21C416.688 420.93 435.658 399.5 438.478 375.06C439.198 368.8 438.678 362.61 437.268 356.49C435.328 348.04 431.898 339.59 432.298 330.78C433.018 315.14 447.058 305.59 459.298 298.41C470.588 291.78 482.478 285.57 490.318 274.67C497.918 264.11 497.528 252.55 491.148 241.55C487.788 235.75 483.408 230.37 481.148 223.99C478.428 216.33 480.718 209.06 485.238 202.63C489.408 196.7 494.838 191.8 499.318 186.11C503.488 180.81 507.098 175.07 509.878 168.92C514.858 157.92 517.698 144.89 513.148 133.25C508.608 121.62 497.648 114.67 485.698 112.56C460.168 108.05 431.898 120.43 416.758 141.21C409.648 150.96 405.738 162.98 407.348 175.07C409.238 189.23 417.758 201.91 418.678 216.21C419.188 224.11 416.018 230.78 409.438 235.26C403.878 239.05 397.398 241.23 392.058 245.39C383.038 252.43 377.458 263.23 375.988 274.49C374.338 287.14 378.428 297.44 385.428 307.69C389.248 313.28 396.238 322.73 389.428 328.64C384.688 332.76 377.878 333.01 373.258 337.74C365.628 345.55 364.798 357.55 366.098 367.82C367.868 381.85 373.908 395.46 380.068 408.05C383.848 415.79 388.118 423.26 392.768 430.51C393.978 432.39 396.988 430.65 395.778 428.75C386.878 414.87 379.468 400.09 373.918 384.55C369.968 373.49 367.038 360.79 370.568 349.22C372.298 343.57 375.888 338.84 381.268 336.26C386.398 333.8 392.608 332.83 394.998 326.91C399.328 316.18 387.028 305.75 382.808 297.09C377.398 285.98 378.048 272.47 383.438 261.49C386.148 255.97 390.138 251 395.128 247.37C400.518 243.46 406.968 241.35 412.348 237.42C435.388 220.59 410.848 191.3 410.438 170.23C409.908 142.83 436.598 122.07 461.208 116.68C474.548 113.76 490.968 114.13 501.908 123.36C512.748 132.51 513.608 147.01 509.658 159.76C505.418 173.43 496.738 183.71 487.488 194.25C479.718 203.11 473.588 213.5 477.998 225.46C482.178 236.79 493.448 245.97 492.758 258.84C492.018 272.81 478.608 282.99 467.638 289.55C457.068 295.88 445.508 301.33 437.238 310.76C428.438 320.79 427.568 332.52 430.678 345.1C432.508 352.48 435.028 359.72 435.298 367.39C435.518 373.62 434.488 379.83 432.488 385.73C428.368 397.89 419.928 408.67 409.138 415.62C403.778 419.07 397.908 421.44 391.678 422.81C389.508 423.33 390.438 426.69 392.628 426.21Z" fill="#7400B8"/>
<path d="M392.568 443.94C406.018 375.32 410.238 303.8 436.638 238.36C444.078 219.92 453.428 202.29 464.808 185.97C466.098 184.13 463.078 182.38 461.798 184.21C420.958 242.72 410.098 314.63 399.328 383.53C396.218 403.4 393.078 423.27 389.208 443.01C388.778 445.2 392.138 446.14 392.568 443.94Z" fill="#7400B8"/>
<path d="M408.718 413.02C404.688 379.81 417.698 345.95 439.418 320.19C461.148 294.43 490.928 276.15 522.368 263.26C539.668 256.17 558.458 250.5 576.958 253.51C595.448 256.52 613.228 270.52 614.708 288.86C616.078 305.73 603.938 320.83 590.438 331.36C555.828 358.35 510.138 367.06 471.798 388.64C452.098 399.73 433.918 414.4 411.928 419.99" fill="#EDFFC6"/>
<path d="M394.728 448.68C420.658 396.43 460.898 351.76 509.838 320.06C523.698 311.08 538.228 303.19 553.278 296.39C555.318 295.47 553.548 292.46 551.518 293.38C497.938 317.62 451.158 356.19 417.188 404.2C407.598 417.75 399.108 432.04 391.728 446.91C390.728 448.92 393.728 450.69 394.728 448.68Z" fill="white"/>
<path d="M183.308 83.83H377.878C391.828 83.83 403.248 95.25 403.248 109.2V431.83C403.248 445.78 391.828 457.2 377.878 457.2H183.308C169.358 457.2 157.938 445.78 157.938 431.83V109.2C157.938 95.25 169.358 83.83 183.308 83.83Z" fill="#7400B8"/>
<path d="M191.928 101.13H369.258C378.518 101.13 386.098 108.71 386.098 117.97V414.33C386.098 423.59 378.518 431.17 369.258 431.17H191.928C182.668 431.17 175.088 423.59 175.088 414.33V117.97C175.088 108.71 182.668 101.13 191.928 101.13Z" fill="white"/>
<path d="M262.558 149.72H204.418V206.78H262.558V149.72Z" fill="#D1EAF6"/>
<path d="M349.608 149.72H291.468V206.78H349.608V149.72Z" fill="#FCB4EE"/>
<path d="M349.608 237.63H291.468V294.69H349.608V237.63Z" fill="#D1EAF6"/>
<path d="M262.378 237.63H204.238V294.69H262.378V237.63Z" stroke="#123A44" stroke-width="0.6021" stroke-miterlimit="10"/>
<path d="M316.148 365.47H235.818V371.01H316.148V365.47Z" fill="#7400B8"/>
<path d="M316.148 384.75H235.818V390.29H316.148V384.75Z" fill="#7400B8"/>
<path d="M316.148 404.02H235.818V409.56H316.148V404.02Z" fill="#7400B8"/>
<path d="M189.508 66.08C185.098 66.85 180.708 67.79 176.378 68.9C175.618 69.09 174.778 69.35 174.388 70.02C173.958 70.76 174.278 71.75 174.908 72.33C175.538 72.92 176.408 73.18 177.248 73.4C181.388 74.44 185.768 74.57 189.958 73.78C190.188 73.74 190.428 73.68 190.608 73.53C190.898 73.28 190.908 72.86 190.888 72.48C190.778 70.27 190.318 68.08 189.508 66.01V66.08Z" fill="#FCB4EE"/>
<path d="M316.658 97.19C316.708 97.07 316.468 97 316.398 97.11C316.318 97.22 316.368 97.37 316.428 97.49C317.188 99.21 318.408 100.69 319.348 102.33C320.278 103.97 320.918 105.92 320.338 107.71C320.188 108.18 319.938 108.64 319.528 108.92C318.618 109.53 317.378 109.01 316.468 108.41C313.548 106.49 311.238 103.71 309.928 100.52C312.418 99.25 314.818 97.83 317.128 96.27L316.658 97.19Z" fill="#FCB4EE"/>
<path d="M242.018 77.9701C242.728 81.9001 243.448 85.8401 244.158 89.7701C244.258 90.3101 244.398 90.9101 244.938 91.2101C245.398 91.4701 245.998 91.4201 246.558 91.4001C259.088 90.9501 271.228 91.2001 283.598 91.4301C284.048 91.4401 284.578 90.3601 284.888 90.1001C285.138 89.8901 285.188 89.5801 285.228 89.2901C285.828 84.8001 285.578 80.2401 284.508 75.8101C270.378 76.0401 256.248 76.7601 242.188 77.9401L242.018 77.9701Z" fill="#EDFFC6"/>
<path d="M259.018 2.66006C258.118 4.76006 258.128 6.43007 258.118 8.70007C258.108 10.9301 258.878 13.0401 260.528 14.2601C262.748 15.8801 265.038 14.8501 266.468 13.2001C267.898 11.5501 268.248 9.23007 268.008 7.08007C267.768 4.90007 266.848 2.61006 264.888 1.55006C262.938 0.480064 259.368 0.500064 259.018 2.66006Z" fill="#FCB4EE"/>
<path d="M258.378 8.83004C257.938 8.53004 257.108 8.76004 256.718 9.13004C256.338 9.50004 256.268 10.14 256.568 10.58C257.088 11.34 258.228 11.23 259.138 11.04C259.018 10.26 258.758 9.51004 258.378 8.83004Z" fill="#FCB4EE"/>
<path d="M267.818 8.83004C268.258 8.53004 269.098 8.76004 269.478 9.13004C269.858 9.50004 269.928 10.14 269.628 10.58C269.108 11.34 267.968 11.23 267.058 11.04C267.168 10.26 267.428 9.51004 267.818 8.83004Z" fill="#FCB4EE"/>
<path d="M267.938 6.22004C268.328 8.40004 268.008 10.77 267.418 12.91C267.188 12.88 266.968 12.91 266.698 12.91C267.188 10.55 267.378 7.97004 266.818 5.62004C266.738 6.34004 265.758 6.57004 265.018 6.45004C264.288 6.33004 263.478 6.05003 262.838 6.42003C262.098 6.85003 261.828 8.05004 260.958 8.05004C260.628 8.05004 260.308 7.85004 259.978 7.87004C259.218 7.90004 258.938 8.92004 258.238 9.22004C257.478 9.55004 256.638 8.88004 256.258 8.15004C255.668 7.00004 255.668 5.62004 256.108 4.41004C256.548 3.20004 257.398 2.16004 258.408 1.34004C258.918 0.920037 259.488 0.560037 260.108 0.320037C261.888 -0.369963 264.018 0.110038 265.478 1.31004C266.958 2.51004 267.778 4.36004 267.938 6.22004Z" fill="#7400B8"/>
<path d="M257.758 8.22004C257.878 9.78004 258.448 11.53 258.898 13.04C259.148 13 259.798 12.98 259.618 13.02C259.528 13.04 259.228 11.75 259.138 11.39C258.808 10 258.838 8.47004 258.798 7.04004L257.758 8.22004Z" fill="#7400B8"/>
<path d="M262.018 14.2701C262.108 15.7501 262.198 17.23 262.288 18.7C259.528 19.76 250.558 22.38 250.108 23.78C249.538 25.55 249.878 27.9601 249.928 29.2301C254.598 29.4601 259.888 28.79 264.548 29.02C269.028 29.24 273.558 29.4601 277.978 28.6901C278.208 27.4601 277.678 24.64 276.898 23.53C275.808 21.98 266.268 19.04 264.458 18.81C264.468 17.21 264.268 15.5901 264.278 13.9901C263.798 14.0001 262.518 14 262.048 14.01L262.018 14.2701Z" fill="#FCB4EE"/>
<path d="M261.028 18.85C261.198 19.9 262.308 20.62 263.388 20.56C264.578 20.49 265.498 19.87 265.648 18.93C266.748 19.03 281.378 23.84 281.828 24.41C283.438 26.48 286.108 76.8 286.298 79.73C284.248 80.2 245.108 80.01 242.018 79.72C240.458 40.05 244.518 24.99 244.518 24.99C247.008 22.47 258.368 19.64 261.028 18.85Z" fill="#EDFFC6"/>
<path d="M263.338 152.03C263.068 153.86 262.798 155.7 262.528 157.53C262.488 157.81 262.438 158.1 262.278 158.33C262.088 158.6 261.768 158.75 261.458 158.89C256.628 161.06 251.798 163.22 246.968 165.39C248.288 162.76 248.968 159.83 248.978 156.9C251.478 154.83 253.668 152.4 255.458 149.73C257.888 150.59 260.418 151.2 262.988 151.53L263.338 152.03Z" fill="#EDFFC6"/>
<path d="M255.238 144.88C261.088 124.55 268.368 104.61 277.028 85.26C277.798 83.53 278.818 81.92 280.178 80.58C282.368 78.42 284.308 77.24 287.908 77.2C291.538 77.17 295.228 79.72 297.728 82.29C299.878 84.51 300.378 87.89 299.778 90.89C299.178 93.89 297.638 96.62 296.108 99.29C285.698 117.54 275.288 135.8 264.868 154.05C261.078 152.78 257.148 151.88 253.178 151.37C254.218 147.74 255.338 144.13 256.518 140.54L255.238 144.88Z" fill="#7400B8"/>
<path d="M261.578 152.03C261.848 153.86 262.118 155.7 262.388 157.53C262.428 157.81 262.478 158.1 262.638 158.33C262.828 158.6 263.148 158.75 263.458 158.89C268.288 161.06 273.118 163.22 277.948 165.39C276.628 162.76 275.948 159.83 275.938 156.9C273.438 154.83 271.248 152.4 269.458 149.73C267.028 150.59 264.498 151.2 261.928 151.53L261.578 152.03Z" fill="#EDFFC6"/>
<path d="M269.788 144.21C263.948 123.88 256.658 103.94 247.998 84.59C247.228 82.86 246.238 81.22 244.848 79.91C242.688 77.87 238.958 77.11 236.378 77.22C232.748 77.37 229.798 79.0501 227.308 81.6301C225.158 83.85 224.658 87.23 225.258 90.23C225.858 93.23 227.398 95.9601 228.928 98.6301C239.338 116.88 249.748 135.14 260.168 153.39C263.958 152.12 267.878 151.22 271.858 150.71C270.818 147.08 269.698 143.47 268.518 139.88L269.788 144.21Z" fill="#7400B8"/>
<path d="M244.518 24.98C239.798 30.51 235.918 35.59 231.568 41.4C217.298 60.42 190.598 64.87 186.338 65.66C187.528 69.21 188.018 72.99 187.758 76.72C193.228 78.85 225.008 73.54 240.638 52.73C241.098 52.12 241.678 51.57 241.928 50.84C242.138 50.21 242.118 49.54 242.088 48.88C241.808 41.6 244.798 32.28 244.518 24.98Z" fill="#EDFFC6"/>
<path d="M281.238 24.42C283.158 24.04 287.158 27.12 288.938 29.07C291.578 31.98 293.478 35.4501 295.168 38.9801C297.108 43.0401 298.788 47.21 300.198 51.47C302.738 59.12 313.078 89.83 318.788 95.62C315.588 98.27 312.168 100.65 308.568 102.73C300.678 95.06 284.618 49.32 284.198 48.22C283.898 47.42 283.798 46.56 283.698 45.71C282.878 38.62 282.058 31.52 281.238 24.42Z" fill="#EDFFC6"/>
<path d="M330.398 289.78C330.398 313.49 330.398 337.19 330.398 360.9C330.398 398.51 330.398 436.12 330.398 473.73C330.398 482.41 330.398 491.08 330.398 499.76C330.398 500.69 331.838 500.69 331.838 499.76C331.838 476.05 331.838 452.35 331.838 428.64C331.838 391.03 331.838 353.42 331.838 315.81C331.838 307.13 331.838 298.46 331.838 289.78C331.848 288.85 330.398 288.85 330.398 289.78Z" fill="#7400B8"/>
<path d="M387.478 289.78C387.478 313.49 387.478 337.19 387.478 360.9C387.478 398.51 387.478 436.12 387.478 473.73C387.478 482.41 387.478 491.08 387.478 499.76C387.478 500.69 388.918 500.69 388.918 499.76C388.918 476.05 388.918 452.35 388.918 428.64C388.918 391.03 388.918 353.42 388.918 315.81C388.918 307.13 388.918 298.46 388.918 289.78C388.928 288.85 387.478 288.85 387.478 289.78Z" fill="#7400B8"/>
<path d="M331.128 308.64C350.158 308.64 369.178 308.64 388.208 308.64C389.138 308.64 389.138 307.2 388.208 307.2C369.178 307.2 350.158 307.2 331.128 307.2C330.198 307.19 330.198 308.64 331.128 308.64Z" fill="#7400B8"/>
<path d="M331.128 338.14C350.158 338.14 369.178 338.14 388.208 338.14C389.138 338.14 389.138 336.7 388.208 336.7C369.178 336.7 350.158 336.7 331.128 336.7C330.198 336.7 330.198 338.14 331.128 338.14Z" fill="#7400B8"/>
<path d="M331.128 374.46C350.158 374.46 369.178 374.46 388.208 374.46C389.138 374.46 389.138 373.02 388.208 373.02C369.178 373.02 350.158 373.02 331.128 373.02C330.198 373.01 330.198 374.46 331.128 374.46Z" fill="#7400B8"/>
<path d="M331.128 410.77C350.158 410.77 369.178 410.77 388.208 410.77C389.138 410.77 389.138 409.33 388.208 409.33C369.178 409.33 350.158 409.33 331.128 409.33C330.198 409.32 330.198 410.77 331.128 410.77Z" fill="#7400B8"/>
<path d="M331.128 443.2C350.158 443.2 369.178 443.2 388.208 443.2C389.138 443.2 389.138 441.76 388.208 441.76C369.178 441.76 350.158 441.76 331.128 441.76C330.198 441.76 330.198 443.2 331.128 443.2Z" fill="#7400B8"/>
<path d="M331.128 477.43C350.158 477.43 369.178 477.43 388.208 477.43C389.138 477.43 389.138 475.99 388.208 475.99C369.178 475.99 350.158 475.99 331.128 475.99C330.198 475.98 330.198 477.43 331.128 477.43Z" fill="#7400B8"/>
<path d="M352.538 219.37C352.578 222.09 352.618 224.81 352.648 227.53C352.648 227.73 352.648 227.95 352.548 228.12C352.418 228.35 352.158 228.45 351.908 228.54C348.518 229.78 345.128 231.02 341.738 232.25C351.348 236.24 358.458 236.24 365.998 232.12C362.758 231.35 359.248 228.53 356.058 227.57C355.438 227.38 356.788 228.67 356.398 228.14C356.058 227.67 355.998 227.06 355.948 226.47C355.738 224.02 355.538 221.58 355.328 219.13" fill="#FCB4EE"/>
<path d="M336.068 317.64C342.538 342.36 343.258 368.02 346.448 393.4C346.518 393.96 347.148 394.69 347.568 395.06C347.958 395.4 348.508 395.43 349.018 395.44C350.548 395.48 351.728 394.72 353.258 394.76C355.198 384.16 355.878 353.55 356.148 349.51C356.918 337.71 357.688 325.9 358.458 314.1C351.328 315.04 344.208 315.98 337.078 316.92" fill="#FCB4EE"/>
<path d="M359.668 314.66C362.368 341.6 365.078 368.54 367.778 395.48C370.028 396.11 372.058 395.88 374.358 395.44C376.208 367.45 378.408 339.8 380.258 311.81C373.548 313.67 366.648 314.78 359.718 315.13" fill="#FCB4EE"/>
<path d="M346.218 392.24C343.978 392.13 342.048 392.17 339.828 392.4C339.548 393.05 340.188 393.71 340.768 394.1C343.918 396.18 347.638 397.37 351.388 397.48C351.808 397.49 352.258 397.49 352.628 397.26C353.108 396.97 353.328 396.38 353.468 395.82C353.788 394.59 353.918 393.32 353.858 392.05C352.058 394.39 348.128 394.49 346.218 392.24Z" fill="#7400B8"/>
<path d="M374.958 392.24C377.188 392.13 379.128 392.17 381.348 392.4C381.628 393.05 380.988 393.71 380.408 394.1C377.258 396.18 373.538 397.37 369.788 397.48C369.368 397.49 368.918 397.49 368.548 397.26C368.068 396.97 367.848 396.38 367.708 395.82C367.388 394.59 367.258 393.32 367.318 392.05C369.108 394.39 373.048 394.49 374.958 392.24Z" fill="#7400B8"/>
<path d="M343.838 260.72C335.768 277.27 329.368 314.39 329.728 330.97C347.268 336.34 374.358 336.34 388.348 329.11C386.358 311.73 375.598 275.24 365.418 260.4C356.058 260.7 353.198 260.42 343.838 260.72Z" fill="#EDFFC6"/>
<path d="M404.208 199.45C403.238 198.89 399.568 198.41 399.548 198.09C399.238 191.07 397.938 190.27 396.858 191.47C395.878 192.56 396.508 196.96 396.588 198.79C395.698 198.89 394.718 199.12 394.348 199.94C394.078 200.52 394.238 201.21 394.398 201.83C394.868 203.55 395.428 205.24 396.078 206.9C396.118 207.43 396.158 207.97 396.208 208.5L396.158 208.62C396.378 208.71 396.598 208.78 396.818 208.82L396.898 208.9C396.888 208.88 396.878 208.85 396.868 208.83C397.548 208.95 398.268 208.9 398.968 208.83C400.448 208.7 401.928 208.56 403.408 208.43C403.658 208.41 403.928 208.37 404.098 208.19C404.228 208.05 404.278 207.86 404.318 207.67C404.688 206.08 404.948 204.46 405.138 202.83C405.308 201.58 405.268 200.06 404.208 199.45Z" fill="#FCB4EE"/>
<path d="M342.828 234.24C337.908 237.46 331.068 252.24 323.628 258.63C323.158 259.03 322.618 259.45 322.008 259.38C321.078 259.28 320.658 258.16 320.438 257.22C318.168 247.48 318.448 237.57 317.518 227.6C315.188 228.95 309.068 231.57 308.718 232.41C308.468 232.99 309.018 252.59 311.088 261.07C312.238 265.81 313.598 270.88 317.268 273.99C318.258 274.83 319.448 275.51 320.738 275.59C322.508 275.7 324.148 274.66 325.568 273.57C331.948 268.67 337.548 261.93 342.198 255.29" fill="#F5F5FA"/>
<path d="M342.648 233.95C336.678 238.3 333.328 246.35 328.968 252.15C327.908 253.56 325.928 256.91 324.198 257.65C319.148 259.82 319.378 249.18 319.158 246.85C318.528 240.45 318.408 234.01 317.858 227.6C317.838 227.34 317.588 227.17 317.348 227.31C315.108 228.54 310.108 229.74 308.708 231.9C308.078 232.86 308.318 234.06 308.338 235.21C308.448 242.8 308.868 250.53 310.128 258.02C311.048 263.47 313.598 276.43 321.378 275.88C325.208 275.61 328.818 271.43 331.328 268.96C335.488 264.85 339.108 260.24 342.488 255.47C342.738 255.11 342.148 254.77 341.898 255.13C338.548 259.85 326.238 278.39 318.488 274.48C312.058 271.24 310.868 259.49 310.148 253.11C309.568 247.97 309.248 242.79 309.078 237.62C309.038 236.46 308.488 233.82 309.018 232.75C309.888 231 313.548 230.03 315.128 229.24C317.488 228.07 317.138 228.56 317.458 231.14C317.668 232.87 317.678 234.66 317.778 236.4C318.038 241.05 318.258 245.72 318.868 250.34C319.118 252.23 319.038 259.53 322.098 259.73C325.478 259.95 330.268 251.61 331.878 249.28C335.228 244.44 338.178 238.07 342.998 234.55C343.348 234.28 343.008 233.69 342.648 233.95Z" fill="#7400B8"/>
<path d="M342.868 234.37L343.198 234.14C343.088 234.21 342.978 234.29 342.868 234.37Z" fill="#F5F5FA"/>
<path d="M343.038 234.67C343.148 234.59 343.258 234.51 343.368 234.44C343.718 234.19 343.398 233.61 343.028 233.85C342.918 233.92 342.808 234 342.698 234.08C342.358 234.34 342.688 234.93 343.038 234.67C343.148 234.59 343.258 234.51 343.368 234.44C343.258 234.24 343.138 234.05 343.028 233.85C342.918 233.93 342.808 234.01 342.698 234.08C342.348 234.33 342.688 234.92 343.038 234.67Z" fill="#7400B8"/>
<path d="M342.858 234.38C342.868 234.37 342.868 234.37 342.878 234.37L342.858 234.38Z" fill="#F5F5FA"/>
<path d="M343.028 234.68C343.058 234.67 343.088 234.64 343.118 234.62C343.418 234.38 343.018 233.86 342.708 234.09C342.698 234.09 342.698 234.1 342.688 234.1C342.328 234.34 342.668 234.93 343.028 234.68C343.038 234.68 343.038 234.67 343.048 234.67C342.908 234.49 342.768 234.31 342.638 234.13C342.658 234.12 342.678 234.1 342.688 234.09C342.288 234.28 342.628 234.87 343.028 234.68Z" fill="#7400B8"/>
<path d="M395.008 208.47C394.608 213.81 389.808 237.98 385.378 243.15C380.438 248.91 375.958 243.36 375.058 242.32C372.598 239.45 367.698 230.73 363.308 232.3C360.188 233.41 360.188 233.41 355.398 233.96C351.178 234.44 342.188 232.42 342.188 232.42C342.188 232.42 340.448 239.23 340.528 241.99C340.698 247.95 341.628 253.88 343.288 259.6C343.408 260.01 343.538 260.43 343.838 260.73C344.228 261.12 344.828 261.2 345.368 261.26C352.048 261.9 358.808 261.62 365.418 260.42C366.298 258.04 366.398 254.02 366.898 251.53C366.928 251.72 372.008 260.93 379.548 261.6C385.288 262.11 390.598 257.83 394.648 252.41C398.708 246.99 401.028 239.92 402.778 233.33C404.968 225.09 406.678 217.04 406.898 208.5C402.938 208.47 398.978 208.47 395.008 208.47Z" fill="#F5F5FA"/>
<path d="M394.668 208.47C394.088 215.03 392.478 221.63 390.818 227.98C389.808 231.86 388.738 235.82 387.088 239.49C386.558 240.67 385.978 241.9 385.138 242.9C382.438 246.11 378.328 245.32 375.768 242.6C372.608 239.25 369.278 231.12 363.638 231.87C359.818 232.38 356.448 233.84 352.408 233.63C349.018 233.45 345.598 232.81 342.288 232.08C342.108 232.04 341.918 232.13 341.868 232.32C339.818 240.45 340.138 248.03 342.058 256.23C343.008 260.28 343.098 261.45 347.198 261.74C353.338 262.18 359.448 261.76 365.508 260.73C365.628 260.71 365.718 260.6 365.748 260.49C366.248 258.81 366.588 257.06 366.728 255.31C366.768 254.87 366.638 251.8 366.648 251.79C366.638 251.8 367.068 252.56 367.128 252.61C368.828 254.19 369.898 256.5 371.698 258.11C376.518 262.42 382.438 263.06 387.898 259.48C394.798 254.96 398.778 247.15 401.298 239.55C404.608 229.56 406.838 219 407.238 208.47C407.248 208.29 407.078 208.13 406.898 208.13C402.938 208.13 398.968 208.12 395.008 208.12C394.568 208.12 394.568 208.8 395.008 208.8C397.578 208.8 405.278 207.33 406.488 210.29C407.138 211.88 406.018 215.72 405.788 217.41C405.458 219.76 405.048 222.09 404.568 224.42C402.938 232.23 400.988 240.4 397.268 247.51C393.718 254.29 386.098 263.56 377.338 260.77C373.158 259.44 369.018 255.32 367.188 251.33C367.068 251.07 366.608 251.13 366.568 251.41C366.208 253.59 366.618 257.5 365.428 259.19C363.408 262.03 354.148 261.28 350.858 261.21C347.858 261.15 344.978 260.64 343.158 257.77C342.358 256.52 342.258 253.99 341.998 252.54C341.288 248.59 340.608 244.34 340.978 240.31C341.158 238.36 341.408 235.41 342.258 233.6C342.408 233.29 342.708 232.5 342.228 232.76C342.578 232.58 344.178 233.16 344.598 233.24C349.168 234.11 353.598 234.62 358.228 233.95C359.658 233.74 360.968 233.26 362.368 232.98C366.518 232.16 368.778 234.66 371.148 237.67C373.108 240.16 374.868 243.5 377.738 245.13C384.468 248.95 387.928 239.79 389.518 234.95C392.298 226.51 394.578 217.33 395.358 208.46C395.388 208.03 394.708 208.03 394.668 208.47Z" fill="#7400B8"/>
<path d="M311.038 230.02C309.968 226.87 309.928 223.37 310.928 220.19C311.548 218.23 312.638 216.31 314.408 215.35C315.168 214.94 316.148 214.74 316.858 215.24C317.508 215.7 317.718 216.57 317.788 217.38C318.098 220.71 316.918 224.02 316.998 227.36C315.068 228.36 313.148 229.37 311.218 230.37" fill="#FCB4EE"/>
<path d="M350.458 206.79C347.628 207.2 345.168 209.47 344.348 212.28C343.528 215.09 344.328 218.3 346.248 220.47C347.338 221.71 348.878 222.9 348.778 224.57C348.648 226.65 345.918 228 346.188 230.07C346.458 232.14 349.418 232.71 350.078 234.68C351.128 237.79 345.678 240.19 346.558 243.35C347.038 245.09 349.238 245.82 349.798 247.53C350.408 249.41 348.788 251.2 348.158 253.07C347.298 255.64 348.518 258.66 350.718 260.19C352.908 261.72 355.858 261.85 358.348 260.91C360.458 260.11 362.348 258.53 363.228 256.4C364.108 254.28 363.848 251.62 362.338 249.91C361.128 248.54 359.198 247.74 358.638 245.99C357.768 243.27 360.898 240.61 360.428 237.78C359.898 234.57 355.018 232.73 355.958 229.62C356.448 228.01 358.448 226.48 357.468 225.14C357.158 224.72 356.638 224.53 356.268 224.16C355.038 222.96 356.018 220.91 356.638 219.29C358.558 214.2 356.698 206.79 350.458 206.79Z" fill="#7400B8"/>
<path d="M210.578 317.82C206.008 339.3 201.428 360.78 196.858 382.26C189.578 416.48 182.288 450.7 175.008 484.92C173.338 492.75 171.678 500.58 170.008 508.41C169.538 510.6 172.898 511.53 173.368 509.34C177.938 487.86 182.518 466.38 187.088 444.9C194.368 410.68 201.658 376.46 208.938 342.24C210.608 334.41 212.268 326.58 213.938 318.75C214.398 316.56 211.038 315.63 210.578 317.82Z" fill="#7400B8"/>
<path d="M151.928 317.82C147.358 339.3 142.778 360.78 138.208 382.26C130.928 416.48 123.638 450.7 116.358 484.92C114.688 492.75 113.028 500.58 111.358 508.41C110.888 510.6 114.248 511.53 114.718 509.34C119.288 487.86 123.868 466.38 128.438 444.9C135.718 410.68 143.008 376.46 150.288 342.24C151.958 334.41 153.618 326.58 155.288 318.75C155.758 316.56 152.398 315.63 151.928 317.82Z" fill="#7400B8"/>
<path d="M206.978 342.14C187.508 341.75 168.038 341.36 148.568 340.98C146.328 340.94 146.328 344.42 148.568 344.46C168.038 344.85 187.508 345.24 206.978 345.62C209.228 345.66 209.228 342.18 206.978 342.14Z" fill="#7400B8"/>
<path d="M200.858 372.6C181.388 372.21 161.918 371.82 142.448 371.44C140.208 371.4 140.208 374.88 142.448 374.92C161.918 375.31 181.388 375.7 200.858 376.08C203.098 376.13 203.098 372.64 200.858 372.6Z" fill="#7400B8"/>
<path d="M193.078 411.04C173.608 410.65 154.138 410.26 134.668 409.88C132.428 409.84 132.428 413.32 134.668 413.36C154.138 413.75 173.608 414.14 193.078 414.52C195.318 414.56 195.318 411.08 193.078 411.04Z" fill="#7400B8"/>
<path d="M185.358 446.42C165.888 446.03 146.418 445.64 126.948 445.26C124.708 445.22 124.708 448.7 126.948 448.74C146.418 449.13 165.888 449.52 185.358 449.9C187.608 449.95 187.608 446.47 185.358 446.42Z" fill="#7400B8"/>
<path d="M177.778 481.81C158.308 481.42 138.838 481.03 119.368 480.65C117.128 480.61 117.128 484.09 119.368 484.13C138.838 484.52 158.308 484.91 177.778 485.29C180.018 485.34 180.018 481.85 177.778 481.81Z" fill="#7400B8"/>
<path d="M174.668 280.05C177.168 286.75 183.668 300.9 194.208 300.9C200.648 300.9 205.798 283.07 206.038 273.16C210.338 275.25 215.128 276.42 219.948 276.57C218.538 287.26 216.928 298.46 210.308 307.18C209.048 308.84 207.618 310.38 206.158 311.89C204.698 313.38 203.188 314.85 201.378 315.94C197.138 318.49 191.658 318.64 186.858 317.24C182.058 315.84 177.838 313.06 173.948 310.03C173.708 309.84 173.468 309.65 173.338 309.38C173.188 309.07 173.218 308.72 173.258 308.38C174.208 298.92 173.328 289.58 174.268 280.12" fill="#EDFFC6"/>
<path d="M181.758 365.52C178.358 391.37 175.928 417.37 174.488 443.44C176.898 444.24 179.308 445.04 181.718 445.84C174.738 445.49 172.558 445.39 165.568 445.04C165.768 418.56 162.028 391.86 163.978 365.47" fill="#FCB4EE"/>
<path d="M166.698 365.26C155.208 387.28 147.898 417.02 140.978 441.28C143.558 443.66 143.298 442.94 145.408 445.83C139.688 444.87 138.648 444.38 132.898 442.13C137.718 416.69 138.948 383.81 143.758 358.37C151.848 361.08 159.948 363.79 168.038 366.5" fill="#FCB4EE"/>
<path d="M176.998 265.75C179.398 264.51 180.178 261.29 179.738 258.72C179.308 256.14 177.348 253.92 174.888 252.79C172.428 251.66 169.548 251.55 166.898 252.17C165.638 252.47 164.408 252.93 163.388 253.69C161.328 255.23 159.748 258.08 159.128 260.51C158.578 262.68 158.868 264.62 159.368 266.8C159.868 268.98 161.388 271.06 163.618 271.73C165.168 272.2 166.888 271.95 168.388 271.34C169.888 270.74 171.218 269.81 172.528 268.88C174.018 267.84 175.508 266.8 176.998 265.75Z" fill="#7400B8"/>
<path d="M159.958 264.52C159.688 263.96 158.978 263.74 158.328 263.7C156.868 263.59 155.378 264.06 154.268 264.98C153.168 265.9 152.468 267.25 152.368 268.64C152.318 269.32 152.418 270.02 152.718 270.64C153.548 272.38 155.388 273.8 157.378 273.95C158.478 274.03 159.588 274.36 161.128 273.34C162.038 272.74 162.918 271.79 163.278 270.78C163.518 270.09 163.498 269.34 163.338 268.63C162.878 266.51 161.278 264.65 159.198 263.82C159.168 263.81 159.138 263.79 159.098 263.78" fill="#7400B8"/>
<path d="M166.258 258.81C165.858 256.61 168.708 255.57 171.028 255.4C173.348 255.24 174.848 255.6 176.038 257.52C177.228 259.44 177.528 261.75 177.488 263.98C177.438 266.78 176.638 269.92 174.108 271.34C171.048 273.05 166.818 271.12 165.328 268.06C163.818 264.98 164.798 261.89 166.258 258.81Z" fill="#FCB4EE"/>
<path d="M170.048 270.37C170.238 271.79 170.228 274.71 170.418 276.13C170.478 276.59 172.358 278.17 172.698 278.45C175.678 280.92 176.378 284.63 177.488 288.38C171.298 288.64 169.498 286.05 163.318 285.58C164.118 282.61 165.368 279.14 166.568 276.3C167.428 274.26 167.928 270.78 167.928 270.78C168.038 270.57 168.228 270.33 168.468 270.38C168.708 270.43 168.488 270.89 168.358 270.69" fill="#FCB4EE"/>
<path d="M177.858 258.37C177.508 259.2 175.828 259.94 174.928 260.2C174.028 260.46 173.078 260.55 172.148 260.61C166.858 260.94 165.568 265.4 165.068 269.37C163.828 267.69 161.228 261.95 163.298 258.62C164.848 256.13 166.998 254.47 169.978 253.94C172.948 253.43 177.918 254.18 177.858 258.37Z" fill="#7400B8"/>
<path d="M167.218 265.27C166.998 264.57 166.088 264.17 165.358 264.42C164.638 264.67 164.198 265.47 164.328 266.2C164.508 267.22 165.818 267.9 166.818 267.49" fill="#FCB4EE"/>
<path d="M174.308 263.62C174.168 264.77 174.318 265.9 174.728 266.98C174.798 266.82 174.858 266.65 174.928 266.49C174.698 266.66 174.528 266.73 174.228 266.72C173.668 266.7 173.668 267.57 174.228 267.59C174.658 267.6 175.018 267.5 175.368 267.25C175.508 267.14 175.638 266.95 175.568 266.76C175.178 265.74 175.048 264.72 175.178 263.63C175.248 263.07 174.368 263.07 174.308 263.62Z" fill="#7400B8"/>
<path d="M176.498 264.02C176.428 264.2 176.268 264.06 176.228 263.97C175.968 263.47 175.208 263.91 175.468 264.41C175.908 265.25 177.018 265.08 177.338 264.25C177.538 263.72 176.698 263.5 176.498 264.02Z" fill="#7400B8"/>
<path d="M173.188 264.36C173.208 264.38 173.238 264.39 173.258 264.41C173.188 264.28 173.118 264.16 173.038 264.03C173.038 264.34 172.478 264.39 172.298 264.34C171.998 264.25 171.828 264.02 171.718 263.75C171.498 263.23 170.748 263.68 170.968 264.19C171.278 264.92 172.088 265.4 172.878 265.19C173.508 265.02 174.378 264.15 173.638 263.6C173.178 263.27 172.748 264.02 173.188 264.36Z" fill="#7400B8"/>
<path d="M174.308 268.58C172.738 269.1 171.188 268.68 170.148 267.39C169.798 266.95 169.178 267.57 169.528 268.01C170.738 269.53 172.708 270.04 174.538 269.43C175.068 269.24 174.838 268.4 174.308 268.58Z" fill="#7400B8"/>
<path d="M172.108 277.29C172.438 280.14 173.758 285.47 174.428 288.27C172.498 283.86 168.228 281.04 165.938 276.73C161.148 281.22 160.658 287.4 160.998 293.81C161.338 300.22 159.728 301.99 159.738 308.4C164.898 308.4 174.108 308.66 179.218 308.57C179.868 304.96 180.058 302.41 180.008 296.01C179.978 292.52 179.388 289.03 178.258 285.71C177.108 282.4 175.108 279.25 172.108 277.29C172.508 278.08 172.908 278.87 173.308 279.67L172.108 277.29Z" fill="#EDFFC6"/>
<path d="M171.738 277.68C172.698 282.05 173.598 286.43 174.428 290.83C174.508 291.26 175.168 291.23 175.268 290.83C175.688 289.13 176.108 287.44 176.518 285.74C176.618 285.32 176.958 284.54 176.698 284.06C176.248 283.25 175.558 283.44 175.498 282.22C175.448 281.12 175.708 279.94 175.688 278.82C175.688 278.62 175.548 278.46 175.368 278.4C174.308 278.03 173.338 277.5 172.268 277.15C171.728 276.97 171.508 277.82 172.038 277.99C172.928 278.29 174.438 278.62 174.828 279.66C175.168 280.58 174.608 282.27 174.468 283.18C174.438 283.39 174.488 283.56 174.668 283.67C176.598 284.95 174.878 288.75 174.428 290.6C174.708 290.6 174.988 290.6 175.268 290.6C174.428 286.2 173.538 281.82 172.578 277.45C172.458 276.89 171.618 277.13 171.738 277.68Z" fill="#7400B8"/>
<path d="M174.848 289.59C173.368 284.4 169.438 280.73 166.278 276.53C166.078 276.26 165.718 276.24 165.528 276.53C164.828 277.55 164.308 278.57 163.908 279.73C163.838 279.92 163.958 280.12 164.108 280.22C165.018 280.86 167.768 282.19 168.018 283.16C168.208 283.92 167.848 284.08 167.478 284.82C167.388 284.99 167.398 285.21 167.548 285.35C169.818 287.55 172.218 289.56 174.758 291.43C175.208 291.76 175.648 291 175.198 290.68C173.888 289.72 167.248 285.62 169.398 283.81C169.568 283.67 169.568 283.33 169.398 283.19C168.478 282.41 167.548 281.65 166.588 280.93C165.768 280.31 165.448 280.31 165.368 279.25C165.298 278.25 165.738 277.77 166.288 276.98C166.038 276.98 165.788 276.98 165.538 276.98C168.638 281.11 172.558 284.73 174.018 289.83C174.158 290.36 174.998 290.13 174.848 289.59Z" fill="#7400B8"/>
<path d="M187.378 303.79C193.498 324.65 197.918 356.36 196.628 375.37C190.068 378.33 174.488 378.64 167.268 377.91C151.938 376.36 143.888 371.92 137.098 369.18C138.938 347.11 152.118 321.46 167.508 302.99C172.718 303.06 182.168 303.72 187.378 303.79Z" fill="white"/>
<path d="M186.958 303.9C191.218 318.63 193.868 333.89 195.378 349.13C196.068 356.11 196.518 363.14 196.408 370.16C196.388 371.15 196.708 373.31 196.268 374.26C195.608 375.69 194.368 375.77 192.918 376.13C189.428 377 185.788 377.35 182.208 377.58C168.388 378.46 155.068 376.31 142.318 370.91C140.118 369.98 137.768 369.73 137.768 367.1C137.768 362.99 139.198 358.35 140.288 354.41C142.548 346.18 145.838 338.25 149.748 330.67C153.858 322.7 158.678 315.09 164.118 307.97C166.138 305.33 166.968 303.7 170.268 303.5C172.168 303.38 174.208 303.67 176.098 303.76C179.868 303.94 183.638 304.16 187.408 304.23C187.968 304.24 187.968 303.37 187.408 303.36C183.868 303.29 180.328 303.1 176.788 302.93C174.538 302.82 169.468 301.67 167.368 302.6C165.348 303.5 162.828 308.21 161.508 310.02C158.708 313.85 156.088 317.8 153.658 321.87C145.038 336.27 138.268 352.36 136.698 369.19C136.678 369.4 136.848 369.54 137.018 369.61C146.948 373.67 156.488 377.34 167.308 378.36C176.628 379.24 187.978 379.45 196.778 375.8C196.968 375.72 197.088 375.59 197.098 375.38C198.548 351.64 194.408 326.44 187.828 303.68C187.648 303.13 186.798 303.36 186.958 303.9Z" fill="#7400B8"/>
<path d="M211.128 336.95C214.348 336.42 217.518 335.6 220.578 334.52C221.128 335.38 220.588 336.49 219.948 337.29C219.308 338.09 218.528 338.93 218.578 339.93C220.958 339.45 223.328 338.96 225.708 338.48C226.588 338.3 227.538 338.12 228.368 338.46C229.718 339 230.168 340.74 229.648 342.05C229.138 343.36 227.928 344.3 226.688 345.04C221.568 348.12 215.028 348.93 209.258 347.2C209.378 343.45 210.088 339.71 211.358 336.16" fill="#FCB4EE"/>
<path d="M218.778 276.47C219.518 273.43 220.498 268.07 221.798 265.2C220.938 264.63 219.738 265.08 218.868 265.64C217.998 266.2 218.128 267.01 217.078 266.9C216.848 264.89 217.318 262.31 217.958 260.07C218.198 259.24 218.438 258.34 218.128 257.53C217.638 256.21 215.848 255.68 214.458 256.1C213.058 256.52 212.018 257.62 211.168 258.76C207.668 263.47 207.838 268.87 207.648 274.06C209.878 274.74 215.848 276.69 218.778 276.47Z" fill="#FCB4EE"/>
<path d="M162.948 280.05C151.938 288.04 147.638 303.47 153.018 315.64C156.508 323.54 163.368 329.64 170.738 334.5C182.498 342.25 196.078 347.46 210.178 349.62C210.428 344.57 210.998 339.53 211.898 334.55C198.508 332.89 186.028 325.92 177.478 315.93C168.928 305.93 164.288 293.06 163.988 280.15" fill="#EDFFC6"/>
<path d="M177.078 443.91C179.498 444.7 181.938 445.71 183.948 446.96C181.578 447.84 167.578 447.1 165.398 447.14C165.178 445.96 165.168 444.74 165.378 443.56C165.658 444.21 166.518 444.41 167.258 444.46C178.118 445.19 176.918 443.93 177.078 443.91Z" fill="#EDFFC6"/>
<path d="M143.418 443.05C144.198 443.25 142.908 446.93 132.898 440.2C132.198 441.13 131.748 442.18 131.048 443.11C132.238 443.82 133.488 444.76 134.678 445.48C135.688 446.09 136.938 446.35 138.028 446.8C141.318 448.17 146.128 448.14 148.638 447.9C148.388 447.4 144.728 443.77 143.418 443.05Z" fill="#EDFFC6"/>
</svg>
