<svg width="440" height="486" viewBox="0 0 440 486" fill="none" xmlns="http://www.w3.org/2000/svg">
<path d="M91.3777 47.77C91.3777 50.86 91.3777 53.95 91.3777 57.05C91.3777 57.78 92.5177 57.78 92.5177 57.05C92.5177 53.96 92.5177 50.87 92.5177 47.77C92.5177 47.03 91.3777 47.03 91.3777 47.77Z" fill="#7400B8"/>
<path d="M87.5177 53.01C90.3777 52.87 93.2376 52.92 96.0876 53.16C96.8176 53.22 96.8176 52.08 96.0876 52.02C93.2276 51.78 90.3777 51.73 87.5177 51.87C86.7877 51.9 86.7877 53.04 87.5177 53.01Z" fill="#7400B8"/>
<path d="M358.938 71.88C357.918 68.07 358.678 65.39 361.558 62.65C364.438 59.91 369.688 59.56 373.538 60.69C373.068 57.94 374.528 54.98 377.018 53.64C379.508 52.3 382.848 52.69 384.948 54.56C384.038 47 389.828 39.24 397.458 37.81C405.078 36.38 413.378 41.5 415.378 48.86C418.038 47.61 421.428 48.07 423.638 49.98C425.848 51.89 426.748 55.14 425.828 57.88C428.968 58.26 431.848 60.26 433.268 63.03C434.688 65.8 434.598 69.26 433.028 71.96C411.288 72.14 361.558 72.07 358.938 71.88Z" fill="#7400B8"/>
<path d="M2.06764 88.9C0.297636 86.6 0.0176367 83.3 1.35764 80.75C2.70764 78.2 5.61764 76.52 8.54764 76.6C5.03764 70.55 7.31764 61.95 13.3876 58.34C19.4476 54.73 28.2776 56.73 32.1176 62.58C32.5676 59.96 35.0076 57.8 37.7076 57.64C40.4076 57.48 43.0976 59.33 43.8576 61.88C45.8776 60.48 48.2176 59.54 50.6376 59.04C57.4876 57.63 65.0076 60 69.7476 65.06C74.4776 70.12 76.2476 77.68 74.2376 84.25C75.0176 82.82 77.2776 83.23 78.5876 84.22C80.2176 85.44 81.4176 87.69 80.4076 89.44C80.4076 89.44 28.5676 88.7 2.44763 89.39" fill="#7400B8"/>
<path d="M384.788 54.42C385.938 52.75 386.128 50.35 385.248 48.5C384.368 46.64 382.468 45.42 380.548 45.49C382.838 41.09 381.348 34.84 377.388 32.22C373.418 29.6 367.648 31.05 365.138 35.3C364.848 33.4 363.248 31.83 361.478 31.71C359.708 31.59 357.948 32.94 357.448 34.79C356.128 33.77 354.598 33.09 353.018 32.72C348.538 31.69 343.618 33.42 340.518 37.09C337.418 40.77 336.268 46.26 337.578 51.04C337.068 50 335.588 50.3 334.728 51.02C333.668 51.91 332.878 53.54 333.538 54.81C333.538 54.81 367.448 54.27 384.528 54.77" fill="#7400B8"/>
<path d="M272.338 63.01C272.088 63.88 271.978 64.76 271.918 65.65C271.898 65.88 272.098 66.08 272.318 66.15C272.798 66.3 273.278 66.44 273.768 66.59C274.798 66.9 274.378 67.21 274.608 68.26C274.758 68.93 275.758 70.23 275.438 70.63C275.018 71.15 274.608 71.66 274.188 72.18C274.028 72.38 274.138 72.64 274.278 72.8C274.838 73.47 275.418 74.06 276.078 74.65C276.248 74.8 276.528 74.86 276.738 74.73C277.168 74.46 277.598 74.19 278.038 73.92C279.048 73.29 278.808 73.83 279.948 74.28C280.568 74.52 282.378 74.73 282.488 75.16C282.658 75.79 282.818 76.43 282.988 77.06C283.048 77.28 283.278 77.44 283.508 77.44C284.458 77.44 285.348 77.37 286.278 77.23C286.528 77.19 286.658 76.94 286.678 76.73C286.728 76.24 286.768 75.75 286.818 75.26C286.918 74.22 287.338 74.56 288.398 74.12C288.968 73.88 290.308 72.63 290.598 72.76C291.208 73.03 291.828 73.29 292.438 73.56C292.638 73.65 292.938 73.67 293.098 73.48C293.688 72.78 294.188 72.09 294.658 71.3C294.778 71.1 294.748 70.84 294.568 70.68C294.038 70.2 293.498 69.72 292.968 69.25C293.198 68.25 293.788 65.22 293.468 65.38C294.158 65.05 294.848 64.72 295.538 64.39C295.758 64.28 295.838 64.02 295.788 63.81C295.578 62.98 295.318 62.21 294.978 61.42C294.858 61.13 294.628 61.02 294.308 61.06C293.818 61.12 293.338 61.19 292.848 61.25C291.638 61.41 292.238 60.9 291.358 60.02C290.988 59.65 289.378 58.53 289.428 58.3C289.558 57.71 289.688 57.11 289.818 56.52C289.868 56.31 289.798 56.04 289.568 55.94C288.698 55.55 287.858 55.24 286.938 54.98C286.708 54.91 286.448 55.02 286.318 55.22C286.068 55.62 285.818 56.01 285.568 56.41C284.968 57.36 283.948 56.77 282.698 56.87C282.098 56.92 281.308 57.47 280.968 57.1C280.558 56.63 280.138 56.16 279.728 55.69C279.568 55.5 279.278 55.51 279.068 55.61C278.248 55.99 277.498 56.4 276.748 56.89C276.558 57.01 276.408 57.25 276.498 57.47C276.668 57.91 276.848 58.34 277.018 58.78C277.438 59.83 276.848 59.55 276.168 60.51C275.848 60.95 275.138 62.61 274.828 62.61C274.168 62.62 273.498 62.63 272.838 62.65C272.618 62.64 272.408 62.79 272.338 63.01ZM273.848 63.65C274.348 63.64 274.858 63.63 275.358 63.62C275.618 63.62 275.788 63.46 275.878 63.24C276.458 61.89 277.208 60.86 278.298 59.84C278.428 59.72 278.508 59.51 278.438 59.34C278.328 59.06 278.208 58.77 278.098 58.49C277.768 57.66 277.528 57.63 278.058 57.28C278.988 56.67 278.918 56.33 279.588 57.09C279.898 57.45 280.208 57.8 280.528 58.16C280.648 58.3 280.888 58.34 281.058 58.29C282.588 57.85 283.998 57.75 285.568 57.94C285.758 57.96 285.948 57.83 286.038 57.69C286.198 57.43 286.358 57.18 286.518 56.92C286.688 56.65 286.848 56.39 287.018 56.12C287.148 55.71 287.318 55.74 287.518 56.21C288.928 56.61 288.818 56.02 288.578 57.11C288.478 57.56 288.378 58.01 288.278 58.46C288.228 58.7 288.318 58.9 288.528 59.04C289.828 59.9 290.748 60.85 291.568 62.12C291.708 62.34 291.938 62.39 292.188 62.36C292.508 62.32 292.818 62.28 293.138 62.24C293.468 62.2 293.798 62.15 294.118 62.11C294.548 61.96 294.598 62.08 294.258 62.46C294.688 63.46 295.078 63.45 294.118 63.91C293.678 64.12 293.228 64.33 292.788 64.54C292.628 64.62 292.508 64.81 292.518 64.98C292.598 66.49 292.398 67.87 291.828 69.27C291.728 69.51 291.828 69.7 291.998 69.8C292.228 70 292.458 70.21 292.678 70.41C292.928 70.63 293.168 70.85 293.418 71.08C293.808 71.29 293.758 71.43 293.258 71.51C292.518 72.73 293.168 72.76 292.058 72.27C291.598 72.07 291.128 71.87 290.668 71.66C290.428 71.56 290.208 71.57 290.008 71.74C288.768 72.78 287.778 73.32 286.198 73.8C285.948 73.88 285.818 74.06 285.798 74.3C285.768 74.62 285.738 74.93 285.708 75.25C285.568 76.74 285.958 76.28 284.368 76.39C283.718 76.44 283.978 76.68 283.758 75.83C283.628 75.35 283.508 74.87 283.378 74.39C283.338 74.23 283.178 74.06 282.998 74.03C281.448 73.75 280.178 73.31 278.848 72.49C278.698 72.39 278.448 72.39 278.298 72.49C278.018 72.67 277.738 72.84 277.458 73.02C277.168 73.2 276.878 73.38 276.588 73.57C276.288 73.89 276.148 73.81 276.168 73.34C275.318 72.59 275.058 72.74 275.718 71.93C276.028 71.54 276.348 71.15 276.658 70.76C276.778 70.62 276.748 70.39 276.658 70.24C275.928 68.99 275.518 67.81 275.368 66.37C275.338 66.13 275.218 65.95 274.968 65.87C274.658 65.77 274.338 65.68 274.028 65.58C272.628 65.15 272.938 65.57 273.128 64.25C273.318 63.18 272.748 63.67 273.848 63.65Z" fill="white"/>
<path d="M283.358 67.76C283.408 67.78 283.458 67.8 283.518 67.82C283.598 67.84 283.678 67.85 283.748 67.84C284.798 67.94 285.708 67.4 286.028 66.41C286.368 65.36 285.578 64.34 284.548 64.04C283.448 63.72 282.368 64.46 282.048 65.43C281.728 66.43 282.418 67.4 283.358 67.76ZM284.258 65.04C285.488 65.27 285.028 67.04 283.808 66.82C282.628 66.47 283.028 64.81 284.258 65.04Z" fill="white"/>
<path d="M140.948 21.84C142.918 24 143.948 26.49 144.288 29.32C144.288 29.33 144.298 29.34 144.298 29.35C144.298 29.43 144.308 29.5 144.368 29.57C143.868 30.52 143.948 31.28 144.428 31.87C143.848 32.9 143.938 33.72 144.468 34.33C143.118 36.6 145.018 37.83 147.728 38.25C148.528 40.46 154.188 40.23 154.378 37.88C156.848 37.21 158.338 35.96 156.658 34.33C157.498 33.68 157.688 32.84 156.728 31.86C157.538 31.19 157.668 30.34 156.628 29.36C157.338 28.3 157.258 26.67 157.678 24.98C158.278 22.59 160.488 20.37 161.678 18.19C162.578 16.55 162.988 14.81 163.058 12.98C163.188 9.36002 160.938 5.29002 157.808 3.25002C150.898 -1.25998 141.568 1.26002 137.698 8.23002C135.668 11.89 136.938 15.66 138.648 19.14C139.158 20.16 140.188 21.01 140.948 21.84ZM161.728 10.2C163.198 14.6 160.688 18.39 158.288 21.95C157.458 23.18 156.948 24.21 156.598 25.62C156.368 26.55 156.108 29.35 154.838 29.6C154.558 29.65 154.268 29.7 153.968 29.75C153.798 27.75 153.658 25.75 153.288 23.77C153.198 23.29 153.078 22.62 152.898 21.93C152.938 21.87 152.968 21.81 152.978 21.73C153.358 18.6 154.718 15.62 155.128 12.49C155.148 12.32 155.078 12.21 154.958 12.15C154.778 11.92 154.458 11.85 154.148 11.93C154.108 11.89 154.058 11.85 153.998 11.83C153.738 11.72 153.528 11.75 153.358 11.85C153.258 11.77 153.128 11.71 152.968 11.72C152.848 11.72 152.738 11.75 152.648 11.79C152.548 11.72 152.428 11.68 152.288 11.7C152.188 11.71 152.098 11.74 152.018 11.77C151.848 11.71 151.658 11.72 151.478 11.79C151.378 11.64 151.218 11.52 150.998 11.5C150.798 11.48 150.648 11.54 150.518 11.64C150.388 11.54 150.228 11.48 150.018 11.51C149.868 11.53 149.748 11.58 149.658 11.66C149.458 11.59 149.238 11.61 149.058 11.71C148.828 11.63 148.568 11.67 148.348 11.82C148.098 11.67 147.788 11.67 147.548 11.81C147.328 11.75 147.098 11.78 146.908 11.9C146.568 11.77 146.188 11.89 145.958 12.18C145.598 12.04 145.228 12.12 144.998 12.39C144.728 12.34 144.458 12.42 144.288 12.61C143.838 12.51 143.388 12.69 143.438 13.22C143.418 13.3 143.418 13.39 143.468 13.49C144.768 16.07 146.578 18.84 147.198 21.65C147.218 21.73 147.248 21.78 147.288 21.83C146.808 24.54 147.268 28.24 147.458 29.79C146.618 29.63 145.828 29.4 145.138 29.06C144.838 26.81 144.168 24.8 142.868 22.87C141.648 21.04 139.918 19.73 138.938 17.74C134.458 8.64002 143.698 -0.189976 153.528 2.20002C157.718 3.19002 160.478 6.47002 161.728 10.2ZM151.218 32.5C149.828 32.55 144.008 32.4 145.148 29.99C147.938 31.15 151.498 30.84 154.398 30.51C155.098 30.43 155.608 30.25 155.998 29.98C157.968 31.98 152.478 32.45 151.218 32.5ZM145.008 13.46C145.288 13.61 145.708 13.48 145.688 13.11C145.708 13.06 145.708 13.03 145.708 13C145.748 13.03 145.778 13.07 145.808 13.11C145.838 13.15 145.878 13.17 145.908 13.19C146.908 15.12 147.608 17.34 148.248 19.4C148.048 19.63 147.888 19.92 147.748 20.24C147.018 18 145.698 15.79 144.598 13.7C144.768 13.69 144.938 13.6 145.008 13.46ZM151.268 19.05C151.538 17 151.228 14.93 151.508 12.89C151.558 12.86 151.588 12.83 151.628 12.79C151.748 13 152.058 13.01 152.268 12.87C152.438 13.04 152.718 13.04 152.898 12.88C152.918 12.89 152.938 12.9 152.958 12.91C153.088 13.06 153.298 13.13 153.468 13.06C153.608 13.24 153.918 13.27 154.118 13.14C153.708 15.57 152.808 17.92 152.318 20.33C152.048 19.8 151.708 19.35 151.268 19.05ZM150.598 12.91C150.378 14.84 150.648 16.78 150.408 18.71C149.858 18.6 149.398 18.64 149.008 18.81C148.398 16.87 147.728 14.82 146.808 12.99C146.978 13.08 147.208 13.01 147.358 12.86C147.528 13.01 147.828 13 147.998 12.86C148.028 12.88 148.048 12.9 148.088 12.91C148.298 13.02 148.618 12.96 148.758 12.73C148.928 12.95 149.288 12.97 149.458 12.78C149.618 12.95 149.898 12.92 150.078 12.76C150.148 12.87 150.268 12.92 150.398 12.92C150.468 12.93 150.538 12.93 150.598 12.91ZM147.968 24.37C147.968 23.2 149.038 17.38 151.158 20.26C153.028 22.81 152.828 26.88 153.078 29.87C151.588 30.04 149.938 30.09 148.398 29.91C148.168 28.07 147.968 26.23 147.968 24.37ZM148.858 38.38C150.338 38.48 151.938 38.39 153.358 38.12C152.718 39.06 149.828 39.2 148.858 38.38ZM151.218 37.44C149.818 37.49 143.958 37.34 145.168 34.9C147.588 36.33 153.178 36.1 155.868 34.8C158.188 36.91 152.498 37.4 151.218 37.44ZM151.218 34.91C149.838 34.96 144.118 34.82 145.118 32.47C147.538 33.94 153.288 33.7 155.958 32.35C158.038 34.38 152.488 34.86 151.218 34.91Z" fill="white"/>
<path d="M430.728 485.81C433.448 484.08 436.158 482.34 438.878 480.61C439.308 480.33 439.308 479.71 438.878 479.44C436.468 477.9 434.058 476.36 431.648 474.82C434.058 473.28 436.468 471.74 438.878 470.2C439.308 469.92 439.308 469.3 438.878 469.03C436.468 467.49 434.058 465.95 431.648 464.41C434.058 462.87 436.468 461.33 438.878 459.79C439.308 459.51 439.308 458.89 438.878 458.62C436.468 457.08 434.058 455.54 431.648 454C434.058 452.46 436.468 450.92 438.878 449.38C439.308 449.1 439.308 448.48 438.878 448.21C436.158 446.47 433.448 444.74 430.728 443C429.998 442.53 429.328 443.71 430.058 444.17C432.468 445.71 434.878 447.25 437.288 448.79C434.878 450.33 432.468 451.87 430.058 453.41C429.628 453.69 429.628 454.31 430.058 454.58C432.468 456.12 434.878 457.66 437.288 459.2C434.878 460.74 432.468 462.28 430.058 463.82C429.628 464.1 429.628 464.72 430.058 464.99C432.468 466.53 434.878 468.07 437.288 469.61C434.878 471.15 432.468 472.69 430.058 474.23C429.628 474.51 429.628 475.13 430.058 475.4C432.468 476.94 434.878 478.48 437.288 480.02C434.878 481.56 432.468 483.1 430.058 484.64C429.328 485.1 429.998 486.28 430.728 485.81Z" fill="white"/>
</svg>
