<svg width="538" height="515" viewBox="0 0 538 515" fill="none" xmlns="http://www.w3.org/2000/svg">
<path d="M91.58 422.85C85.28 419.9 81.33 413.7 77.77 407.79C69.85 394.65 62.04 381.04 59.23 366C57.92 358.99 57.73 351.82 58.07 344.71C58.3 339.94 58.79 335.1 60.59 330.67C62.39 326.24 65.68 322.21 70.17 320.41C72.75 319.38 75.6 319.13 78.37 319.35C88.7 320.15 97.76 327.36 102.73 336.32C107.7 345.28 109.08 355.79 108.94 366C108.68 385.58 103.09 405.07 92.91 421.9C92.64 422.35 91.64 422.41 91.94 421.98" fill="#FCB4EE"/>
<path d="M83.97 423.47C79.92 417.01 66.1 423.16 62.47 416.46C61.28 414.27 61.63 411.4 60.05 409.45C56.29 404.8 46.51 410.16 43.42 405.05C41.81 402.38 43.6 398.77 42.36 395.92C40.85 392.43 36.06 392.07 32.82 390.02C27.7 386.8 27.49 378.26 32.44 374.8C33.34 374.17 34.37 373.69 35.12 372.88C37.26 370.56 36.15 366.88 34.72 364.08C33.29 361.28 31.63 358.03 32.99 355.2C34.62 351.83 39.69 351.56 42.93 353.51C46.17 355.45 48.2 358.81 50.66 361.65C51.71 362.86 53.06 364.08 54.68 363.99C56.97 363.87 58.21 361.3 60.16 360.1C63.35 358.14 67.74 360.45 69.49 363.72C71.24 366.99 71.21 370.86 71.64 374.54C72.07 378.22 73.27 382.2 76.46 384.14C79.37 385.9 83.61 385.76 85.45 388.6C87.19 391.28 85.61 394.75 84.2 397.61C82.79 400.47 81.73 404.32 84.09 406.49C84.75 407.1 85.61 407.47 86.31 408.04C88.45 409.78 88.67 413.08 87.56 415.59C86.46 418.11 86.04 421.65 83.97 423.47Z" fill="#EDFFC6"/>
<path d="M84.4 423.22C81.69 419.64 77.23 419.7 73.06 419.56C68.84 419.42 64.31 419.47 62.39 414.94C61.4 412.59 61.76 409.99 59.53 408.26C57.97 407.05 55.86 406.9 53.95 406.86C52.32 406.82 50.68 407.03 49.05 406.96C46.58 406.85 46.94 406.77 45.07 404.44C42.93 401.77 43.47 401.75 43.33 398.95C43.01 392.22 37.66 392.88 33.07 389.58C28.74 386.47 28.02 379.68 31.87 375.89C33.82 373.98 36.13 373.5 36.72 370.59C37.2 368.23 36.06 365.91 35.15 363.81C34.69 362.75 33.22 360.68 33.29 359.5C34.07 358.38 34.86 357.26 35.64 356.14C36.29 353.11 37.89 352.06 40.42 353.01C43.29 353.71 45.43 356.05 47.25 358.2C48.84 360.07 50.5 363.27 53.02 364.16C55.49 365.04 56.58 363.61 58.4 362.3C71.78 352.62 69.71 375.73 73.22 381.47C74.7 383.89 76.77 384.88 79.34 385.86C83.04 387.26 85.57 388.65 85.4 392.98C85.3 395.5 83.37 397.7 82.68 400.12C82.15 401.96 81.89 404.1 82.94 405.82C84.79 408.85 88.49 409.58 87.31 414.81C86.72 417.42 85.31 421.19 83.62 423.13C83.2 423.61 83.91 424.31 84.33 423.83C88.17 419.42 90.15 412.47 86.63 407.66C84.78 405.13 83.94 410.09 83.21 403C83.05 401.44 84.11 399.14 84.65 397.87C85.32 396.29 86.22 394.83 86.52 393.11C87.01 390.35 86.38 388.11 83.95 386.54C82.65 385.7 81.04 385.45 79.62 384.92C75.78 383.49 73.69 381.16 72.63 377.2C71.48 372.93 72.2 368.3 70.26 364.2C69.11 361.77 66.96 359.61 64.2 359.06C59.09 358.04 56.59 365.09 51.03 361.31C47.73 359.06 46.5 354.69 42.63 352.81C40.43 351.74 37.64 351.4 35.34 352.42C32.97 353.46 31.92 355.67 32.03 358.15C32.09 359.55 32.7 360.9 33.25 362.17C35.55 367.47 37.21 369.04 32.15 374.43C28.43 378.4 26.62 384.01 30.61 388.74C32.73 391.25 35.88 391.57 38.59 393.14C44.68 396.67 39.93 402.25 43.66 406.16C45.51 408.1 48.41 407.98 50.89 407.95C55.16 407.91 58.51 407.13 60.78 412.28C61.54 414 61.37 416.01 62.62 417.57C67.65 423.86 78.63 417.25 83.56 423.75C83.92 424.22 84.78 423.73 84.4 423.22Z" fill="#7400B8"/>
<path d="M78.85 433.1C71.76 434.99 62.62 434.84 55.49 433.13C52.65 432.45 49.8 431.44 47.65 429.5C44.29 426.49 43.14 421.64 43.58 417.19C43.74 415.52 44.19 413.73 45.55 412.72C46.35 412.12 47.36 411.88 48.36 411.75C53.32 411.09 58.37 412.77 62.59 415.42C66.8 418.06 78.4 429.96 78.85 433.1Z" fill="#7400B8"/>
<path d="M68.58 428.6C67.99 426.21 66.71 424.11 64.85 422.47C64.37 422.05 63.66 422.74 64.14 423.17C65.88 424.7 67.06 426.63 67.62 428.86C67.77 429.48 68.74 429.22 68.58 428.6Z" fill="#7400B8"/>
<path d="M90.84 441.74C93.01 408.38 91.36 374.63 84.71 341.81C84.58 341.19 83.62 341.45 83.75 342.07C90.38 374.8 92.01 408.46 89.85 441.73C89.8 442.38 90.8 442.37 90.84 441.74Z" fill="#7400B8"/>
<path d="M93.38 442.03C83.69 417.38 68.19 394.94 48.45 377.03C47.98 376.6 47.27 377.3 47.74 377.73C67.35 395.51 82.79 417.8 92.42 442.29C92.64 442.88 93.61 442.63 93.38 442.03Z" fill="#7400B8"/>
<path d="M71.43 402.42C71.31 398.67 71.01 394.95 70.45 391.24C70.1 388.9 70.09 384.58 68.49 382.73C68.38 382.61 68.16 382.55 68 382.6C67.93 382.63 67.86 382.65 67.78 382.68C67.18 382.9 67.44 383.85 68.05 383.63C68.18 383.58 70.37 400.57 70.43 402.41C70.45 403.05 71.45 403.06 71.43 402.42Z" fill="#7400B8"/>
<path d="M60.71 389.78C55.29 389.21 50.33 387.31 45.89 384.19C45.37 383.82 44.87 384.67 45.39 385.04C49.98 388.27 55.11 390.17 60.71 390.77C61.35 390.83 61.34 389.85 60.71 389.78Z" fill="#7400B8"/>
<path d="M91.73 441.2C82.07 433.89 70.2 427.75 58.06 425.86C57.43 425.76 57.16 426.71 57.79 426.81C69.86 428.69 81.61 434.77 91.22 442.05C91.73 442.44 92.23 441.58 91.73 441.2Z" fill="#7400B8"/>
<path d="M71.36 429.75C69.29 430.45 67.18 430.89 65 431.07C64.36 431.12 64.36 432.1 65 432.05C67.27 431.87 69.47 431.43 71.63 430.7C72.23 430.5 71.97 429.55 71.36 429.75Z" fill="#7400B8"/>
<path d="M96 427.74C102.69 424.76 109.65 418.92 114.06 413.14C115.81 410.84 117.36 408.27 117.78 405.43C118.43 401 116.2 396.54 112.98 393.38C111.78 392.2 110.27 391.09 108.57 391.16C107.57 391.2 106.63 391.65 105.78 392.17C101.52 394.76 98.71 399.22 97.16 403.91C95.61 408.58 94.33 425.03 96 427.74Z" fill="#F5F5FA"/>
<path d="M96.26 428.16C104.76 424.11 116.73 415.53 118.27 405.55C119.13 399.99 114.05 388.9 106.94 391.02C99.81 393.14 96.52 402.69 95.62 409.09C94.86 414.48 93.12 422.81 95.58 427.99C95.85 428.56 96.71 428.06 96.44 427.49C94.7 423.82 95.73 417.92 96.06 414.04C96.52 408.66 97.21 403.46 100.07 398.74C103.36 393.33 109.76 389.01 114.75 396.22C118.24 401.27 117.89 406.49 114.65 411.48C110.22 418.3 103.07 423.84 95.75 427.32C95.17 427.59 95.68 428.44 96.26 428.16Z" fill="#7400B8"/>
<path d="M101.92 417.39C100.94 415.36 100.6 413.17 100.94 410.95C101.03 410.33 100.07 410.06 99.98 410.69C99.6 413.2 99.95 415.6 101.06 417.89C101.34 418.46 102.2 417.96 101.92 417.39Z" fill="#7400B8"/>
<path d="M92.24 442.36C94.96 430.77 100.08 418.74 108.16 409.76C108.59 409.29 107.88 408.59 107.45 409.06C99.27 418.15 94.03 430.34 91.27 442.09C91.13 442.71 92.09 442.97 92.24 442.36Z" fill="#7400B8"/>
<path d="M99.97 421.39C102.1 420.61 104.1 419.59 105.96 418.3C106.48 417.94 105.98 417.09 105.46 417.45C103.67 418.68 101.76 419.68 99.71 420.44C99.11 420.66 99.37 421.61 99.97 421.39Z" fill="#7400B8"/>
<path d="M74.07 447.62C76.14 456.68 75.94 467.64 78 477.32C87.45 477.58 99.5 476.32 108.95 476.58C108.95 466.04 110.12 456.64 109.98 445.78C98.21 448.23 85.68 442.77 74.1 445.97" fill="#7400B8"/>
<path d="M67.62 439.7C68.21 441.53 68.8 444.82 69.39 446.64C84.7 446.81 100.01 446.97 115.33 447.14C114.8 444.16 114.54 441.14 114.56 438.11C99.13 439.26 83.03 438.54 67.62 439.7Z" fill="#7400B8"/>
<path d="M483.96 382.02C483.96 385.43 483.96 388.84 483.96 392.26C483.96 392.86 484.9 392.86 484.9 392.26C484.9 388.85 484.9 385.44 484.9 382.02C484.91 381.42 483.96 381.42 483.96 382.02Z" fill="#7400B8"/>
<path d="M479.24 387.61C482.7 387.61 486.17 387.61 489.63 387.61C490.24 387.61 490.24 386.68 489.63 386.68C486.17 386.68 482.7 386.68 479.24 386.68C478.63 386.68 478.63 387.61 479.24 387.61Z" fill="#7400B8"/>
<path d="M299.02 443.03V355.01H274.35H268.29H243.63V443.03L190.74 469.69H268.29H274.35H351.9L299.02 443.03Z" fill="#DCDCE0"/>
<path d="M300.17 443.03C300.17 413.69 300.17 384.35 300.17 355.01C300.17 354.4 299.64 353.88 299.02 353.88C280.56 353.88 262.09 353.88 243.63 353.88C243.01 353.88 242.48 354.4 242.48 355.01C242.48 376.07 242.48 397.12 242.48 418.18C242.48 426.2 243.43 434.85 242.48 442.83C242.62 441.65 243.5 442.31 242.03 442.56C240.4 442.84 238.4 444.39 236.94 445.13C231.4 447.92 225.87 450.71 220.33 453.5C210.28 458.57 200.22 463.64 190.17 468.71C189.13 469.23 189.65 470.82 190.75 470.82C233.11 470.82 275.47 470.82 317.84 470.82C329.2 470.82 340.55 470.82 351.91 470.82C353.01 470.82 353.53 469.23 352.49 468.71C334.86 459.82 317.23 450.94 299.61 442.05C298.29 441.39 297.13 443.34 298.45 444.01C316.08 452.9 333.71 461.78 351.33 470.67C351.52 469.97 351.72 469.26 351.91 468.56C309.55 468.56 267.19 468.56 224.82 468.56C213.46 468.56 202.11 468.56 190.75 468.56C190.94 469.26 191.14 469.97 191.33 470.67C208.96 461.78 226.59 452.9 244.21 444.01C244.57 443.83 244.78 443.41 244.78 443.03C244.78 413.69 244.78 384.35 244.78 355.01C244.4 355.39 244.01 355.77 243.63 356.14C262.09 356.14 280.56 356.14 299.02 356.14C298.64 355.76 298.25 355.38 297.87 355.01C297.87 384.35 297.87 413.69 297.87 443.03C297.86 444.49 300.17 444.49 300.17 443.03Z" fill="#7400B8"/>
<path d="M530.01 355.01H6.95999C3.75999 355.01 1.14999 352.18 1.14999 351.08V10.7C1.14999 4.87998 3.75999 2.04999 6.95999 2.04999H530.01C533.21 2.04999 535.82 4.87998 535.82 8.33998V348.71C535.82 352.18 533.2 355.01 530.01 355.01Z" fill="#DCDCE0"/>
<path d="M530.01 353.92C517.64 353.92 505.28 353.92 492.91 353.92C461.84 353.92 430.76 353.92 399.69 353.92C359.12 353.92 318.55 353.92 277.98 353.92C236.58 353.92 195.19 353.92 153.8 353.92C120.88 353.92 87.95 353.92 55.03 353.92C44.43 353.92 33.84 353.92 23.24 353.92C18.19 353.92 12.9 354.36 7.86 353.92C0.930001 353.31 2.24 349.13 2.24 344.19C2.24 333.83 2.24 323.47 2.24 313.11C2.24 276.98 2.24 240.86 2.24 204.73C2.24 164.62 2.24 124.51 2.24 84.39C2.24 60.78 2.24 37.17 2.24 13.56C2.24 9.97997 1.86 5.33996 5.63 3.64996C7.02 3.02996 7.95 3.11996 9.44 3.11996C15.66 3.11996 21.89 3.11996 28.11 3.11996C55.25 3.11996 82.39 3.11996 109.53 3.11996C148.66 3.11996 187.79 3.11996 226.91 3.11996C268.82 3.11996 310.73 3.11996 352.64 3.11996C388.67 3.11996 424.71 3.11996 460.74 3.11996C481.65 3.11996 502.55 3.11996 523.46 3.11996C528.02 3.11996 533.7 1.81996 534.69 8.78996C535.55 14.81 534.69 21.56 534.69 27.62C534.69 59.67 534.69 91.71 534.69 123.76C534.69 164.66 534.69 205.55 534.69 246.45C534.69 276.23 534.69 306.01 534.69 335.79C534.72 339.64 536.95 353.05 530.01 353.92C528.62 354.09 528.61 356.27 530.01 356.09C538.6 355.01 536.92 345.42 536.92 339.22C536.92 327.85 536.92 316.48 536.92 305.12C536.92 267.08 536.92 229.04 536.92 191C536.92 150.99 536.92 110.98 536.92 70.98C536.92 50.34 537.79 29.49 536.92 8.84998C536.63 1.92998 531.62 0.969971 526.14 0.969971C518.97 0.969971 511.79 0.969971 504.62 0.969971C475.69 0.969971 446.76 0.969971 417.82 0.969971C377.35 0.969971 336.88 0.969971 296.41 0.969971C253.73 0.969971 211.05 0.969971 168.38 0.969971C133.36 0.969971 98.34 0.969971 63.33 0.969971C45.26 0.969971 27.2 0.969971 9.13 0.969971C2.5 0.969971 0.11 5.50997 0.0500005 11.97C-0.0199995 19.41 0.0500005 26.86 0.0500005 34.3C0.0500005 68.24 0.0500005 102.19 0.0500005 136.13C0.0500005 177.64 0.0500005 219.15 0.0500005 260.67C0.0500005 288.4 0.0500005 316.14 0.0500005 343.87C0.0500005 349.54 -1.01 355.41 7.06 356.1C11.02 356.44 15.16 356.1 19.12 356.1C43.71 356.1 68.29 356.1 92.88 356.1C131.34 356.1 169.79 356.1 208.25 356.1C251.14 356.1 294.04 356.1 336.93 356.1C374.77 356.1 412.61 356.1 450.45 356.1C473.79 356.1 497.14 356.1 520.48 356.1C523.66 356.1 526.83 356.1 530.01 356.1C531.42 356.09 531.43 353.92 530.01 353.92Z" fill="#7400B8"/>
<path d="M510.69 339.02H24.34C19.05 339.02 14.73 334.76 14.73 329.55V30.74C14.73 25.53 19.06 21.27 24.34 21.27H510.69C515.98 21.27 520.3 25.53 520.3 30.74V329.55C520.3 334.76 515.97 339.02 510.69 339.02Z" fill="#F5F5FA"/>
<path d="M510.69 338.02C499.58 338.02 488.47 338.02 477.36 338.02C449.33 338.02 421.3 338.02 393.27 338.02C356.28 338.02 319.28 338.02 282.29 338.02C244.29 338.02 206.29 338.02 168.29 338.02C137.24 338.02 106.18 338.02 75.13 338.02C58.98 338.02 42.83 338.02 26.68 338.02C25.91 338.02 25.12 338.07 24.35 338.02C17.95 337.58 15.75 332.52 15.75 327.19C15.75 319.47 15.75 311.76 15.75 304.04C15.75 272.22 15.75 240.41 15.75 208.59C15.75 171.61 15.75 134.63 15.75 97.66C15.75 76.11 15.75 54.55 15.75 33C15.75 27.69 17.97 22.71 24.35 22.27C25.15 22.22 25.96 22.27 26.76 22.27C32.56 22.27 38.36 22.27 44.16 22.27C68.86 22.27 93.56 22.27 118.25 22.27C153.82 22.27 189.39 22.27 224.96 22.27C263.44 22.27 301.93 22.27 340.41 22.27C373.85 22.27 407.3 22.27 440.74 22.27C461.19 22.27 481.64 22.27 502.09 22.27C505.31 22.27 508.75 21.91 511.94 22.45C521.29 24.03 519.29 35.47 519.29 42.3C519.29 69.92 519.29 97.54 519.29 125.16C519.29 162.62 519.29 200.09 519.29 237.55C519.29 264.71 519.29 291.88 519.29 319.04C519.28 326.22 521.13 337.26 510.69 338.02C509.39 338.11 509.38 340.12 510.69 340.02C521.33 339.24 521.32 330.3 521.32 322.48C521.32 312.21 521.32 301.95 521.32 291.68C521.32 256.75 521.32 221.83 521.32 186.9C521.32 150.87 521.32 114.83 521.32 78.8C521.32 66.93 521.32 55.05 521.32 43.18C521.32 38.33 522.39 31.8 520.63 27.11C518.01 20.13 511.38 20.26 505.27 20.26C497.96 20.26 490.65 20.26 483.34 20.26C456.04 20.26 428.74 20.26 401.44 20.26C364 20.26 326.57 20.26 289.13 20.26C250.15 20.26 211.17 20.26 172.19 20.26C140.17 20.26 108.16 20.26 76.14 20.26C59.62 20.26 43.11 20.26 26.59 20.26C19.59 20.26 13.91 23.82 13.71 31.42C13.53 37.93 13.71 44.47 13.71 50.98C13.71 82.35 13.71 113.71 13.71 145.08C13.71 182.93 13.71 220.77 13.71 258.62C13.71 281.37 13.71 304.12 13.71 326.87C13.71 333.92 17.01 339.83 25.06 340.02C29.73 340.13 34.41 340.02 39.08 340.02C62.8 340.02 86.53 340.02 110.25 340.02C146.06 340.02 181.87 340.02 217.68 340.02C256.9 340.02 296.11 340.02 335.33 340.02C369.82 340.02 404.32 340.02 438.81 340.02C459.9 340.02 481 340.02 502.09 340.02C504.96 340.02 507.82 340.02 510.69 340.02C511.99 340.02 512 338.02 510.69 338.02Z" fill="#7400B8"/>
<path d="M159.82 287.94C162.44 292.09 165.06 296.24 167.68 300.4C168.1 301.06 169.04 301.06 169.45 300.4C172.07 296.25 174.69 292.1 177.31 287.94C176.72 287.94 176.13 287.94 175.54 287.94C178.16 292.09 180.78 296.24 183.4 300.4C183.82 301.06 184.76 301.06 185.17 300.4C187.79 296.25 190.41 292.1 193.03 287.94C192.44 287.94 191.85 287.94 191.26 287.94C193.88 292.09 196.5 296.24 199.12 300.4C199.54 301.06 200.48 301.06 200.89 300.4C203.51 296.25 206.13 292.1 208.75 287.94C208.16 287.94 207.57 287.94 206.98 287.94C209.6 292.09 212.22 296.24 214.84 300.4C215.26 301.06 216.2 301.06 216.61 300.4C219.23 296.25 221.85 292.1 224.47 287.94C225.17 286.82 223.4 285.8 222.7 286.91C220.08 291.06 217.46 295.21 214.84 299.37C215.43 299.37 216.02 299.37 216.61 299.37C213.99 295.22 211.37 291.07 208.75 286.91C208.33 286.25 207.39 286.25 206.98 286.91C204.36 291.06 201.74 295.21 199.12 299.37C199.71 299.37 200.3 299.37 200.89 299.37C198.27 295.22 195.65 291.07 193.03 286.91C192.61 286.25 191.67 286.25 191.26 286.91C188.64 291.06 186.02 295.21 183.4 299.37C183.99 299.37 184.58 299.37 185.17 299.37C182.55 295.22 179.93 291.07 177.31 286.91C176.89 286.25 175.95 286.25 175.54 286.91C172.92 291.06 170.3 295.21 167.68 299.37C168.27 299.37 168.86 299.37 169.45 299.37C166.83 295.22 164.21 291.07 161.59 286.91C160.89 285.8 159.12 286.82 159.82 287.94Z" fill="#7400B8"/>
<path d="M304.3 302.77C304.3 307.96 304.3 313.15 304.3 318.35C304.3 319.26 305.74 319.26 305.74 318.35C305.74 313.16 305.74 307.97 305.74 302.77C305.74 301.86 304.3 301.86 304.3 302.77Z" fill="#7400B8"/>
<path d="M297.12 311.26C302.39 311.26 307.66 311.26 312.93 311.26C313.85 311.26 313.86 309.84 312.93 309.84C307.66 309.84 302.39 309.84 297.12 309.84C296.19 309.85 296.19 311.26 297.12 311.26Z" fill="#7400B8"/>
<path d="M284.12 98.48C283.74 107.22 277.03 114.32 267.94 114.42C259.2 114.52 251.66 107.08 251.76 98.48C251.86 89.81 259.06 82.54 267.94 82.54C277.05 82.53 283.74 89.8 284.12 98.48C284.16 99.47 285.73 99.48 285.69 98.48C285.28 88.94 277.91 81.03 267.94 80.99C258.31 80.95 250.15 88.99 250.19 98.48C250.23 108 258.25 115.97 267.94 115.97C277.91 115.97 285.28 107.99 285.69 98.48C285.73 97.48 284.16 97.49 284.12 98.48Z" fill="#7400B8"/>
<path d="M266.97 109.97V107.14C265.32 107.11 263.62 106.61 262.62 105.91L263.3 104.03C264.32 104.7 265.8 105.23 267.39 105.23C269.41 105.23 270.77 104.08 270.77 102.49C270.77 100.95 269.66 100 267.56 99.16C264.66 98.04 262.87 96.75 262.87 94.32C262.87 92 264.55 90.23 267.16 89.81V86.98H268.92V89.7C270.62 89.76 271.79 90.2 272.61 90.68L271.9 92.53C271.3 92.19 270.14 91.58 268.32 91.58C266.13 91.58 265.31 92.87 265.31 93.99C265.31 95.45 266.36 96.17 268.83 97.18C271.76 98.36 273.23 99.81 273.23 102.3C273.23 104.51 271.67 106.58 268.74 107.06V109.97H266.97Z" fill="#7400B8"/>
<path d="M223.42 93.19H30.89V202.07H223.42V93.19Z" fill="#FCB4EE"/>
<path d="M501.31 135.59H241.63V278.62H501.31V135.59Z" fill="#F5F5FA"/>
<path d="M501.31 278.03C482.23 278.03 463.15 278.03 444.06 278.03C406.01 278.03 367.96 278.03 329.91 278.03C302.38 278.03 274.85 278.03 247.32 278.03C245.84 278.03 243.16 278.56 241.75 278.03C242.53 278.32 242.05 278.83 242.23 277.55C242.43 276.12 242.23 274.52 242.23 273.08C242.23 258.9 242.23 244.73 242.23 230.55C242.23 211.57 242.23 192.58 242.23 173.6C242.23 161.67 243.13 149.37 242.23 137.47C242.13 136.09 242.75 135.65 241.64 136.18C241.87 136.07 242.66 136.14 242.89 136.18C245.51 136.68 248.74 136.18 251.39 136.18C263.49 136.18 275.58 136.18 287.68 136.18C324.87 136.18 362.06 136.18 399.25 136.18C429.57 136.18 459.89 136.18 490.21 136.18C493.26 136.18 496.58 136.55 499.61 136.18C499.98 136.13 500.88 136.03 501.24 136.18C500.21 135.76 500.99 135.6 500.72 136.87C499.91 140.62 500.72 145.42 500.72 149.23C500.72 156.59 500.72 163.94 500.72 171.3C500.72 204.77 500.72 238.24 500.72 271.72C500.72 274.02 500.72 276.32 500.72 278.62C500.72 279.37 501.91 279.37 501.91 278.62C501.91 236.96 501.91 195.3 501.91 153.64C501.91 147.62 501.91 141.61 501.91 135.59C501.91 135.27 501.64 135 501.32 135C472.06 135 442.8 135 413.55 135C366.93 135 320.31 135 273.69 135C263.01 135 252.33 135 241.65 135C241.33 135 241.06 135.27 241.06 135.59C241.06 177.25 241.06 218.91 241.06 260.57C241.06 266.59 241.06 272.6 241.06 278.62C241.06 278.94 241.33 279.21 241.65 279.21C270.91 279.21 300.17 279.21 329.42 279.21C376.04 279.21 422.66 279.21 469.28 279.21C479.96 279.21 490.64 279.21 501.32 279.21C502.07 279.21 502.07 278.03 501.31 278.03Z" fill="#7400B8"/>
<path d="M507.75 70.28H26.73C21.44 70.28 17.12 66.02 17.12 60.81V33.33C17.12 28.12 21.45 23.86 26.73 23.86H507.75C513.04 23.86 517.36 28.12 517.36 33.33V60.81C517.36 66.02 513.03 70.28 507.75 70.28Z" fill="#58C2DE"/>
<path d="M67.67 47.07C67.67 51.95 63.55 55.91 58.47 55.91C53.39 55.91 49.26 51.95 49.26 47.07C49.26 42.19 53.38 38.23 58.47 38.23C63.55 38.23 67.67 42.19 67.67 47.07Z" fill="#7400B8"/>
<path d="M93.85 55.91C98.931 55.91 103.05 51.9522 103.05 47.07C103.05 42.1878 98.931 38.23 93.85 38.23C88.769 38.23 84.65 42.1878 84.65 47.07C84.65 51.9522 88.769 55.91 93.85 55.91Z" fill="#7400B8"/>
<path d="M129.22 55.91C134.301 55.91 138.42 51.9522 138.42 47.07C138.42 42.1878 134.301 38.23 129.22 38.23C124.139 38.23 120.02 42.1878 120.02 47.07C120.02 51.9522 124.139 55.91 129.22 55.91Z" fill="#7400B8"/>
<path d="M453.11 94.37C453.11 99.56 453.11 104.75 453.11 109.95C453.11 110.86 454.55 110.86 454.55 109.95C454.55 104.76 454.55 99.57 454.55 94.37C454.55 93.46 453.11 93.46 453.11 94.37Z" fill="#7400B8"/>
<path d="M445.93 102.87C451.2 102.87 456.47 102.87 461.74 102.87C462.66 102.87 462.67 101.45 461.74 101.45C456.47 101.45 451.2 101.45 445.93 101.45C445 101.45 445 102.87 445.93 102.87Z" fill="#7400B8"/>
<path d="M104.37 298.66C104.42 301.96 104.47 305.25 104.51 308.55C104.51 308.8 104.51 309.06 104.39 309.27C104.23 309.55 103.89 309.68 103.59 309.78C99.32 311.28 95.04 312.78 90.77 314.28C102.88 319.12 111.84 319.12 121.35 314.13C117.27 313.19 112.84 309.78 108.82 308.61C108.03 308.38 109.74 309.95 109.24 309.3C108.81 308.73 108.73 307.99 108.67 307.28C108.41 304.31 108.15 301.35 107.89 298.38" fill="#FCB4EE"/>
<path d="M83.61 417.76C91.77 447.72 92.68 478.82 96.69 509.58C96.78 510.26 97.57 511.15 98.1 511.59C98.59 512 99.29 512.04 99.93 512.05C101.86 512.1 103.35 511.18 105.28 511.23C107.73 498.38 108.59 461.29 108.92 456.39C109.89 442.09 110.86 427.78 111.84 413.48C102.86 414.62 93.87 415.76 84.89 416.9" fill="#FCB4EE"/>
<path d="M113.36 414.15C116.77 446.8 120.18 479.45 123.59 512.1C126.43 512.86 128.99 512.58 131.88 512.05C134.21 478.13 136.99 444.62 139.31 410.7C130.86 412.95 122.16 414.3 113.41 414.73" fill="#FCB4EE"/>
<path d="M96.41 508.18C93.59 508.04 91.16 508.09 88.35 508.37C87.99 509.16 88.8 509.96 89.54 510.43C93.52 512.95 98.2 514.39 102.93 514.53C103.46 514.55 104.03 514.54 104.49 514.27C105.1 513.92 105.37 513.2 105.55 512.53C105.95 511.04 106.12 509.5 106.04 507.96C103.77 510.78 98.82 510.9 96.41 508.18Z" fill="#7400B8"/>
<path d="M132.64 508.18C135.46 508.04 137.89 508.09 140.7 508.37C141.06 509.16 140.25 509.96 139.51 510.43C135.53 512.95 130.85 514.39 126.12 514.53C125.59 514.55 125.02 514.54 124.56 514.27C123.95 513.92 123.68 513.2 123.5 512.53C123.1 511.04 122.93 509.5 123.01 507.96C125.27 510.78 130.23 510.9 132.64 508.18Z" fill="#7400B8"/>
<path d="M93.41 348.77C83.23 368.83 75.16 413.81 75.62 433.92C97.73 440.43 131.89 440.43 149.53 431.66C147.03 410.6 133.46 366.37 120.62 348.39C108.82 348.75 105.2 348.41 93.41 348.77Z" fill="#58C2DE"/>
<path d="M169.52 274.51C168.3 273.83 163.67 273.25 163.65 272.86C163.26 264.35 161.61 263.39 160.26 264.84C159.03 266.16 159.81 271.49 159.92 273.71C158.8 273.83 157.57 274.11 157.1 275.1C156.76 275.81 156.96 276.63 157.17 277.38C157.76 279.46 158.47 281.51 159.28 283.52C159.33 284.17 159.38 284.81 159.45 285.46L159.39 285.61C159.66 285.72 159.94 285.8 160.23 285.86L160.33 285.96C160.32 285.93 160.3 285.9 160.29 285.87C161.15 286.02 162.06 285.95 162.94 285.87C164.81 285.71 166.67 285.54 168.54 285.38C168.85 285.35 169.19 285.31 169.41 285.09C169.57 284.92 169.63 284.69 169.69 284.46C170.15 282.53 170.49 280.56 170.72 278.59C170.9 277.1 170.85 275.25 169.52 274.51Z" fill="#FCB4EE"/>
<path d="M92.13 316.69C85.93 320.59 77.31 338.51 67.92 346.25C67.33 346.74 66.65 347.24 65.88 347.16C64.71 347.03 64.18 345.68 63.9 344.54C61.04 332.73 61.39 320.72 60.22 308.64C57.28 310.27 49.57 313.45 49.12 314.47C48.81 315.17 49.5 338.93 52.1 349.21C53.56 354.95 55.26 361.09 59.89 364.86C61.14 365.88 62.64 366.71 64.26 366.8C66.5 366.93 68.56 365.68 70.35 364.35C78.39 358.41 85.45 350.24 91.32 342.2" fill="#EDFFC6"/>
<path d="M91.92 316.33C84.17 321.7 79.81 332 74.05 339.18C72.96 340.54 70.36 344.66 68.56 345.15C64.68 346.2 64 343.27 63.48 340.49C62.99 337.9 62.65 335.29 62.37 332.67C61.51 324.68 61.38 316.64 60.66 308.64C60.63 308.32 60.32 308.12 60.02 308.28C57.1 309.83 51.07 311.2 49.09 313.87C48.25 315 48.64 316.78 48.66 318.12C48.83 327.35 49.34 336.76 50.98 345.85C52.19 352.55 55.5 367.79 65.1 367.14C70.01 366.81 74.9 361.4 78.16 358.25C83.18 353.4 87.58 348 91.7 342.4C92.02 341.96 91.29 341.55 90.97 341.98C86.18 348.48 80.99 354.73 74.91 360.11C73.24 361.59 71.44 363.43 69.46 364.46C65.41 366.57 61.04 365.78 58.21 362.49C55.47 359.3 54.18 355.23 53.1 351.25C50.39 341.27 49.92 330.62 49.58 320.33C49.54 318.96 49.18 317.14 49.5 315.8C49.93 313.95 51.03 313.58 52.83 312.68C54.37 311.91 58.88 309.15 59.81 310.03C60.64 310.81 60.28 314.55 60.35 315.66C60.5 318 60.62 320.34 60.76 322.68C61.18 329.67 60.94 338.62 63.69 345.21C64.72 347.69 66.02 347.98 68.23 346.52C78.98 339.46 81.9 324.28 92.35 317.03C92.79 316.74 92.36 316.02 91.92 316.33Z" fill="#7400B8"/>
<path d="M92.19 316.84L92.6 316.56C92.46 316.65 92.32 316.74 92.19 316.84Z" fill="#F5F5FA"/>
<path d="M92.4 317.2C92.54 317.11 92.68 317.01 92.81 316.92C93.25 316.62 92.84 315.9 92.38 316.2C92.24 316.29 92.1 316.38 91.97 316.48C91.54 316.8 91.96 317.52 92.4 317.2C92.54 317.1 92.67 317.01 92.81 316.92C92.67 316.68 92.52 316.44 92.38 316.2C92.24 316.29 92.1 316.39 91.97 316.48C91.53 316.79 91.95 317.51 92.4 317.2Z" fill="#7400B8"/>
<path d="M92.17 316.86C92.18 316.85 92.19 316.85 92.19 316.85L92.17 316.86Z" fill="#F5F5FA"/>
<path d="M92.38 317.22C92.39 317.22 92.39 317.21 92.4 317.21C92.83 316.89 92.43 316.18 91.97 316.49C91.96 316.49 91.96 316.5 91.95 316.5C91.51 316.8 91.93 317.52 92.38 317.22C92.39 317.22 92.39 317.21 92.4 317.21C92.26 316.97 92.11 316.73 91.97 316.49C91.96 316.5 91.96 316.5 91.95 316.5C91.46 316.73 91.89 317.45 92.38 317.22Z" fill="#7400B8"/>
<path d="M157.92 285.45C157.41 291.92 151.37 321.22 145.78 327.48C139.55 334.46 133.9 327.74 132.77 326.48C129.67 323.01 123.5 312.44 117.95 314.33C114.02 315.67 114.02 315.67 107.98 316.34C102.66 316.92 91.33 314.47 91.33 314.47C91.33 314.47 89.14 322.73 89.24 326.07C89.46 333.29 90.63 340.49 92.72 347.41C92.87 347.9 93.03 348.42 93.41 348.78C93.91 349.26 94.65 349.35 95.34 349.42C103.76 350.2 112.29 349.86 120.61 348.4C121.72 345.52 121.85 340.65 122.47 337.63C122.51 337.86 128.91 349.02 138.42 349.83C145.66 350.45 152.35 345.26 157.46 338.69C162.58 332.12 165.51 323.55 167.71 315.56C170.47 305.57 172.63 295.82 172.9 285.47C167.91 285.46 162.92 285.45 157.92 285.45Z" fill="#EDFFC6"/>
<path d="M157.49 285.45C156.74 293.73 154.59 302.07 152.38 310.06C150.3 317.59 144.74 338 133.6 326.76C129.47 322.6 125.18 312.4 117.84 313.92C112.97 314.93 108.57 316.25 103.46 315.89C99.43 315.61 95.4 314.9 91.45 314.06C91.23 314.01 90.99 314.12 90.93 314.35C88.3 324.36 88.76 333.63 91.27 343.71C92.69 349.44 93.4 349.8 99.24 350.1C106.45 350.47 113.62 349.95 120.73 348.78C120.88 348.76 120.98 348.62 121.03 348.49C121.6 346.7 121.9 344.9 122.16 343.04C122.21 342.65 123.1 337.78 122.17 337.92C122.24 337.91 122.6 338.67 122.67 338.75C124.59 341.28 126.32 343.76 128.81 345.84C135.15 351.15 142.79 351.46 149.65 346.82C158.19 341.04 163.04 331.55 166.19 322.11C170.14 310.31 172.87 297.88 173.35 285.44C173.36 285.21 173.15 285.02 172.93 285.02C167.93 285.02 162.93 285.01 157.94 285.01C157.39 285.01 157.39 285.85 157.94 285.85C161.23 285.85 170.73 284.27 172.44 287.38C173.27 288.89 171.7 295.4 171.49 296.77C171.12 299.28 170.65 301.77 170.12 304.24C168.11 313.65 165.68 323.47 161.18 332.06C156.7 340.61 147.09 352.09 135.94 348.9C130.65 347.39 125.2 342.34 122.87 337.39C122.72 337.07 122.16 337.14 122.09 337.49C121.63 340.1 122.1 345.1 120.6 347.1C118.38 350.05 107.69 349.38 104.13 349.38C102.15 349.38 99.11 349.88 97.31 349.14C93.2 347.46 92.24 344.36 91.44 340.6C90.38 335.62 89.46 330.31 89.7 325.2C89.84 322.23 90.86 319.44 91.27 316.53C91.55 314.5 91.14 314.84 92.9 315.2C98.12 316.26 103.58 317.15 108.91 316.65C111.14 316.44 113.36 316.17 115.52 315.57C120.13 314.28 122.66 315.11 126 318.68C129.15 322.04 131.42 326.69 135.3 329.37C143.58 335.09 148.57 324.52 150.77 318.26C154.42 307.86 157.37 296.44 158.37 285.45C158.39 284.91 157.54 284.91 157.49 285.45Z" fill="#7400B8"/>
<path d="M52.06 311.57C50.71 307.75 50.66 303.51 51.92 299.66C52.7 297.29 54.07 294.96 56.31 293.8C57.27 293.3 58.5 293.07 59.4 293.67C60.22 294.22 60.49 295.29 60.58 296.26C60.97 300.3 59.48 304.31 59.59 308.36C57.16 309.58 54.73 310.79 52.31 312.01" fill="#FCB4EE"/>
<path d="M101.75 283.41C98.18 283.9 95.08 286.66 94.05 290.06C93.02 293.47 94.02 297.35 96.44 299.99C97.82 301.49 99.76 302.94 99.63 304.95C99.46 307.47 96.03 309.1 96.36 311.61C96.7 314.11 100.43 314.81 101.27 317.2C102.59 320.97 95.72 323.88 96.83 327.71C97.44 329.81 100.21 330.71 100.92 332.78C101.69 335.06 99.64 337.22 98.85 339.49C97.77 342.61 99.31 346.27 102.07 348.12C104.84 349.97 108.55 350.13 111.68 348.99C114.34 348.02 116.72 346.1 117.83 343.53C118.94 340.96 118.62 337.73 116.71 335.66C115.19 334.01 112.75 333.04 112.04 330.91C110.94 327.61 114.89 324.39 114.3 320.96C113.63 317.07 107.48 314.84 108.66 311.07C109.27 309.12 111.8 307.27 110.56 305.63C110.17 305.12 109.51 304.89 109.04 304.45C107.49 303 108.73 300.51 109.51 298.55C111.97 292.4 109.62 283.41 101.75 283.41Z" fill="#7400B8"/>
<path d="M290.15 181.45C318.44 181.45 346.73 181.45 375.02 181.45C379.06 181.45 383.1 181.45 387.14 181.45C386.85 181.08 386.56 180.7 386.27 180.33C382.7 193.39 378.08 206.54 375.48 219.8C375.37 220.34 375.25 221.11 374.99 221.61C375.41 220.83 376.22 221.19 375.1 221.04C373.3 220.8 371.28 221.04 369.47 221.04C361.91 221.04 354.34 221.04 346.78 221.04C330.54 221.04 314.29 221.04 298.05 221.04C296.8 221.04 295.21 221.3 293.99 221.04C294.21 221.09 294.81 222.15 294.63 221.2C294.49 220.46 294.28 219.73 294.11 219C292.51 212.29 290.91 205.58 289.31 198.87C285.75 183.95 282.19 169.03 278.63 154.12C278.54 153.74 278.15 153.47 277.76 153.47C271.09 153.47 264.41 153.47 257.74 153.47C256.58 153.47 256.58 155.24 257.74 155.24C261.59 155.24 265.45 155.24 269.3 155.24C271.5 155.24 274.01 155.58 276.18 155.24C276.53 155.19 277.33 155.14 277.69 155.24C277.44 155.17 276.66 154.19 276.97 154.9C279.53 160.79 280.18 168.34 281.66 174.55C285.45 190.42 289.23 206.29 293.02 222.15C293.11 222.53 293.5 222.8 293.89 222.8C321.21 222.8 348.54 222.8 375.86 222.8C376.25 222.8 376.62 222.52 376.73 222.15C380.5 208.36 384.27 194.57 388.03 180.79C388.18 180.23 387.75 179.67 387.16 179.67C358.87 179.67 330.58 179.67 302.29 179.67C298.25 179.67 294.21 179.67 290.17 179.67C288.99 179.67 288.99 181.45 290.15 181.45Z" fill="#7400B8"/>
<path d="M310.05 222.55C323.66 234.15 337.28 245.74 350.89 257.34C351.76 258.08 353.04 256.83 352.16 256.09C338.55 244.49 324.93 232.89 311.32 221.3C310.45 220.55 309.17 221.8 310.05 222.55Z" fill="#7400B8"/>
<path d="M354.16 221.08C340.55 232.68 326.93 244.28 313.32 255.87C312.44 256.62 313.72 257.87 314.59 257.12C328.2 245.52 341.82 233.92 355.43 222.33C356.31 221.58 355.04 220.33 354.16 221.08Z" fill="#7400B8"/>
<path d="M316.35 260.52C316.35 263.6 313.81 266.1 310.69 266.1C307.57 266.1 305.03 263.6 305.03 260.52C305.03 257.44 307.57 254.94 310.69 254.94C313.81 254.94 316.35 257.44 316.35 260.52Z" fill="#7400B8"/>
<path d="M359.75 260.52C359.75 263.6 357.21 266.1 354.09 266.1C350.97 266.1 348.43 263.6 348.43 260.52C348.43 257.44 350.97 254.94 354.09 254.94C357.21 254.94 359.75 257.44 359.75 260.52Z" fill="#7400B8"/>
<path d="M360.18 232.61C365.76 260.51 371.34 288.41 376.92 316.31C385.74 360.41 394.56 404.5 403.38 448.6C405.42 458.82 407.47 469.04 409.51 479.26C409.73 480.38 411.47 479.9 411.24 478.79C405.66 450.89 400.08 422.99 394.5 395.09C385.68 350.99 376.86 306.9 368.04 262.8C366 252.58 363.95 242.36 361.91 232.14C361.7 231.02 359.96 231.5 360.18 232.61Z" fill="#7400B8"/>
<path d="M428.65 232.61C434.23 260.51 439.81 288.41 445.39 316.31C454.21 360.41 463.03 404.5 471.85 448.6C473.89 458.82 475.94 469.04 477.98 479.26C478.2 480.38 479.94 479.9 479.71 478.79C474.13 450.89 468.55 422.99 462.97 395.09C454.15 350.99 445.33 306.9 436.51 262.8C434.47 252.58 432.42 242.36 430.38 232.14C430.16 231.02 428.43 231.5 428.65 232.61Z" fill="#7400B8"/>
<path d="M367.21 264.04C389.94 263.57 412.67 263.11 435.4 262.64C436.56 262.62 436.56 260.84 435.4 260.87C412.67 261.34 389.94 261.8 367.21 262.27C366.05 262.29 366.05 264.06 367.21 264.04Z" fill="#7400B8"/>
<path d="M374.36 300.67C397.09 300.2 419.82 299.74 442.55 299.27C443.71 299.25 443.71 297.47 442.55 297.5C419.82 297.97 397.09 298.43 374.36 298.9C373.21 298.92 373.2 300.69 374.36 300.67Z" fill="#7400B8"/>
<path d="M383.44 346.89C406.17 346.42 428.9 345.96 451.63 345.49C452.79 345.47 452.79 343.69 451.63 343.72C428.9 344.19 406.17 344.65 383.44 345.12C382.28 345.14 382.28 346.91 383.44 346.89Z" fill="#7400B8"/>
<path d="M392.45 389.44C415.18 388.97 437.91 388.51 460.64 388.04C461.8 388.02 461.8 386.24 460.64 386.27C437.91 386.74 415.18 387.2 392.45 387.67C391.29 387.69 391.29 389.46 392.45 389.44Z" fill="#7400B8"/>
<path d="M401.3 431.99C424.03 431.52 446.76 431.06 469.49 430.59C470.65 430.57 470.65 428.79 469.49 428.82C446.76 429.29 424.03 429.75 401.3 430.22C400.15 430.24 400.14 432.01 401.3 431.99Z" fill="#7400B8"/>
<path d="M400 144.07C397.08 152.13 389.5 169.14 377.18 169.14C369.67 169.14 363.64 147.7 363.37 135.78C358.35 138.29 352.76 139.7 347.13 139.87C348.78 152.73 350.66 166.19 358.39 176.68C359.86 178.68 361.53 180.53 363.24 182.34C364.94 184.14 366.71 185.9 368.82 187.21C373.78 190.28 380.17 190.45 385.77 188.77C391.37 187.09 396.3 183.74 400.84 180.1C401.12 179.88 401.41 179.64 401.55 179.32C401.72 178.95 401.68 178.53 401.65 178.12C400.55 166.75 401.57 155.51 400.47 144.14" fill="#58C2DE"/>
<path d="M391.72 246.84C395.69 277.92 398.53 309.19 400.21 340.54C397.4 341.5 394.58 342.46 391.77 343.43C399.92 343.01 402.47 342.89 410.62 342.47C410.39 310.63 414.75 278.52 412.48 246.79" fill="#FCB4EE"/>
<path d="M409.3 246.54C422.72 273.01 431.25 308.78 439.33 337.96C436.32 340.82 436.63 339.96 434.16 343.43C440.84 342.27 442.05 341.68 448.77 338.98C443.15 308.39 441.71 268.85 436.09 238.26C426.64 241.52 417.19 244.78 407.74 248.03" fill="#FCB4EE"/>
<path d="M397.28 126.88C394.48 125.39 393.57 121.52 394.08 118.42C394.58 115.32 396.87 112.65 399.74 111.29C402.61 109.93 405.98 109.8 409.07 110.55C410.54 110.91 411.97 111.46 413.16 112.38C415.56 114.23 417.42 117.66 418.13 120.58C418.77 123.19 418.44 125.52 417.86 128.14C417.28 130.76 415.5 133.26 412.9 134.07C411.09 134.64 409.09 134.33 407.33 133.6C405.58 132.87 404.03 131.76 402.49 130.65C400.75 129.39 399.02 128.14 397.28 126.88Z" fill="#7400B8"/>
<path d="M417.17 125.4C417.48 124.73 418.32 124.47 419.07 124.41C420.77 124.28 422.52 124.85 423.81 125.95C425.1 127.05 425.92 128.67 426.03 130.35C426.08 131.17 425.97 132.01 425.63 132.75C424.66 134.84 422.51 136.55 420.19 136.73C418.9 136.83 417.61 137.23 415.81 136C414.75 135.28 413.72 134.13 413.3 132.93C413.01 132.1 413.05 131.2 413.23 130.34C413.76 127.79 415.64 125.56 418.07 124.56C418.11 124.54 418.15 124.53 418.18 124.51" fill="#7400B8"/>
<path d="M409.82 118.53C410.29 115.89 406.96 114.63 404.25 114.43C401.54 114.23 399.79 114.66 398.4 116.97C397.02 119.28 396.66 122.05 396.71 124.74C396.77 128.11 397.7 131.89 400.65 133.59C404.22 135.64 409.16 133.33 410.91 129.64C412.66 125.96 411.52 122.24 409.82 118.53Z" fill="#FCB4EE"/>
<path d="M405.39 132.44C405.17 134.15 405.19 137.66 404.96 139.36C404.89 139.91 402.69 141.82 402.3 142.15C398.82 145.12 398.01 149.58 396.71 154.1C403.94 154.41 406.04 151.3 413.25 150.73C412.32 147.16 410.85 142.98 409.46 139.57C408.46 137.12 407.87 132.93 407.87 132.93C407.74 132.68 407.52 132.39 407.24 132.45C406.96 132.51 407.22 133.07 407.37 132.83" fill="#FCB4EE"/>
<path d="M396.28 118.01C396.69 119.01 398.65 119.9 399.7 120.21C400.75 120.52 401.85 120.63 402.95 120.7C409.13 121.09 410.64 126.46 411.22 131.24C412.66 129.22 415.71 122.32 413.29 118.32C411.48 115.32 408.97 113.33 405.49 112.7C402 112.06 396.21 112.97 396.28 118.01Z" fill="#7400B8"/>
<path d="M399.39 124.32C399.54 125.62 399.39 126.86 398.93 128.08C398.87 128.23 398.93 128.48 399.06 128.58C399.5 128.92 399.93 129.09 400.5 129.07C401.17 129.05 401.17 128.02 400.5 128.04C400.24 128.08 400.01 128.02 399.8 127.85C399.84 128.02 399.89 128.18 399.93 128.35C400.42 127.04 400.59 125.7 400.43 124.31C400.36 123.67 399.31 123.66 399.39 124.32Z" fill="#7400B8"/>
<path d="M396.87 125.07C397.24 126.05 398.56 126.26 399.07 125.26C399.37 124.67 398.47 124.15 398.17 124.74C398.12 124.85 397.96 125.02 397.87 124.8C397.64 124.18 396.63 124.45 396.87 125.07Z" fill="#7400B8"/>
<path d="M401.2 124.3C400.79 124.48 400.81 124.98 400.98 125.32C401.2 125.74 401.6 126.05 402.06 126.18C403.1 126.48 404.01 125.78 404.38 124.87C404.63 124.26 403.62 123.99 403.37 124.6C403.24 124.91 402.96 125.19 402.6 125.22C402.51 125.23 401.83 125.09 401.89 124.91C401.81 125.01 401.73 125.11 401.65 125.22C401.67 125.21 401.69 125.2 401.71 125.19C402.34 124.93 401.81 124.04 401.2 124.3Z" fill="#7400B8"/>
<path d="M400.15 131.28C402.4 132.05 404.66 131.32 406.09 129.48C406.5 128.95 405.59 128.44 405.19 128.96C404.04 130.45 402.2 130.9 400.43 130.29C399.79 130.07 399.51 131.06 400.15 131.28Z" fill="#7400B8"/>
<path d="M402.99 140.75C402.61 144.18 401.07 150.59 400.28 153.96C402.53 148.65 407.51 145.26 410.19 140.08C415.78 145.48 416.36 152.91 415.96 160.62C415.56 168.32 417.44 170.45 417.44 178.16C411.42 178.16 400.67 178.47 394.7 178.37C393.94 174.03 393.72 170.96 393.78 163.26C393.81 159.07 394.5 154.86 395.82 150.88C397.15 146.9 399.48 143.11 402.99 140.75C402.52 141.7 402.05 142.65 401.59 143.61L402.99 140.75Z" fill="#58C2DE"/>
<path d="M402.43 140.94C401.31 146.2 400.26 151.47 399.28 156.75C399.62 156.75 399.95 156.75 400.29 156.75C399.77 154.55 397.74 149.96 400 148.41C400.21 148.26 400.28 148.07 400.24 147.83C400.07 146.72 399.41 144.71 399.82 143.59C400.28 142.34 401.95 141.95 403.07 141.57C403.7 141.35 403.43 140.36 402.79 140.58C401.54 141.01 400.41 141.64 399.18 142.09C398.96 142.17 398.8 142.35 398.8 142.59C398.78 143.82 398.95 145.02 398.97 146.24C399 147.89 398.76 147.32 397.99 148.56C397.91 148.69 397.71 148.75 397.63 148.9C397.4 149.38 397.61 149.79 397.69 150.3C398.02 152.54 398.77 154.83 399.29 157.04C399.4 157.52 400.2 157.54 400.3 157.04C401.28 151.75 402.33 146.48 403.45 141.23C403.57 140.57 402.56 140.29 402.43 140.94Z" fill="#7400B8"/>
<path d="M400.79 155.82C402.48 149.73 407.05 145.35 410.69 140.37C410.39 140.37 410.09 140.37 409.79 140.37C410.15 140.9 410.7 141.53 410.88 142.15C411.3 143.58 410.7 143.93 409.87 144.82C408.83 145.94 407.33 146.85 406.17 147.86C405.97 148.04 405.97 148.41 406.17 148.59C408.06 150.22 405.94 151.4 404.52 152.68C402.88 154.15 401.17 155.54 399.41 156.87C398.88 157.27 399.4 158.16 399.94 157.76C402.92 155.51 405.72 153.09 408.36 150.46C408.53 150.29 408.55 150.04 408.44 149.84C407.92 148.8 407.54 148.82 407.8 147.83C408.12 146.65 411.44 144.95 412.36 144.29C412.54 144.16 412.68 143.94 412.6 143.71C412.12 142.32 411.53 141.1 410.7 139.87C410.47 139.53 410.03 139.55 409.8 139.87C406.1 144.94 401.51 149.39 399.8 155.57C399.6 156.18 400.61 156.45 400.79 155.82Z" fill="#7400B8"/>
<path d="M394.24 176.65C387.09 201.73 381.94 239.86 383.44 262.72C391.1 266.28 409.29 266.65 417.72 265.78C435.62 263.92 445.01 258.57 452.94 255.28C450.8 228.74 435.41 197.9 417.44 175.69C411.36 175.77 400.33 176.57 394.24 176.65Z" fill="#EDFFC6"/>
<path d="M393.74 176.51C386.02 203.97 381.22 234.18 382.92 262.72C382.93 262.89 383.01 263.09 383.18 263.16C393.43 267.54 406.81 267.35 417.72 266.29C430.47 265.05 441.59 260.62 453.21 255.72C453.36 255.66 453.48 255.44 453.47 255.28C451.7 235.58 444.11 216.65 434.32 199.53C431.72 194.99 428.94 190.56 425.97 186.25C424.52 184.15 423.03 182.07 421.49 180.03C420.59 178.84 419.12 176.03 417.82 175.33C415.86 174.27 410.46 175.43 408.25 175.54C403.59 175.77 398.92 176.05 394.25 176.14C393.58 176.15 393.58 177.18 394.25 177.17C398.12 177.1 401.98 176.89 405.85 176.69C410.57 176.45 415.71 174.99 419.1 178.62C425.4 185.36 430.29 194.37 434.72 202.36C439.62 211.22 443.83 220.48 447.02 230.08C448.42 234.29 449.62 238.58 450.56 242.92C451.33 246.47 453.83 253.22 450.9 255.61C448.72 257.38 444.51 258.44 441.92 259.47C438.26 260.91 434.51 262.12 430.69 263.06C422.62 265.04 414.4 265.81 406.1 265.66C400.93 265.56 385.21 266.34 383.85 260.24C383.15 257.09 383.7 253.14 383.77 249.93C383.87 245.58 384.11 241.24 384.44 236.91C386 216.68 389.26 196.38 394.76 176.81C394.93 176.15 393.92 175.88 393.74 176.51Z" fill="#7400B8"/>
<path d="M357.43 212.49C353.67 211.85 349.97 210.87 346.4 209.57C345.76 210.6 346.39 211.94 347.13 212.9C347.87 213.86 348.79 214.87 348.73 216.08C345.96 215.5 343.18 214.91 340.41 214.33C339.38 214.11 338.27 213.9 337.3 214.31C335.73 214.96 335.2 217.05 335.8 218.63C336.4 220.2 337.81 221.33 339.26 222.23C345.24 225.93 352.88 226.91 359.61 224.82C359.47 220.31 358.64 215.82 357.16 211.55" fill="#FCB4EE"/>
<path d="M348.5 139.77C347.63 136.11 346.5 129.66 344.97 126.22C345.98 125.53 347.37 126.07 348.39 126.75C349.41 127.43 349.26 128.4 350.48 128.27C350.74 125.85 350.2 122.75 349.45 120.05C349.17 119.05 348.9 117.97 349.25 116.99C349.82 115.41 351.91 114.77 353.54 115.27C355.17 115.77 356.39 117.1 357.38 118.47C361.47 124.14 361.27 130.63 361.49 136.87C358.89 137.69 351.92 140.04 348.5 139.77Z" fill="#FCB4EE"/>
<path d="M413.67 144.07C426.52 153.68 431.54 172.23 425.26 186.87C421.19 196.36 413.18 203.71 404.57 209.55C390.84 218.87 374.99 225.13 358.53 227.73C358.24 221.66 357.57 215.6 356.52 209.61C372.15 207.62 386.72 199.24 396.71 187.22C406.7 175.2 412.11 159.72 412.46 144.19" fill="#58C2DE"/>
<path d="M397.18 341.11C394.35 342.06 391.51 343.27 389.16 344.78C391.92 345.84 408.27 344.95 410.81 345C411.07 343.58 411.07 342.12 410.83 340.69C410.51 341.48 409.5 341.71 408.64 341.77C395.96 342.65 397.37 341.14 397.18 341.11Z" fill="#58C2DE"/>
<path d="M436.48 340.07C435.57 340.31 437.08 344.74 448.77 336.65C449.59 337.77 450.11 339.03 450.93 340.15C449.54 341.01 448.08 342.14 446.69 343C445.51 343.73 444.06 344.04 442.78 344.59C438.94 346.24 433.33 346.2 430.39 345.91C430.68 345.3 434.95 340.94 436.48 340.07Z" fill="#58C2DE"/>
</svg>
