<svg width="463" height="522" viewBox="0 0 463 522" fill="none" xmlns="http://www.w3.org/2000/svg">
<path d="M33.05 510.11C33.05 513.76 33.05 517.4 33.05 521.05C33.05 521.92 34.44 521.92 34.44 521.05C34.44 517.4 34.44 513.76 34.44 510.11C34.44 509.24 33.05 509.24 33.05 510.11Z" fill="white"/>
<path d="M39.1 515.06C35.53 515.06 31.97 515.06 28.4 515.06C27.51 515.06 27.51 516.41 28.4 516.41C31.97 516.41 35.53 516.41 39.1 516.41C39.99 516.41 39.99 515.06 39.1 515.06Z" fill="white"/>
<path d="M217.53 1.55C217.53 5.2 217.53 8.84 217.53 12.49C217.53 13.36 218.92 13.36 218.92 12.49C218.92 8.84 218.92 5.2 218.92 1.55C218.91 0.679999 217.53 0.679999 217.53 1.55Z" fill="white"/>
<path d="M223.57 6.5C220 6.5 216.44 6.5 212.87 6.5C211.98 6.5 211.98 7.85 212.87 7.85C216.44 7.85 220 7.85 223.57 7.85C224.46 7.85 224.46 6.5 223.57 6.5Z" fill="white"/>
<path d="M456.24 64.92C456.24 68.57 456.24 72.21 456.24 75.86C456.24 76.73 457.63 76.73 457.63 75.86C457.63 72.21 457.63 68.57 457.63 64.92C457.63 64.05 456.24 64.05 456.24 64.92Z" fill="white"/>
<path d="M462.29 69.87C458.72 69.87 455.16 69.87 451.59 69.87C450.7 69.87 450.7 71.22 451.59 71.22C455.16 71.22 458.72 71.22 462.29 71.22C463.18 71.22 463.18 69.87 462.29 69.87Z" fill="white"/>
<path d="M260.38 60.25C262.51 63.57 264.64 66.89 266.77 70.22C267.11 70.75 267.87 70.75 268.21 70.22C270.34 66.9 272.47 63.58 274.6 60.25C274.12 60.25 273.64 60.25 273.16 60.25C275.29 63.57 277.42 66.89 279.55 70.22C279.89 70.75 280.65 70.75 280.99 70.22C283.12 66.9 285.25 63.58 287.38 60.25C286.9 60.25 286.42 60.25 285.94 60.25C288.07 63.57 290.2 66.89 292.33 70.22C292.67 70.75 293.43 70.75 293.77 70.22C295.9 66.9 298.03 63.58 300.16 60.25C299.68 60.25 299.2 60.25 298.72 60.25C300.85 63.57 302.98 66.89 305.11 70.22C305.45 70.75 306.21 70.75 306.55 70.22C308.68 66.9 310.81 63.58 312.94 60.25C313.51 59.36 312.07 58.54 311.5 59.43C309.37 62.75 307.24 66.08 305.11 69.4C305.59 69.4 306.07 69.4 306.55 69.4C304.42 66.08 302.29 62.76 300.16 59.43C299.82 58.9 299.06 58.9 298.72 59.43C296.59 62.75 294.46 66.08 292.33 69.4C292.81 69.4 293.29 69.4 293.77 69.4C291.64 66.08 289.51 62.76 287.38 59.43C287.04 58.9 286.28 58.9 285.94 59.43C283.81 62.75 281.68 66.08 279.55 69.4C280.03 69.4 280.51 69.4 280.99 69.4C278.86 66.08 276.73 62.76 274.6 59.43C274.26 58.9 273.5 58.9 273.16 59.43C271.03 62.75 268.9 66.08 266.77 69.4C267.25 69.4 267.73 69.4 268.21 69.4C266.08 66.08 263.95 62.76 261.82 59.43C261.25 58.54 259.81 59.36 260.38 60.25Z" fill="white"/>
<path d="M45.24 32.3C45.46 31.77 47.28 23.11 46.47 23.49C47.94 22.79 49.41 22.1 50.88 21.41C51.35 21.19 51.53 20.64 51.41 20.18C50.96 18.42 50.41 16.81 49.69 15.13C49.43 14.52 48.95 14.28 48.26 14.37C47.22 14.5 46.18 14.64 45.14 14.77C42.56 15.1 43.83 14.03 41.97 12.17C41.18 11.38 37.74 9.03 37.85 8.55C38.13 7.3 38.41 6.05 38.69 4.8C38.79 4.35 38.64 3.79 38.16 3.57C36.31 2.75 34.52 2.1 32.55 1.55C32.05 1.41 31.5 1.64 31.24 2.05C30.71 2.89 30.18 3.72 29.65 4.55C28.37 6.56 26.19 5.31 23.53 5.53C22.25 5.63 20.56 6.8 19.85 6C18.97 5.01 18.09 4.02 17.21 3.03C16.86 2.64 16.24 2.66 15.8 2.86C14.04 3.66 12.46 4.52 10.85 5.57C10.45 5.83 10.12 6.32 10.32 6.8C10.69 7.72 11.07 8.64 11.44 9.56C12.34 11.78 11.08 11.19 9.63 13.2C8.96 14.13 7.44 17.62 6.76 17.63C5.34 17.66 3.93 17.68 2.51 17.71C1.99 17.72 1.53 18.03 1.39 18.51C0.849999 20.35 0.630002 22.19 0.490002 24.09C0.450002 24.58 0.87 25 1.34 25.14C2.37 25.45 3.4 25.76 4.42 26.07C6.61 26.73 5.72 27.37 6.21 29.58C6.52 30.99 8.67 33.74 7.98 34.59C7.09 35.68 6.21 36.76 5.32 37.85C4.98 38.26 5.21 38.82 5.5 39.17C6.7 40.59 7.93 41.83 9.34 43.07C9.71 43.39 10.3 43.52 10.75 43.24C11.67 42.67 12.59 42.1 13.52 41.52C15.67 40.18 15.16 41.34 17.58 42.27C18.9 42.78 22.76 43.22 23 44.12C23.36 45.46 23.71 46.8 24.07 48.14C24.19 48.61 24.68 48.94 25.19 48.94C27.22 48.95 29.11 48.8 31.11 48.51C31.65 48.43 31.92 47.9 31.96 47.46C32.06 46.43 32.16 45.4 32.26 44.37C32.47 42.17 33.38 42.89 35.63 41.96C36.85 41.45 39.7 38.83 40.31 39.09C41.62 39.65 42.93 40.22 44.24 40.78C44.68 40.97 45.31 41.01 45.65 40.61C46.91 39.13 47.98 37.67 48.99 36.02C49.24 35.6 49.19 35.04 48.81 34.7C47.52 33.55 46.22 32.4 44.93 31.26C43.84 30.3 42.2 31.83 43.29 32.8C43.8 33.25 44.31 33.7 44.82 34.15C45.35 34.62 45.88 35.09 46.4 35.56C47.24 36 47.12 36.3 46.05 36.47C44.48 39.05 45.86 39.1 43.49 38.08C42.5 37.65 41.51 37.23 40.52 36.8C40.02 36.58 39.54 36.62 39.11 36.97C36.47 39.17 34.34 40.3 30.99 41.32C30.46 41.48 30.19 41.86 30.14 42.37C30.08 43.04 30.01 43.71 29.95 44.38C29.65 47.52 30.48 46.55 27.1 46.79C25.72 46.89 26.28 47.4 25.8 45.61C25.53 44.6 25.26 43.58 24.99 42.57C24.9 42.23 24.56 41.88 24.18 41.81C20.88 41.23 18.16 40.3 15.33 38.55C15 38.35 14.48 38.35 14.16 38.55C13.56 38.92 12.97 39.29 12.37 39.66C11.75 40.04 11.13 40.43 10.51 40.81C9.87 41.48 9.57 41.32 9.62 40.33C7.8 38.75 7.26 39.07 8.65 37.36C9.32 36.54 9.99 35.71 10.66 34.89C10.91 34.59 10.84 34.1 10.66 33.79C9.11 31.16 8.23 28.66 7.91 25.64C7.86 25.13 7.59 24.75 7.06 24.59C6.39 24.39 5.72 24.19 5.06 23.98C2.08 23.08 2.73 23.96 3.14 21.17C3.48 18.87 2.28 19.9 4.61 19.86C5.68 19.84 6.75 19.82 7.83 19.8C8.39 19.79 8.75 19.47 8.95 19C10.19 16.16 11.79 13.97 14.12 11.84C14.39 11.59 14.56 11.13 14.42 10.78C14.18 10.18 13.94 9.59 13.69 8.99C12.98 7.23 12.47 7.18 13.61 6.44C15.6 5.15 15.44 4.43 16.87 6.05C17.54 6.8 18.2 7.55 18.86 8.3C19.11 8.58 19.63 8.68 19.99 8.58C23.26 7.65 26.26 7.45 29.62 7.84C30.02 7.89 30.43 7.6 30.62 7.3C30.96 6.76 31.31 6.22 31.65 5.68C32.01 5.12 32.36 4.56 32.72 4C33 3.14 33.36 3.21 33.78 4.19C36.79 5.02 36.55 3.8 36.04 6.09C35.83 7.04 35.62 7.98 35.41 8.93C35.29 9.44 35.49 9.86 35.94 10.16C38.72 11.97 40.68 13.97 42.42 16.66C42.72 17.12 43.2 17.23 43.73 17.16C44.4 17.07 45.08 16.99 45.75 16.9C46.45 16.81 47.15 16.72 47.85 16.63C48.78 16.32 48.88 16.56 48.15 17.38C49.06 19.49 49.9 19.46 47.86 20.43C46.92 20.88 45.97 21.32 45.03 21.77C44.69 21.93 44.43 22.35 44.46 22.71C44.64 25.89 44.21 28.8 43 31.76C42.46 33.03 44.71 33.59 45.24 32.3Z" fill="white"/>
<path d="M25.87 26.54C23.35 25.8 24.2 22.29 26.83 22.78C29.46 23.27 28.47 27.01 25.87 26.54C24.41 26.28 23.78 28.37 25.25 28.64C27.68 29.07 29.86 27.91 30.59 25.68C31.32 23.47 29.63 21.32 27.44 20.69C25.09 20.02 22.78 21.57 22.1 23.63C21.37 25.84 23.04 28 25.24 28.65C26.69 29.06 27.3 26.96 25.87 26.54Z" fill="white"/>
<path d="M379.08 40.24C379.04 45.41 375.68 50.2 370.64 51.94C365.53 53.71 359.8 52.17 356.33 48.13C352.9 44.13 352.52 38.24 355.28 33.81C358.04 29.38 363.53 27 368.76 28.03C374.69 29.2 379.03 34.32 379.08 40.24C379.09 41.54 381.16 41.54 381.15 40.24C381.11 34.19 377.19 28.76 371.37 26.66C365.57 24.57 358.74 26.35 354.81 31C350.84 35.69 350.24 42.47 353.49 47.7C356.73 52.92 363.09 55.59 369.21 54.42C376.09 53.11 381.1 47.03 381.15 40.24C381.15 38.94 379.08 38.94 379.08 40.24Z" fill="white"/>
<path d="M365.46 49.49V47.21C364.11 47.19 362.72 46.78 361.91 46.22L362.47 44.71C363.31 45.25 364.51 45.68 365.81 45.68C367.46 45.68 368.57 44.76 368.57 43.47C368.57 42.23 367.66 41.46 365.95 40.79C363.58 39.89 362.12 38.85 362.12 36.89C362.12 35.02 363.49 33.6 365.63 33.26V30.98H367.07V33.17C368.46 33.22 369.41 33.58 370.09 33.96L369.51 35.45C369.02 35.18 368.07 34.68 366.59 34.68C364.8 34.68 364.13 35.72 364.13 36.62C364.13 37.79 364.99 38.38 367.01 39.19C369.4 40.14 370.61 41.31 370.61 43.31C370.61 45.09 369.33 46.76 366.94 47.14V49.48H365.46V49.49Z" fill="white"/>
</svg>
